<svg width="36" height="35" viewBox="0 0 36 35" fill="none" xmlns="http://www.w3.org/2000/svg">
<path d="M11.8394 4.35855C13.2925 0.631585 16.2725 0.628097 17.5808 1.09222C23.8583 2.59487 25.5067 15.3789 18.1094 20.3088C10.712 25.2386 0.849772 17.7251 0.874411 13.2468C0.894123 9.66411 3.90575 8.6696 5.40911 8.62018C6.94709 8.75255 10.3863 8.08552 11.8394 4.35855Z" fill="#314C60"/>
<path d="M32.6967 17.0926C29.9543 14.5566 24.5006 16.4 23.6016 18.1952C22.7026 19.9903 24.8478 23.455 27.8573 25.0498C30.265 26.3256 32.921 24.4827 33.9481 23.4018C34.6736 22.3554 35.4391 19.6286 32.6967 17.0926Z" fill="#314C60"/>
<path d="M24.4955 25.7963C21.9341 21.3075 18.0931 22.4334 16.9611 22.8713C14.6798 23.9881 13.9854 28.1857 16.6195 31.4353C20.5791 36.3201 27.774 31.5415 24.4955 25.7963Z" fill="#314C60"/>
<path d="M12.8123 30.0117C13.3823 26.5175 10.9845 24.628 9.69864 24.1328C7.4436 24.1749 4.75285 26.7568 5.61386 30.4376C6.69011 35.0386 12.0998 34.3795 12.8123 30.0117Z" fill="#314C60"/>
<path d="M30.8987 6.94811C27.2465 6.90214 25.5583 9.00291 25.6425 10.1552C25.7268 11.3074 25.6915 14.1627 30.8877 13.8822C36.9558 13.5546 34.2232 6.98996 30.8987 6.94811Z" fill="#314C60"/>
<path d="M11.8394 4.35855C13.2925 0.631585 16.2725 0.628097 17.5808 1.09222C23.8583 2.59487 25.5067 15.3789 18.1094 20.3088C10.712 25.2386 0.849772 17.7251 0.874411 13.2468C0.894123 9.66411 3.90575 8.6696 5.40911 8.62018C6.94709 8.75255 10.3863 8.08552 11.8394 4.35855Z" stroke="#314C60"/>
<path d="M32.6967 17.0926C29.9543 14.5566 24.5006 16.4 23.6016 18.1952C22.7026 19.9903 24.8478 23.455 27.8573 25.0498C30.265 26.3256 32.921 24.4827 33.9481 23.4018C34.6736 22.3554 35.4391 19.6286 32.6967 17.0926Z" stroke="#314C60"/>
<path d="M24.4955 25.7963C21.9341 21.3075 18.0931 22.4334 16.9611 22.8713C14.6798 23.9881 13.9854 28.1857 16.6195 31.4353C20.5791 36.3201 27.774 31.5415 24.4955 25.7963Z" stroke="#314C60"/>
<path d="M12.8123 30.0117C13.3823 26.5175 10.9845 24.628 9.69864 24.1328C7.4436 24.1749 4.75285 26.7568 5.61386 30.4376C6.69011 35.0386 12.0998 34.3795 12.8123 30.0117Z" stroke="#314C60"/>
<path d="M30.8987 6.94811C27.2465 6.90214 25.5583 9.00291 25.6425 10.1552C25.7268 11.3074 25.6915 14.1627 30.8877 13.8822C36.9558 13.5546 34.2232 6.98996 30.8987 6.94811Z" stroke="#314C60"/>
</svg>
