<svg width="357" height="357" viewBox="0 0 357 357" fill="none" xmlns="http://www.w3.org/2000/svg">
<circle cx="178.5" cy="178.5" r="178.5" fill="#B4936E"/>
<mask id="mask0_643_339" style="mask-type:alpha" maskUnits="userSpaceOnUse" x="0" y="0" width="357" height="357">
<circle cx="178.5" cy="178.5" r="178.5" fill="#FEE092"/>
</mask>
<g mask="url(#mask0_643_339)">
</g>
<mask id="mask1_643_339" style="mask-type:alpha" maskUnits="userSpaceOnUse" x="0" y="0" width="357" height="357">
<circle cx="178.5" cy="178.5" r="178.5" fill="#FEE092"/>
</mask>
<g mask="url(#mask1_643_339)">
<circle cx="16.5" cy="366.5" r="16.5" fill="#B4936E"/>
<circle cx="82.5" cy="366.5" r="16.5" fill="#B4936E"/>
<circle cx="148.5" cy="366.5" r="16.5" fill="#B4936E"/>
<circle cx="214.5" cy="366.5" r="16.5" fill="#B4936E"/>
<circle cx="280.5" cy="366.5" r="16.5" fill="#B4936E"/>
<circle cx="346.5" cy="366.5" r="16.5" fill="#B4936E"/>
<circle cx="49.5" cy="333.5" r="16.5" fill="#B4936E"/>
<circle cx="115.5" cy="333.5" r="16.5" fill="#B4936E"/>
<circle cx="181.5" cy="333.5" r="16.5" fill="#B4936E"/>
<circle cx="247.5" cy="333.5" r="16.5" fill="#B4936E"/>
<circle cx="313.5" cy="333.5" r="16.5" fill="#B4936E"/>
<circle cx="16.5" cy="300.5" r="16.5" fill="#B4936E"/>
<circle cx="82.5" cy="300.5" r="16.5" fill="#B4936E"/>
<circle cx="148.5" cy="300.5" r="16.5" fill="#B4936E"/>
<circle cx="214.5" cy="300.5" r="16.5" fill="#B4936E"/>
<circle cx="280.5" cy="300.5" r="16.5" fill="#B4936E"/>
<circle cx="346.5" cy="300.5" r="16.5" fill="#B4936E"/>
<circle cx="49.5" cy="267.5" r="16.5" fill="#B4936E"/>
<circle cx="115.5" cy="267.5" r="16.5" fill="#B4936E"/>
<circle cx="181.5" cy="267.5" r="16.5" fill="#B4936E"/>
<circle cx="247.5" cy="267.5" r="16.5" fill="#B4936E"/>
<circle cx="313.5" cy="267.5" r="16.5" fill="#B4936E"/>
<circle cx="16.5" cy="234.5" r="16.5" fill="#B4936E"/>
<circle cx="82.5" cy="234.5" r="16.5" fill="#B4936E"/>
<circle cx="148.5" cy="234.5" r="16.5" fill="#B4936E"/>
<circle cx="214.5" cy="234.5" r="16.5" fill="#B4936E"/>
<circle cx="280.5" cy="234.5" r="16.5" fill="#B4936E"/>
<circle cx="346.5" cy="234.5" r="16.5" fill="#B4936E"/>
<circle cx="49.5" cy="201.5" r="16.5" fill="#B4936E"/>
<circle cx="115.5" cy="201.5" r="16.5" fill="#B4936E"/>
<circle cx="181.5" cy="201.5" r="16.5" fill="#B4936E"/>
<circle cx="247.5" cy="201.5" r="16.5" fill="#B4936E"/>
<circle cx="313.5" cy="201.5" r="16.5" fill="#B4936E"/>
<circle cx="16.5" cy="168.5" r="16.5" fill="#B4936E"/>
<circle cx="82.5" cy="168.5" r="16.5" fill="#B4936E"/>
<circle cx="148.5" cy="168.5" r="16.5" fill="#B4936E"/>
<circle cx="214.5" cy="168.5" r="16.5" fill="#B4936E"/>
<circle cx="280.5" cy="168.5" r="16.5" fill="#B4936E"/>
<circle cx="346.5" cy="168.5" r="16.5" fill="#B4936E"/>
<circle cx="49.5" cy="135.5" r="16.5" fill="#B4936E"/>
<circle cx="115.5" cy="135.5" r="16.5" fill="#B4936E"/>
<circle cx="181.5" cy="135.5" r="16.5" fill="#B4936E"/>
<circle cx="247.5" cy="135.5" r="16.5" fill="#B4936E"/>
<circle cx="313.5" cy="135.5" r="16.5" fill="#B4936E"/>
<circle cx="16.5" cy="102.5" r="16.5" fill="#B4936E"/>
<circle cx="82.5" cy="102.5" r="16.5" fill="#B4936E"/>
<circle cx="148.5" cy="102.5" r="16.5" fill="#B4936E"/>
<circle cx="214.5" cy="102.5" r="16.5" fill="#B4936E"/>
<circle cx="280.5" cy="102.5" r="16.5" fill="#B4936E"/>
<circle cx="346.5" cy="102.5" r="16.5" fill="#B4936E"/>
<circle cx="49.5" cy="69.5" r="16.5" fill="#B4936E"/>
<circle cx="115.5" cy="69.5" r="16.5" fill="#B4936E"/>
<circle cx="181.5" cy="69.5" r="16.5" fill="#B4936E"/>
<circle cx="247.5" cy="69.5" r="16.5" fill="#B4936E"/>
<circle cx="313.5" cy="69.5" r="16.5" fill="#B4936E"/>
<circle cx="16.5" cy="36.5" r="16.5" fill="#B4936E"/>
<circle cx="82.5" cy="36.5" r="16.5" fill="#B4936E"/>
<circle cx="148.5" cy="36.5" r="16.5" fill="#B4936E"/>
<circle cx="214.5" cy="36.5" r="16.5" fill="#B4936E"/>
<circle cx="280.5" cy="36.5" r="16.5" fill="#B4936E"/>
<circle cx="346.5" cy="36.5" r="16.5" fill="#B4936E"/>
<circle cx="49.5" cy="3.5" r="16.5" fill="#B4936E"/>
<circle cx="115.5" cy="3.5" r="16.5" fill="#B4936E"/>
<circle cx="181.5" cy="3.5" r="16.5" fill="#B4936E"/>
<circle cx="247.5" cy="3.5" r="16.5" fill="#B4936E"/>
<circle cx="313.5" cy="3.5" r="16.5" fill="#B4936E"/>
</g>
<mask id="mask2_643_339" style="mask-type:alpha" maskUnits="userSpaceOnUse" x="0" y="0" width="357" height="357">
<circle cx="178.5" cy="178.5" r="178.5" fill="#FEE092"/>
<mask id="mask3_643_339" style="mask-type:alpha" maskUnits="userSpaceOnUse" x="0" y="0" width="357" height="357">
<circle cx="178.5" cy="178.5" r="178.5" fill="#FEE092"/>
</mask>
<g mask="url(#mask3_643_339)">
<circle cx="16.5" cy="366.5" r="16.5" fill="#FFEEBF"/>
<circle cx="82.5" cy="366.5" r="16.5" fill="#FFEEBF"/>
<circle cx="148.5" cy="366.5" r="16.5" fill="#FFEEBF"/>
<circle cx="214.5" cy="366.5" r="16.5" fill="#FFEEBF"/>
<circle cx="280.5" cy="366.5" r="16.5" fill="#FFEEBF"/>
<circle cx="346.5" cy="366.5" r="16.5" fill="#FFEEBF"/>
<circle cx="49.5" cy="333.5" r="16.5" fill="#FFEEBF"/>
<circle cx="115.5" cy="333.5" r="16.5" fill="#FFEEBF"/>
<circle cx="181.5" cy="333.5" r="16.5" fill="#FFEEBF"/>
<circle cx="247.5" cy="333.5" r="16.5" fill="#FFEEBF"/>
<circle cx="313.5" cy="333.5" r="16.5" fill="#FFEEBF"/>
<circle cx="16.5" cy="300.5" r="16.5" fill="#FFEEBF"/>
<circle cx="82.5" cy="300.5" r="16.5" fill="#FFEEBF"/>
<circle cx="148.5" cy="300.5" r="16.5" fill="#FFEEBF"/>
<circle cx="214.5" cy="300.5" r="16.5" fill="#FFEEBF"/>
<circle cx="280.5" cy="300.5" r="16.5" fill="#FFEEBF"/>
<circle cx="346.5" cy="300.5" r="16.5" fill="#FFEEBF"/>
<circle cx="49.5" cy="267.5" r="16.5" fill="#FFEEBF"/>
<circle cx="115.5" cy="267.5" r="16.5" fill="#FFEEBF"/>
<circle cx="181.5" cy="267.5" r="16.5" fill="#FFEEBF"/>
<circle cx="247.5" cy="267.5" r="16.5" fill="#FFEEBF"/>
<circle cx="313.5" cy="267.5" r="16.5" fill="#FFEEBF"/>
<circle cx="16.5" cy="234.5" r="16.5" fill="#FFEEBF"/>
<circle cx="82.5" cy="234.5" r="16.5" fill="#FFEEBF"/>
<circle cx="148.5" cy="234.5" r="16.5" fill="#FFEEBF"/>
<circle cx="214.5" cy="234.5" r="16.5" fill="#FFEEBF"/>
<circle cx="280.5" cy="234.5" r="16.5" fill="#FFEEBF"/>
<circle cx="346.5" cy="234.5" r="16.5" fill="#FFEEBF"/>
<circle cx="49.5" cy="201.5" r="16.5" fill="#FFEEBF"/>
<circle cx="115.5" cy="201.5" r="16.5" fill="#FFEEBF"/>
<circle cx="181.5" cy="201.5" r="16.5" fill="#FFEEBF"/>
<circle cx="247.5" cy="201.5" r="16.5" fill="#FFEEBF"/>
<circle cx="313.5" cy="201.5" r="16.5" fill="#FFEEBF"/>
<circle cx="16.5" cy="168.5" r="16.5" fill="#FFEEBF"/>
<circle cx="82.5" cy="168.5" r="16.5" fill="#FFEEBF"/>
<circle cx="148.5" cy="168.5" r="16.5" fill="#FFEEBF"/>
<circle cx="214.5" cy="168.5" r="16.5" fill="#FFEEBF"/>
<circle cx="280.5" cy="168.5" r="16.5" fill="#FFEEBF"/>
<circle cx="346.5" cy="168.5" r="16.5" fill="#FFEEBF"/>
<circle cx="49.5" cy="135.5" r="16.5" fill="#FFEEBF"/>
<circle cx="115.5" cy="135.5" r="16.5" fill="#FFEEBF"/>
<circle cx="181.5" cy="135.5" r="16.5" fill="#FFEEBF"/>
<circle cx="247.5" cy="135.5" r="16.5" fill="#FFEEBF"/>
<circle cx="313.5" cy="135.5" r="16.5" fill="#FFEEBF"/>
<circle cx="16.5" cy="102.5" r="16.5" fill="#FFEEBF"/>
<circle cx="82.5" cy="102.5" r="16.5" fill="#FFEEBF"/>
<circle cx="148.5" cy="102.5" r="16.5" fill="#FFEEBF"/>
<circle cx="214.5" cy="102.5" r="16.5" fill="#FFEEBF"/>
<circle cx="280.5" cy="102.5" r="16.5" fill="#FFEEBF"/>
<circle cx="346.5" cy="102.5" r="16.5" fill="#FFEEBF"/>
<circle cx="49.5" cy="69.5" r="16.5" fill="#FFEEBF"/>
<circle cx="115.5" cy="69.5" r="16.5" fill="#FFEEBF"/>
<circle cx="181.5" cy="69.5" r="16.5" fill="#FFEEBF"/>
<circle cx="247.5" cy="69.5" r="16.5" fill="#FFEEBF"/>
<circle cx="313.5" cy="69.5" r="16.5" fill="#FFEEBF"/>
<circle cx="16.5" cy="36.5" r="16.5" fill="#FFEEBF"/>
<circle cx="82.5" cy="36.5" r="16.5" fill="#FFEEBF"/>
<circle cx="148.5" cy="36.5" r="16.5" fill="#FFEEBF"/>
<circle cx="214.5" cy="36.5" r="16.5" fill="#FFEEBF"/>
<circle cx="280.5" cy="36.5" r="16.5" fill="#FFEEBF"/>
<circle cx="346.5" cy="36.5" r="16.5" fill="#FFEEBF"/>
<circle cx="49.5" cy="3.5" r="16.5" fill="#FFEEBF"/>
<circle cx="115.5" cy="3.5" r="16.5" fill="#FFEEBF"/>
<circle cx="181.5" cy="3.5" r="16.5" fill="#FFEEBF"/>
<circle cx="247.5" cy="3.5" r="16.5" fill="#FFEEBF"/>
<circle cx="313.5" cy="3.5" r="16.5" fill="#FFEEBF"/>
</g>
</mask>
<g mask="url(#mask2_643_339)">
<path d="M102.645 304.934L93.4268 276.912L114.444 264.375L129.561 272.856C131.571 301.154 131.306 291.695 129.561 319.314H93.4268C95.1012 312.153 96.5638 308.559 102.645 304.934Z" fill="#F6E196" stroke="#464646" stroke-width="5" stroke-linecap="round" stroke-linejoin="round"/>
<path d="M-124.109 59C-119.632 59.2434 -118.278 60.7614 -116.358 63.7933C-99.4592 59.8925 -84.9072 59.8826 -66.9579 63.7933C-62.5486 60.785 -59.8456 59.5166 -54.0528 59C-28.7905 63.2923 6.40848 130.531 -1.70329 141.961C-7.02959 148.717 -20.4814 151.011 -29.8252 148.659C-29.2888 153.976 -29.146 158.429 -29.7258 161.135C-31.9381 171.459 86.4201 175.515 99.3252 175.515L125.135 176.621C158.892 179.67 169.396 186.472 177.493 208.33C185.59 230.189 180.067 244.096 177.862 282.074C176.99 297.093 175.65 320.42 175.65 320.42H142.096C142.748 314.268 143.685 311.027 150.577 307.147C142.096 291.661 142.096 290.186 133.247 272.119C118.315 277.439 -0.672241 280.298 -16.4437 282.074C-19.4017 301.985 -24.9325 309.728 -27.8739 327.795H-66.9579C-66.7356 320.221 -65.3764 316.797 -58.8462 313.415C-59.2232 304.566 -58.7838 307.369 -58.8462 290.186C-70.2109 288.975 -77.9074 286.046 -83.9272 280.679C-85.4021 308.99 -86.9878 301.029 -87.6061 327.795H-124.109C-122.659 320.474 -120.857 317.149 -114.891 313.415C-114.891 313.415 -123.228 286.52 -127.796 253.683C-131.662 225.896 -124.109 188.788 -124.109 188.788C-124.109 188.788 -138.016 166.509 -143.291 153.023C-143.926 151.399 -144.457 149.832 -144.895 148.306C-148.029 150.784 -152.418 152.414 -158.408 153.023C-170.207 156.341 -173.525 144.911 -175 136.062C-175 106.565 -154.983 72.2047 -124.109 59Z" fill="#F6E196"/>
<path d="M-36.3627 102.877C-36.691 95.48 -45.8712 141.235 -36.3627 145.649C-34.6672 147.008 -32.4025 148.01 -29.8252 148.659M-29.8252 148.659C-20.4814 151.011 -7.02959 148.717 -1.7033 141.961C6.40848 130.531 -28.7905 63.2923 -54.0528 59C-59.8456 59.5166 -62.5486 60.785 -66.9579 63.7933C-84.9072 59.8826 -99.4592 59.8925 -116.358 63.7933C-118.278 60.7614 -119.632 59.2434 -124.109 59C-154.983 72.2047 -175 106.565 -175 136.062C-173.525 144.911 -170.207 156.341 -158.408 153.023C-152.418 152.414 -148.029 150.784 -144.895 148.306M-29.8252 148.659C-29.2889 153.976 -29.1459 158.429 -29.7258 161.135C-31.9381 171.459 86.4201 175.515 99.3252 175.515L125.135 176.621C158.892 179.67 169.396 186.472 177.493 208.33C185.59 230.189 180.067 244.096 177.862 282.074C176.99 297.093 175.65 320.42 175.65 320.42H142.096C142.748 314.268 143.685 311.027 150.577 307.147C142.096 291.661 142.096 290.186 133.247 272.119C118.315 277.439 -0.672248 280.298 -16.4437 282.074C-19.4017 301.985 -24.9325 309.728 -27.8739 327.795H-66.9579C-66.7356 320.221 -65.3764 316.797 -58.8462 313.415C-59.2232 304.566 -58.7838 307.369 -58.8462 290.186C-82.5403 287.662 -90.2894 277.667 -100.143 253.683C-92.2374 272.063 -87.639 277.677 -83.9272 280.679C-85.4021 308.99 -86.9878 301.029 -87.6061 327.795H-124.109C-122.659 320.474 -120.857 317.149 -114.891 313.415C-114.891 313.415 -123.228 286.52 -127.796 253.683C-131.662 225.896 -124.109 188.788 -124.109 188.788C-124.109 188.788 -138.016 166.509 -143.291 153.023C-143.926 151.399 -144.457 149.832 -144.895 148.306M-144.895 148.306C-148.257 136.602 -146.139 127.377 -143.291 114.308C-142.593 111.107 -141.965 110.232 -141.447 110.415" stroke="#464646" stroke-width="5" stroke-linecap="round" stroke-linejoin="round"/>
<path d="M231.482 160.773C214.717 160.672 232.472 204.809 174.238 228.483L180.587 239.822C248.946 232.053 248.247 160.873 231.482 160.773Z" fill="#F6E196"/>
<path d="M172.877 229.012C190.365 216.385 220.35 206.678 226.908 157.666M179.637 239.395C190.333 233.883 202.474 246.442 198.146 244.616M194.104 233.183C204.801 227.67 216.511 231.026 221.084 234.132M212.958 222.152C226.247 222.267 233.855 223.202 243.447 219.247M220.681 209.799C230.044 208.806 237.968 208.619 250.35 201.213M227.613 200.249C239.133 198.049 249.271 190.01 250.192 178.16M234.372 187.019C237.781 177.081 238.313 168.754 235.322 160.039" stroke="#464646" stroke-width="5" stroke-linecap="round"/>
</g>
</svg>
