<svg width="357" height="357" viewBox="0 0 357 357" fill="none" xmlns="http://www.w3.org/2000/svg">
<rect y="-0.000244141" width="357" height="357" fill="#FEE092"/>
<mask id="mask0_665_3" style="mask-type:alpha" maskUnits="userSpaceOnUse" x="0" y="-1" width="357" height="358">
<rect y="-0.000244141" width="357" height="357" fill="#FEE092"/>
</mask>
<g mask="url(#mask0_665_3)">
<circle cx="48.5" cy="365.5" r="16.5" fill="#FFEEBF"/>
<circle cx="114.5" cy="365.5" r="16.5" fill="#FFEEBF"/>
<circle cx="180.5" cy="365.5" r="16.5" fill="#FFEEBF"/>
<circle cx="246.5" cy="365.5" r="16.5" fill="#FFEEBF"/>
<circle cx="312.5" cy="365.5" r="16.5" fill="#FFEEBF"/>
<circle cx="15.5" cy="332.5" r="16.5" fill="#FFEEBF"/>
<circle cx="81.5" cy="332.5" r="16.5" fill="#FFEEBF"/>
<circle cx="147.5" cy="332.5" r="16.5" fill="#FFEEBF"/>
<circle cx="213.5" cy="332.5" r="16.5" fill="#FFEEBF"/>
<circle cx="279.5" cy="332.5" r="16.5" fill="#FFEEBF"/>
<circle cx="345.5" cy="332.5" r="16.5" fill="#FFEEBF"/>
<circle cx="48.5" cy="299.5" r="16.5" fill="#FFEEBF"/>
<circle cx="114.5" cy="299.5" r="16.5" fill="#FFEEBF"/>
<circle cx="180.5" cy="299.5" r="16.5" fill="#FFEEBF"/>
<circle cx="246.5" cy="299.5" r="16.5" fill="#FFEEBF"/>
<circle cx="312.5" cy="299.5" r="16.5" fill="#FFEEBF"/>
<circle cx="15.5" cy="266.5" r="16.5" fill="#FFEEBF"/>
<circle cx="81.5" cy="266.5" r="16.5" fill="#FFEEBF"/>
<circle cx="147.5" cy="266.5" r="16.5" fill="#FFEEBF"/>
<circle cx="213.5" cy="266.5" r="16.5" fill="#FFEEBF"/>
<circle cx="279.5" cy="266.5" r="16.5" fill="#FFEEBF"/>
<circle cx="345.5" cy="266.5" r="16.5" fill="#FFEEBF"/>
<circle cx="48.5" cy="233.5" r="16.5" fill="#FFEEBF"/>
<circle cx="114.5" cy="233.5" r="16.5" fill="#FFEEBF"/>
<circle cx="180.5" cy="233.5" r="16.5" fill="#FFEEBF"/>
<circle cx="246.5" cy="233.5" r="16.5" fill="#FFEEBF"/>
<circle cx="312.5" cy="233.5" r="16.5" fill="#FFEEBF"/>
<circle cx="15.5" cy="200.5" r="16.5" fill="#FFEEBF"/>
<circle cx="81.5" cy="200.5" r="16.5" fill="#FFEEBF"/>
<circle cx="147.5" cy="200.5" r="16.5" fill="#FFEEBF"/>
<circle cx="213.5" cy="200.5" r="16.5" fill="#FFEEBF"/>
<circle cx="279.5" cy="200.5" r="16.5" fill="#FFEEBF"/>
<circle cx="345.5" cy="200.5" r="16.5" fill="#FFEEBF"/>
<circle cx="48.5" cy="167.5" r="16.5" fill="#FFEEBF"/>
<circle cx="114.5" cy="167.5" r="16.5" fill="#FFEEBF"/>
<circle cx="180.5" cy="167.5" r="16.5" fill="#FFEEBF"/>
<circle cx="246.5" cy="167.5" r="16.5" fill="#FFEEBF"/>
<circle cx="312.5" cy="167.5" r="16.5" fill="#FFEEBF"/>
<circle cx="15.5" cy="134.5" r="16.5" fill="#FFEEBF"/>
<circle cx="81.5" cy="134.5" r="16.5" fill="#FFEEBF"/>
<circle cx="147.5" cy="134.5" r="16.5" fill="#FFEEBF"/>
<circle cx="213.5" cy="134.5" r="16.5" fill="#FFEEBF"/>
<circle cx="279.5" cy="134.5" r="16.5" fill="#FFEEBF"/>
<circle cx="345.5" cy="134.5" r="16.5" fill="#FFEEBF"/>
<circle cx="48.5" cy="101.5" r="16.5" fill="#FFEEBF"/>
<circle cx="114.5" cy="101.5" r="16.5" fill="#FFEEBF"/>
<circle cx="180.5" cy="101.5" r="16.5" fill="#FFEEBF"/>
<circle cx="246.5" cy="101.5" r="16.5" fill="#FFEEBF"/>
<circle cx="312.5" cy="101.5" r="16.5" fill="#FFEEBF"/>
<circle cx="15.5" cy="68.4998" r="16.5" fill="#FFEEBF"/>
<circle cx="81.5" cy="68.4998" r="16.5" fill="#FFEEBF"/>
<circle cx="147.5" cy="68.4998" r="16.5" fill="#FFEEBF"/>
<circle cx="213.5" cy="68.4998" r="16.5" fill="#FFEEBF"/>
<circle cx="279.5" cy="68.4998" r="16.5" fill="#FFEEBF"/>
<circle cx="345.5" cy="68.4998" r="16.5" fill="#FFEEBF"/>
<circle cx="48.5" cy="35.4998" r="16.5" fill="#FFEEBF"/>
<circle cx="114.5" cy="35.4998" r="16.5" fill="#FFEEBF"/>
<circle cx="180.5" cy="35.4998" r="16.5" fill="#FFEEBF"/>
<circle cx="246.5" cy="35.4998" r="16.5" fill="#FFEEBF"/>
<circle cx="312.5" cy="35.4998" r="16.5" fill="#FFEEBF"/>
<circle cx="15.5" cy="2.49976" r="16.5" fill="#FFEEBF"/>
<circle cx="81.5" cy="2.49976" r="16.5" fill="#FFEEBF"/>
<circle cx="147.5" cy="2.49976" r="16.5" fill="#FFEEBF"/>
<circle cx="213.5" cy="2.49976" r="16.5" fill="#FFEEBF"/>
<circle cx="279.5" cy="2.49976" r="16.5" fill="#FFEEBF"/>
<circle cx="345.5" cy="2.49976" r="16.5" fill="#FFEEBF"/>
</g>
<path d="M274.901 128.979C266.747 134.803 283.055 148.781 251.604 173.243L257.428 179.068C287.714 160.43 283.055 123.154 274.901 128.979Z" fill="#464646" stroke="#787878" stroke-width="5"/>
<path d="M218.693 289.007L212.748 233.367L238.19 228.611C239.486 246.86 237.176 280.47 236.05 298.281H212.748C213.472 293.603 214.605 291.458 218.693 289.007Z" fill="#464646" stroke="#787878" stroke-width="5" stroke-linecap="round" stroke-linejoin="round"/>
<path d="M124.056 67.6351C135.288 64.8627 138.265 64.9139 149.498 67.6351C154.879 65.092 161.863 69.2995 161.863 69.2995C161.863 69.2995 172.996 78.7654 181.836 89.5108C190.676 100.256 200.932 121.453 192.847 128.824C185.476 132.629 181.836 128.031 177.318 121.849C176.861 121.474 176.271 120.338 175.628 118.735C175.325 125.831 174.094 133.921 175.653 138.493C178.433 146.642 190.378 152.829 197.054 155.613L239.854 166.076C261.016 170.593 268.046 184.773 271.057 192.901C274.068 201.029 270.506 242.811 271.295 273.27C271.546 282.969 269.868 297.999 269.868 297.999H248.231C248.933 293.889 249.888 291.885 253.699 289.439C248.563 275.336 244.688 242.2 240.313 228.069C230.683 231.5 225.992 234.057 182.009 234.057C181.062 251.61 179.816 284.946 176.848 302.323H151.644C152.177 297.677 153.192 295.555 156.875 293.049C155.527 280.799 154.704 250.369 154.664 239.288C147.484 238.523 142.574 236.694 138.728 233.366C139.043 250.979 138.727 285.062 138.328 302.323H114.788C115.821 297.158 116.955 294.924 120.733 293.049C120.733 293.049 113.146 236.924 110.199 215.748C107.706 197.828 107.411 166.076 107.411 166.076L109.313 144.913C109.313 144.913 104.938 136.227 101.942 129.458C98.2752 121.172 100.991 107.954 100.991 102.589C100.991 102.293 100.997 102.014 101.007 101.752L95.7601 123.751C93.9378 137.873 80.3044 133.738 78.4022 126.842C76.7377 116.855 80.2425 105.176 88.8644 89.5108C94.3334 80.7129 108.838 68.824 112.88 67.6351C116.922 66.4462 119.215 66.6542 124.056 67.6351Z" fill="#464646"/>
<path d="M170.734 95.484C169.14 96.4025 172.871 111.863 175.628 118.735M175.628 118.735C176.271 120.338 176.861 121.474 177.318 121.849C181.836 128.031 185.476 132.629 192.847 128.824C200.932 121.453 190.676 100.256 181.836 89.5108C172.996 78.7654 161.863 69.2995 161.863 69.2995C161.863 69.2995 154.879 65.092 149.498 67.6351C138.265 64.9139 135.288 64.8627 124.056 67.6351C119.215 66.6542 116.922 66.4462 112.88 67.6351C108.838 68.824 94.3334 80.7129 88.8644 89.5108C80.2425 105.176 76.7377 116.855 78.4022 126.842C80.3044 133.738 93.9378 137.873 95.7601 123.751L101.942 97.8331C101.942 97.8331 100.991 98.7407 100.991 102.589C100.991 107.954 98.2752 121.172 101.942 129.458C104.938 136.227 109.313 144.913 109.313 144.913L107.411 166.076C107.411 166.076 107.706 197.828 110.199 215.748C113.146 236.924 120.733 293.049 120.733 293.049C116.955 294.924 115.821 297.158 114.788 302.323H138.328C138.727 285.062 139.043 250.979 138.728 233.366C134.85 229.496 131.39 224.882 128.033 215.748C134.387 231.215 139.384 237.661 154.664 239.288C154.704 250.369 155.527 280.799 156.875 293.049C153.192 295.555 152.177 297.677 151.644 302.323H176.848C179.816 284.946 181.062 251.61 182.009 234.057C225.992 234.057 230.683 231.5 240.313 228.069C244.688 242.2 248.563 275.336 253.699 289.439C249.888 291.885 248.933 293.889 248.231 297.999H269.868C269.868 297.999 271.546 282.969 271.295 273.27C270.506 242.811 274.068 201.029 271.057 192.901C268.046 184.773 261.016 170.593 239.854 166.076L197.054 155.613C190.378 152.829 178.433 146.642 175.653 138.493C174.094 133.921 175.325 125.831 175.628 118.735Z" stroke="#787878" stroke-width="5" stroke-linecap="round" stroke-linejoin="round"/>
<path d="M137.179 120.772C135.26 122.555 132.29 122.555 130.371 120.772L129.98 120.409C126.652 117.316 128.841 111.746 133.384 111.746H134.166C138.709 111.746 140.897 117.316 137.569 120.409L137.179 120.772Z" fill="#787878"/>
<path d="M134.604 148.313C131.307 148.353 127.495 143.663 127.495 143.663C127.495 143.663 134.057 130.642 134.057 122.458C134.422 132.874 141.531 143.663 141.531 143.663C141.531 143.663 137.842 148.274 134.604 148.313Z" fill="#A54F4F" stroke="#787878" stroke-width="5" stroke-linecap="round" stroke-linejoin="round"/>
<path d="M116.414 139.079C116.414 139.079 121.074 143.881 124.902 143.881C129.617 143.881 133.955 123.197 133.955 123.197C133.955 123.197 137.35 143.881 143.197 143.881C147.089 143.881 151.873 139.079 151.873 139.079" stroke="#787878" stroke-width="5" stroke-linecap="round" stroke-linejoin="round"/>
<circle r="5.17116" transform="matrix(1 0 0 -1 118.63 111.377)" fill="#787878"/>
<circle r="5.17116" transform="matrix(1 0 0 -1 151.874 111.377)" fill="#787878"/>
</svg>
