<svg width="210" height="183" viewBox="0 0 210 183" fill="none" xmlns="http://www.w3.org/2000/svg">
<path d="M118.99 70.9766L121.796 80.3048H130.878L123.53 86.07L126.337 95.3983L118.99 89.6331L111.642 95.3983L114.449 86.07L107.101 80.3048H116.183L118.99 70.9766Z" fill="white"/>
<circle cx="167.99" cy="75.4766" r="2.5" fill="white"/>
<circle cx="206.99" cy="85.4766" r="2.5" fill="white"/>
<circle cx="44.4895" cy="112.977" r="2" fill="white"/>
<circle cx="32.4895" cy="149.977" r="2" fill="white"/>
<circle cx="121.99" cy="16.4766" r="2.5" fill="white"/>
<line x1="32.0159" y1="149.816" x2="44.4635" y2="113.026" stroke="white"/>
<line x1="45.3126" y1="112.509" x2="119.313" y2="84.5089" stroke="white"/>
<line x1="119.409" y1="83.4831" x2="168.409" y2="75.4831" stroke="white"/>
<line x1="168.617" y1="75.493" x2="206.617" y2="85.493" stroke="white"/>
<line x1="121.989" y1="15.9924" x2="119.989" y2="78.9924" stroke="white"/>
<line x1="121.313" y1="14.5089" x2="158.313" y2="0.50892" stroke="white"/>
<line x1="158.843" y1="1.33012" x2="121.843" y2="38.3301" stroke="white"/>
<circle cx="122.49" cy="37.9766" r="2" fill="white"/>
<circle cx="14.4895" cy="96.9766" r="2" fill="white"/>
<line x1="14.7131" y1="97.5293" x2="44.7131" y2="112.529" stroke="white"/>
<circle cx="2.4895" cy="176.977" r="2" fill="white"/>
<line x1="32.8233" y1="150.349" x2="3.82327" y2="176.349" stroke="white"/>
<circle cx="115" cy="179" r="4" fill="white"/>
<circle cx="49.5" cy="22.5" r="3.5" fill="white"/>
</svg>
