<svg width="357" height="359" viewBox="0 0 357 359" fill="none" xmlns="http://www.w3.org/2000/svg">
<rect width="357" height="357" fill="#FEE092"/>
<mask id="mask0_665_4" style="mask-type:alpha" maskUnits="userSpaceOnUse" x="0" y="2" width="357" height="357">
<rect y="2" width="357" height="357" fill="#FEE092"/>
</mask>
<g mask="url(#mask0_665_4)">
<circle cx="48.5" cy="367.5" r="16.5" fill="#FFEEBF"/>
<circle cx="114.5" cy="367.5" r="16.5" fill="#FFEEBF"/>
<circle cx="180.5" cy="367.5" r="16.5" fill="#FFEEBF"/>
<circle cx="246.5" cy="367.5" r="16.5" fill="#FFEEBF"/>
<circle cx="312.5" cy="367.5" r="16.5" fill="#FFEEBF"/>
<circle cx="15.5" cy="334.5" r="16.5" fill="#FFEEBF"/>
<circle cx="81.5" cy="334.5" r="16.5" fill="#FFEEBF"/>
<circle cx="147.5" cy="334.5" r="16.5" fill="#FFEEBF"/>
<circle cx="213.5" cy="334.5" r="16.5" fill="#FFEEBF"/>
<circle cx="279.5" cy="334.5" r="16.5" fill="#FFEEBF"/>
<circle cx="345.5" cy="334.5" r="16.5" fill="#FFEEBF"/>
<circle cx="48.5" cy="301.5" r="16.5" fill="#FFEEBF"/>
<circle cx="114.5" cy="301.5" r="16.5" fill="#FFEEBF"/>
<circle cx="180.5" cy="301.5" r="16.5" fill="#FFEEBF"/>
<circle cx="246.5" cy="301.5" r="16.5" fill="#FFEEBF"/>
<circle cx="312.5" cy="301.5" r="16.5" fill="#FFEEBF"/>
<circle cx="15.5" cy="268.5" r="16.5" fill="#FFEEBF"/>
<circle cx="81.5" cy="268.5" r="16.5" fill="#FFEEBF"/>
<circle cx="147.5" cy="268.5" r="16.5" fill="#FFEEBF"/>
<circle cx="213.5" cy="268.5" r="16.5" fill="#FFEEBF"/>
<circle cx="279.5" cy="268.5" r="16.5" fill="#FFEEBF"/>
<circle cx="345.5" cy="268.5" r="16.5" fill="#FFEEBF"/>
<circle cx="48.5" cy="235.5" r="16.5" fill="#FFEEBF"/>
<circle cx="114.5" cy="235.5" r="16.5" fill="#FFEEBF"/>
<circle cx="180.5" cy="235.5" r="16.5" fill="#FFEEBF"/>
<circle cx="246.5" cy="235.5" r="16.5" fill="#FFEEBF"/>
<circle cx="312.5" cy="235.5" r="16.5" fill="#FFEEBF"/>
<circle cx="15.5" cy="202.5" r="16.5" fill="#FFEEBF"/>
<circle cx="81.5" cy="202.5" r="16.5" fill="#FFEEBF"/>
<circle cx="147.5" cy="202.5" r="16.5" fill="#FFEEBF"/>
<circle cx="213.5" cy="202.5" r="16.5" fill="#FFEEBF"/>
<circle cx="279.5" cy="202.5" r="16.5" fill="#FFEEBF"/>
<circle cx="345.5" cy="202.5" r="16.5" fill="#FFEEBF"/>
<circle cx="48.5" cy="169.5" r="16.5" fill="#FFEEBF"/>
<circle cx="114.5" cy="169.5" r="16.5" fill="#FFEEBF"/>
<circle cx="180.5" cy="169.5" r="16.5" fill="#FFEEBF"/>
<circle cx="246.5" cy="169.5" r="16.5" fill="#FFEEBF"/>
<circle cx="312.5" cy="169.5" r="16.5" fill="#FFEEBF"/>
<circle cx="15.5" cy="136.5" r="16.5" fill="#FFEEBF"/>
<circle cx="81.5" cy="136.5" r="16.5" fill="#FFEEBF"/>
<circle cx="147.5" cy="136.5" r="16.5" fill="#FFEEBF"/>
<circle cx="213.5" cy="136.5" r="16.5" fill="#FFEEBF"/>
<circle cx="279.5" cy="136.5" r="16.5" fill="#FFEEBF"/>
<circle cx="345.5" cy="136.5" r="16.5" fill="#FFEEBF"/>
<circle cx="48.5" cy="103.5" r="16.5" fill="#FFEEBF"/>
<circle cx="114.5" cy="103.5" r="16.5" fill="#FFEEBF"/>
<circle cx="180.5" cy="103.5" r="16.5" fill="#FFEEBF"/>
<circle cx="246.5" cy="103.5" r="16.5" fill="#FFEEBF"/>
<circle cx="312.5" cy="103.5" r="16.5" fill="#FFEEBF"/>
<circle cx="15.5" cy="70.5" r="16.5" fill="#FFEEBF"/>
<circle cx="81.5" cy="70.5" r="16.5" fill="#FFEEBF"/>
<circle cx="147.5" cy="70.5" r="16.5" fill="#FFEEBF"/>
<circle cx="213.5" cy="70.5" r="16.5" fill="#FFEEBF"/>
<circle cx="279.5" cy="70.5" r="16.5" fill="#FFEEBF"/>
<circle cx="345.5" cy="70.5" r="16.5" fill="#FFEEBF"/>
<circle cx="48.5" cy="37.5" r="16.5" fill="#FFEEBF"/>
<circle cx="114.5" cy="37.5" r="16.5" fill="#FFEEBF"/>
<circle cx="180.5" cy="37.5" r="16.5" fill="#FFEEBF"/>
<circle cx="246.5" cy="37.5" r="16.5" fill="#FFEEBF"/>
<circle cx="312.5" cy="37.5" r="16.5" fill="#FFEEBF"/>
<circle cx="15.5" cy="4.5" r="16.5" fill="#FFEEBF"/>
<circle cx="81.5" cy="4.5" r="16.5" fill="#FFEEBF"/>
<circle cx="147.5" cy="4.5" r="16.5" fill="#FFEEBF"/>
<circle cx="213.5" cy="4.5" r="16.5" fill="#FFEEBF"/>
<circle cx="279.5" cy="4.5" r="16.5" fill="#FFEEBF"/>
<circle cx="345.5" cy="4.5" r="16.5" fill="#FFEEBF"/>
</g>
<path d="M258.648 183.212C251.865 179.331 248.807 190.186 238.921 190.155L241.21 198.562C251.37 200.655 265.431 187.092 258.648 183.212Z" fill="#F0BF75"/>
<path d="M107.165 100.76L122.123 110.439C133.878 108.562 139.474 108.883 148.74 110.439L164.133 99C167.213 105.379 169.488 115.37 169.488 115.37C169.488 117.258 177.194 118.138 181.011 133.756C182.438 139.592 183.871 144.754 186.071 148.494C189.047 153.553 192.67 157.293 194.87 159.932L205.428 168.071C223.906 172.691 233.853 174.451 239.964 190.949C244.795 203.989 247.663 225.704 236.509 248.581V256.5H214.292C215.149 252.761 215.686 250.784 219.351 248.581C213.347 245.502 217.527 248.581 208.948 242.422C200.04 245.597 195.245 249.241 184.971 246.602C183.651 252.101 184.971 246.602 179.536 261.56H156.219C156.392 257.455 157.197 255.466 161.058 252.981C160.739 251.02 160.561 250.17 160.467 249.908C160.625 253.171 160.201 249.162 160.467 249.908C160.45 249.556 160.426 249.118 160.394 248.581C153.253 247.821 148.412 248.842 144.612 248.194C144.4 250.868 144.092 253.276 143.9 261.56H122.123C123.049 256.879 124.384 255.141 127.622 252.981C127.622 252.981 110.595 237.143 105.121 220.205C100.174 204.899 100.941 190.509 100.941 181.71C100.941 181.71 101.11 162.525 100.941 159.932C100.282 149.814 100.247 144.87 100.941 136.175C101.369 130.813 104.745 122.977 104.745 122.977L107.165 100.76Z" fill="#F0BF75"/>
<path d="M193.798 248.166L189.955 236.043L206.62 221.25L210.751 230.29C211.983 246.059 211.368 240.788 210.298 256.179H188.146C188.931 252.258 189.862 250.332 193.798 248.166Z" fill="#F0BF75"/>
<path d="M237.39 249.021C236.869 257.982 235.19 256.94 235.19 256.94H215.172C216.03 253.201 216.566 251.224 220.232 249.021M181.672 255.181C181.672 256.28 181.452 254.961 180.417 262H157.1C157.273 257.895 158.078 255.906 161.939 253.421M144.781 254.081C144.781 262 145.15 246.032 144.781 262H123.004C123.929 257.319 125.265 255.581 128.503 253.421M105.626 123.417L108.046 101.2L123.004 110.879C134.759 109.002 140.355 109.323 149.621 110.879L165.014 99.4399C168.093 105.819 170.369 115.81 170.369 115.81" stroke="#464646" stroke-width="5" stroke-linecap="round" stroke-linejoin="round"/>
<path d="M192.51 248.802C188.68 251.121 187.774 253.183 187.011 257.38H208.568C208.568 252.761 208.568 250.121 208.568 247.482" stroke="#464646" stroke-width="5" stroke-linecap="round" stroke-linejoin="round"/>
<path d="M104.9 126.057C103.58 127.377 102.573 128.438 98.9594 128.037" stroke="#464646" stroke-width="4" stroke-linecap="round"/>
<path d="M173.291 119.82C174.764 120.191 176.328 119.763 177.284 119.235" stroke="#464646" stroke-width="4" stroke-linecap="round"/>
<path d="M102.923 169.832C101.603 171.152 99.8427 171.812 98.0823 172.032" stroke="#464646" stroke-width="4" stroke-linecap="round"/>
<path d="M191.815 158.985C193.33 158.613 194.678 158.758 196.273 157.812" stroke="#464646" stroke-width="4" stroke-linecap="round"/>
<path d="M211.08 171.946C212.687 170.931 213.338 170.172 214.143 168.501" stroke="#464646" stroke-width="4" stroke-linecap="round"/>
<path d="M105.682 210.165C104.342 213.899 102.928 214.947 101.161 216.258" stroke="#464646" stroke-width="4" stroke-linecap="round"/>
<path d="M104.659 132.161C101.782 134.892 100.048 135.192 97.8796 135.567" stroke="#464646" stroke-width="4" stroke-linecap="round"/>
<path d="M176.24 123.464C179.152 125.649 180.634 125.648 182.487 125.646" stroke="#464646" stroke-width="4" stroke-linecap="round"/>
<path d="M103.158 175.422C100.141 177.998 98.3934 178.206 96.2085 178.467" stroke="#464646" stroke-width="4" stroke-linecap="round"/>
<path d="M194.074 163.224C197.662 162.866 198.74 161.856 200.087 160.592" stroke="#464646" stroke-width="4" stroke-linecap="round"/>
<path d="M214.668 173.791C217.458 171.506 217.748 172.47 219.509 170.71" stroke="#464646" stroke-width="4" stroke-linecap="round"/>
<path d="M107.651 215.378C106.44 218.226 106.44 218.226 104.46 220.647" stroke="#464646" stroke-width="4" stroke-linecap="round"/>
<path d="M104.021 138.924C101.205 140.856 99.8163 141.025 98.08 141.236" stroke="#464646" stroke-width="4" stroke-linecap="round"/>
<path d="M178.139 129.976C180.839 131.389 182.011 131.318 183.476 131.229" stroke="#464646" stroke-width="4" stroke-linecap="round"/>
<path d="M233.542 187.403C236.554 187.859 237.64 187.411 238.996 186.85" stroke="#464646" stroke-width="4" stroke-linecap="round"/>
<path d="M102.66 180.916C99.8201 183.685 99.58 183.776 98.0805 184.774" stroke="#464646" stroke-width="4" stroke-linecap="round"/>
<path d="M198.046 166.139C201.695 166.079 201.03 166.139 203.463 165.655" stroke="#464646" stroke-width="4" stroke-linecap="round"/>
<path d="M220.231 174.454C223.236 172.384 222.588 173.13 224.128 171.81" stroke="#464646" stroke-width="4" stroke-linecap="round"/>
<path d="M113.325 230.218C111.607 233.793 110.092 234.69 108.199 235.811" stroke="#464646" stroke-width="4" stroke-linecap="round"/>
<path d="M103.362 144.755C99.8646 146.278 96.807 146.601 95.0002 146.735" stroke="#464646" stroke-width="4" stroke-linecap="round"/>
<path d="M179.866 135.573C183.041 136.47 181.925 135.75 183.433 135.573" stroke="#464646" stroke-width="4" stroke-linecap="round"/>
<path d="M240.556 224.403C243.734 225.288 246.304 225.075 247.81 224.893" stroke="#464646" stroke-width="4" stroke-linecap="round"/>
<path d="M103.763 187.187C100.768 189.782 99.2976 190.265 97.4592 190.869" stroke="#464646" stroke-width="4" stroke-linecap="round"/>
<path d="M117.272 236.625C115.839 240.324 114.399 241.336 112.599 242.602" stroke="#464646" stroke-width="4" stroke-linecap="round"/>
<path d="M135.697 248.802C136.357 251.222 136.357 251.222 137.089 253.202" stroke="#464646" stroke-width="4" stroke-linecap="round"/>
<path d="M104.14 150.595C101.132 153.181 99.3845 153.395 97.2005 153.663" stroke="#464646" stroke-width="4" stroke-linecap="round"/>
<path d="M180.416 141.424C183.406 143.444 184.881 143.357 186.725 143.247" stroke="#464646" stroke-width="4" stroke-linecap="round"/>
<path d="M242 218.394C245.485 219.33 246.851 218.767 248.559 218.063" stroke="#464646" stroke-width="4" stroke-linecap="round"/>
<path d="M239.304 228.739C242.301 230.748 243.776 230.655 245.619 230.539" stroke="#464646" stroke-width="4" stroke-linecap="round"/>
<path d="M103.608 193.753C101.126 196.848 101.058 196.513 98.9605 197.178" stroke="#464646" stroke-width="4" stroke-linecap="round"/>
<path d="M108.877 220.672C107.156 224.246 107.015 223.936 105.121 225.056" stroke="#464646" stroke-width="4" stroke-linecap="round"/>
<path d="M120.452 242.729C119.642 246.608 118.663 247.871 117.44 249.448" stroke="#464646" stroke-width="4" stroke-linecap="round"/>
<path d="M142.133 249.016C142.392 252.971 142.133 252.322 142.133 254.302" stroke="#464646" stroke-width="4" stroke-linecap="round"/>
<path d="M155.824 245.942C156.705 249.806 156.279 249.161 155.825 251.105" stroke="#464646" stroke-width="4" stroke-linecap="round"/>
<path d="M179.881 250.341C180.948 254.158 180.491 253.535 180.132 255.498" stroke="#464646" stroke-width="4" stroke-linecap="round"/>
<path d="M214.541 243.098C216.276 246.662 215.714 246.13 215.713 248.127" stroke="#464646" stroke-width="4" stroke-linecap="round"/>
<path d="M231.752 244.425C232.485 246.162 232.265 246.602 233.145 248.583" stroke="#464646" stroke-width="4" stroke-linecap="round"/>
<path d="M228.428 179.763C230.975 176.727 230.719 177.456 232.542 176.643" stroke="#464646" stroke-width="4" stroke-linecap="round"/>
<path d="M102.204 156.362C99.7164 159.452 98.0373 159.98 95.9384 160.64" stroke="#464646" stroke-width="4" stroke-linecap="round"/>
<path d="M183.174 146.742C185.84 149.344 187.324 149.575 189.177 149.865" stroke="#464646" stroke-width="4" stroke-linecap="round"/>
<path d="M242 206.331C245.644 207.102 247.021 206.504 248.742 205.757" stroke="#464646" stroke-width="4" stroke-linecap="round"/>
<path d="M104.238 200.188C101.381 202.805 100.59 202.921 98.5529 203.409" stroke="#464646" stroke-width="4" stroke-linecap="round"/>
<path d="M110.71 226.857C108.633 229.541 107.933 229.828 106.17 230.71" stroke="#464646" stroke-width="4" stroke-linecap="round"/>
<path d="M124.474 248.016C124.286 250.301 123.241 251.13 121.935 252.167" stroke="#464646" stroke-width="4" stroke-linecap="round"/>
<path d="M146.785 247.262C147.216 249.514 146.431 250.593 145.451 251.942" stroke="#464646" stroke-width="4" stroke-linecap="round"/>
<path d="M170.501 252.541C171.042 254.77 170.311 255.885 169.397 257.28" stroke="#464646" stroke-width="4" stroke-linecap="round"/>
<path d="M202.19 241.485C203.122 243.581 202.603 244.81 201.954 246.346" stroke="#464646" stroke-width="4" stroke-linecap="round"/>
<path d="M160.71 249.021C161.492 251.178 160.888 252.367 160.133 253.854" stroke="#464646" stroke-width="4" stroke-linecap="round"/>
<path d="M192.587 243.81C193.743 245.791 193.362 247.069 192.885 248.667" stroke="#464646" stroke-width="4" stroke-linecap="round"/>
<path d="M185.291 246.821C186.177 248.937 185.631 250.154 184.95 251.676" stroke="#464646" stroke-width="4" stroke-linecap="round"/>
<path d="M217.586 244.621C218.836 246.544 218.518 247.839 218.12 249.458" stroke="#464646" stroke-width="4" stroke-linecap="round"/>
<path d="M238.332 239.754C240.51 239.034 241.681 239.672 243.146 240.469" stroke="#464646" stroke-width="4" stroke-linecap="round"/>
<path d="M103.184 162.9C100.483 165.805 98.7702 166.212 96.6297 166.722" stroke="#464646" stroke-width="4" stroke-linecap="round"/>
<path d="M187.153 153.485C190.587 155.175 192.114 154.983 194.023 154.744" stroke="#464646" stroke-width="4" stroke-linecap="round"/>
<path d="M204.154 169.946C207.949 169.454 209.115 168.448 210.572 167.192" stroke="#464646" stroke-width="4" stroke-linecap="round"/>
<path d="M104.023 205.787C102.922 208.107 102.482 209.207 99.8418 211.188" stroke="#464646" stroke-width="4" stroke-linecap="round"/>
<path d="M132.078 249.32C130.738 253.054 131.298 252.102 130.638 254.082" stroke="#464646" stroke-width="4" stroke-linecap="round"/>
<path d="M151.096 244.402C150.805 248.358 150.656 249.023 151.756 250.783" stroke="#464646" stroke-width="4" stroke-linecap="round"/>
<path d="M175.231 248.167C175.134 252.132 175.017 252.804 176.202 254.508" stroke="#464646" stroke-width="4" stroke-linecap="round"/>
<path d="M207.131 239.309C207.747 243.227 207.752 243.909 209.223 245.373" stroke="#464646" stroke-width="4" stroke-linecap="round"/>
<path d="M227.142 245.662C227.646 247.702 227.646 247.262 228.086 249.462" stroke="#464646" stroke-width="4" stroke-linecap="round"/>
<path d="M230.284 182.589C233.203 182.589 234.083 181.355 236.724 181.355" stroke="#464646" stroke-width="4" stroke-linecap="round"/>
<path d="M164.601 249.212C164.94 253.164 164.601 254.207 165.77 256.407" stroke="#464646" stroke-width="4" stroke-linecap="round"/>
<path d="M196.149 241.662C197.191 245.489 197.045 246.575 198.59 248.531" stroke="#464646" stroke-width="4" stroke-linecap="round"/>
<path d="M188.967 243.278C189.497 247.21 189.21 248.267 190.484 250.408" stroke="#464646" stroke-width="4" stroke-linecap="round"/>
<path d="M221.151 242.029C222.379 245.801 222.286 246.893 223.924 248.771" stroke="#464646" stroke-width="4" stroke-linecap="round"/>
<path d="M236.733 235.644C240.694 235.418 241.726 235.786 243.959 234.681" stroke="#464646" stroke-width="4" stroke-linecap="round"/>
<path d="M236.11 242.029C237.546 245.283 238.328 245.606 239.966 247.483" stroke="#464646" stroke-width="4" stroke-linecap="round"/>
<path d="M243.015 212.727C245.865 212.63 245.695 212.632 248.197 212" stroke="#464646" stroke-width="4" stroke-linecap="round"/>
<path d="M224.437 177.165C226.597 175.302 226.327 175.99 227.867 174.45" stroke="#464646" stroke-width="4" stroke-linecap="round"/>
<path d="M142.188 154.938C140.904 158.646 135.661 158.646 134.376 154.938V154.938C133.446 152.253 135.44 149.451 138.282 149.451V149.451C141.124 149.451 143.119 152.253 142.188 154.938V154.938Z" fill="#464646"/>
<path d="M127.107 159.509C127.107 159.509 130.047 161.664 132.457 161.741C135.071 161.825 138.045 159.509 138.045 159.509C138.045 159.509 141.495 161.758 143.989 161.741C146.442 161.725 149.457 159.509 149.457 159.509" stroke="#464646" stroke-width="3" stroke-linecap="round" stroke-linejoin="round"/>
<circle r="3.54348" transform="matrix(1 0 0 -1 125.474 143.648)" fill="#464646"/>
<circle r="3.54348" transform="matrix(1 0 0 -1 151.696 143.648)" fill="#464646"/>
<path d="M239.015 189.988C246.382 188.65 252.442 184.614 255.352 179.527M241.724 200.99C243.663 200.749 245.117 199.78 249.479 200.025M249.917 195.324C251.856 195.082 255.539 194.939 258.593 193.535M255.687 189.172C257.336 187.864 259.421 185.005 259.762 182.049" stroke="#464646" stroke-width="5" stroke-linecap="round"/>
</svg>
