<svg width="357" height="357" viewBox="0 0 357 357" fill="none" xmlns="http://www.w3.org/2000/svg">
<rect width="357" height="357" fill="#FEE092"/>
<mask id="mask0_651_2226" style="mask-type:alpha" maskUnits="userSpaceOnUse" x="0" y="0" width="357" height="357">
<rect width="357" height="357" fill="#FEE092"/>
</mask>
<g mask="url(#mask0_651_2226)">
<circle cx="48.5" cy="365.5" r="16.5" fill="#FFEEBF"/>
<circle cx="114.5" cy="365.5" r="16.5" fill="#FFEEBF"/>
<circle cx="180.5" cy="365.5" r="16.5" fill="#FFEEBF"/>
<circle cx="246.5" cy="365.5" r="16.5" fill="#FFEEBF"/>
<circle cx="312.5" cy="365.5" r="16.5" fill="#FFEEBF"/>
<circle cx="15.5" cy="332.5" r="16.5" fill="#FFEEBF"/>
<circle cx="81.5" cy="332.5" r="16.5" fill="#FFEEBF"/>
<circle cx="147.5" cy="332.5" r="16.5" fill="#FFEEBF"/>
<circle cx="213.5" cy="332.5" r="16.5" fill="#FFEEBF"/>
<circle cx="279.5" cy="332.5" r="16.5" fill="#FFEEBF"/>
<circle cx="345.5" cy="332.5" r="16.5" fill="#FFEEBF"/>
<circle cx="48.5" cy="299.5" r="16.5" fill="#FFEEBF"/>
<circle cx="114.5" cy="299.5" r="16.5" fill="#FFEEBF"/>
<circle cx="180.5" cy="299.5" r="16.5" fill="#FFEEBF"/>
<circle cx="246.5" cy="299.5" r="16.5" fill="#FFEEBF"/>
<circle cx="312.5" cy="299.5" r="16.5" fill="#FFEEBF"/>
<circle cx="15.5" cy="266.5" r="16.5" fill="#FFEEBF"/>
<circle cx="81.5" cy="266.5" r="16.5" fill="#FFEEBF"/>
<circle cx="147.5" cy="266.5" r="16.5" fill="#FFEEBF"/>
<circle cx="213.5" cy="266.5" r="16.5" fill="#FFEEBF"/>
<circle cx="279.5" cy="266.5" r="16.5" fill="#FFEEBF"/>
<circle cx="345.5" cy="266.5" r="16.5" fill="#FFEEBF"/>
<circle cx="48.5" cy="233.5" r="16.5" fill="#FFEEBF"/>
<circle cx="114.5" cy="233.5" r="16.5" fill="#FFEEBF"/>
<circle cx="180.5" cy="233.5" r="16.5" fill="#FFEEBF"/>
<circle cx="246.5" cy="233.5" r="16.5" fill="#FFEEBF"/>
<circle cx="312.5" cy="233.5" r="16.5" fill="#FFEEBF"/>
<circle cx="15.5" cy="200.5" r="16.5" fill="#FFEEBF"/>
<circle cx="81.5" cy="200.5" r="16.5" fill="#FFEEBF"/>
<circle cx="147.5" cy="200.5" r="16.5" fill="#FFEEBF"/>
<circle cx="213.5" cy="200.5" r="16.5" fill="#FFEEBF"/>
<circle cx="279.5" cy="200.5" r="16.5" fill="#FFEEBF"/>
<circle cx="345.5" cy="200.5" r="16.5" fill="#FFEEBF"/>
<circle cx="48.5" cy="167.5" r="16.5" fill="#FFEEBF"/>
<circle cx="114.5" cy="167.5" r="16.5" fill="#FFEEBF"/>
<circle cx="180.5" cy="167.5" r="16.5" fill="#FFEEBF"/>
<circle cx="246.5" cy="167.5" r="16.5" fill="#FFEEBF"/>
<circle cx="312.5" cy="167.5" r="16.5" fill="#FFEEBF"/>
<circle cx="15.5" cy="134.5" r="16.5" fill="#FFEEBF"/>
<circle cx="81.5" cy="134.5" r="16.5" fill="#FFEEBF"/>
<circle cx="147.5" cy="134.5" r="16.5" fill="#FFEEBF"/>
<circle cx="213.5" cy="134.5" r="16.5" fill="#FFEEBF"/>
<circle cx="279.5" cy="134.5" r="16.5" fill="#FFEEBF"/>
<circle cx="345.5" cy="134.5" r="16.5" fill="#FFEEBF"/>
<circle cx="48.5" cy="101.5" r="16.5" fill="#FFEEBF"/>
<circle cx="114.5" cy="101.5" r="16.5" fill="#FFEEBF"/>
<circle cx="180.5" cy="101.5" r="16.5" fill="#FFEEBF"/>
<circle cx="246.5" cy="101.5" r="16.5" fill="#FFEEBF"/>
<circle cx="312.5" cy="101.5" r="16.5" fill="#FFEEBF"/>
<circle cx="15.5" cy="68.5" r="16.5" fill="#FFEEBF"/>
<circle cx="81.5" cy="68.5" r="16.5" fill="#FFEEBF"/>
<circle cx="147.5" cy="68.5" r="16.5" fill="#FFEEBF"/>
<circle cx="213.5" cy="68.5" r="16.5" fill="#FFEEBF"/>
<circle cx="279.5" cy="68.5" r="16.5" fill="#FFEEBF"/>
<circle cx="345.5" cy="68.5" r="16.5" fill="#FFEEBF"/>
<circle cx="48.5" cy="35.5" r="16.5" fill="#FFEEBF"/>
<circle cx="114.5" cy="35.5" r="16.5" fill="#FFEEBF"/>
<circle cx="180.5" cy="35.5" r="16.5" fill="#FFEEBF"/>
<circle cx="246.5" cy="35.5" r="16.5" fill="#FFEEBF"/>
<circle cx="312.5" cy="35.5" r="16.5" fill="#FFEEBF"/>
<circle cx="15.5" cy="2.5" r="16.5" fill="#FFEEBF"/>
<circle cx="81.5" cy="2.5" r="16.5" fill="#FFEEBF"/>
<circle cx="147.5" cy="2.5" r="16.5" fill="#FFEEBF"/>
<circle cx="213.5" cy="2.5" r="16.5" fill="#FFEEBF"/>
<circle cx="279.5" cy="2.5" r="16.5" fill="#FFEEBF"/>
<circle cx="345.5" cy="2.5" r="16.5" fill="#FFEEBF"/>
</g>
<path d="M116.627 101.678C131.324 98.685 138.442 97.9477 152.557 100.745C151.653 100.566 154.575 89.184 157.295 83.6885C163.448 71.257 199.62 66.6318 199.62 66.6318C201.23 66.9864 195.714 96.5211 194.567 98.85C190.886 106.319 184.052 112.15 182.983 109.896C183.929 112.821 191.328 135.851 192.555 144.334C194.018 154.442 190.66 160.443 188.765 166.761C198.557 172.762 200.151 172.848 207.205 174.341L229.421 176.782C258.339 179.394 267.336 185.222 274.273 203.947C281.209 222.672 274.789 229.618 272.9 262.152C272.153 275.018 272.9 283.315 272.9 283.315H250.797C251.377 277.509 253.103 275.095 258.062 271.943C251.239 253.209 246.685 250.149 243.213 242.884C230.421 247.442 204.604 247.048 191.093 248.57C189.835 271.887 192.191 265.917 188.249 289H165.507C166.486 283.341 167.726 280.508 172.456 276.681C170.666 260.407 166.455 244.147 166.455 244.147C166.455 244.147 155.792 242.209 145.923 236.442C145.924 236.442 145.924 236.442 145.924 236.442C146.344 259.84 140.661 266.071 140.131 289H116.555C117.767 283.164 118.292 279.806 124.452 276.681C124.452 276.681 116.356 251.431 112.442 223.3C96.5327 206.244 95.901 183.186 95.901 183.186C95.901 183.186 95.0701 179.711 90.648 168.656C85.7206 156.337 86.756 145.282 90.648 131.7C92.8233 124.109 93.8067 117.802 93.8067 117.802C92.8485 118.51 75.2888 105.902 73.2755 98.85C69.1803 84.5056 71.0646 66.6318 71.0646 66.6318C71.0646 66.6318 101.261 72.5778 109.916 85.2678C113.862 91.0537 117.871 101.23 116.627 101.678Z" fill="#C19A8D"/>
<rect x="101" y="141.731" width="18.1881" height="5.32827" rx="2" transform="rotate(-8.63584 101 141.731)" fill="#464646"/>
<rect x="151.181" y="139" width="18.1881" height="5.32827" rx="2" transform="rotate(8.64 151.181 139)" fill="#464646"/>
<path d="M115 160C115 160 120.26 165.786 124.574 165.994C129.252 166.219 134.574 160 134.574 160C134.574 160 140.75 166.038 145.213 165.994C149.603 165.95 155 160 155 160" stroke="#464646" stroke-width="4" stroke-linecap="round" stroke-linejoin="round"/>
<path d="M138.477 158.634C136.539 160.511 133.461 160.511 131.523 158.634L129.155 156.343C125.926 153.217 128.139 147.75 132.633 147.75H137.367C141.861 147.75 144.074 153.217 140.845 156.343L138.477 158.634Z" fill="#464646"/>
<path d="M290.5 110.5C276.633 114.322 301.574 146.633 259 179.747L266.884 187.631C321.524 165.294 304.367 106.678 290.5 110.5Z" fill="#C19A8D"/>
<path d="M258 180.5C269.5 166 292 151 286 109M266 187.5C273.549 180.457 286.5 188 282.5 187.5M276.5 179C284.049 171.957 294.5 172 299 173.5M286.5 167.5C294.049 160.457 302.5 154 309 153.5M293 153.5C302 149 307 148.5 315.5 139.5M296.5 144C305.5 139.5 312 130.5 310 120.5M299 131.5C299 123.5 299.5 117 293.5 109" stroke="#464646" stroke-width="5" stroke-linecap="round"/>
<path d="M239.619 281.419H217.192L226.037 270.364L221.614 250.781L220.667 246.674" stroke="black"/>
<path d="M226.669 271.627L220.035 242.884H244.357L239.935 282.051L218.456 281.419L220.035 275.734L226.669 271.627Z" fill="#C19A8D"/>
<path d="M116.262 101.061C116.286 101.056 116.31 101.051 116.334 101.046C116.312 101.054 116.288 101.059 116.262 101.061Z" fill="#D9D9D9"/>
<path d="M182.591 160.127C188.908 173.078 199.858 172.216 206.912 173.71L229.128 176.151C258.046 178.763 267.043 184.59 273.98 203.315L277.546 218.246M245.012 245.411C248.483 252.676 250.946 252.577 257.769 271.312C252.81 274.463 251.084 276.877 250.504 282.683H272.607C272.607 282.683 271.86 274.386 272.607 261.52L273.98 246.674M190.8 247.938C189.542 271.256 191.898 265.285 187.956 288.368H165.214C166.193 282.71 167.433 279.876 172.163 276.05C170.373 259.776 167.941 249.201 167.941 249.201M145.631 235.81C146.051 259.208 140.368 265.439 139.838 288.368H116.262C117.474 282.532 117.999 279.175 124.159 276.05C124.159 276.05 116.063 250.799 112.149 222.669M93.5137 117.17C92.5555 117.878 74.9958 105.27 72.9825 98.2181C68.8873 83.8738 70.7716 66 70.7716 66C70.7716 66 100.968 71.946 109.623 84.636C113.639 90.5255 117.722 100.964 116.262 101.061C131.008 98.0555 138.126 97.3113 152.264 100.113C151.36 99.9347 154.282 88.5522 157.002 83.0567C163.155 70.6251 199.328 66 199.328 66C200.937 66.3546 195.421 95.8893 194.274 98.2181C190.447 105.983 183.212 111.978 182.591 108.958" stroke="#464646" stroke-width="4" stroke-linecap="round" stroke-linejoin="round"/>
<path d="M219.859 247.938L225.544 270.68C220.786 273.562 218.924 276.103 217.647 282.999H240.074C241.569 259.339 241.221 272.891 241.852 250.149" stroke="#464646" stroke-width="4" stroke-linecap="round" stroke-linejoin="round"/>
<path d="M93.0206 124.681C89.3692 134.041 80.1045 151.809 72.257 147.997" stroke="#464646" stroke-width="4" stroke-linecap="round"/>
<path d="M183.418 114.959C187.415 124.319 200.147 147.386 208.738 143.575" stroke="#464646" stroke-width="4" stroke-linecap="round"/>
<path d="M90.5541 147.809C88.0479 157.538 83.2766 163.951 74.1293 164.865" stroke="#464646" stroke-width="4" stroke-linecap="round"/>
<path d="M188.705 142.755C191.449 152.484 196.673 158.897 206.688 159.812" stroke="#464646" stroke-width="4" stroke-linecap="round"/>
<path d="M91.8174 158.864C88.6587 164.234 83.9206 169.919 77.9192 167.945" stroke="#464646" stroke-width="4" stroke-linecap="round"/>
<path d="M187.322 153.81C190.78 159.18 195.968 164.866 202.538 162.891" stroke="#464646" stroke-width="4" stroke-linecap="round"/>
<path d="M96.045 168.541C90.9393 172.11 84.2657 175.311 79.6292 171.019" stroke="#464646" stroke-width="4" stroke-linecap="round"/>
<path d="M100.827 172.841C95.1013 174.62 88.4383 177.612 87.4576 182.652" stroke="#464646" stroke-width="4" stroke-linecap="round"/>
<path d="M148.625 236.984C149.761 241.944 151.874 247.67 156.141 248.28" stroke="#464646" stroke-width="4" stroke-linecap="round"/>
<path d="M183.102 242.252C186.322 246.192 195.749 252.443 199.843 251.096" stroke="#464646" stroke-width="4" stroke-linecap="round"/>
<path d="M226.87 240.533C230.089 244.473 239.517 250.724 243.611 249.377" stroke="#464646" stroke-width="4" stroke-linecap="round"/>
<path d="M99.6895 177.816C94.2488 180.974 91.2082 187.107 92.4358 193.925" stroke="#464646" stroke-width="4" stroke-linecap="round"/>
<path d="M154.358 237.542C154.83 242.194 166.12 248.812 172.047 250.149" stroke="#464646" stroke-width="4" stroke-linecap="round"/>
<path d="M193.841 242.252C196.33 246.211 206.573 250.319 212.477 248.885" stroke="#464646" stroke-width="4" stroke-linecap="round"/>
<path d="M237.61 240.533C240.098 244.492 250.342 248.6 256.246 247.166" stroke="#464646" stroke-width="4" stroke-linecap="round"/>
<path d="M100.693 185.397C96.2816 187.961 96.6492 201.533 98.4637 208.139" stroke="#464646" stroke-width="4" stroke-linecap="round"/>
<path d="M169.519 241.986C169.905 245.759 180.917 249.813 186.895 250.688" stroke="#464646" stroke-width="4" stroke-linecap="round"/>
<path d="M207.424 241.304C209.444 244.514 222.841 249.491 228.587 247.622" stroke="#464646" stroke-width="4" stroke-linecap="round"/>
<path d="M251.192 239.585C253.213 242.795 266.609 247.772 272.355 245.903" stroke="#464646" stroke-width="4" stroke-linecap="round"/>
<path d="M270.596 239.093C270.655 241.554 279.205 248.525 284.876 249.22" stroke="#464646" stroke-width="4" stroke-linecap="round"/>
<path d="M275.65 228.354C275.709 230.815 281.034 246.295 286.705 246.99" stroke="#464646" stroke-width="4" stroke-linecap="round"/>
<path d="M277.545 218.474C277.787 220.923 282.704 240.74 288.411 241.011" stroke="#464646" stroke-width="4" stroke-linecap="round"/>
<path d="M103.541 200.558C99.9144 205.928 106.08 221.748 107.894 228.354" stroke="#464646" stroke-width="4" stroke-linecap="round"/>
<path d="M121.508 221.405C118.35 226.775 128.456 236.278 130.036 242.884" stroke="#464646" stroke-width="4" stroke-linecap="round"/>
<path d="M175.92 194.873C179.881 200.242 173.941 211.009 171.96 217.615" stroke="#464646" stroke-width="4" stroke-linecap="round"/>
<path d="M158.464 216.983C160.991 224.564 154.445 228.354 150.568 235.303" stroke="#464646" stroke-width="4" stroke-linecap="round"/>
<path d="M108.403 217.615C107.899 221.949 118.679 234.105 122.576 241.305" stroke="#464646" stroke-width="4" stroke-linecap="round"/>
<path d="M128.773 230.565C129.067 234.414 135.499 236.519 139.197 243.516" stroke="#464646" stroke-width="4" stroke-linecap="round"/>
<path d="M170.801 207.507C171.351 211.842 162.468 224.314 158.213 231.513" stroke="#464646" stroke-width="4" stroke-linecap="round"/>
<path d="M150.586 222.669C151.136 227.003 142.355 235.935 141.092 245.411" stroke="#464646" stroke-width="4" stroke-linecap="round"/>
<path d="M182.694 163.487C188.284 167.057 195.59 170.257 200.667 165.965" stroke="#464646" stroke-width="4" stroke-linecap="round"/>
<path d="M90.9687 137.229C87.3795 146.613 77.8948 163.887 70.0222 160.127" stroke="#464646" stroke-width="4" stroke-linecap="round"/>
<path d="M188.251 132.175C192.18 141.559 202.564 158.833 211.184 155.074" stroke="#464646" stroke-width="4" stroke-linecap="round"/>
</svg>
