<svg width="357" height="357" viewBox="0 0 357 357" fill="none" xmlns="http://www.w3.org/2000/svg">
<g filter="url(#filter0_i_603_16)">
<circle cx="178.5" cy="178.5" r="178.5" fill="#B4936E"/>
</g>
<mask id="mask0_603_16" style="mask-type:alpha" maskUnits="userSpaceOnUse" x="0" y="0" width="357" height="357">
<circle cx="178.5" cy="178.5" r="178.5" fill="#C4DAB0"/>
</mask>
<g mask="url(#mask0_603_16)">
<path d="M274.85 427.141L264.843 333.472L307.673 325.466C309.855 356.188 305.966 412.768 304.071 442.752H264.843C266.062 434.877 267.969 431.267 274.85 427.141Z" fill="#E5CA69" stroke="#464646" stroke-width="5" stroke-linecap="round" stroke-linejoin="round"/>
<path d="M383.767 141.003C367.413 152.684 400.121 180.72 337.042 229.781L348.723 241.462C409.466 204.082 400.121 129.322 383.767 141.003Z" fill="#E5CA69" stroke="#464646" stroke-width="5"/>
<path d="M115.533 54.4682C134.442 49.801 139.453 49.8871 158.364 54.4682C167.423 50.1869 179.18 57.2702 179.18 57.2702C179.18 57.2702 197.922 73.2056 212.804 91.2951C227.686 109.385 244.951 145.069 231.341 157.478C218.932 163.882 212.804 156.142 205.199 145.735C204.429 145.104 203.435 143.192 202.352 140.493C201.842 152.44 199.77 166.059 202.395 173.755C207.075 187.474 227.185 197.889 238.423 202.576L310.475 220.189C346.101 227.795 357.936 251.666 363.005 265.349C368.074 279.032 362.077 349.371 363.405 400.648C363.828 416.975 361.004 442.278 361.004 442.278H324.577C325.76 435.359 327.368 431.985 333.784 427.868C325.137 404.126 318.613 348.341 311.248 324.553C295.037 330.329 287.14 334.633 213.095 334.633C211.501 364.184 209.403 420.304 204.408 449.557H161.977C162.874 441.735 164.583 438.163 170.783 433.945C168.515 413.321 167.129 362.094 167.061 343.439C154.974 342.152 146.709 339.074 140.233 333.47C140.764 363.122 140.232 420.499 139.56 449.557H99.9314C101.67 440.861 103.579 437.101 109.939 433.945C109.939 433.945 97.1664 339.46 92.2066 303.81C88.0095 273.644 87.5125 220.189 87.5125 220.189L90.715 184.563C90.715 184.563 83.3492 169.941 78.3055 158.544C72.1325 144.596 76.7048 122.344 76.7048 113.311C76.7048 112.813 76.7143 112.344 76.7318 111.903L67.8984 148.937C64.8307 172.711 41.8794 165.749 38.677 154.141C35.875 137.329 41.7752 117.666 56.2899 91.2951C65.4966 76.4842 89.9144 56.4696 96.7194 54.4682C103.524 52.4667 107.385 52.8169 115.533 54.4682Z" fill="#F6E196"/>
<path d="M194.114 101.351C191.431 102.897 197.712 128.923 202.352 140.493M202.352 140.493C203.435 143.192 204.429 145.104 205.199 145.735C212.804 156.142 218.932 163.882 231.341 157.478C244.951 145.069 227.686 109.385 212.804 91.2951C197.922 73.2056 179.18 57.2702 179.18 57.2702C179.18 57.2702 167.423 50.1869 158.364 54.4682C139.453 49.8871 134.442 49.801 115.533 54.4682C107.385 52.8169 103.524 52.4667 96.7194 54.4682C89.9144 56.4696 65.4966 76.4842 56.2899 91.2951C41.7752 117.666 35.875 137.329 38.677 154.141C41.8794 165.749 64.8307 172.711 67.8984 148.937L78.3055 105.305C78.3055 105.305 76.7048 106.833 76.7048 113.311C76.7048 122.344 72.1325 144.596 78.3055 158.544C83.3492 169.941 90.715 184.563 90.715 184.563L87.5125 220.189C87.5125 220.189 88.0095 273.644 92.2066 303.81C97.1664 339.46 109.939 433.945 109.939 433.945C103.579 437.101 101.67 440.861 99.9314 449.557H139.56C140.232 420.499 140.764 363.122 140.233 333.47C133.705 326.955 127.88 319.188 122.228 303.81C132.925 329.849 141.338 340.7 167.061 343.439C167.129 362.094 168.515 413.321 170.783 433.945C164.583 438.163 162.874 441.735 161.977 449.557H204.408C209.403 420.304 211.501 364.184 213.095 334.633C287.14 334.633 295.037 330.329 311.248 324.553C318.613 348.341 325.137 404.126 333.784 427.868C327.368 431.985 325.76 435.359 324.577 442.278H361.003C361.003 442.278 363.828 416.975 363.405 400.648C362.077 349.371 368.074 279.032 363.005 265.349C357.936 251.666 346.101 227.795 310.475 220.189L238.423 202.576C227.185 197.889 207.075 187.474 202.395 173.755C199.77 166.059 201.842 152.44 202.352 140.493Z" stroke="#464646" stroke-width="5" stroke-linecap="round" stroke-linejoin="round"/>
<path d="M136.176 154.174C134.622 158.659 128.28 158.659 126.727 154.174L121.611 139.406C120.485 136.158 122.898 132.769 126.335 132.769H136.567C140.005 132.769 142.417 136.158 141.292 139.406L136.176 154.174Z" fill="#464646"/>
<rect x="95.9121" y="114.608" width="19.0818" height="5.59008" rx="2" transform="rotate(-8.63584 95.9121 114.608)" fill="#464646"/>
<rect x="148.559" y="111.743" width="19.0818" height="5.59008" rx="2" transform="rotate(8.64 148.559 111.743)" fill="#464646"/>
<path d="M108.088 153.795C108.088 153.795 114.233 158.302 119.272 158.463C124.737 158.639 130.953 153.795 130.953 153.795C130.953 153.795 138.167 158.498 143.38 158.463C148.509 158.429 154.813 153.795 154.813 153.795" stroke="#464646" stroke-width="3" stroke-linecap="round" stroke-linejoin="round"/>
</g>
<defs>
<filter id="filter0_i_603_16" x="0" y="0" width="357" height="363" filterUnits="userSpaceOnUse" color-interpolation-filters="sRGB">
<feFlood flood-opacity="0" result="BackgroundImageFix"/>
<feBlend mode="normal" in="SourceGraphic" in2="BackgroundImageFix" result="shape"/>
<feColorMatrix in="SourceAlpha" type="matrix" values="0 0 0 0 0 0 0 0 0 0 0 0 0 0 0 0 0 0 127 0" result="hardAlpha"/>
<feOffset dy="6"/>
<feGaussianBlur stdDeviation="4"/>
<feComposite in2="hardAlpha" operator="arithmetic" k2="-1" k3="1"/>
<feColorMatrix type="matrix" values="0 0 0 0 0 0 0 0 0 0 0 0 0 0 0 0 0 0 0.25 0"/>
<feBlend mode="normal" in2="shape" result="effect1_innerShadow_603_16"/>
</filter>
</defs>
</svg>
