<svg width="357" height="357" viewBox="0 0 357 357" fill="none" xmlns="http://www.w3.org/2000/svg">
<rect width="357" height="357" fill="#FEE092"/>
<mask id="mask0_631_930" style="mask-type:alpha" maskUnits="userSpaceOnUse" x="0" y="0" width="357" height="357">
<rect width="357" height="357" fill="#FEE092"/>
</mask>
<g mask="url(#mask0_631_930)">
<circle cx="48.5" cy="365.5" r="16.5" fill="#FFEEBF"/>
<circle cx="114.5" cy="365.5" r="16.5" fill="#FFEEBF"/>
<circle cx="180.5" cy="365.5" r="16.5" fill="#FFEEBF"/>
<circle cx="246.5" cy="365.5" r="16.5" fill="#FFEEBF"/>
<circle cx="312.5" cy="365.5" r="16.5" fill="#FFEEBF"/>
<circle cx="15.5" cy="332.5" r="16.5" fill="#FFEEBF"/>
<circle cx="81.5" cy="332.5" r="16.5" fill="#FFEEBF"/>
<circle cx="147.5" cy="332.5" r="16.5" fill="#FFEEBF"/>
<circle cx="213.5" cy="332.5" r="16.5" fill="#FFEEBF"/>
<circle cx="279.5" cy="332.5" r="16.5" fill="#FFEEBF"/>
<circle cx="345.5" cy="332.5" r="16.5" fill="#FFEEBF"/>
<circle cx="48.5" cy="299.5" r="16.5" fill="#FFEEBF"/>
<circle cx="114.5" cy="299.5" r="16.5" fill="#FFEEBF"/>
<circle cx="180.5" cy="299.5" r="16.5" fill="#FFEEBF"/>
<circle cx="246.5" cy="299.5" r="16.5" fill="#FFEEBF"/>
<circle cx="312.5" cy="299.5" r="16.5" fill="#FFEEBF"/>
<circle cx="15.5" cy="266.5" r="16.5" fill="#FFEEBF"/>
<circle cx="81.5" cy="266.5" r="16.5" fill="#FFEEBF"/>
<circle cx="147.5" cy="266.5" r="16.5" fill="#FFEEBF"/>
<circle cx="213.5" cy="266.5" r="16.5" fill="#FFEEBF"/>
<circle cx="279.5" cy="266.5" r="16.5" fill="#FFEEBF"/>
<circle cx="345.5" cy="266.5" r="16.5" fill="#FFEEBF"/>
<circle cx="48.5" cy="233.5" r="16.5" fill="#FFEEBF"/>
<circle cx="114.5" cy="233.5" r="16.5" fill="#FFEEBF"/>
<circle cx="180.5" cy="233.5" r="16.5" fill="#FFEEBF"/>
<circle cx="246.5" cy="233.5" r="16.5" fill="#FFEEBF"/>
<circle cx="312.5" cy="233.5" r="16.5" fill="#FFEEBF"/>
<circle cx="15.5" cy="200.5" r="16.5" fill="#FFEEBF"/>
<circle cx="81.5" cy="200.5" r="16.5" fill="#FFEEBF"/>
<circle cx="147.5" cy="200.5" r="16.5" fill="#FFEEBF"/>
<circle cx="213.5" cy="200.5" r="16.5" fill="#FFEEBF"/>
<circle cx="279.5" cy="200.5" r="16.5" fill="#FFEEBF"/>
<circle cx="345.5" cy="200.5" r="16.5" fill="#FFEEBF"/>
<circle cx="48.5" cy="167.5" r="16.5" fill="#FFEEBF"/>
<circle cx="114.5" cy="167.5" r="16.5" fill="#FFEEBF"/>
<circle cx="180.5" cy="167.5" r="16.5" fill="#FFEEBF"/>
<circle cx="246.5" cy="167.5" r="16.5" fill="#FFEEBF"/>
<circle cx="312.5" cy="167.5" r="16.5" fill="#FFEEBF"/>
<circle cx="15.5" cy="134.5" r="16.5" fill="#FFEEBF"/>
<circle cx="81.5" cy="134.5" r="16.5" fill="#FFEEBF"/>
<circle cx="147.5" cy="134.5" r="16.5" fill="#FFEEBF"/>
<circle cx="213.5" cy="134.5" r="16.5" fill="#FFEEBF"/>
<circle cx="279.5" cy="134.5" r="16.5" fill="#FFEEBF"/>
<circle cx="345.5" cy="134.5" r="16.5" fill="#FFEEBF"/>
<circle cx="48.5" cy="101.5" r="16.5" fill="#FFEEBF"/>
<circle cx="114.5" cy="101.5" r="16.5" fill="#FFEEBF"/>
<circle cx="180.5" cy="101.5" r="16.5" fill="#FFEEBF"/>
<circle cx="246.5" cy="101.5" r="16.5" fill="#FFEEBF"/>
<circle cx="312.5" cy="101.5" r="16.5" fill="#FFEEBF"/>
<circle cx="15.5" cy="68.5" r="16.5" fill="#FFEEBF"/>
<circle cx="81.5" cy="68.5" r="16.5" fill="#FFEEBF"/>
<circle cx="147.5" cy="68.5" r="16.5" fill="#FFEEBF"/>
<circle cx="213.5" cy="68.5" r="16.5" fill="#FFEEBF"/>
<circle cx="279.5" cy="68.5" r="16.5" fill="#FFEEBF"/>
<circle cx="345.5" cy="68.5" r="16.5" fill="#FFEEBF"/>
<circle cx="48.5" cy="35.5" r="16.5" fill="#FFEEBF"/>
<circle cx="114.5" cy="35.5" r="16.5" fill="#FFEEBF"/>
<circle cx="180.5" cy="35.5" r="16.5" fill="#FFEEBF"/>
<circle cx="246.5" cy="35.5" r="16.5" fill="#FFEEBF"/>
<circle cx="312.5" cy="35.5" r="16.5" fill="#FFEEBF"/>
<circle cx="15.5" cy="2.5" r="16.5" fill="#FFEEBF"/>
<circle cx="81.5" cy="2.5" r="16.5" fill="#FFEEBF"/>
<circle cx="147.5" cy="2.5" r="16.5" fill="#FFEEBF"/>
<circle cx="213.5" cy="2.5" r="16.5" fill="#FFEEBF"/>
<circle cx="279.5" cy="2.5" r="16.5" fill="#FFEEBF"/>
<circle cx="345.5" cy="2.5" r="16.5" fill="#FFEEBF"/>
</g>
<path d="M207.665 264.864L202.694 218.33L223.972 214.353C225.056 229.615 223.124 257.724 222.182 272.619H202.694C203.3 268.707 204.247 266.914 207.665 264.864Z" fill="#CFAA7F" stroke="#464646" stroke-width="5" stroke-linecap="round" stroke-linejoin="round"/>
<path d="M261.775 122.713C253.65 128.516 269.899 142.444 238.562 166.817L244.365 172.62C274.542 154.05 269.899 116.91 261.775 122.713Z" fill="#CFAA7F" stroke="#464646" stroke-width="5"/>
<path d="M128.518 79.723C137.912 77.4043 140.401 77.4471 149.796 79.723C154.296 77.5961 160.137 81.115 160.137 81.115C160.137 81.115 169.448 89.0316 176.841 98.0183C184.235 107.005 192.812 124.733 186.05 130.897C179.886 134.079 176.841 130.234 173.063 125.064C172.681 124.75 172.187 123.8 171.649 122.459C171.396 128.395 170.366 135.16 171.67 138.984C173.995 145.799 183.986 150.973 189.569 153.302L225.364 162.052C243.062 165.83 248.942 177.69 251.46 184.487C253.978 191.285 250.999 226.229 251.659 251.703C251.869 259.814 250.466 272.384 250.466 272.384H232.369C232.957 268.947 233.756 267.271 236.943 265.225C232.648 253.43 229.406 225.717 225.748 213.899C217.694 216.769 213.771 218.907 176.986 218.907C176.194 233.587 175.152 261.467 172.67 276H151.591C152.037 272.114 152.886 270.34 155.966 268.244C154.839 257.999 154.15 232.549 154.117 223.282C148.112 222.642 144.006 221.113 140.788 218.329C141.053 233.06 140.788 261.564 140.454 276H120.767C121.631 271.68 122.579 269.812 125.739 268.244C125.739 268.244 119.393 221.305 116.929 203.594C114.844 188.608 114.597 162.052 114.597 162.052L116.188 144.353C116.188 144.353 112.529 137.089 110.023 131.427C106.957 124.498 109.228 113.443 109.228 108.956C109.228 108.708 109.233 108.475 109.242 108.256L104.853 126.654C103.329 138.465 91.9272 135.007 90.3363 129.24C88.9443 120.887 91.8755 111.119 99.0863 98.0183C103.66 90.6604 115.791 80.7173 119.171 79.723C122.552 78.7286 124.47 78.9026 128.518 79.723Z" fill="#CFAA7F"/>
<path d="M167.556 103.014C166.224 103.782 169.344 116.712 171.649 122.459M171.649 122.459C172.187 123.8 172.681 124.75 173.063 125.064C176.841 130.234 179.886 134.079 186.05 130.897C192.812 124.733 184.235 107.005 176.841 98.0183C169.448 89.0316 160.137 81.115 160.137 81.115C160.137 81.115 154.296 77.5961 149.796 79.723C140.401 77.4471 137.912 77.4043 128.518 79.723C124.47 78.9026 122.552 78.7286 119.171 79.723C115.791 80.7173 103.66 90.6604 99.0863 98.0183C91.8755 111.119 88.9443 120.887 90.3363 129.24C91.9272 135.007 103.329 138.465 104.853 126.654L110.023 104.979C110.023 104.979 109.228 105.738 109.228 108.956C109.228 113.443 106.957 124.498 110.023 131.427C112.529 137.089 116.188 144.353 116.188 144.353L114.597 162.052C114.597 162.052 114.844 188.608 116.929 203.594C119.393 221.305 125.739 268.244 125.739 268.244C122.579 269.812 121.631 271.68 120.767 276H140.454C140.788 261.564 141.053 233.06 140.788 218.329C137.546 215.092 134.652 211.234 131.844 203.594C137.158 216.53 141.338 221.921 154.117 223.282C154.15 232.549 154.839 257.999 155.966 268.244C152.886 270.34 152.037 272.114 151.591 276H172.67C175.152 261.467 176.194 233.587 176.986 218.907C213.771 218.907 217.694 216.769 225.748 213.899C229.406 225.717 232.648 253.43 236.943 265.225C233.756 267.271 232.957 268.947 232.369 272.384H250.466C250.466 272.384 251.869 259.814 251.659 251.703C250.999 226.229 253.978 191.285 251.46 184.487C248.942 177.69 243.062 165.83 225.364 162.052L189.569 153.302C183.986 150.973 173.995 145.799 171.67 138.984C170.366 135.16 171.396 128.395 171.649 122.459Z" stroke="#464646" stroke-width="5" stroke-linecap="round" stroke-linejoin="round"/>
<circle r="3.6803" transform="matrix(1 0 0 -1 123.123 112.595)" fill="#464646"/>
<circle r="3.6803" transform="matrix(1 0 0 -1 150.357 112.595)" fill="#464646"/>
<path d="M140.483 124.321C139.149 128.172 133.703 128.172 132.369 124.321C131.403 121.532 133.474 118.622 136.426 118.622C139.377 118.622 141.449 121.532 140.483 124.321Z" fill="#464646"/>
<path d="M124.819 129.068C124.819 129.068 127.872 131.307 130.375 131.387C133.09 131.474 136.178 129.068 136.178 129.068C136.178 129.068 139.762 131.404 142.352 131.387C144.9 131.37 148.032 129.068 148.032 129.068" stroke="#464646" stroke-width="3" stroke-linecap="round" stroke-linejoin="round"/>
</svg>
