<?xml version="1.0" encoding="UTF-8"?><svg xmlns="http://www.w3.org/2000/svg" viewBox="0 0 298.54 111.31"><defs><style>.d{fill:#036eb8;}.e{fill:#fff;}.f{fill:#ffedaa;}.g{fill:#ffbb8a;}.h{fill:#ff7c74;}.i{fill:#6ab9ff;}.j{fill:#7faaff;}.k{fill:#bdb4ff;}.l{fill:#aaffb1;}.m{fill:#94d3ff;}.n{fill:#5cb0e0;}</style></defs><g id="a"/><g id="b"><g id="c"><g><g><path class="h" d="M115.8,44.82c-19.38-25.81-58.09-25.81-77.47,0-.92-.69-1.84-1.38-2.75-2.07,20.75-27.64,62.22-27.64,82.98,0-.92,.69-1.84,1.38-2.75,2.07Z"/><path class="g" d="M113.05,46.89c-18-23.97-53.96-23.97-71.96,0-.92-.69-1.84-1.38-2.75-2.07,19.38-25.81,58.09-25.81,77.47,0-.92,.69-1.84,1.38-2.75,2.07Z"/><path class="f" d="M110.3,48.96c-16.62-22.14-49.83-22.14-66.46,0-.92-.69-1.84-1.38-2.75-2.07,18-23.97,53.96-23.97,71.96,0-.92,.69-1.84,1.38-2.75,2.07Z"/><path class="l" d="M107.54,51.03c-15.24-20.3-45.71-20.3-60.95,0-.92-.69-1.84-1.38-2.75-2.07,16.62-22.14,49.83-22.14,66.46,0-.92,.69-1.84,1.38-2.75,2.07Z"/><path class="m" d="M104.79,53.09c-13.87-18.47-41.58-18.47-55.44,0-.92-.69-1.84-1.38-2.75-2.07,15.24-20.3,45.71-20.3,60.95,0-.92,.69-1.84,1.38-2.75,2.07Z"/><path class="j" d="M102.04,55.16c-12.49-16.63-37.45-16.63-49.94,0-.92-.69-1.84-1.38-2.75-2.07,13.87-18.47,41.58-18.47,55.44,0-.92,.69-1.84,1.38-2.75,2.07Z"/><path class="k" d="M99.28,57.23c-11.11-14.8-33.32-14.8-44.43,0-.92-.69-1.84-1.38-2.75-2.07,12.49-16.63,37.45-16.63,49.94,0-.92,.69-1.84,1.38-2.75,2.07Z"/></g><g><path class="h" d="M266.72,49.48c-19.38-25.81-58.09-25.81-77.47,0-.92-.69-1.84-1.38-2.75-2.07,20.75-27.64,62.22-27.64,82.98,0-.92,.69-1.84,1.38-2.75,2.07Z"/><path class="g" d="M263.97,51.54c-18-23.97-53.96-23.97-71.96,0-.92-.69-1.84-1.38-2.75-2.07,19.38-25.81,58.09-25.81,77.47,0-.92,.69-1.84,1.38-2.75,2.07Z"/><path class="f" d="M261.22,53.61c-16.62-22.14-49.83-22.14-66.46,0-.92-.69-1.84-1.38-2.75-2.07,18-23.97,53.96-23.97,71.96,0-.92,.69-1.84,1.38-2.75,2.07Z"/><path class="l" d="M258.46,55.68c-15.24-20.3-45.71-20.3-60.95,0-.92-.69-1.84-1.38-2.75-2.07,16.62-22.14,49.83-22.14,66.46,0l-2.75,2.07Z"/><path class="m" d="M255.71,57.75c-13.87-18.47-41.58-18.47-55.44,0-.92-.69-1.84-1.38-2.75-2.07,15.24-20.3,45.71-20.3,60.95,0-.92,.69-1.84,1.38-2.75,2.07Z"/><path class="j" d="M252.96,59.81c-12.49-16.63-37.45-16.63-49.94,0-.92-.69-1.84-1.38-2.75-2.07,13.87-18.47,41.58-18.47,55.44,0-.92,.69-1.84,1.38-2.75,2.07Z"/><path class="k" d="M250.2,61.88c-11.11-14.8-33.32-14.8-44.43,0-.92-.69-1.84-1.38-2.75-2.07,12.49-16.63,37.45-16.63,49.94,0-.92,.69-1.84,1.38-2.75,2.07Z"/></g><path class="i" d="M11.09,67.56c-3.49-8.31,9.27-19.98,20.11-13.58,5.55-13.29,29-11.82,32.02,2.67,9.69-4.37,19.22,9.21,12.34,17.01,4.92,5.63-1.43,16.14-9.34,13.34-6.02,8.17-20.19,10.62-29.23,3.04-7.09,5.86-19.76,3.38-22.23-4.4-8.74,.98-12.22-14.17-3.66-18.08Z"/><path class="i" d="M272.88,86.9c3.05-7.26-8.11-17.46-17.57-11.87-4.85-11.61-25.34-10.33-27.98,2.33-8.47-3.82-16.79,8.05-10.78,14.86-4.3,4.92,1.25,14.11,8.16,11.66,5.26,7.14,17.64,9.28,25.54,2.66,6.19,5.12,17.27,2.96,19.43-3.84,7.63,.85,10.68-12.38,3.2-15.8Z"/><path class="d" d="M105.46,80.88c-24.75-10.2-14.25-50.11,16.91-45.27-2.19-18.43,33.36-29.32,42.95-8.01,8.88-15.95,43.98-10.24,44.4,13.13,17.62-1.2,21.59,32.66,2.07,35.1,1.22,28.98-37.54,34.45-49.11,15.64-15.74,20.27-56.33,11.17-57.22-10.59Z"/><path class="n" d="M92.03,72.49c-26.93-11.1-15.51-54.53,18.4-49.27-2.39-20.05,36.3-31.9,46.74-8.71,9.67-17.36,47.86-11.14,48.31,14.29,19.17-1.3,23.5,35.54,2.25,38.2,1.33,31.53-40.85,37.49-53.44,17.02-17.13,22.06-61.3,12.15-62.26-11.52Z"/><path class="m" d="M266.27,80.43c3.04-7.23-8.07-17.38-17.5-11.82-4.83-11.56-25.23-10.29-27.86,2.32-8.43-3.8-16.72,8.01-10.74,14.8-4.28,4.9,1.25,14.04,8.13,11.61,5.24,7.11,17.57,9.24,25.43,2.65,6.16,5.1,17.19,2.94,19.34-3.83,7.6,.85,10.63-12.33,3.19-15.73Z"/><path class="m" d="M4.92,62.45c-3.49-8.31,9.27-19.98,20.11-13.58,5.55-13.29,29-11.82,32.02,2.67,9.69-4.37,19.22,9.21,12.34,17.01,4.92,5.63-1.43,16.14-9.34,13.34-6.02,8.17-20.19,10.62-29.23,3.04-7.09,5.86-19.76,3.38-22.23-4.4-8.74,.98-12.22-14.17-3.66-18.08Z"/><path class="i" d="M255.15,58.3c-2.27-5.4,6.02-12.98,13.06-8.83,3.6-8.63,18.84-7.68,20.8,1.73,6.29-2.84,12.48,5.98,8.02,11.05,3.2,3.66-.93,10.49-6.07,8.67-3.91,5.31-13.12,6.9-18.99,1.98-4.6,3.81-12.84,2.2-14.44-2.86-5.68,.63-7.94-9.21-2.38-11.74Z"/><path class="m" d="M251.14,54.98c-2.27-5.4,6.02-12.98,13.06-8.83,3.6-8.63,18.84-7.68,20.8,1.73,6.29-2.84,12.48,5.98,8.02,11.05,3.2,3.66-.93,10.49-6.07,8.67-3.91,5.31-13.12,6.9-18.99,1.98-4.6,3.81-12.84,2.2-14.44-2.86-5.68,.63-7.94-9.21-2.38-11.74Z"/><path class="i" d="M100.28,96.15c1.96-4.66-5.2-11.2-11.27-7.62-3.11-7.45-16.26-6.63-17.95,1.5-5.43-2.45-10.77,5.16-6.92,9.54-2.76,3.16,.8,9.05,5.24,7.48,3.37,4.58,11.32,5.95,16.39,1.71,3.97,3.29,11.08,1.9,12.47-2.47,4.9,.55,6.85-7.95,2.05-10.14Z"/><path class="m" d="M96.04,92c1.95-4.64-5.18-11.15-11.22-7.58-3.1-7.42-16.19-6.6-17.87,1.49-5.41-2.44-10.73,5.14-6.89,9.5-2.75,3.15,.8,9.01,5.21,7.45,3.36,4.56,11.27,5.93,16.32,1.7,3.96,3.27,11.03,1.89,12.41-2.45,4.88,.55,6.82-7.91,2.05-10.09Z"/><path class="i" d="M188.2,94.6c-1.38-3.27,3.65-7.86,7.92-5.35,2.18-5.23,11.42-4.65,12.6,1.05,3.81-1.72,7.56,3.62,4.86,6.7,1.94,2.22-.56,6.35-3.68,5.25-2.37,3.22-7.95,4.18-11.51,1.2-2.79,2.31-7.78,1.33-8.75-1.73-3.44,.38-4.81-5.58-1.44-7.12Z"/><path class="m" d="M185.77,92.59c-1.38-3.27,3.65-7.86,7.92-5.35,2.18-5.23,11.42-4.65,12.6,1.05,3.81-1.72,7.56,3.62,4.86,6.7,1.94,2.22-.56,6.35-3.68,5.25-2.37,3.22-7.95,4.18-11.51,1.2-2.79,2.31-7.78,1.33-8.75-1.73-3.44,.38-4.81-5.58-1.44-7.12Z"/><path class="e" d="M257.08,5.38c-3.85,.71-4.43,1.28-5.14,5.14-.71-3.85-1.28-4.43-5.14-5.14,3.85-.71,4.43-1.28,5.14-5.14,.71,3.85,1.28,4.43,5.14,5.14Z"/><path class="e" d="M234.31,15.29c-4.4,.81-5.06,1.47-5.87,5.87-.81-4.4-1.47-5.06-5.87-5.87,4.4-.81,5.06-1.47,5.87-5.87,.81,4.4,1.47,5.06,5.87,5.87Z"/><path class="e" d="M273.89,25.62c-5.3,.98-6.09,1.77-7.07,7.07-.98-5.3-1.77-6.09-7.07-7.07,5.3-.98,6.09-1.77,7.07-7.07,.98,5.3,1.77,6.09,7.07,7.07Z"/><path class="e" d="M84.74,13.29c-4.16,.77-4.78,1.39-5.55,5.55-.77-4.16-1.39-4.78-5.55-5.55,4.16-.77,4.78-1.39,5.55-5.55,.77,4.16,1.39,4.78,5.55,5.55Z"/><path class="e" d="M59.27,5.77c-4.33,.8-4.97,1.44-5.77,5.77-.8-4.33-1.44-4.97-5.77-5.77,4.33-.8,4.97-1.44,5.77-5.77,.8,4.33,1.44,4.97,5.77,5.77Z"/><path class="e" d="M43.88,23.31c-3.7,.68-4.25,1.23-4.93,4.93-.68-3.7-1.23-4.25-4.93-4.93,3.7-.68,4.25-1.23,4.93-4.93,.68,3.7,1.23,4.25,4.93,4.93Z"/></g></g></g></svg>