<svg width="1440" height="515" viewBox="0 0 1440 515" fill="none" xmlns="http://www.w3.org/2000/svg">
<path d="M207.704 56.4362C128.675 -23.1807 36.3061 23.2625 0 56.4362V517H1440V56.4362C1374.5 -24.4991 1276.5 -5.99928 1219.63 56.4362C1177 103.239 1088.56 127.878 1019.1 56.4362C955 -9.4991 865.418 -6.99928 816.464 56.4362C777.83 106.5 681.5 135 606.227 56.4362C538.022 -14.7507 437.829 20.6061 403.166 56.4362C376.5 84.0007 306.491 155.957 207.704 56.4362Z" fill="#F1C550"/>
<path d="M295.217 441.641L355.065 473.429H235.37L295.217 441.641Z" fill="#314C60"/>
<rect x="256.825" y="469.897" width="77.3988" height="46.685" fill="#314C60"/>
<path d="M1105.11 446L1164.95 477.789H1045.26L1105.11 446Z" fill="#314C60"/>
<rect x="1066.71" y="474.257" width="77.3988" height="46.685" fill="#314C60"/>
<circle cx="66.3989" cy="458.226" r="17.1997" fill="#314C60"/>
<circle cx="52.0526" cy="476.259" r="17.2497" transform="rotate(10.2857 52.0526 476.259)" fill="#314C60"/>
<ellipse cx="81.1421" cy="475.732" rx="17.1997" ry="17.5069" fill="#314C60"/>
<rect x="63.9424" y="484.025" width="6.14276" height="32.5566" fill="#314C60"/>
<circle cx="1204.4" cy="459.2" r="17.1997" fill="#314C60"/>
<circle cx="1190.05" cy="477.232" r="17.2497" transform="rotate(10.2857 1190.05 477.232)" fill="#314C60"/>
<ellipse cx="1219.14" cy="476.706" rx="17.1997" ry="17.5069" fill="#314C60"/>
<rect x="1201.94" y="484.999" width="6.14276" height="32.5566" fill="#314C60"/>
<circle cx="1383.4" cy="459.2" r="17.1997" fill="#314C60"/>
<circle cx="1369.05" cy="477.232" r="17.2497" transform="rotate(10.2857 1369.05 477.232)" fill="#314C60"/>
<ellipse cx="1398.14" cy="476.706" rx="17.1997" ry="17.5069" fill="#314C60"/>
<rect x="1380.94" y="484.999" width="6.14276" height="32.5566" fill="#314C60"/>
<circle cx="398.723" cy="458.227" r="17.1997" fill="#314C60"/>
<circle cx="384.376" cy="476.26" r="17.2497" transform="rotate(10.2857 384.376 476.26)" fill="#314C60"/>
<ellipse cx="413.465" cy="475.733" rx="17.1997" ry="17.5069" fill="#314C60"/>
<rect x="396.266" y="484.026" width="6.14276" height="32.5566" fill="#314C60"/>
<circle cx="398.722" cy="458.226" r="17.1997" fill="#314C60"/>
<circle cx="384.376" cy="476.259" r="17.2497" transform="rotate(10.2857 384.376 476.259)" fill="#314C60"/>
<ellipse cx="413.465" cy="475.733" rx="17.1997" ry="17.5069" fill="#314C60"/>
<rect x="396.266" y="484.025" width="6.14276" height="32.5566" fill="#314C60"/>
<circle cx="469.364" cy="458.226" r="17.1997" fill="#314C60"/>
<circle cx="455.017" cy="476.259" r="17.2497" transform="rotate(10.2857 455.017 476.259)" fill="#314C60"/>
<ellipse cx="484.107" cy="475.732" rx="17.1997" ry="17.5069" fill="#314C60"/>
<rect x="466.907" y="484.025" width="6.14276" height="32.5566" fill="#314C60"/>
<rect x="522.192" y="441.642" width="192.268" height="74.9417" fill="#314C60"/>
<rect x="687.432" y="386.356" width="7.98559" height="59.5848" fill="#314C60"/>
<rect x="668.39" y="348.886" width="46.0707" height="39.3137" rx="8" fill="#314C60"/>
<rect x="739.711" y="353.203" width="59.7729" height="163.379" fill="#314C60"/>
<rect x="108.784" y="400.484" width="51.5992" height="116.098" fill="#314C60"/>
<rect x="117.999" y="461.911" width="7.98559" height="18.4283" fill="#FFFDEA"/>
<rect x="130.284" y="461.911" width="7.98559" height="18.4283" fill="#FFFDEA"/>
<rect x="142.57" y="461.911" width="7.98559" height="18.4283" fill="#FFFDEA"/>
<rect x="117.999" y="486.482" width="7.98559" height="18.4283" fill="#FFFDEA"/>
<rect x="130.284" y="486.482" width="7.98559" height="18.4283" fill="#FFFDEA"/>
<rect x="142.57" y="486.482" width="7.98559" height="18.4283" fill="#FFFDEA"/>
<rect x="117.999" y="437.34" width="7.98559" height="18.4283" fill="#FFFDEA"/>
<rect x="130.284" y="437.34" width="7.98559" height="18.4283" fill="#FFFDEA"/>
<rect x="142.57" y="437.34" width="7.98559" height="18.4283" fill="#FFFDEA"/>
<rect x="117.999" y="412.77" width="7.98559" height="18.4283" fill="#FFFDEA"/>
<rect x="130.284" y="412.77" width="7.98559" height="18.4283" fill="#FFFDEA"/>
<rect x="142.57" y="412.77" width="7.98559" height="18.4283" fill="#FFFDEA"/>
<path d="M200.619 336.601L226.42 432.535H174.818L200.619 336.601Z" fill="#314C60"/>
<rect x="175.126" y="432.44" width="50.9849" height="84.1429" fill="#314C60"/>
<circle cx="200.619" cy="336.293" r="8.29273" fill="#314C60"/>
<circle cx="200.776" cy="422.134" r="11.2368" fill="#FFFDEA"/>
<rect x="200.133" y="409.698" width="1.98154" height="24.8707" fill="#314C60"/>
<rect x="213.211" y="420.931" width="2.0057" height="24.571" transform="rotate(90 213.211 420.931)" fill="#314C60"/>
<rect x="828.102" y="423.214" width="81.0844" height="93.3699" fill="#314C60"/>
<path d="M868.644 391.271L919.182 429.049H818.106L868.644 391.271Z" fill="#314C60"/>
<rect x="850.216" y="441.643" width="15.9712" height="23.9568" fill="#FFFDEA"/>
<rect x="870.487" y="441.643" width="15.9712" height="23.9568" fill="#FFFDEA"/>
<rect x="850.216" y="480.956" width="15.9712" height="23.9568" fill="#FFFDEA"/>
<rect x="870.487" y="480.956" width="15.9712" height="23.9568" fill="#FFFDEA"/>
<path d="M0 63C31.5867 37.1501 113.181 0.960194 186.863 63C260.546 125.04 349.52 88.8499 384.797 63C422.435 36.5882 517.461 -0.388382 596.458 63C675.454 126.388 769.299 89.4118 806.347 63C835.867 39.398 919.616 6.35512 1018.45 63C1117.28 119.645 1205.46 86.602 1237.2 63C1278.38 41.9268 1376.59 12.4242 1440 63" stroke="#314C60" stroke-width="4"/>
<g filter="url(#filter0_d_335_523)">
<circle cx="298.104" cy="100.105" r="21.7219" transform="rotate(178.981 298.104 100.105)" fill="#EA4C4C"/>
</g>
<g filter="url(#filter1_d_335_523)">
<circle cx="1358.1" cy="33.1053" r="21.7219" transform="rotate(178.981 1358.1 33.1053)" fill="#EA4C4C"/>
</g>
<g filter="url(#filter2_d_335_523)">
<circle cx="1227.1" cy="59.1043" r="21.7219" transform="rotate(178.981 1227.1 59.1043)" fill="#EA4C4C"/>
</g>
<g filter="url(#filter3_d_335_523)">
<circle cx="1111.1" cy="96.1053" r="21.7219" transform="rotate(178.981 1111.1 96.1053)" fill="#EA4C4C"/>
</g>
<g filter="url(#filter4_d_335_523)">
<circle cx="993.104" cy="52.1053" r="21.7219" transform="rotate(178.981 993.104 52.1053)" fill="#EA4C4C"/>
</g>
<g filter="url(#filter5_d_335_523)">
<circle cx="862.104" cy="34.1053" r="21.7219" transform="rotate(178.981 862.104 34.1053)" fill="#EA4C4C"/>
</g>
<g filter="url(#filter6_d_335_523)">
<circle cx="764.104" cy="97.1053" r="21.7219" transform="rotate(178.981 764.104 97.1053)" fill="#EA4C4C"/>
</g>
<g filter="url(#filter7_d_335_523)">
<circle cx="541.104" cy="33.1053" r="21.7219" transform="rotate(178.981 541.104 33.1053)" fill="#EA4C4C"/>
</g>
<g filter="url(#filter8_d_335_523)">
<circle cx="635.104" cy="98.1053" r="21.7219" transform="rotate(178.981 635.104 98.1053)" fill="#EA4C4C"/>
</g>
<g filter="url(#filter9_d_335_523)">
<circle cx="408.104" cy="54.1053" r="21.7219" transform="rotate(178.981 408.104 54.1053)" fill="#EA4C4C"/>
</g>
<g filter="url(#filter10_d_335_523)">
<circle cx="186.104" cy="76.1053" r="21.7219" transform="rotate(178.981 186.104 76.1053)" fill="#EA4C4C"/>
</g>
<g filter="url(#filter11_d_335_523)">
<circle cx="48.1043" cy="28.1053" r="21.7219" transform="rotate(178.981 48.1043 28.1053)" fill="#EA4C4C"/>
</g>
<g filter="url(#filter12_d_335_523)">
<path d="M1332 86.8832C1332 101.795 1319.91 113.883 1305 113.883C1290.09 113.883 1278 101.795 1278 86.8832C1278 71.9715 1290.09 50.4463 1305 50.4463C1319.91 50.4463 1332 71.9715 1332 86.8832Z" fill="#FFF9BE"/>
<rect x="1294.78" y="30" width="20.4466" height="29.8835" rx="10.2233" fill="white"/>
<rect x="1294.78" y="37.8643" width="20.4466" height="29.8835" rx="10.2233" fill="#FFF9BE"/>
<path d="M1299.99 54.1169C1299.99 58.4363 1299.44 64.3402 1298.65 69.0587C1298.39 72.4664 1297.13 76.6041 1297.45 79.9963C1297.64 82.0533 1297.69 87.6274 1299.99 87.6274C1300.58 87.6274 1301.35 87.891 1301.69 87.1113C1302.22 85.9097 1302.8 84.7813 1303.23 83.4985C1303.95 81.4055 1305.72 74.3559 1302.9 74.3559C1301.18 74.3559 1301.74 78.3222 1301.79 79.9963C1301.87 82.242 1302.99 85.5014 1304.29 86.8164C1305.8 88.3382 1307.51 86.1386 1308.5 84.6413C1309.18 83.6145 1309.37 81.302 1309.65 79.9779C1310 78.3011 1310.6 74.8779 1310.02 73.1762C1309.8 72.5358 1308.81 72.5798 1308.39 72.7154C1307.91 72.8671 1307.79 74.1489 1307.63 74.6877C1306.99 76.8632 1308.05 80.0745 1308.79 81.987C1309.46 83.7339 1310.75 85.4212 1312.21 85.3049C1313.69 85.187 1313.36 81.1527 1313.36 79.8488C1313.36 74.4078 1311.76 69.3208 1310.97 63.5538C1310.51 60.146 1309.39 56.1758 1309.39 53.0684" stroke="black" stroke-width="2" stroke-linecap="round"/>
<path d="M1291.16 121.964L1283.77 139.498" stroke="#FFFDEA" stroke-width="5" stroke-linecap="round"/>
<path d="M1305.16 121.748L1304.15 140.114" stroke="#FFFDEA" stroke-width="5" stroke-linecap="round"/>
<path d="M1317.84 122.86L1326.51 140.066" stroke="#FFFDEA" stroke-width="5" stroke-linecap="round"/>
</g>
<g filter="url(#filter13_d_335_523)">
<path d="M1055.77 127.75C1052.71 142.345 1038.4 151.697 1023.81 148.638C1009.21 145.579 999.86 131.268 1002.92 116.674C1005.98 102.079 1022.22 83.4912 1036.82 86.5499C1051.41 89.6086 1058.83 113.156 1055.77 127.75Z" fill="#FFF9BE"/>
<rect x="1031.01" y="64.4414" width="20.4466" height="29.8835" rx="10.2233" transform="rotate(11.8364 1031.01 64.4414)" fill="white"/>
<rect x="1029.39" y="72.1377" width="20.4466" height="29.8835" rx="10.2233" transform="rotate(11.8364 1029.39 72.1377)" fill="#FFF9BE"/>
<path d="M1031.17 89.1156C1030.28 93.3431 1028.53 99.0076 1026.79 103.464C1025.83 106.746 1023.75 110.537 1023.37 113.923C1023.14 115.976 1022.04 121.441 1024.29 121.914C1024.87 122.034 1025.56 122.449 1026.06 121.756C1026.83 120.69 1027.62 119.702 1028.31 118.537C1029.44 116.635 1032.61 110.098 1029.86 109.52C1028.18 109.168 1027.91 113.164 1027.62 114.814C1027.23 117.027 1027.66 120.446 1028.66 122C1029.83 123.799 1031.96 121.998 1033.23 120.736C1034.11 119.871 1034.77 117.646 1035.31 116.407C1036 114.838 1037.29 111.61 1037.07 109.826C1036.99 109.155 1036.01 108.995 1035.57 109.04C1035.07 109.091 1034.69 110.32 1034.42 110.815C1033.35 112.813 1033.73 116.174 1034.06 118.197C1034.35 120.044 1035.27 121.96 1036.72 122.145C1038.19 122.333 1038.71 118.319 1038.97 117.043C1040.09 111.717 1039.56 106.409 1039.98 100.604C1040.22 97.1731 1039.94 93.0571 1040.57 90.0157" stroke="black" stroke-width="2" stroke-linecap="round"/>
<path d="M1008.6 153.708L997.77 169.353" stroke="#FFFDEA" stroke-width="5" stroke-linecap="round"/>
<path d="M1022.35 156.367L1017.6 174.137" stroke="#FFFDEA" stroke-width="5" stroke-linecap="round"/>
<path d="M1034.53 160.058L1039.49 178.675" stroke="#FFFDEA" stroke-width="5" stroke-linecap="round"/>
</g>
<g filter="url(#filter14_d_335_523)">
<path d="M851.604 98.0998C855.319 112.541 846.623 127.26 832.181 130.974C817.739 134.689 803.021 125.993 799.306 111.551C795.592 97.1094 801.937 73.2515 816.379 69.5371C830.821 65.8226 847.89 83.6581 851.604 98.0998Z" fill="#FFF9BE"/>
<rect x="801.385" y="52.2822" width="20.4466" height="29.8835" rx="10.2233" transform="rotate(-14.4241 801.385 52.2822)" fill="white"/>
<rect x="803.344" y="59.8984" width="20.4466" height="29.8835" rx="10.2233" transform="rotate(-14.4241 803.344 59.8984)" fill="#FFF9BE"/>
<path d="M812.446 74.3383C813.522 78.5215 814.454 84.3777 814.868 89.1433C815.463 92.509 815.272 96.8306 816.427 100.036C817.128 101.98 818.564 107.366 820.793 106.792C821.362 106.646 822.167 106.711 822.308 105.87C822.525 104.573 822.796 103.339 822.902 101.987C823.074 99.7814 823.027 92.5145 820.301 93.2157C818.639 93.6432 820.164 97.3461 820.635 98.9537C821.267 101.11 823.16 103.989 824.749 104.938C826.589 106.036 827.703 103.478 828.291 101.781C828.694 100.617 828.299 98.3308 828.237 96.9794C828.159 95.2681 827.886 91.8037 826.904 90.2993C826.534 89.7331 825.586 90.0224 825.208 90.2596C824.785 90.5252 824.984 91.7975 824.965 92.3587C824.888 94.6248 826.717 97.4702 827.903 99.1397C828.987 100.665 830.657 101.977 832.041 101.501C833.445 101.019 832.128 97.1918 831.803 95.929C830.447 90.6595 827.627 86.1323 825.429 80.743C824.13 77.5584 822.054 73.9929 821.28 70.9834" stroke="black" stroke-width="2" stroke-linecap="round"/>
<path d="M820.789 142.248L817.998 161.071" stroke="#FFFDEA" stroke-width="5" stroke-linecap="round"/>
<path d="M834.292 138.552L837.896 156.589" stroke="#FFFDEA" stroke-width="5" stroke-linecap="round"/>
<path d="M846.852 136.47L859.533 150.974" stroke="#FFFDEA" stroke-width="5" stroke-linecap="round"/>
</g>
<g filter="url(#filter15_d_335_523)">
<path d="M520 76.8832C520 91.7949 507.912 103.883 493 103.883C478.088 103.883 466 91.7949 466 76.8832C466 61.9715 478.088 40.4463 493 40.4463C507.912 40.4463 520 61.9715 520 76.8832Z" fill="#FFF9BE"/>
<rect x="482.777" y="20" width="20.4466" height="29.8835" rx="10.2233" fill="white"/>
<rect x="482.777" y="27.8643" width="20.4466" height="29.8835" rx="10.2233" fill="#FFF9BE"/>
<path d="M487.995 44.1169C487.995 48.4363 487.44 54.3402 486.653 59.0587C486.391 62.4664 485.129 66.6041 485.45 69.9963C485.644 72.0533 485.693 77.6274 487.995 77.6274C488.582 77.6274 489.346 77.891 489.692 77.1113C490.225 75.9097 490.795 74.7813 491.234 73.4985C491.95 71.4055 493.715 64.3559 490.9 64.3559C489.184 64.3559 489.739 68.3222 489.795 69.9963C489.869 72.242 490.985 75.5014 492.288 76.8164C493.797 78.3382 495.513 76.1386 496.505 74.6413C497.185 73.6145 497.372 71.302 497.649 69.9779C497.999 68.3011 498.598 64.8779 498.021 63.1762C497.804 62.5358 496.814 62.5798 496.389 62.7154C495.913 62.8671 495.789 64.1489 495.63 64.6877C494.992 66.8632 496.054 70.0745 496.787 71.987C497.457 73.7339 498.747 75.4212 500.207 75.3049C501.686 75.187 501.364 71.1527 501.364 69.8488C501.364 64.4078 499.76 59.3208 498.974 53.5538C498.509 50.146 497.386 46.1758 497.386 43.0684" stroke="black" stroke-width="2" stroke-linecap="round"/>
<path d="M479.159 111.964L471.767 129.498" stroke="#FFFDEA" stroke-width="5" stroke-linecap="round"/>
<path d="M493.158 111.748L492.155 130.114" stroke="#FFFDEA" stroke-width="5" stroke-linecap="round"/>
<path d="M505.84 112.86L514.508 130.066" stroke="#FFFDEA" stroke-width="5" stroke-linecap="round"/>
</g>
<g filter="url(#filter16_d_335_523)">
<path d="M134.538 85.516C131.562 100.128 117.304 109.56 102.692 106.584C88.0808 103.608 78.6481 89.3507 81.6241 74.739C84.6001 60.1273 100.741 41.4477 115.353 44.4237C129.965 47.3997 137.514 70.9043 134.538 85.516Z" fill="#FFF9BE"/>
<rect x="109.416" y="22.3486" width="20.4466" height="29.8835" rx="10.2233" transform="rotate(11.5121 109.416 22.3486)" fill="white"/>
<rect x="107.846" y="30.0537" width="20.4466" height="29.8835" rx="10.2233" transform="rotate(11.5121 107.846 30.0537)" fill="#FFF9BE"/>
<path d="M109.716 47.0213C108.854 51.2538 107.131 56.9281 105.419 61.3947C104.482 64.6816 102.42 68.4842 102.057 71.8721C101.837 73.9266 100.772 79.3983 103.028 79.8577C103.604 79.9749 104.299 80.3856 104.794 79.6906C105.556 78.6196 106.34 77.6277 107.026 76.4583C108.146 74.5503 111.282 67.9948 108.523 67.433C106.842 67.0904 106.594 71.0877 106.314 72.7393C105.939 74.9547 106.382 78.3713 107.397 79.9198C108.571 81.712 110.692 79.8992 111.962 78.63C112.834 77.7596 113.478 75.5309 114.014 74.2887C114.693 72.7156 115.962 69.4807 115.737 67.6983C115.652 67.0274 114.673 66.873 114.229 66.9209C113.732 66.9745 113.355 68.2058 113.092 68.7022C112.032 70.7064 112.432 74.0651 112.769 76.0855C113.077 77.931 114.004 79.8417 115.458 80.019C116.931 80.1988 117.42 76.1813 117.68 74.9036C118.766 69.572 118.21 64.2674 118.59 58.4594C118.815 55.0275 118.508 50.9131 119.128 47.8682" stroke="black" stroke-width="2" stroke-linecap="round"/>
<path d="M87.5176 111.74L76.7747 127.446" stroke="#FFFDEA" stroke-width="5" stroke-linecap="round"/>
<path d="M101.277 114.322L96.6293 132.119" stroke="#FFFDEA" stroke-width="5" stroke-linecap="round"/>
<path d="M113.482 117.943L118.542 136.533" stroke="#FFFDEA" stroke-width="5" stroke-linecap="round"/>
</g>
<g filter="url(#filter17_d_335_523)">
<path d="M396.769 114.849C403.454 128.178 398.067 144.403 384.737 151.087C371.407 157.771 355.183 152.384 348.499 139.055C341.814 125.725 342.971 101.065 356.301 94.3805C369.631 87.6962 390.085 101.519 396.769 114.849Z" fill="#FFF9BE"/>
<rect x="337.997" y="80.6855" width="20.4466" height="29.8835" rx="10.2233" transform="rotate(-26.6319 337.997 80.6855)" fill="white"/>
<rect x="341.522" y="87.7158" width="20.4466" height="29.8835" rx="10.2233" transform="rotate(-26.6319 341.522 87.7158)" fill="#FFF9BE"/>
<path d="M353.472 99.904C355.408 103.765 357.558 109.292 358.97 113.862C360.263 117.026 360.99 121.29 362.797 124.179C363.893 125.93 366.435 130.891 368.493 129.859C369.018 129.596 369.819 129.489 369.778 128.637C369.716 127.324 369.721 126.06 369.538 124.716C369.24 122.524 367.657 115.432 365.141 116.694C363.607 117.463 365.881 120.759 366.681 122.231C367.754 124.205 370.213 126.618 371.967 127.21C373.998 127.894 374.546 125.159 374.761 123.375C374.909 122.153 374.039 120.002 373.693 118.694C373.255 117.038 372.256 113.71 370.978 112.447C370.497 111.972 369.631 112.455 369.312 112.767C368.954 113.116 369.418 114.317 369.518 114.87C369.922 117.101 372.311 119.495 373.824 120.876C375.206 122.137 377.115 123.067 378.368 122.309C379.637 121.541 377.541 118.079 376.956 116.913C374.517 112.05 370.804 108.221 367.516 103.418C365.573 100.581 362.79 97.5347 361.397 94.7569" stroke="black" stroke-width="2" stroke-linecap="round"/>
<path d="M375.987 164.515L377.239 183.502" stroke="#FFFDEA" stroke-width="5" stroke-linecap="round"/>
<path d="M388.403 158.046L395.739 174.913" stroke="#FFFDEA" stroke-width="5" stroke-linecap="round"/>
<path d="M400.238 153.355L415.699 164.85" stroke="#FFFDEA" stroke-width="5" stroke-linecap="round"/>
<path d="M396.769 114.849C403.454 128.178 398.067 144.403 384.737 151.087C371.407 157.771 355.183 152.384 348.499 139.055C341.814 125.725 342.971 101.065 356.301 94.3805C369.631 87.6962 390.085 101.519 396.769 114.849Z" fill="#FFF9BE"/>
<rect x="337.997" y="80.6855" width="20.4466" height="29.8835" rx="10.2233" transform="rotate(-26.6319 337.997 80.6855)" fill="white"/>
<rect x="341.522" y="87.7158" width="20.4466" height="29.8835" rx="10.2233" transform="rotate(-26.6319 341.522 87.7158)" fill="#FFF9BE"/>
<path d="M353.472 99.904C355.408 103.765 357.558 109.292 358.97 113.862C360.263 117.026 360.99 121.29 362.797 124.179C363.893 125.93 366.435 130.891 368.493 129.859C369.018 129.596 369.819 129.489 369.778 128.637C369.716 127.324 369.721 126.06 369.538 124.716C369.24 122.524 367.657 115.432 365.141 116.694C363.607 117.463 365.881 120.759 366.681 122.231C367.754 124.205 370.213 126.618 371.967 127.21C373.998 127.894 374.546 125.159 374.761 123.375C374.909 122.153 374.039 120.002 373.693 118.694C373.255 117.038 372.256 113.71 370.978 112.447C370.497 111.972 369.631 112.455 369.312 112.767C368.954 113.116 369.418 114.317 369.518 114.87C369.922 117.101 372.311 119.495 373.824 120.876C375.206 122.137 377.115 123.067 378.368 122.309C379.637 121.541 377.541 118.079 376.956 116.913C374.517 112.05 370.804 108.221 367.516 103.418C365.573 100.581 362.79 97.5347 361.397 94.7569" stroke="black" stroke-width="2" stroke-linecap="round"/>
<path d="M375.987 164.515L377.239 183.502" stroke="#FFFDEA" stroke-width="5" stroke-linecap="round"/>
<path d="M388.403 158.046L395.739 174.913" stroke="#FFFDEA" stroke-width="5" stroke-linecap="round"/>
<path d="M400.238 153.355L415.699 164.85" stroke="#FFFDEA" stroke-width="5" stroke-linecap="round"/>
</g>
<path d="M34.9901 68.2054C35.4168 66.4295 37.8048 66.1077 38.6864 67.7073L42.6622 74.9216C43.0411 75.6093 43.7875 76.0116 44.5703 75.9501L52.7823 75.3054C54.6031 75.1625 55.6471 77.3342 54.3982 78.6669L48.7656 84.6774C48.2287 85.2504 48.0767 86.0845 48.377 86.81L51.5278 94.4208C52.2264 96.1084 50.4836 97.7723 48.8302 96.9964L41.3733 93.4968C40.6625 93.1633 39.8222 93.2765 39.225 93.7863L32.9603 99.1348C31.5713 100.321 29.4502 99.1773 29.6772 97.3651L30.7012 89.1917C30.7988 88.4126 30.4315 87.6484 29.762 87.238L22.7394 82.9327C21.1824 81.9781 21.6143 79.6075 23.408 79.2634L31.4977 77.7116C32.2689 77.5636 32.8821 76.9781 33.0656 76.2147L34.9901 68.2054Z" fill="#314C60"/>
<path d="M692.953 131.044C693.235 130.251 694.31 130.14 694.749 130.857L697.908 136.023C698.085 136.312 698.395 136.492 698.734 136.501L704.787 136.668C705.628 136.691 706.066 137.678 705.519 138.317L701.582 142.918C701.362 143.176 701.287 143.527 701.383 143.851L703.096 149.66C703.333 150.467 702.53 151.189 701.753 150.866L696.16 148.544C695.848 148.414 695.491 148.451 695.211 148.642L690.216 152.066C689.523 152.542 688.587 152 688.654 151.162L689.135 145.125C689.162 144.788 689.016 144.46 688.748 144.253L683.948 140.561C683.281 140.048 683.507 138.991 684.325 138.796L690.215 137.387C690.544 137.309 690.811 137.069 690.925 136.75L692.953 131.044Z" fill="#314C60"/>
<path d="M443.346 84.1752C443.583 83.3682 444.65 83.1967 445.128 83.8888L448.57 88.871C448.763 89.1495 449.083 89.3118 449.421 89.3022L455.475 89.1308C456.315 89.107 456.808 90.0687 456.298 90.7373L452.623 95.5506C452.418 95.8196 452.362 96.1744 452.476 96.4932L454.509 102.197C454.792 102.99 454.03 103.755 453.236 103.477L447.523 101.469C447.203 101.357 446.849 101.414 446.581 101.62L441.784 105.317C441.118 105.831 440.154 105.342 440.174 104.501L440.318 98.4473C440.326 98.1089 440.162 97.7894 439.883 97.5983L434.885 94.1789C434.191 93.7039 434.357 92.6363 435.163 92.3954L440.965 90.6613C441.29 90.5644 441.543 90.3099 441.638 89.9852L443.346 84.1752Z" fill="#314C60"/>
<path d="M1179.71 101.877C1180.18 101.178 1181.25 101.334 1181.49 102.137L1183.29 107.922C1183.39 108.245 1183.64 108.496 1183.97 108.588L1189.8 110.236C1190.61 110.465 1190.79 111.53 1190.1 112.015L1185.15 115.508C1184.88 115.703 1184.72 116.025 1184.73 116.363L1184.96 122.415C1185 123.255 1184.04 123.758 1183.37 123.254L1178.52 119.628C1178.25 119.426 1177.89 119.374 1177.57 119.491L1171.89 121.582C1171.1 121.873 1170.33 121.118 1170.6 120.322L1172.55 114.588C1172.66 114.268 1172.6 113.914 1172.39 113.648L1168.64 108.889C1168.12 108.228 1168.6 107.259 1169.44 107.271L1175.5 107.353C1175.83 107.358 1176.15 107.191 1176.34 106.909L1179.71 101.877Z" fill="#314C60"/>
<path d="M978.054 84.0257C978.343 83.2358 979.418 83.1338 979.85 83.8554L982.962 89.0503C983.136 89.3407 983.445 89.5233 983.784 89.5357L989.835 89.7571C990.676 89.7879 991.105 90.7795 990.553 91.4135L986.574 95.9785C986.351 96.2337 986.273 96.5841 986.366 96.9096L988.025 102.733C988.256 103.542 987.445 104.257 986.672 103.928L981.1 101.554C980.789 101.421 980.432 101.455 980.151 101.644L975.125 105.022C974.427 105.491 973.496 104.941 973.571 104.103L974.107 98.0715C974.137 97.7343 973.994 97.4049 973.728 97.196L968.962 93.4598C968.3 92.9409 968.535 91.8863 969.355 91.6982L975.257 90.3438C975.587 90.2681 975.857 90.0306 975.973 89.7127L978.054 84.0257Z" fill="#314C60"/>
<path d="M200.056 110.905C200.546 110.221 201.61 110.41 201.833 111.221L203.444 117.058C203.534 117.385 203.783 117.643 204.106 117.746L209.878 119.576C210.68 119.83 210.829 120.9 210.127 121.364L205.073 124.7C204.79 124.886 204.621 125.203 204.624 125.541L204.667 131.597C204.673 132.438 203.701 132.91 203.043 132.386L198.309 128.61C198.044 128.399 197.691 128.336 197.37 128.443L191.624 130.355C190.826 130.621 190.076 129.842 190.372 129.055L192.5 123.385C192.619 123.069 192.569 122.713 192.369 122.441L188.774 117.567C188.275 116.89 188.784 115.937 189.624 115.974L195.674 116.246C196.012 116.261 196.335 116.104 196.532 115.829L200.056 110.905Z" fill="#314C60"/>
<path d="M584.336 74.7177C585.12 73.0681 587.523 73.2461 588.055 74.9932L590.457 82.8727C590.686 83.6238 591.333 84.1714 592.112 84.2729L600.28 85.3368C602.091 85.5727 602.664 87.9131 601.167 88.9594L594.415 93.6781C593.772 94.1279 593.451 94.9127 593.595 95.6846L595.107 103.782C595.443 105.577 593.394 106.846 591.936 105.745L585.362 100.782C584.735 100.309 583.89 100.246 583.2 100.622L575.967 104.562C574.363 105.436 572.523 103.88 573.119 102.153L575.808 94.3671C576.064 93.6249 575.863 92.8014 575.292 92.2617L569.31 86.5997C567.983 85.3443 568.895 83.1139 570.721 83.1474L578.957 83.2985C579.742 83.3129 580.463 82.8666 580.8 82.1574L584.336 74.7177Z" fill="#314C60"/>
<path d="M872.719 57.7073C873.541 56.0766 875.939 56.3109 876.431 58.07L878.646 66.0037C878.858 66.76 879.492 67.3227 880.268 67.4424L888.409 68.6978C890.214 68.9761 890.732 71.3293 889.211 72.3402L882.35 76.8991C881.696 77.3337 881.357 78.1107 881.483 78.8858L882.805 87.0163C883.098 88.819 881.02 90.0391 879.589 88.9047L873.133 83.7886C872.517 83.3009 871.673 83.2184 870.975 83.5778L863.651 87.3473C862.027 88.1831 860.225 86.5839 860.861 84.872L863.732 77.1512C864.006 76.4152 863.823 75.5872 863.266 75.0342L857.418 69.2334C856.121 67.9472 857.085 65.7388 858.91 65.8152L867.14 66.1595C867.924 66.1923 868.655 65.763 869.009 65.062L872.719 57.7073Z" fill="#314C60"/>
<path d="M1355.01 60.2391C1355.5 58.4783 1357.9 58.2359 1358.73 59.8638L1362.94 68.1409C1363.29 68.8408 1364.02 69.2676 1364.81 69.2321L1374.09 68.8125C1375.91 68.73 1376.88 70.9351 1375.59 72.2257L1369.02 78.7875C1368.46 79.3424 1368.28 80.171 1368.56 80.9061L1371.82 89.5993C1372.47 91.309 1370.67 92.9143 1369.04 92.084L1360.77 87.8623C1360.07 87.5053 1359.23 87.5907 1358.62 88.0804L1351.36 93.8727C1349.93 95.0119 1347.85 93.7989 1348.13 91.9952L1349.59 82.8242C1349.72 82.0487 1349.37 81.2728 1348.72 80.8405L1340.97 75.7271C1339.44 74.7214 1339.95 72.3665 1341.76 72.082L1350.93 70.6357C1351.71 70.5134 1352.34 69.9485 1352.55 69.1916L1355.01 60.2391Z" fill="#314C60"/>
<path d="M294.754 113.391C292.594 101.216 297.63 94.3504 310.698 94.1355C320.29 93.6391 310.419 81.4282 300.409 82.3698C294.073 82.9658 280.998 98.7551 280.825 104.454C280.522 114.373 296.488 123.162 294.754 113.391Z" fill="#D94545"/>
<path d="M631.004 84.7148C639.305 93.8799 638.688 102.372 627.733 109.5C619.872 115.018 634.724 120.115 642.702 113.997C647.752 110.125 650.435 89.8013 647.554 84.8819C642.538 76.3185 624.343 77.36 631.004 84.7148Z" fill="#D94545"/>
<path d="M394.881 55.6903C405.471 49.3056 413.686 51.5434 418.576 63.6645C422.48 72.4396 430.336 58.8441 425.866 49.8389C423.037 44.1388 403.608 37.5993 398.226 39.4816C388.858 42.7582 386.383 60.8139 394.881 55.6903Z" fill="#D94545"/>
<path d="M527.251 30.8831C539.383 28.494 546.342 33.4001 546.803 46.4621C547.48 56.0429 559.503 45.943 558.373 35.9531C557.658 29.6297 541.625 16.8542 535.925 16.7877C526.001 16.672 517.515 32.8003 527.251 30.8831Z" fill="#D94545"/>
<path d="M764.93 111.603C759.744 100.378 762.869 92.4573 775.453 88.9257C784.603 86.0061 771.95 76.7075 762.509 80.1639C756.534 82.3516 747.904 100.947 749.186 106.503C751.416 116.173 769.092 120.612 764.93 111.603Z" fill="#D94545"/>
<path d="M849.64 38.3378C858.257 29.4692 866.771 29.5435 874.583 40.022C880.592 47.5151 884.731 32.3683 878.117 24.7965C873.93 20.0038 853.477 18.622 848.751 21.8114C840.525 27.3633 842.725 45.4547 849.64 38.3378Z" fill="#D94545"/>
<ellipse cx="859.978" cy="49.04" rx="6.74116" ry="3.45282" transform="rotate(-175.754 859.978 49.04)" fill="#FFBABA"/>
<path d="M983.912 62.0333C987.981 50.3566 995.731 46.8307 1007.24 53.0335C1015.85 57.2908 1013.21 41.8123 1004.01 37.739C998.196 35.1608 979.07 42.54 976.132 47.4258C971.017 55.9306 980.646 71.4036 983.912 62.0333Z" fill="#D94545"/>
<ellipse cx="997.801" cy="67.3728" rx="6.74116" ry="3.45282" transform="rotate(159.284 997.801 67.3728)" fill="#FFBABA"/>
<path d="M1099.25 88.3869C1111.46 90.3566 1116.28 97.3728 1112.18 109.783C1109.49 119.003 1124.27 113.703 1126.68 103.942C1128.2 97.7636 1117.6 80.2182 1112.28 78.1775C1103.01 74.6252 1089.45 86.8063 1099.25 88.3869Z" fill="#D94545"/>
<ellipse cx="1096.42" cy="102.994" rx="6.74116" ry="3.45282" transform="rotate(-120.764 1096.42 102.994)" fill="#FFBABA"/>
<path d="M1226.85 72.7181C1222.06 61.3173 1225.46 53.5114 1238.16 50.4242C1247.41 47.8279 1235.09 38.0905 1225.53 41.2129C1219.48 43.1893 1210.21 61.4702 1211.29 67.0671C1213.18 76.81 1230.69 81.867 1226.85 72.7181Z" fill="#D94545"/>
<ellipse cx="1240.74" cy="67.3932" rx="6.74116" ry="3.45282" transform="rotate(117.289 1240.74 67.3932)" fill="#FFBABA"/>
<path d="M1343.84 32.5881C1355.32 27.9991 1363.07 31.5353 1365.94 44.2874C1368.37 53.5783 1378.32 41.4314 1375.37 31.822C1373.49 25.7396 1355.38 16.1455 1349.76 17.1332C1339.99 18.8524 1334.63 36.2707 1343.84 32.5881Z" fill="#D94545"/>
<ellipse cx="1348.92" cy="46.5736" rx="6.74116" ry="3.45282" transform="rotate(-151.714 1348.92 46.5736)" fill="#FFBABA"/>
<ellipse cx="531.471" cy="44.7917" rx="6.74116" ry="3.45282" transform="rotate(-143.398 531.471 44.7917)" fill="#FFBABA"/>
<ellipse cx="310.78" cy="110.475" rx="6.74116" ry="3.45282" transform="rotate(-53.5968 310.78 110.475)" fill="#FFBABA"/>
<path d="M180.279 63.628C189.749 71.5796 190.292 80.0768 180.407 88.6277C173.369 95.1636 188.776 98.1939 195.849 91.0486C200.326 86.5259 200.221 66.0259 196.698 61.5439C190.564 53.7418 172.68 57.247 180.279 63.628Z" fill="#D94545"/>
<ellipse cx="169.86" cy="76.1482" rx="6.74116" ry="3.45282" transform="rotate(86.4839 169.86 76.1482)" fill="#FFBABA"/>
<path d="M44.7542 41.3911C42.5939 29.2158 47.6302 22.3504 60.6985 22.1355C70.2903 21.6391 60.4186 9.42823 50.4092 10.3698C44.0735 10.9658 30.9984 26.7551 30.8246 32.4537C30.522 42.3733 46.4877 51.1615 44.7542 41.3911Z" fill="#D94545"/>
<ellipse cx="60.7797" cy="38.475" rx="6.74116" ry="3.45282" transform="rotate(-53.5968 60.7797 38.475)" fill="#FFBABA"/>
<ellipse cx="402.556" cy="68.8288" rx="6.74116" ry="3.45282" transform="rotate(-157.68 402.556 68.8288)" fill="#FFBABA"/>
<ellipse cx="618.933" cy="96.9734" rx="6.74116" ry="3.45282" transform="rotate(-85.839 618.933 96.9734)" fill="#FFBABA"/>
<ellipse cx="777.488" cy="103.504" rx="6.74116" ry="3.45282" transform="rotate(-66.5359 777.488 103.504)" fill="#FFBABA"/>
<rect x="940" y="406" width="26" height="111" fill="#314C60"/>
<rect x="1005" y="406" width="26" height="111" fill="#314C60"/>
<rect x="966" y="338" width="39" height="179" fill="#314C60"/>
<rect x="1258" y="373" width="73" height="144" fill="#314C60"/>
<rect x="1281" y="367" width="28" height="6" fill="#314C60"/>
<path d="M1266 347H1323V367L1294.5 370L1266 367V347Z" fill="#314C60"/>
<defs>
<filter id="filter0_d_335_523" x="270.382" y="72.3828" width="63.4438" height="63.4443" filterUnits="userSpaceOnUse" color-interpolation-filters="sRGB">
<feFlood flood-opacity="0" result="BackgroundImageFix"/>
<feColorMatrix in="SourceAlpha" type="matrix" values="0 0 0 0 0 0 0 0 0 0 0 0 0 0 0 0 0 0 127 0" result="hardAlpha"/>
<feOffset dx="4" dy="4"/>
<feGaussianBlur stdDeviation="5"/>
<feComposite in2="hardAlpha" operator="out"/>
<feColorMatrix type="matrix" values="0 0 0 0 0 0 0 0 0 0 0 0 0 0 0 0 0 0 0.25 0"/>
<feBlend mode="normal" in2="BackgroundImageFix" result="effect1_dropShadow_335_523"/>
<feBlend mode="normal" in="SourceGraphic" in2="effect1_dropShadow_335_523" result="shape"/>
</filter>
<filter id="filter1_d_335_523" x="1330.38" y="5.38281" width="63.4438" height="63.4443" filterUnits="userSpaceOnUse" color-interpolation-filters="sRGB">
<feFlood flood-opacity="0" result="BackgroundImageFix"/>
<feColorMatrix in="SourceAlpha" type="matrix" values="0 0 0 0 0 0 0 0 0 0 0 0 0 0 0 0 0 0 127 0" result="hardAlpha"/>
<feOffset dx="4" dy="4"/>
<feGaussianBlur stdDeviation="5"/>
<feComposite in2="hardAlpha" operator="out"/>
<feColorMatrix type="matrix" values="0 0 0 0 0 0 0 0 0 0 0 0 0 0 0 0 0 0 0.25 0"/>
<feBlend mode="normal" in2="BackgroundImageFix" result="effect1_dropShadow_335_523"/>
<feBlend mode="normal" in="SourceGraphic" in2="effect1_dropShadow_335_523" result="shape"/>
</filter>
<filter id="filter2_d_335_523" x="1199.38" y="31.3818" width="63.4438" height="63.4443" filterUnits="userSpaceOnUse" color-interpolation-filters="sRGB">
<feFlood flood-opacity="0" result="BackgroundImageFix"/>
<feColorMatrix in="SourceAlpha" type="matrix" values="0 0 0 0 0 0 0 0 0 0 0 0 0 0 0 0 0 0 127 0" result="hardAlpha"/>
<feOffset dx="4" dy="4"/>
<feGaussianBlur stdDeviation="5"/>
<feComposite in2="hardAlpha" operator="out"/>
<feColorMatrix type="matrix" values="0 0 0 0 0 0 0 0 0 0 0 0 0 0 0 0 0 0 0.25 0"/>
<feBlend mode="normal" in2="BackgroundImageFix" result="effect1_dropShadow_335_523"/>
<feBlend mode="normal" in="SourceGraphic" in2="effect1_dropShadow_335_523" result="shape"/>
</filter>
<filter id="filter3_d_335_523" x="1083.38" y="68.3828" width="63.4438" height="63.4443" filterUnits="userSpaceOnUse" color-interpolation-filters="sRGB">
<feFlood flood-opacity="0" result="BackgroundImageFix"/>
<feColorMatrix in="SourceAlpha" type="matrix" values="0 0 0 0 0 0 0 0 0 0 0 0 0 0 0 0 0 0 127 0" result="hardAlpha"/>
<feOffset dx="4" dy="4"/>
<feGaussianBlur stdDeviation="5"/>
<feComposite in2="hardAlpha" operator="out"/>
<feColorMatrix type="matrix" values="0 0 0 0 0 0 0 0 0 0 0 0 0 0 0 0 0 0 0.25 0"/>
<feBlend mode="normal" in2="BackgroundImageFix" result="effect1_dropShadow_335_523"/>
<feBlend mode="normal" in="SourceGraphic" in2="effect1_dropShadow_335_523" result="shape"/>
</filter>
<filter id="filter4_d_335_523" x="965.382" y="24.3828" width="63.4438" height="63.4443" filterUnits="userSpaceOnUse" color-interpolation-filters="sRGB">
<feFlood flood-opacity="0" result="BackgroundImageFix"/>
<feColorMatrix in="SourceAlpha" type="matrix" values="0 0 0 0 0 0 0 0 0 0 0 0 0 0 0 0 0 0 127 0" result="hardAlpha"/>
<feOffset dx="4" dy="4"/>
<feGaussianBlur stdDeviation="5"/>
<feComposite in2="hardAlpha" operator="out"/>
<feColorMatrix type="matrix" values="0 0 0 0 0 0 0 0 0 0 0 0 0 0 0 0 0 0 0.25 0"/>
<feBlend mode="normal" in2="BackgroundImageFix" result="effect1_dropShadow_335_523"/>
<feBlend mode="normal" in="SourceGraphic" in2="effect1_dropShadow_335_523" result="shape"/>
</filter>
<filter id="filter5_d_335_523" x="834.382" y="6.38281" width="63.4438" height="63.4443" filterUnits="userSpaceOnUse" color-interpolation-filters="sRGB">
<feFlood flood-opacity="0" result="BackgroundImageFix"/>
<feColorMatrix in="SourceAlpha" type="matrix" values="0 0 0 0 0 0 0 0 0 0 0 0 0 0 0 0 0 0 127 0" result="hardAlpha"/>
<feOffset dx="4" dy="4"/>
<feGaussianBlur stdDeviation="5"/>
<feComposite in2="hardAlpha" operator="out"/>
<feColorMatrix type="matrix" values="0 0 0 0 0 0 0 0 0 0 0 0 0 0 0 0 0 0 0.25 0"/>
<feBlend mode="normal" in2="BackgroundImageFix" result="effect1_dropShadow_335_523"/>
<feBlend mode="normal" in="SourceGraphic" in2="effect1_dropShadow_335_523" result="shape"/>
</filter>
<filter id="filter6_d_335_523" x="736.382" y="69.3828" width="63.4438" height="63.4443" filterUnits="userSpaceOnUse" color-interpolation-filters="sRGB">
<feFlood flood-opacity="0" result="BackgroundImageFix"/>
<feColorMatrix in="SourceAlpha" type="matrix" values="0 0 0 0 0 0 0 0 0 0 0 0 0 0 0 0 0 0 127 0" result="hardAlpha"/>
<feOffset dx="4" dy="4"/>
<feGaussianBlur stdDeviation="5"/>
<feComposite in2="hardAlpha" operator="out"/>
<feColorMatrix type="matrix" values="0 0 0 0 0 0 0 0 0 0 0 0 0 0 0 0 0 0 0.25 0"/>
<feBlend mode="normal" in2="BackgroundImageFix" result="effect1_dropShadow_335_523"/>
<feBlend mode="normal" in="SourceGraphic" in2="effect1_dropShadow_335_523" result="shape"/>
</filter>
<filter id="filter7_d_335_523" x="513.382" y="5.38281" width="63.4438" height="63.4443" filterUnits="userSpaceOnUse" color-interpolation-filters="sRGB">
<feFlood flood-opacity="0" result="BackgroundImageFix"/>
<feColorMatrix in="SourceAlpha" type="matrix" values="0 0 0 0 0 0 0 0 0 0 0 0 0 0 0 0 0 0 127 0" result="hardAlpha"/>
<feOffset dx="4" dy="4"/>
<feGaussianBlur stdDeviation="5"/>
<feComposite in2="hardAlpha" operator="out"/>
<feColorMatrix type="matrix" values="0 0 0 0 0 0 0 0 0 0 0 0 0 0 0 0 0 0 0.25 0"/>
<feBlend mode="normal" in2="BackgroundImageFix" result="effect1_dropShadow_335_523"/>
<feBlend mode="normal" in="SourceGraphic" in2="effect1_dropShadow_335_523" result="shape"/>
</filter>
<filter id="filter8_d_335_523" x="607.382" y="70.3828" width="63.4438" height="63.4443" filterUnits="userSpaceOnUse" color-interpolation-filters="sRGB">
<feFlood flood-opacity="0" result="BackgroundImageFix"/>
<feColorMatrix in="SourceAlpha" type="matrix" values="0 0 0 0 0 0 0 0 0 0 0 0 0 0 0 0 0 0 127 0" result="hardAlpha"/>
<feOffset dx="4" dy="4"/>
<feGaussianBlur stdDeviation="5"/>
<feComposite in2="hardAlpha" operator="out"/>
<feColorMatrix type="matrix" values="0 0 0 0 0 0 0 0 0 0 0 0 0 0 0 0 0 0 0.25 0"/>
<feBlend mode="normal" in2="BackgroundImageFix" result="effect1_dropShadow_335_523"/>
<feBlend mode="normal" in="SourceGraphic" in2="effect1_dropShadow_335_523" result="shape"/>
</filter>
<filter id="filter9_d_335_523" x="380.382" y="26.3828" width="63.4438" height="63.4443" filterUnits="userSpaceOnUse" color-interpolation-filters="sRGB">
<feFlood flood-opacity="0" result="BackgroundImageFix"/>
<feColorMatrix in="SourceAlpha" type="matrix" values="0 0 0 0 0 0 0 0 0 0 0 0 0 0 0 0 0 0 127 0" result="hardAlpha"/>
<feOffset dx="4" dy="4"/>
<feGaussianBlur stdDeviation="5"/>
<feComposite in2="hardAlpha" operator="out"/>
<feColorMatrix type="matrix" values="0 0 0 0 0 0 0 0 0 0 0 0 0 0 0 0 0 0 0.25 0"/>
<feBlend mode="normal" in2="BackgroundImageFix" result="effect1_dropShadow_335_523"/>
<feBlend mode="normal" in="SourceGraphic" in2="effect1_dropShadow_335_523" result="shape"/>
</filter>
<filter id="filter10_d_335_523" x="158.382" y="48.3828" width="63.4438" height="63.4443" filterUnits="userSpaceOnUse" color-interpolation-filters="sRGB">
<feFlood flood-opacity="0" result="BackgroundImageFix"/>
<feColorMatrix in="SourceAlpha" type="matrix" values="0 0 0 0 0 0 0 0 0 0 0 0 0 0 0 0 0 0 127 0" result="hardAlpha"/>
<feOffset dx="4" dy="4"/>
<feGaussianBlur stdDeviation="5"/>
<feComposite in2="hardAlpha" operator="out"/>
<feColorMatrix type="matrix" values="0 0 0 0 0 0 0 0 0 0 0 0 0 0 0 0 0 0 0.25 0"/>
<feBlend mode="normal" in2="BackgroundImageFix" result="effect1_dropShadow_335_523"/>
<feBlend mode="normal" in="SourceGraphic" in2="effect1_dropShadow_335_523" result="shape"/>
</filter>
<filter id="filter11_d_335_523" x="20.3823" y="0.382812" width="63.4438" height="63.4443" filterUnits="userSpaceOnUse" color-interpolation-filters="sRGB">
<feFlood flood-opacity="0" result="BackgroundImageFix"/>
<feColorMatrix in="SourceAlpha" type="matrix" values="0 0 0 0 0 0 0 0 0 0 0 0 0 0 0 0 0 0 127 0" result="hardAlpha"/>
<feOffset dx="4" dy="4"/>
<feGaussianBlur stdDeviation="5"/>
<feComposite in2="hardAlpha" operator="out"/>
<feColorMatrix type="matrix" values="0 0 0 0 0 0 0 0 0 0 0 0 0 0 0 0 0 0 0.25 0"/>
<feBlend mode="normal" in2="BackgroundImageFix" result="effect1_dropShadow_335_523"/>
<feBlend mode="normal" in="SourceGraphic" in2="effect1_dropShadow_335_523" result="shape"/>
</filter>
<filter id="filter12_d_335_523" x="1278" y="30" width="62" height="120.611" filterUnits="userSpaceOnUse" color-interpolation-filters="sRGB">
<feFlood flood-opacity="0" result="BackgroundImageFix"/>
<feColorMatrix in="SourceAlpha" type="matrix" values="0 0 0 0 0 0 0 0 0 0 0 0 0 0 0 0 0 0 127 0" result="hardAlpha"/>
<feOffset dx="4" dy="4"/>
<feGaussianBlur stdDeviation="2"/>
<feComposite in2="hardAlpha" operator="out"/>
<feColorMatrix type="matrix" values="0 0 0 0 0 0 0 0 0 0 0 0 0 0 0 0 0 0 0.25 0"/>
<feBlend mode="normal" in2="BackgroundImageFix" result="effect1_dropShadow_335_523"/>
<feBlend mode="normal" in="SourceGraphic" in2="effect1_dropShadow_335_523" result="shape"/>
</filter>
<filter id="filter13_d_335_523" x="995.095" y="66.3193" width="69.3555" height="122.777" filterUnits="userSpaceOnUse" color-interpolation-filters="sRGB">
<feFlood flood-opacity="0" result="BackgroundImageFix"/>
<feColorMatrix in="SourceAlpha" type="matrix" values="0 0 0 0 0 0 0 0 0 0 0 0 0 0 0 0 0 0 127 0" result="hardAlpha"/>
<feOffset dx="4" dy="4"/>
<feGaussianBlur stdDeviation="2"/>
<feComposite in2="hardAlpha" operator="out"/>
<feColorMatrix type="matrix" values="0 0 0 0 0 0 0 0 0 0 0 0 0 0 0 0 0 0 0.25 0"/>
<feBlend mode="normal" in2="BackgroundImageFix" result="effect1_dropShadow_335_523"/>
<feBlend mode="normal" in="SourceGraphic" in2="effect1_dropShadow_335_523" result="shape"/>
</filter>
<filter id="filter14_d_335_523" x="798.265" y="49.4111" width="71.9854" height="122.133" filterUnits="userSpaceOnUse" color-interpolation-filters="sRGB">
<feFlood flood-opacity="0" result="BackgroundImageFix"/>
<feColorMatrix in="SourceAlpha" type="matrix" values="0 0 0 0 0 0 0 0 0 0 0 0 0 0 0 0 0 0 127 0" result="hardAlpha"/>
<feOffset dx="4" dy="4"/>
<feGaussianBlur stdDeviation="2"/>
<feComposite in2="hardAlpha" operator="out"/>
<feColorMatrix type="matrix" values="0 0 0 0 0 0 0 0 0 0 0 0 0 0 0 0 0 0 0.25 0"/>
<feBlend mode="normal" in2="BackgroundImageFix" result="effect1_dropShadow_335_523"/>
<feBlend mode="normal" in="SourceGraphic" in2="effect1_dropShadow_335_523" result="shape"/>
</filter>
<filter id="filter15_d_335_523" x="466" y="20" width="62" height="120.611" filterUnits="userSpaceOnUse" color-interpolation-filters="sRGB">
<feFlood flood-opacity="0" result="BackgroundImageFix"/>
<feColorMatrix in="SourceAlpha" type="matrix" values="0 0 0 0 0 0 0 0 0 0 0 0 0 0 0 0 0 0 127 0" result="hardAlpha"/>
<feOffset dx="4" dy="4"/>
<feGaussianBlur stdDeviation="2"/>
<feComposite in2="hardAlpha" operator="out"/>
<feColorMatrix type="matrix" values="0 0 0 0 0 0 0 0 0 0 0 0 0 0 0 0 0 0 0.25 0"/>
<feBlend mode="normal" in2="BackgroundImageFix" result="effect1_dropShadow_335_523"/>
<feBlend mode="normal" in="SourceGraphic" in2="effect1_dropShadow_335_523" result="shape"/>
</filter>
<filter id="filter16_d_335_523" x="74.1006" y="24.1816" width="69.0786" height="122.771" filterUnits="userSpaceOnUse" color-interpolation-filters="sRGB">
<feFlood flood-opacity="0" result="BackgroundImageFix"/>
<feColorMatrix in="SourceAlpha" type="matrix" values="0 0 0 0 0 0 0 0 0 0 0 0 0 0 0 0 0 0 127 0" result="hardAlpha"/>
<feOffset dx="4" dy="4"/>
<feGaussianBlur stdDeviation="2"/>
<feComposite in2="hardAlpha" operator="out"/>
<feColorMatrix type="matrix" values="0 0 0 0 0 0 0 0 0 0 0 0 0 0 0 0 0 0 0.25 0"/>
<feBlend mode="normal" in2="BackgroundImageFix" result="effect1_dropShadow_335_523"/>
<feBlend mode="normal" in="SourceGraphic" in2="effect1_dropShadow_335_523" result="shape"/>
</filter>
<filter id="filter17_d_335_523" x="341.492" y="75.0156" width="84.9351" height="119.048" filterUnits="userSpaceOnUse" color-interpolation-filters="sRGB">
<feFlood flood-opacity="0" result="BackgroundImageFix"/>
<feColorMatrix in="SourceAlpha" type="matrix" values="0 0 0 0 0 0 0 0 0 0 0 0 0 0 0 0 0 0 127 0" result="hardAlpha"/>
<feOffset dx="4" dy="4"/>
<feGaussianBlur stdDeviation="2"/>
<feComposite in2="hardAlpha" operator="out"/>
<feColorMatrix type="matrix" values="0 0 0 0 0 0 0 0 0 0 0 0 0 0 0 0 0 0 0.25 0"/>
<feBlend mode="normal" in2="BackgroundImageFix" result="effect1_dropShadow_335_523"/>
<feBlend mode="normal" in="SourceGraphic" in2="effect1_dropShadow_335_523" result="shape"/>
</filter>
</defs>
</svg>
