<?xml version="1.0" encoding="UTF-8"?><svg xmlns="http://www.w3.org/2000/svg" viewBox="0 0 107.43282 34.38515"><defs><style>.d{fill:#fdfcea;}.e{fill:#f1c550;stroke:#2e4b5e;stroke-miterlimit:10;stroke-width:1.5px;}</style></defs><g id="a"/><g id="b"><g id="c"><g><circle class="d" cx="40.29897" cy="18.79941" r="15.58573"/><circle class="d" cx="64.61652" cy="15.58573" r="15.58573"/><circle class="d" cx="91.84709" cy="18.79941" r="15.58573"/><circle class="d" cx="15.58573" cy="15.58573" r="15.58573"/><g><path class="e" d="M102.02539,23.32764l.50977,.65527c.30713,.4209,.4248,.89014,.35205,1.40771-.07275,.51807-.31982,.93896-.74072,1.26221l-.55811,.41309c-.24268,.19385-.51807,.2749-.8252,.24268-.30762-.03271-.55859-.17822-.75244-.43701-.06494-.08105-.12988-.08887-.19434-.02441-1.03564,1.03564-2.20068,1.55371-3.49512,1.55371-1.2627,0-2.30615-.38477-3.13135-1.15332-.82568-.76807-1.23828-1.75977-1.23828-2.97314,0-1.16553,.42871-2.14404,1.28662-2.9375,.85742-.79248,1.96631-1.18896,3.32568-1.18896,.42041,0,.81689,.02393,1.18945,.07275,.17773,.03223,.2666-.04053,.2666-.21875v-.8252c0-.80908-.21436-1.56152-.64307-2.25732-.4292-.6958-1.02344-1.27051-1.78418-1.72363-.16211-.09717-.27539-.05664-.33984,.12158-1.61816,4.11035-3.28125,7.19727-4.98828,9.26025-1.70752,2.06348-3.24854,3.09473-4.62402,3.09473-1.45654,0-2.62988-.60303-3.51953-1.80811-.89014-1.20557-1.33496-2.94922-1.33496-5.23096,0-2.89648,1.03516-5.33203,3.10693-7.30664,.12939-.12891,.16992-.2749,.12109-.43652-.12939-.48584-.32373-1.22998-.58252-2.2334-.12939-.51758-.04834-1.00732,.24268-1.46875,.2915-.46094,.7041-.75586,1.23828-.88574,.53369-.11328,1.03516-.02441,1.50488,.26709,.46924,.29102,.76855,.70361,.89795,1.23779,.01611,.09717,.05664,.25098,.12158,.46143,.06445,.21045,.10498,.36377,.12109,.46094,.03223,.17822,.1377,.23486,.31592,.16992,1.32666-.46924,2.76709-.7041,4.32031-.7041h.21875c.19434,0,.31543-.08057,.36426-.24268,.03223-.09668,.07617-.23438,.1333-.4126,.05664-.17773,.10107-.30713,.1333-.38818,.17822-.56641,.51807-1.00342,1.01953-1.31104,.50146-.30713,1.04395-.4126,1.62646-.31543h.04834c.55029,.09717,.9668,.38037,1.25049,.84961,.28271,.46973,.34326,.96289,.18164,1.48096-.12939,.4209-.22656,.72803-.29102,.92236-.06494,.17822-.0166,.30762,.14551,.38818,1.6665,.72803,2.97754,1.80029,3.93262,3.21631,.95459,1.41602,1.43213,3.01416,1.43213,4.79395,0,1.35938-.146,2.58936-.43701,3.68945-.04883,.17822-.02441,.33203,.07275,.46143Zm-16.38477-.02441c.25879,0,.65527-.31543,1.18945-.94678,.09717-.11279,.11279-.2583,.04834-.43652-.21045-.55029-.63086-1.78027-1.26221-3.68994-.01611-.04834-.04834-.06836-.09668-.06055-.04883,.0083-.08936,.03662-.12158,.08496-.32373,.74463-.48535,1.5376-.48535,2.37891,0,.55029,.04004,1.03564,.12109,1.45654s.17383,.72803,.2793,.92236c.10498,.19385,.21436,.29102,.32764,.29102Zm5.36475-8.66553c.03223-.06445,.03223-.12158,0-.16992-.03271-.04883-.08154-.06445-.146-.04883-.74463,.11377-1.37549,.27539-1.89307,.48584-.16211,.04834-.21045,.17822-.146,.38818,.24316,.8418,.46924,1.58594,.67969,2.2334,.01611,.04834,.04883,.07275,.09717,.07275,.04883,0,.08887-.02441,.12158-.07275,.45264-.95459,.88184-1.91797,1.28662-2.88867Zm6.48096,9.51514c.09717-.17773,.07275-.32324-.07275-.43701-.22705-.19385-.50977-.29102-.84961-.29102-.25928,0-.48584,.08496-.67969,.25488-.19434,.16992-.2915,.36816-.2915,.59473,0,.21045,.06885,.38428,.20654,.52148,.13721,.1377,.31104,.20654,.52197,.20654,.51758,0,.90576-.28271,1.16504-.84961Z"/><g><path class="e" d="M47.54933,24.85538c.55029-.03223,1.05176,.09717,1.50488,.38867,.45312,.29102,.72852,.6958,.82568,1.21338,.09717,.55029-.01221,1.05615-.32764,1.51709-.31592,.46143-.74072,.72412-1.27441,.78906-.72852,.08105-1.36768,.12158-1.91797,.12158-1.65039,0-2.89648-.23486-3.73779-.7041-.8418-.46973-1.37598-1.20557-1.60205-2.20898-.146-.64697-.2915-1.09229-.43701-1.33496s-.32422-.36426-.53418-.36426c-.19434,0-.56641,.16602-1.1167,.49756-.55029,.33203-2.19287,1.4043-4.92725,3.21631-.46973,.32373-.9873,.43311-1.55371,.32764s-1.01953-.39258-1.35938-.86133l-.04834-.04883c-.32373-.46924-.4292-.97461-.31543-1.51709,.11279-.54199,.4043-.9668,.87354-1.27441l10.24365-6.60254c.01611,0,.02441-.00781,.02441-.02393s-.0083-.02441-.02441-.02441h-8.10742c-.53418,0-.99121-.18994-1.37158-.57031-.38037-.37988-.57031-.8374-.57031-1.37158s.18994-.99121,.57031-1.37158c.38037-.37988,.8374-.57031,1.37158-.57031h12.2583c.56592,0,1.05176,.20264,1.45605,.60693,.4043,.40479,.60693,.89014,.60693,1.45654v.4126c0,1.35938-.57471,2.41943-1.72314,3.17969l-2.74316,1.79639,.02441,.02393c.22656,0,.46924,.1665,.72803,.49805s.44482,.74854,.55859,1.25c.16162,.6958,.35156,1.13281,.57031,1.31055,.21826,.17822,.67529,.26709,1.37158,.26709,.30713,0,.54199-.00781,.70361-.02441Z"/><rect class="e" x="37.71615" y="6.14063" width="5.16564" height="6.31171" rx="2.58282" ry="2.58282" transform="translate(31.00249 49.59545) rotate(-90)"/></g><g><path class="e" d="M66.60225,16.3336c.5498,.21094,.94678,.5708,1.18945,1.08057s.24268,1.02344,0,1.54102c-.85791,1.86133-1.88135,3.30566-3.0708,4.33301s-2.34229,1.5415-3.45898,1.5415c-1.48877,0-2.87256-.96289-4.15088-2.88867s-1.91748-4.28027-1.91748-7.06348c0-2.2168,.25879-4.46631,.77686-6.74805,.12939-.58252,.44922-1.03955,.95898-1.37158,.50928-.33154,1.06348-.46484,1.6626-.40039l.36426,.04834c.53369,.06494,.9585,.31982,1.27393,.76465,.31592,.44531,.4165,.93457,.30371,1.46875-.48535,2.34619-.72852,4.42578-.72852,6.23828,0,.76074,.06104,1.48486,.18213,2.17236,.12158,.68799,.2793,1.25439,.47363,1.69922,.19385,.44531,.39209,.80078,.59473,1.06787,.20215,.26709,.39209,.40039,.57031,.40039,.24268,0,.55811-.23047,.94678-.69141,.38818-.46143,.80078-1.12891,1.23779-2.00293,.25879-.51758,.65918-.89795,1.20166-1.14062,.54199-.24268,1.07178-.25879,1.58984-.04883Z"/><rect class="e" x="70.19307" y="10.38998" width="5.16564" height="6.31171" rx="2.58282" ry="2.58282" transform="translate(-1.02614 19.29733) rotate(-14.99999)"/></g><g><path class="e" d="M17.9068,16.3336c.5498,.21094,.94678,.5708,1.18945,1.08057s.24268,1.02344,0,1.54102c-.85791,1.86133-1.88135,3.30566-3.0708,4.33301s-2.34229,1.5415-3.45898,1.5415c-1.48877,0-2.87256-.96289-4.15088-2.88867s-1.91748-4.28027-1.91748-7.06348c0-2.2168,.25879-4.46631,.77686-6.74805,.12939-.58252,.44922-1.03955,.95898-1.37158,.50928-.33154,1.06348-.46484,1.6626-.40039l.36426,.04834c.53369,.06494,.9585,.31982,1.27393,.76465,.31592,.44531,.4165,.93457,.30371,1.46875-.48535,2.34619-.72852,4.42578-.72852,6.23828,0,.76074,.06104,1.48486,.18213,2.17236,.12158,.68799,.2793,1.25439,.47363,1.69922,.19385,.44531,.39209,.80078,.59473,1.06787,.20215,.26709,.39209,.40039,.57031,.40039,.24268,0,.55811-.23047,.94678-.69141,.38818-.46143,.80078-1.12891,1.23779-2.00293,.25879-.51758,.65918-.89795,1.20166-1.14062,.54199-.24268,1.07178-.25879,1.58984-.04883Z"/><rect class="e" x="21.49762" y="10.38998" width="5.16564" height="6.31171" rx="2.58282" ry="2.58282" transform="translate(-2.6854 6.69404) rotate(-14.99999)"/></g></g></g></g></g></svg>