<svg width="861" height="883" viewBox="0 0 861 883" fill="none" xmlns="http://www.w3.org/2000/svg">
<path d="M185.317 167.881C185.053 177.488 177.574 189.553 168.765 189.311C159.955 189.068 153.151 176.611 153.415 167.004C153.679 157.396 161.035 149.805 169.844 150.047C178.654 150.289 185.581 158.274 185.317 167.881Z" fill="#DD7575"/>
<path d="M166.923 185.467C167.75 184.35 169.436 184.396 170.201 185.557L172.385 188.872C173.274 190.223 172.276 192.016 170.66 191.972L166.112 191.847C164.496 191.802 163.598 189.957 164.56 188.657L166.923 185.467Z" fill="#DD7575"/>
<path d="M167.062 155.985C166.619 156.51 165.888 157.64 165.241 157.094C164.593 156.548 164.772 155.096 165.215 154.571C165.658 154.046 167.076 153.223 167.724 153.769C168.372 154.315 167.505 155.46 167.062 155.985Z" fill="white"/>
<path d="M159.176 170.623C157.079 166.957 158.97 162.48 159.582 160.486C161.204 156.64 163.195 156.471 162.117 159.816C160.924 162.472 160.464 163.967 160.341 165.189C160.243 166.166 160.491 168.802 161.07 170.197C161.211 171.856 161.274 174.289 159.176 170.623Z" fill="white"/>
<path d="M362.056 29.8458C358.319 38.6999 346.967 47.2216 338.848 43.7943C330.729 40.3669 328.917 26.2883 332.655 17.4342C336.393 8.58004 346.005 4.18077 354.123 7.60814C362.242 11.0355 365.794 20.9916 362.056 29.8458Z" fill="#DD7575"/>
<path d="M338.529 39.5446C339.706 38.8048 341.26 39.4607 341.55 40.8197L342.38 44.7023C342.718 46.284 341.136 47.5919 339.646 46.9629L335.455 45.1938C333.965 44.5647 333.799 42.5191 335.168 41.6581L338.529 39.5446Z" fill="#DD7575"/>
<path d="M349.373 12.1293C348.77 12.4574 347.679 13.2448 347.274 12.5003C346.869 11.7559 347.564 10.4689 348.167 10.1408C348.771 9.81271 350.391 9.56075 350.796 10.3052C351.201 11.0496 349.977 11.8012 349.373 12.1293Z" fill="white"/>
<path d="M336.707 22.8996C336.085 18.7221 339.474 15.2389 340.769 13.6035C343.678 10.61 345.594 11.176 343.374 13.9011C341.298 15.9412 340.326 17.1677 339.767 18.2607C339.321 19.135 338.593 21.6812 338.626 23.1911C338.154 24.788 337.329 27.0772 336.707 22.8996Z" fill="white"/>
<path d="M65.3301 79.8087C67.8176 89.092 64.0915 102.789 55.5791 105.07C47.0667 107.351 36.9914 97.3519 34.5039 88.0686C32.0165 78.7853 36.9007 69.4107 45.4131 67.1298C53.9255 64.8489 62.8427 70.5255 65.3301 79.8087Z" fill="#99C1CB"/>
<path d="M52.7179 101.911C53.1921 100.604 54.8211 100.168 55.8848 101.062L58.924 103.617C60.1621 104.657 59.717 106.661 58.1547 107.08L53.7609 108.257C52.1986 108.675 50.8114 107.163 51.3633 105.643L52.7179 101.911Z" fill="#99C1CB"/>
<path d="M45.3972 72.9278C45.0551 73.5234 44.538 74.7659 43.8032 74.3438C43.0684 73.9218 42.9858 72.4617 43.3279 71.8661C43.67 71.2705 44.9182 70.2069 45.653 70.6289C46.3878 71.051 45.7392 72.3322 45.3972 72.9278Z" fill="white"/>
<path d="M40.2509 88.7379C37.5327 85.5052 38.5943 80.763 38.8409 78.6913C39.75 74.6177 41.6788 74.0959 41.2155 77.5801C40.5155 80.4058 40.3306 81.9596 40.4273 83.1832C40.5047 84.1621 41.2193 86.7118 42.0379 87.981C42.4728 89.5883 42.969 91.9705 40.2509 88.7379Z" fill="white"/>
<path d="M287.724 95.7947C286.671 105.348 278.226 116.756 269.466 115.791C260.706 114.825 254.95 101.85 256.003 92.297C257.056 82.7441 265.011 75.783 273.771 76.7489C282.53 77.7147 288.778 86.2418 287.724 95.7947Z" fill="#99C1CB"/>
<path d="M267.947 111.808C268.863 110.763 270.539 110.948 271.206 112.167L273.11 115.651C273.885 117.071 272.743 118.776 271.135 118.598L266.614 118.1C265.006 117.923 264.263 116.01 265.329 114.794L267.947 111.808Z" fill="#99C1CB"/>
<path d="M270.509 82.4385C270.025 82.9252 269.204 83.9915 268.603 83.3937C268.003 82.7959 268.301 81.3641 268.786 80.8774C269.27 80.3906 270.751 79.6863 271.352 80.2842C271.952 80.882 270.994 81.9517 270.509 82.4385Z" fill="white"/>
<path d="M261.447 96.3771C259.658 92.5511 261.911 88.2451 262.685 86.3079C264.618 82.6084 266.616 82.6036 265.267 85.8492C263.859 88.3974 263.278 89.8503 263.055 91.0573C262.876 92.0229 262.907 94.6707 263.369 96.1084C263.373 97.7735 263.236 100.203 261.447 96.3771Z" fill="white"/>
<path d="M236.426 52.3788C238.35 61.7949 233.806 75.2427 225.172 77.0071C216.538 78.7715 207.083 68.1843 205.158 58.7682C203.234 49.352 208.674 40.2884 217.308 38.524C225.942 36.7596 234.502 42.9626 236.426 52.3788Z" fill="#BEA4D5"/>
<path d="M222.505 73.682C223.057 72.4066 224.71 72.069 225.718 73.0256L228.598 75.7586C229.771 76.8719 229.206 78.845 227.621 79.1688L223.165 80.0796C221.58 80.4034 220.286 78.8101 220.929 77.3257L222.505 73.682Z" fill="#BEA4D5"/>
<path d="M215.946 44.9391C215.634 45.551 215.179 46.8175 214.425 46.4324C213.67 46.0473 213.515 44.5931 213.827 43.9813C214.139 43.3694 215.333 42.2453 216.088 42.6304C216.843 43.0155 216.259 44.3273 215.946 44.9391Z" fill="white"/>
<path d="M211.59 60.9843C208.715 57.8904 209.54 53.1013 209.684 51.02C210.39 46.9063 212.291 46.2895 212.001 49.7924C211.442 52.6494 211.334 54.2104 211.491 55.4277C211.617 56.4016 212.457 58.9127 213.338 60.1397C213.852 61.7235 214.465 64.0782 211.59 60.9843Z" fill="white"/>
<path d="M225.294 128.881C225.018 138.488 217.524 150.543 208.715 150.29C199.906 150.036 193.117 137.57 193.394 127.963C193.67 118.357 201.035 110.774 209.844 111.028C218.653 111.281 225.57 119.274 225.294 128.881Z" fill="#BEA4D5"/>
<path d="M206.878 146.444C207.707 145.329 209.392 145.377 210.155 146.539L212.335 149.857C213.223 151.209 212.223 153.001 210.606 152.954L206.059 152.823C204.443 152.777 203.547 150.93 204.511 149.632L206.878 146.444Z" fill="#BEA4D5"/>
<path d="M207.054 116.962C206.611 117.487 205.879 118.616 205.232 118.069C204.585 117.522 204.766 116.07 205.21 115.546C205.653 115.022 207.072 114.2 207.719 114.747C208.366 115.294 207.498 116.438 207.054 116.962Z" fill="white"/>
<path d="M199.15 131.59C197.057 127.921 198.954 123.447 199.569 121.453C201.195 117.609 203.186 117.443 202.104 120.787C200.908 123.441 200.447 124.936 200.322 126.157C200.222 127.134 200.467 129.771 201.044 131.166C201.183 132.825 201.243 135.258 199.15 131.59Z" fill="white"/>
<path d="M178.457 97.7029C179.538 107.253 173.819 120.244 165.062 121.235C156.306 122.227 147.827 110.842 146.746 101.292C145.665 91.7426 151.888 83.1975 160.645 82.2063C169.401 81.2151 177.376 88.1532 178.457 97.7029Z" fill="#99E1BA"/>
<path d="M162.702 117.687C163.365 116.465 165.04 116.276 165.959 117.318L168.585 120.296C169.655 121.509 168.917 123.424 167.31 123.606L162.79 124.117C161.183 124.299 160.036 122.598 160.808 121.176L162.702 117.687Z" fill="#99E1BA"/>
<path d="M158.719 88.4748C158.354 89.0566 157.789 90.2778 157.071 89.8272C156.353 89.3766 156.328 87.9144 156.693 87.3327C157.058 86.751 158.347 85.7372 159.065 86.1878C159.783 86.6383 159.084 87.8931 158.719 88.4748Z" fill="white"/>
<path d="M152.956 104.07C150.367 100.733 151.614 96.0363 151.942 93.9759C153.01 89.9411 154.958 89.4954 154.358 92.9588C153.548 95.7548 153.302 97.3001 153.351 98.5266C153.39 99.5078 154.003 102.084 154.772 103.384C155.143 105.007 155.545 107.407 152.956 104.07Z" fill="white"/>
<path d="M144.317 25.8809C144.053 35.488 136.574 47.5528 127.765 47.3105C118.955 47.0683 112.151 34.6107 112.415 25.0036C112.679 15.3965 120.035 7.80478 128.844 8.04704C137.654 8.28929 144.581 16.2738 144.317 25.8809Z" fill="#DD7575"/>
<path d="M125.924 43.4663C126.751 42.3496 128.437 42.3959 129.201 43.5564L131.385 46.872C132.275 48.2226 131.277 50.0159 129.66 49.9714L125.113 49.8464C123.496 49.8019 122.598 47.9565 123.561 46.6568L125.924 43.4663Z" fill="#DD7575"/>
<path d="M126.062 13.9853C125.619 14.5103 124.889 15.6405 124.241 15.0941C123.593 14.5476 123.773 13.0962 124.216 12.5712C124.659 12.0463 126.077 11.2226 126.724 11.769C127.372 12.3155 126.505 13.4603 126.062 13.9853Z" fill="white"/>
<path d="M118.176 28.6222C116.079 24.9563 117.97 20.4797 118.582 18.4853C120.204 14.6394 122.195 14.4703 121.117 17.8158C119.924 20.4712 119.464 21.967 119.341 23.1882C119.243 24.1652 119.491 26.8015 120.07 28.1964C120.211 29.8556 120.274 32.2882 118.176 28.6222Z" fill="white"/>
<rect x="137" y="188" width="99" height="111" fill="#F1C550"/>
<rect x="129" y="169" width="118" height="22" rx="7" fill="#F1C550"/>
<rect y="446" width="861" height="437" fill="#F3CACA"/>
<path d="M85.6884 258H771.944L861 446H0L85.6884 258Z" fill="#D26060"/>
<path d="M51 360C71.8246 404.522 125.778 466.854 174.994 360C197.726 402.429 254.922 461.831 301.849 360C325.853 404.522 384.543 466.854 427.273 360C451.436 403.19 511.112 463.658 556.513 360C575.907 403.19 634.952 463.658 684.549 360C704.897 402.429 771.9 461.831 807 360" stroke="#D9D9D9" stroke-width="8" stroke-linecap="round" stroke-linejoin="round"/>
<path d="M773 283C754.049 322.995 704.948 378.988 660.159 283C639.472 321.114 587.42 374.475 544.714 283C522.87 322.995 469.458 378.988 430.572 283C408.582 321.798 354.274 376.116 312.957 283C295.307 321.798 241.573 376.116 196.437 283C177.919 321.114 116.943 374.475 85 283" stroke="#D9D9D9" stroke-width="8" stroke-linecap="round" stroke-linejoin="round"/>
<path d="M414.648 204.603C421.326 194.086 436.674 194.086 443.352 204.603L579.564 419.137C586.75 430.455 578.619 445.25 565.212 445.25H292.788C279.381 445.25 271.25 430.455 278.436 419.137L414.648 204.603Z" fill="#D26060"/>
<path d="M419.602 252.447C423.888 245.403 434.112 245.403 438.398 252.447L554.796 443.782C559.256 451.113 553.979 460.5 545.399 460.5H312.601C304.021 460.5 298.744 451.113 303.204 443.782L419.602 252.447Z" fill="#F3CACA"/>
<path d="M468.007 379.821V446.118H392.245V379.821C392.245 358.9 409.205 341.94 430.126 341.94C451.047 341.94 468.007 358.9 468.007 379.821Z" fill="#FFE382" stroke="#8D8C8C" stroke-width="5"/>
<path d="M429.564 343.179V446.375M392.362 394.777H429.564H467.142" stroke="#8D8C8C" stroke-width="5" stroke-linecap="square"/>
<line x1="452.373" y1="355.021" x2="437.295" y2="370.099" stroke="#FFFDEA" stroke-width="3" stroke-linecap="round"/>
<line x1="455.13" y1="360.256" x2="435.566" y2="379.821" stroke="#FFFDEA" stroke-width="3" stroke-linecap="round"/>
<line x1="421.152" y1="403.628" x2="397.101" y2="427.68" stroke="#FFFDEA" stroke-width="3" stroke-linecap="round"/>
<line x1="409.188" y1="423.071" x2="397.849" y2="434.41" stroke="#FFFDEA" stroke-width="3" stroke-linecap="round"/>
</svg>
