<svg width="390" height="1123" viewBox="0 0 390 1123" fill="none" xmlns="http://www.w3.org/2000/svg">
<rect x="261" y="587" width="117" height="130" rx="9" fill="#EDEAE3"/>
<rect x="261" y="724" width="117" height="130" rx="9" fill="#EDEAE3"/>
<rect x="12" y="587" width="117" height="130" rx="9" fill="#F3CD68"/>
<path d="M80.9882 685.446L79.0874 667.654L87.2228 666.133C87.6373 671.969 86.8986 682.716 86.5387 688.411H79.0874C79.319 686.915 79.6812 686.229 80.9882 685.446Z" fill="#FDFCF8" stroke="#464646" stroke-width="2" stroke-linecap="round" stroke-linejoin="round"/>
<path d="M50.727 614.659C54.3185 613.772 55.2705 613.789 58.8625 614.659C60.5831 613.846 62.8163 615.191 62.8163 615.191C62.8163 615.191 66.3762 618.218 69.203 621.654C72.0297 625.09 75.3091 631.868 72.724 634.225C70.367 635.441 69.203 633.971 67.7584 631.994C67.6122 631.875 67.4235 631.511 67.2178 630.999C67.1209 633.268 66.7273 635.855 67.226 637.317C68.1148 639.922 71.9345 641.901 74.0691 642.791L87.7551 646.136C94.522 647.581 96.77 652.115 97.7328 654.714C98.6956 657.313 97.5566 670.674 97.8088 680.414C97.8891 683.515 97.3526 688.321 97.3526 688.321H90.4336C90.6583 687.007 90.9638 686.366 92.1824 685.584C90.54 681.074 89.3008 670.478 87.9018 665.96C84.8227 667.057 83.3227 667.874 69.2582 667.874C68.9555 673.487 68.5569 684.147 67.6082 689.703H59.5487C59.7192 688.218 60.0438 687.539 61.2214 686.738C60.7905 682.821 60.5273 673.09 60.5144 669.547C58.2185 669.303 56.6486 668.718 55.4185 667.653C55.5195 673.286 55.4183 684.184 55.2908 689.703H47.7635C48.0937 688.052 48.4563 687.338 49.6643 686.738C49.6643 686.738 47.2383 668.791 46.2962 662.02C45.499 656.29 45.4046 646.136 45.4046 646.136L46.0129 639.37C46.0129 639.37 44.6138 636.592 43.6558 634.427C42.4833 631.778 43.3518 627.551 43.3518 625.836C43.3518 625.741 43.3536 625.652 43.3569 625.568L41.679 632.603C41.0963 637.118 36.7369 635.796 36.1286 633.591C35.5964 630.398 36.7171 626.663 39.4741 621.654C41.2228 618.841 45.8608 615.039 47.1534 614.659C48.446 614.279 49.1792 614.345 50.727 614.659Z" fill="#FDFCF8"/>
<path d="M65.6529 623.564C65.1434 623.858 66.3363 628.801 67.2178 630.999M67.2178 630.999C67.4235 631.511 67.6122 631.875 67.7584 631.994C69.203 633.971 70.367 635.441 72.724 634.225C75.3091 631.868 72.0297 625.09 69.203 621.654C66.3762 618.218 62.8163 615.191 62.8163 615.191C62.8163 615.191 60.5831 613.846 58.8625 614.659C55.2705 613.789 54.3185 613.772 50.727 614.659C49.1792 614.345 48.446 614.279 47.1534 614.659C45.8608 615.039 41.2228 618.841 39.4741 621.654C36.7171 626.663 35.5964 630.398 36.1286 633.591C36.7369 635.796 41.0963 637.118 41.679 632.603L43.6558 624.315C43.6558 624.315 43.3518 624.605 43.3518 625.836C43.3518 627.551 42.4833 631.778 43.6558 634.427C44.6138 636.592 46.0129 639.37 46.0129 639.37L45.4046 646.136C45.4046 646.136 45.499 656.29 46.2962 662.02C47.2383 668.791 49.6643 686.738 49.6643 686.738C48.4563 687.338 48.0937 688.052 47.7635 689.703H55.2908C55.4183 684.184 55.5195 673.286 55.4185 667.653C54.1786 666.416 53.0723 664.941 51.9987 662.02C54.0305 666.966 55.6285 669.027 60.5144 669.547C60.5273 673.09 60.7905 682.821 61.2214 686.738C60.0438 687.539 59.7192 688.218 59.5487 689.703H67.6082C68.5569 684.147 68.9555 673.487 69.2582 667.874C83.3227 667.874 84.8227 667.057 87.9018 665.96C89.3008 670.478 90.54 681.074 92.1824 685.584C90.9638 686.366 90.6583 687.007 90.4336 688.321H97.3526C97.3526 688.321 97.8891 683.515 97.8088 680.414C97.5566 670.674 98.6956 657.313 97.7328 654.714C96.77 652.115 94.522 647.581 87.7551 646.136L74.0691 642.791C71.9345 641.901 68.1148 639.922 67.226 637.317C66.7273 635.855 67.1209 633.268 67.2178 630.999Z" stroke="#464646" stroke-width="2" stroke-linecap="round" stroke-linejoin="round"/>
<rect x="11" y="724" width="117" height="130" rx="9" fill="#EDEAE3"/>
<rect x="12" y="861" width="117" height="130" rx="9" fill="#EDEAE3"/>
<rect x="137" y="587" width="117" height="130" rx="9" fill="#EDEAE3"/>
<rect x="137" y="724" width="117" height="130" rx="9" fill="#EDEAE3"/>
<path d="M173.179 773.605L178.318 776.93C182.357 776.285 184.279 776.396 187.463 776.93L192.751 773C193.809 775.192 194.591 778.624 194.591 778.624C194.591 779.273 197.238 779.575 198.55 784.941C199.04 786.946 199.532 788.719 200.288 790.004C201.311 791.742 202.555 793.027 203.311 793.934L206.939 796.73C213.287 798.317 216.704 798.922 218.804 804.59C220.463 809.07 221.449 816.53 217.617 824.39V827.111H209.984C210.278 825.826 210.462 825.147 211.722 824.39C209.659 823.332 211.095 824.39 208.148 822.274C205.087 823.365 203.44 824.617 199.91 823.71C199.457 825.599 199.91 823.71 198.043 828.849H190.032C190.092 827.439 190.368 826.755 191.695 825.901C191.585 825.228 191.524 824.936 191.492 824.846C191.546 825.967 191.4 824.589 191.492 824.846C191.486 824.725 191.478 824.574 191.467 824.39C189.013 824.129 187.35 824.48 186.044 824.257C185.972 825.176 185.866 826.003 185.8 828.849H178.318C178.636 827.241 179.095 826.643 180.208 825.901C180.208 825.901 174.358 820.46 172.477 814.641C170.778 809.382 171.041 804.439 171.041 801.416C171.041 801.416 171.099 794.825 171.041 793.934C170.814 790.457 170.803 788.759 171.041 785.772C171.188 783.929 172.348 781.238 172.348 781.238L173.179 773.605Z" fill="#FDFCF8"/>
<path d="M202.942 824.247L201.622 820.082L207.348 815L208.767 818.106C209.19 823.523 208.979 821.713 208.611 827H201.001C201.271 825.653 201.59 824.992 202.942 824.247Z" fill="#FDFCF8"/>
<path d="M217.919 824.541C217.74 827.62 217.163 827.262 217.163 827.262H210.286C210.58 825.977 210.765 825.298 212.024 824.541M198.777 826.657C198.777 827.035 198.701 826.582 198.345 829H190.335C190.394 827.59 190.671 826.906 191.997 826.053M186.102 826.279C186.102 829 186.229 823.514 186.102 829H178.621C178.939 827.392 179.397 826.795 180.51 826.053M172.65 781.389L173.482 773.756L178.621 777.081C182.659 776.436 184.582 776.547 187.765 777.081L193.054 773.151C194.112 775.343 194.893 778.775 194.893 778.775" stroke="#464646" stroke-linecap="round" stroke-linejoin="round"/>
<path d="M202.5 824.466C201.184 825.263 200.873 825.971 200.611 827.413H208.017C208.017 825.826 208.017 824.919 208.017 824.012" stroke="#464646" stroke-linecap="round" stroke-linejoin="round"/>
<path d="M172.401 782.296C171.948 782.749 171.602 783.114 170.36 782.976" stroke="#464646" stroke-linecap="round"/>
<path d="M195.897 780.153C196.404 780.28 196.941 780.133 197.269 779.952" stroke="#464646" stroke-linecap="round"/>
<path d="M171.722 797.335C171.268 797.788 170.664 798.015 170.059 798.091" stroke="#464646" stroke-linecap="round"/>
<path d="M202.262 793.608C202.782 793.481 203.245 793.53 203.793 793.205" stroke="#464646" stroke-linecap="round"/>
<path d="M208.88 798.061C209.432 797.713 209.656 797.452 209.932 796.878" stroke="#464646" stroke-linecap="round"/>
<path d="M172.67 811.192C172.209 812.474 171.724 812.835 171.116 813.285" stroke="#464646" stroke-linecap="round"/>
<path d="M172.319 784.393C171.33 785.331 170.734 785.434 169.989 785.563" stroke="#464646" stroke-linecap="round"/>
<path d="M196.911 781.405C197.911 782.155 198.42 782.155 199.057 782.155" stroke="#464646" stroke-linecap="round"/>
<path d="M171.802 799.255C170.766 800.14 170.166 800.212 169.415 800.301" stroke="#464646" stroke-linecap="round"/>
<path d="M203.037 795.065C204.27 794.942 204.641 794.595 205.103 794.161" stroke="#464646" stroke-linecap="round"/>
<path d="M210.113 798.695C211.071 797.91 211.171 798.241 211.776 797.637" stroke="#464646" stroke-linecap="round"/>
<path d="M173.346 812.983C172.93 813.961 172.93 813.961 172.25 814.793" stroke="#464646" stroke-linecap="round"/>
<path d="M172.099 786.716C171.132 787.38 170.655 787.438 170.058 787.511" stroke="#464646" stroke-linecap="round"/>
<path d="M197.563 783.642C198.49 784.127 198.893 784.103 199.397 784.073" stroke="#464646" stroke-linecap="round"/>
<path d="M216.597 803.371C217.632 803.528 218.005 803.374 218.471 803.181" stroke="#464646" stroke-linecap="round"/>
<path d="M171.632 801.143C170.656 802.094 170.573 802.126 170.058 802.469" stroke="#464646" stroke-linecap="round"/>
<path d="M204.402 796.066C205.656 796.045 205.427 796.066 206.263 795.9" stroke="#464646" stroke-linecap="round"/>
<path d="M212.024 798.923C213.056 798.212 212.834 798.468 213.363 798.015" stroke="#464646" stroke-linecap="round"/>
<path d="M175.296 818.081C174.705 819.309 174.185 819.617 173.535 820.003" stroke="#464646" stroke-linecap="round"/>
<path d="M171.873 788.719C170.671 789.243 169.621 789.354 169 789.4" stroke="#464646" stroke-linecap="round"/>
<path d="M198.156 785.565C199.247 785.873 198.864 785.626 199.382 785.565" stroke="#464646" stroke-linecap="round"/>
<path d="M217.765 804.996C218.896 804.932 219.709 804.579 220.178 804.353" stroke="#464646" stroke-linecap="round"/>
<path d="M219.007 816.083C220.099 816.387 220.982 816.314 221.499 816.252" stroke="#464646" stroke-linecap="round"/>
<path d="M172.011 803.298C170.982 804.189 170.476 804.355 169.845 804.562" stroke="#464646" stroke-linecap="round"/>
<path d="M176.652 820.282C176.159 821.553 175.665 821.901 175.046 822.336" stroke="#464646" stroke-linecap="round"/>
<path d="M182.982 824.466C183.209 825.297 183.209 825.297 183.46 825.977" stroke="#464646" stroke-linecap="round"/>
<path d="M172.14 790.726C171.107 791.614 170.506 791.688 169.756 791.78" stroke="#464646" stroke-linecap="round"/>
<path d="M198.345 787.575C199.373 788.269 199.879 788.239 200.513 788.201" stroke="#464646" stroke-linecap="round"/>
<path d="M218.879 806.47C220.077 806.792 220.546 806.598 221.133 806.356" stroke="#464646" stroke-linecap="round"/>
<path d="M218.577 817.573C219.607 818.263 220.113 818.231 220.746 818.191" stroke="#464646" stroke-linecap="round"/>
<path d="M171.957 805.553C171.105 806.616 171.081 806.502 170.361 806.73" stroke="#464646" stroke-linecap="round"/>
<path d="M173.768 814.801C173.177 816.029 173.128 815.923 172.477 816.308" stroke="#464646" stroke-linecap="round"/>
<path d="M177.744 822.379C177.466 823.712 177.13 824.146 176.709 824.688" stroke="#464646" stroke-linecap="round"/>
<path d="M185.193 824.539C185.282 825.898 185.193 825.675 185.193 826.355" stroke="#464646" stroke-linecap="round"/>
<path d="M189.897 823.483C190.199 824.811 190.053 824.589 189.897 825.257" stroke="#464646" stroke-linecap="round"/>
<path d="M198.162 824.995C198.528 826.306 198.371 826.092 198.248 826.766" stroke="#464646" stroke-linecap="round"/>
<path d="M210.069 822.506C210.665 823.73 210.472 823.548 210.472 824.234" stroke="#464646" stroke-linecap="round"/>
<path d="M215.982 822.962C216.234 823.559 216.158 823.71 216.461 824.39" stroke="#464646" stroke-linecap="round"/>
<path d="M219.828 813.055C221.164 812.79 220.938 812.93 221.601 813.105" stroke="#464646" stroke-linecap="round"/>
<path d="M219.786 810.282C220.542 810.182 220.896 810.157 221.559 810.332" stroke="#464646" stroke-linecap="round"/>
<path d="M214.84 800.747C215.715 799.704 215.627 799.954 216.253 799.675" stroke="#464646" stroke-linecap="round"/>
<path d="M171.475 792.707C170.62 793.769 170.044 793.95 169.322 794.177" stroke="#464646" stroke-linecap="round"/>
<path d="M199.293 789.402C200.209 790.296 200.719 790.375 201.356 790.475" stroke="#464646" stroke-linecap="round"/>
<path d="M219.484 808.565C220.736 808.83 221.209 808.624 221.8 808.367" stroke="#464646" stroke-linecap="round"/>
<path d="M172.174 807.764C171.192 808.663 170.921 808.703 170.221 808.87" stroke="#464646" stroke-linecap="round"/>
<path d="M174.397 816.926C173.684 817.848 173.443 817.947 172.838 818.25" stroke="#464646" stroke-linecap="round"/>
<path d="M179.126 824.195C179.061 824.981 178.702 825.266 178.254 825.622" stroke="#464646" stroke-linecap="round"/>
<path d="M186.791 823.937C186.939 824.71 186.669 825.081 186.333 825.544" stroke="#464646" stroke-linecap="round"/>
<path d="M194.939 825.75C195.125 826.516 194.873 826.899 194.56 827.379" stroke="#464646" stroke-linecap="round"/>
<path d="M205.826 821.952C206.146 822.672 205.968 823.094 205.745 823.622" stroke="#464646" stroke-linecap="round"/>
<path d="M191.575 824.541C191.844 825.282 191.636 825.69 191.377 826.201" stroke="#464646" stroke-linecap="round"/>
<path d="M202.527 822.751C202.924 823.431 202.793 823.87 202.629 824.419" stroke="#464646" stroke-linecap="round"/>
<path d="M200.02 823.785C200.325 824.512 200.137 824.93 199.903 825.453" stroke="#464646" stroke-linecap="round"/>
<path d="M211.115 823.029C211.545 823.69 211.436 824.135 211.299 824.691" stroke="#464646" stroke-linecap="round"/>
<path d="M218.243 821.357C218.991 821.11 219.394 821.329 219.897 821.603" stroke="#464646" stroke-linecap="round"/>
<path d="M171.812 794.953C170.884 795.951 170.295 796.091 169.56 796.266" stroke="#464646" stroke-linecap="round"/>
<path d="M200.66 791.719C201.839 792.299 202.364 792.234 203.02 792.151" stroke="#464646" stroke-linecap="round"/>
<path d="M206.501 797.374C207.805 797.205 208.205 796.86 208.706 796.428" stroke="#464646" stroke-linecap="round"/>
<path d="M172.1 809.688C171.722 810.485 171.571 810.863 170.663 811.543" stroke="#464646" stroke-linecap="round"/>
<path d="M181.739 824.644C181.278 825.926 181.471 825.599 181.244 826.28" stroke="#464646" stroke-linecap="round"/>
<path d="M188.272 822.954C188.172 824.313 188.121 824.542 188.499 825.146" stroke="#464646" stroke-linecap="round"/>
<path d="M196.564 824.248C196.531 825.61 196.491 825.841 196.898 826.426" stroke="#464646" stroke-linecap="round"/>
<path d="M207.524 821.204C207.735 822.55 207.737 822.785 208.242 823.288" stroke="#464646" stroke-linecap="round"/>
<path d="M214.398 823.387C214.572 824.088 214.572 823.937 214.723 824.693" stroke="#464646" stroke-linecap="round"/>
<path d="M219.789 814.813C221.144 814.951 221.371 815.009 221.986 814.649" stroke="#464646" stroke-linecap="round"/>
<path d="M215.478 801.718C216.481 801.718 216.783 801.294 217.69 801.294" stroke="#464646" stroke-linecap="round"/>
<path d="M192.912 824.607C193.028 825.964 192.912 826.323 193.314 827.079" stroke="#464646" stroke-linecap="round"/>
<path d="M203.75 822.013C204.108 823.328 204.058 823.701 204.589 824.372" stroke="#464646" stroke-linecap="round"/>
<path d="M201.283 822.568C201.465 823.919 201.366 824.282 201.804 825.018" stroke="#464646" stroke-linecap="round"/>
<path d="M212.34 822.139C212.762 823.435 212.73 823.81 213.293 824.455" stroke="#464646" stroke-linecap="round"/>
<path d="M217.694 819.945C219.054 819.868 219.409 819.994 220.176 819.614" stroke="#464646" stroke-linecap="round"/>
<path d="M217.479 822.139C217.973 823.257 218.241 823.368 218.804 824.013" stroke="#464646" stroke-linecap="round"/>
<path d="M219.319 811.5C220.298 811.466 220.24 811.467 221.099 811.25" stroke="#464646" stroke-linecap="round"/>
<path d="M213.469 799.854C214.211 799.214 214.119 799.451 214.648 798.921" stroke="#464646" stroke-linecap="round"/>
<path d="M200.156 685.5L198.096 679.054V675.199L205.072 676.063C205.434 681.164 205.322 683.114 205.007 688.092H198.494C198.785 686.822 199.133 686.241 200.156 685.5Z" fill="#FDFCF8" stroke="#464646" stroke-width="2" stroke-linecap="round" stroke-linejoin="round"/>
<path d="M174.104 633.665L178.757 638.051C181.797 637.562 183.568 637.608 186.798 638.051L193.309 633C193.309 633 194.426 639.821 195.492 643.168C195.922 644.516 196.158 646.013 196.235 647.753C196.333 649.95 195.963 651.655 195.504 653.335C196.281 655.613 197.16 656.279 199.026 657.057L207.531 657.788C213.615 658.337 215.508 659.564 216.968 663.503C218.423 667.431 218.032 674.163 217.636 680.988L217.632 681.047C217.475 683.754 217.234 687.959 217.234 687.959H211.186C211.345 686.796 211.545 686.201 212.715 685.566C211.279 681.625 210.216 678.949 208.993 675C206.302 675.959 201.005 676.74 198.162 677.06C197.898 681.966 197.53 684.697 196.7 689.554H189.656C189.922 688.422 190.202 687.839 191.118 686.962C190.741 683.538 190.531 681.619 190.52 678.522C187.287 678.178 185.701 677.062 184.351 674.665C184.862 675.612 185.323 676.263 185.934 677.06C186.023 681.983 186.046 684.73 185.934 689.554H179.355C179.664 688.102 180.05 687.563 181.017 686.962C181.017 686.962 178.916 677.861 178.093 671.943C177.396 666.935 176.896 659.051 176.896 659.051C176.896 659.051 174.79 656.63 173.839 654.199C172.847 651.661 172.793 649.818 173.373 647.155C173.719 645.567 173.84 643.168 173.84 643.168L174.104 633.665Z" fill="#FDFCF8" stroke="#464646" stroke-width="2" stroke-linecap="round" stroke-linejoin="round"/>
<path d="M327.094 685.698L325.018 679.199L325.42 673.169L331.985 676.184C332.35 681.326 332.302 683.292 331.985 688.311H325.42C325.549 686.852 325.97 686.326 327.094 685.698Z" fill="#FDFCF8" stroke="#464646" stroke-width="2" stroke-linecap="round" stroke-linejoin="round"/>
<path d="M299.894 645.67C299.081 646.973 298.392 648.017 297.951 648.113C296.782 645.982 296.588 644.719 297.951 642.217C299.062 640.45 301.569 639.336 302.105 639.269C302.552 639.213 304.122 639.554 305.134 640.201C305.334 640.254 305.51 640.389 305.655 640.62C308.893 639.944 310.662 639.992 313.762 640.62C313.837 640.44 313.973 640.279 314.18 640.176C315.264 639.092 316.329 638.68 319.457 639.269C321.74 639.898 323.276 640.62 324.348 642.217C325.42 643.814 325.352 647.108 324.348 647.309C323.889 647.478 322.892 646.547 321.669 645.299C322.102 646.658 322.395 648.837 322.473 650.591C322.572 652.806 322.199 654.525 321.736 656.219C322.519 658.515 323.209 659.033 325.286 659.569L329.64 659.971C335.774 660.525 338.488 660.488 339.959 664.46C341.426 668.42 341.032 675.207 340.633 682.087L340.629 682.147C340.471 684.876 339.959 688.177 339.959 688.177H333.863C334.04 687.017 334.247 686.422 335.404 685.765C333.956 681.791 333.152 680.032 331.92 676.05C329.206 677.017 327.885 677.737 325.019 678.06C324.752 683.006 324.113 684.821 323.277 689.717H316.175C316.358 688.542 316.539 687.912 317.649 687.105C317.27 683.653 317.326 682.656 317.314 679.534C314.639 679.249 313.083 678.44 311.858 676.823L312.692 678.06C312.781 683.023 312.536 684.854 312.424 689.717H305.791C305.995 688.404 306.377 687.843 307.466 687.105C307.466 687.105 305.616 678.868 304.786 672.901C304.084 667.852 302.977 661.981 302.977 661.981C302.977 661.981 299.914 661.216 298.956 658.765C297.955 656.206 298.414 654.456 298.755 651.73C298.956 650.122 299.497 647.241 299.894 645.67Z" fill="#FDFCF8"/>
<path d="M305.655 640.62C303.282 637.891 299.354 647.808 297.951 648.113C296.782 645.982 296.588 644.719 297.951 642.217C299.062 640.45 301.569 639.336 302.105 639.269C302.641 639.202 304.785 639.704 305.655 640.62ZM305.655 640.62C308.821 639.961 310.596 640.027 313.762 640.62M305.655 640.62C304.476 638.752 301.323 643.209 299.894 645.67C299.497 647.241 298.956 650.122 298.755 651.73C298.414 654.456 297.955 656.206 298.956 658.765C299.914 661.216 302.977 661.981 302.977 661.981C302.977 661.981 304.084 667.852 304.786 672.901C305.616 678.868 307.466 687.105 307.466 687.105C306.377 687.843 305.995 688.404 305.791 689.717H312.424C312.536 684.854 312.781 683.023 312.692 678.06L311.292 675.983L309.811 672.901C311.601 677.259 313.009 679.076 317.314 679.534C317.326 682.656 317.27 683.653 317.649 687.105C316.539 687.912 316.358 688.542 316.175 689.717H323.277C324.113 684.821 324.752 683.006 325.019 678.06C327.885 677.737 329.206 677.017 331.92 676.05C333.152 680.032 333.956 681.791 335.404 685.765C334.247 686.422 334.04 687.017 333.863 688.177H339.959C339.959 688.177 340.471 684.876 340.629 682.147C341.03 675.246 341.431 668.431 339.959 664.46C338.488 660.488 335.774 660.525 329.64 659.971L325.286 659.569C323.209 659.033 322.519 658.515 321.736 656.219C322.199 654.525 322.572 652.806 322.473 650.591C322.395 648.837 322.102 646.658 321.669 645.299C316.311 639.242 314.165 639.656 313.762 640.62M305.655 640.62C308.893 639.944 310.662 639.992 313.762 640.62M313.762 640.62C316.103 637.44 322.902 647.843 324.348 647.309C325.352 647.108 325.42 643.814 324.348 642.217C323.276 640.62 321.74 639.898 319.457 639.269C315.933 638.605 315.027 639.213 313.762 640.62Z" stroke="#464646" stroke-width="2" stroke-linecap="round" stroke-linejoin="round"/>
<path d="M337.921 825.877L336.164 820.535L340.17 818.146L343.051 819.762C343.435 825.156 343.384 823.353 343.051 828.617H336.164C336.483 827.253 336.762 826.567 337.921 825.877Z" fill="#FDFCF8" stroke="#464646" stroke-width="2" stroke-linecap="round" stroke-linejoin="round"/>
<path d="M294.7 779C295.554 779.046 295.812 779.336 296.178 779.914C299.399 779.17 302.172 779.168 305.593 779.914C306.434 779.34 306.949 779.098 308.053 779C312.868 779.818 319.578 792.634 318.031 794.813C317.016 796.101 314.452 796.538 312.671 796.09C312.773 797.103 312.801 797.952 312.69 798.467C312.268 800.435 334.828 801.208 337.288 801.208L342.208 801.419C348.642 802 350.644 803.297 352.187 807.463C353.731 811.63 352.678 814.28 352.258 821.519C352.091 824.382 351.836 828.828 351.836 828.828H345.44C345.565 827.656 345.743 827.038 347.057 826.298C345.44 823.346 345.44 823.065 343.754 819.622C340.908 820.636 318.228 821.181 315.222 821.519C314.658 825.314 313.604 826.79 313.043 830.234H305.593C305.636 828.79 305.895 828.138 307.14 827.493C307.068 825.806 307.152 826.341 307.14 823.065C304.973 822.835 303.506 822.276 302.359 821.253C302.078 826.65 301.776 825.132 301.658 830.234H294.7C294.976 828.838 295.32 828.205 296.457 827.493C296.457 827.493 294.868 822.367 293.997 816.108C293.26 810.811 294.7 803.738 294.7 803.738C294.7 803.738 292.049 799.492 291.044 796.921C290.923 796.612 290.822 796.313 290.738 796.022C290.141 796.495 289.304 796.805 288.163 796.921C285.914 797.554 285.281 795.375 285 793.688C285 788.066 288.815 781.517 294.7 779Z" fill="#FDFCF8"/>
<path d="M311.425 787.363C311.363 785.953 309.613 794.674 311.425 795.516C311.748 795.775 312.18 795.966 312.671 796.09M312.671 796.09C314.452 796.538 317.016 796.101 318.031 794.813C319.578 792.634 312.868 779.818 308.053 779C306.949 779.098 306.434 779.34 305.593 779.914C302.172 779.168 299.399 779.17 296.178 779.914C295.812 779.336 295.554 779.046 294.7 779C288.815 781.517 285 788.066 285 793.688C285.281 795.375 285.914 797.554 288.163 796.921C289.304 796.805 290.141 796.495 290.738 796.022M312.671 796.09C312.773 797.103 312.801 797.952 312.69 798.467C312.268 800.435 334.828 801.208 337.288 801.208L342.208 801.419C348.642 802 350.644 803.297 352.187 807.463C353.731 811.63 352.678 814.28 352.258 821.519C352.091 824.382 351.836 828.828 351.836 828.828H345.44C345.565 827.656 345.743 827.038 347.057 826.298C345.44 823.346 345.44 823.065 343.754 819.622C340.908 820.636 318.228 821.181 315.222 821.519C314.658 825.314 313.604 826.79 313.043 830.234H305.593C305.636 828.79 305.895 828.138 307.14 827.493C307.068 825.806 307.152 826.341 307.14 823.065C302.623 822.584 301.146 820.679 299.268 816.108C300.775 819.611 301.652 820.681 302.359 821.253C302.078 826.65 301.776 825.132 301.658 830.234H294.7C294.976 828.838 295.32 828.205 296.457 827.493C296.457 827.493 294.868 822.367 293.997 816.108C293.26 810.811 294.7 803.738 294.7 803.738C294.7 803.738 292.049 799.492 291.044 796.921C290.923 796.612 290.822 796.313 290.738 796.022M290.738 796.022C290.097 793.791 290.501 792.033 291.044 789.542C291.177 788.932 291.297 788.765 291.395 788.8" stroke="#464646" stroke-width="2" stroke-linecap="round" stroke-linejoin="round"/>
<path d="M52.361 916.244C56.593 915.381 58.6356 915.167 62.6932 915.972C62.4338 915.92 63.2724 912.654 64.053 911.076C65.819 907.509 76.2003 906.181 76.2003 906.181C76.6623 906.283 75.0792 914.759 74.7499 915.428C73.6937 917.571 71.7322 919.245 71.4254 918.598C71.6969 919.437 73.8204 926.047 74.1727 928.482C74.5924 931.382 73.6287 933.105 73.0848 934.918C75.895 936.64 76.3526 936.665 78.3771 937.093L84.7528 937.794C93.0522 938.544 95.6344 940.216 97.6252 945.59C99.616 950.964 97.7735 952.958 97.2313 962.295C97.0169 965.987 97.2313 968.368 97.2313 968.368H90.8878C91.0543 966.702 91.5497 966.009 92.9728 965.105C91.0146 959.728 89.7076 958.85 88.7113 956.765C85.0401 958.073 77.6304 957.96 73.7529 958.397C73.392 965.089 74.0681 963.375 72.9369 970H66.4099C66.6908 968.376 67.0468 967.563 68.4043 966.465C67.8905 961.794 66.6821 957.127 66.6821 957.127C66.6821 957.127 63.622 956.571 60.7897 954.916C60.9101 961.631 59.2791 963.419 59.1271 970H52.361C52.7087 968.325 52.8593 967.361 54.6272 966.465C54.6272 966.465 52.3037 959.218 51.1805 951.144C46.6146 946.249 46.4333 939.632 46.4333 939.632C46.4333 939.632 46.1948 938.635 44.9257 935.462C43.5115 931.926 43.8087 928.754 44.9257 924.855C45.55 922.677 45.8322 920.867 45.8322 920.867C45.5572 921.07 40.5177 917.452 39.9399 915.428C38.7646 911.311 39.3054 906.181 39.3054 906.181C39.3054 906.181 47.9716 907.888 50.4555 911.53C51.6082 913.22 52.78 916.216 52.361 916.244Z" fill="#FDFCF8"/>
<path d="M87.6799 967.824H81.2437L83.7819 964.652L82.5128 959.031L82.2408 957.853" stroke="black"/>
<path d="M83.9634 965.014L82.0597 956.765H89.0399L87.7708 968.006L81.6064 967.824L82.0597 966.193L83.9634 965.014Z" fill="#FDFCF8"/>
<path d="M71.3129 933.014C73.1259 936.731 76.2686 936.484 78.2931 936.912L84.6689 937.613C92.9682 938.362 95.5505 940.035 97.5412 945.409L98.5646 949.694M89.2275 957.49C90.2238 959.575 90.9306 959.547 92.8888 964.924C91.4657 965.828 90.9703 966.521 90.8038 968.187H97.1474C97.1474 968.187 96.933 965.806 97.1474 962.113L97.5412 957.853M73.6689 958.215C73.308 964.907 73.9841 963.194 72.8529 969.819H66.3259C66.6068 968.195 66.9628 967.381 68.3203 966.283C67.8066 961.613 67.1085 958.578 67.1085 958.578M60.7057 954.735C60.8261 961.45 59.1951 963.238 59.0431 969.819H52.277C52.6247 968.144 52.7753 967.18 54.5433 966.283C54.5433 966.283 52.2197 959.036 51.0965 950.963M45.7482 920.686C45.4733 920.889 40.4337 917.27 39.8559 915.246C38.6806 911.13 39.2214 906 39.2214 906C39.2214 906 47.8877 907.706 50.3715 911.348C51.5242 913.039 52.696 916.034 52.277 916.062C56.509 915.2 58.5516 914.986 62.6093 915.79C62.3498 915.739 63.1884 912.472 63.969 910.895C65.735 907.327 76.1163 906 76.1163 906C76.5783 906.102 74.9953 914.578 74.6659 915.246C73.5678 917.475 71.4912 919.196 71.3129 918.329" stroke="#464646" stroke-width="1.5" stroke-linecap="round" stroke-linejoin="round"/>
<path d="M82.0091 958.215L83.6408 964.742C82.2751 965.569 81.7407 966.299 81.3745 968.278H87.8108C88.2399 961.487 88.1399 965.377 88.3212 958.85" stroke="#464646" stroke-width="1.5" stroke-linecap="round" stroke-linejoin="round"/>
<path d="M45.6063 922.841C44.5584 925.527 41.8995 930.627 39.6473 929.533" stroke="#464646" stroke-linecap="round"/>
<path d="M71.5501 920.051C72.6975 922.737 76.3513 929.358 78.8171 928.264" stroke="#464646" stroke-linecap="round"/>
<path d="M44.8987 929.479C44.1795 932.271 42.8101 934.111 40.1849 934.374" stroke="#464646" stroke-linecap="round"/>
<path d="M73.0677 928.028C73.8552 930.821 75.3545 932.661 78.2287 932.924" stroke="#464646" stroke-linecap="round"/>
<path d="M45.2613 932.652C44.3547 934.193 42.9949 935.824 41.2725 935.258" stroke="#464646" stroke-linecap="round"/>
<path d="M72.6711 931.201C73.6636 932.742 75.1524 934.374 77.0382 933.807" stroke="#464646" stroke-linecap="round"/>
<path d="M46.475 935.429C45.0097 936.453 43.0944 937.372 41.7637 936.14" stroke="#464646" stroke-linecap="round"/>
<path d="M47.8471 936.663C46.2039 937.174 44.2916 938.032 44.0102 939.479" stroke="#464646" stroke-linecap="round"/>
<path d="M61.5654 955.072C61.8913 956.495 62.4978 958.138 63.7223 958.313" stroke="#464646" stroke-linecap="round"/>
<path d="M71.4598 956.584C72.3837 957.714 75.0893 959.509 76.2643 959.122" stroke="#464646" stroke-linecap="round"/>
<path d="M84.0213 956.09C84.9452 957.221 87.6509 959.015 88.8258 958.628" stroke="#464646" stroke-linecap="round"/>
<path d="M47.5207 938.091C45.9592 938.997 45.0866 940.757 45.4389 942.714" stroke="#464646" stroke-linecap="round"/>
<path d="M63.2104 955.232C63.3459 956.567 66.586 958.466 68.287 958.85" stroke="#464646" stroke-linecap="round"/>
<path d="M74.5417 956.584C75.2558 957.72 78.1957 958.899 79.8902 958.487" stroke="#464646" stroke-linecap="round"/>
<path d="M87.1033 956.09C87.8174 957.226 90.7572 958.405 92.4517 957.994" stroke="#464646" stroke-linecap="round"/>
<path d="M47.8088 940.266C46.5428 941.002 46.6483 944.897 47.1691 946.793" stroke="#464646" stroke-linecap="round"/>
<path d="M67.5615 956.507C67.6721 957.59 70.8325 958.753 72.5484 959.005" stroke="#464646" stroke-linecap="round"/>
<path d="M78.4403 956.312C79.0202 957.233 82.865 958.661 84.514 958.125" stroke="#464646" stroke-linecap="round"/>
<path d="M91.0014 955.818C91.5812 956.739 95.426 958.168 97.075 957.631" stroke="#464646" stroke-linecap="round"/>
<path d="M96.5701 955.677C96.5871 956.383 99.041 958.384 100.668 958.583" stroke="#464646" stroke-linecap="round"/>
<path d="M98.0208 952.595C98.0378 953.301 99.5661 957.744 101.194 957.943" stroke="#464646" stroke-linecap="round"/>
<path d="M98.5649 949.759C98.6343 950.462 100.045 956.15 101.683 956.228" stroke="#464646" stroke-linecap="round"/>
<path d="M48.6261 944.618C47.5851 946.159 49.3545 950.699 49.8753 952.595" stroke="#464646" stroke-linecap="round"/>
<path d="M53.7826 950.601C52.8761 952.142 55.7767 954.869 56.2302 956.765" stroke="#464646" stroke-linecap="round"/>
<path d="M69.3989 942.986C70.5355 944.527 68.8309 947.617 68.2623 949.513" stroke="#464646" stroke-linecap="round"/>
<path d="M64.3889 949.332C65.1141 951.507 63.2353 952.595 62.1226 954.589" stroke="#464646" stroke-linecap="round"/>
<path d="M50.0214 949.513C49.8769 950.757 52.9708 954.246 54.089 956.312" stroke="#464646" stroke-linecap="round"/>
<path d="M55.8677 953.229C55.9519 954.334 57.7979 954.938 58.8592 956.946" stroke="#464646" stroke-linecap="round"/>
<path d="M67.9294 946.612C68.0872 947.856 65.5376 951.435 64.3167 953.501" stroke="#464646" stroke-linecap="round"/>
<path d="M62.128 950.963C62.2858 952.207 59.7658 954.771 59.4032 957.49" stroke="#464646" stroke-linecap="round"/>
<path d="M71.3427 933.978C72.947 935.003 75.0439 935.921 76.5008 934.69" stroke="#464646" stroke-linecap="round"/>
<path d="M45.0179 926.442C43.9878 929.136 41.2658 934.093 39.0063 933.014" stroke="#464646" stroke-linecap="round"/>
<path d="M72.9376 924.992C74.0654 927.685 77.0457 932.643 79.5194 931.564" stroke="#464646" stroke-linecap="round"/>
<path d="M78 813.085C78.2163 813.832 77.9303 813.898 78.1467 814.645C78.363 815.393 78.6269 815.333 78.8432 816.08C79.0596 816.828 78.7846 816.892 79.0009 817.64C79.2172 818.387 79.2575 818.379 79.4738 819.127C79.6902 819.875 79.8661 819.834 80.0825 820.582C80.2988 821.329 80.3519 821.318 80.5682 822.066C80.7846 822.813 80.977 822.828 80.8762 823.595C80.7956 824.222 80.5041 824.139 80.121 824.67C79.7378 825.202 79.7672 825.219 79.3859 825.75C79.0046 826.282 78.1485 826.274 78.6104 826.752C79.1989 827.357 79.4665 826.665 80.3648 826.665C81.263 826.665 81.263 826.904 82.1612 826.904C83.0595 826.904 83.0595 826.711 83.9577 826.711C84.856 826.711 84.856 826.853 85.7542 826.853C86.6525 826.853 86.7258 827.12 87.5874 826.888C87.6222 826.392 87.7102 825.816 87.7395 825.354C87.7725 824.86 87.5599 824.371 87.5855 823.908C87.613 823.415 87.7835 822.946 87.8055 822.478C87.8275 822.01 87.8128 821.511 87.8257 821.041C87.8385 820.572 87.9925 820.083 87.9998 819.606C88.0072 819.13 87.7872 818.651 87.7835 818.17C87.7798 817.689 87.8568 817.219 87.844 816.733C87.8312 816.247 87.789 815.789 87.7688 815.298C87.7487 814.807 87.7248 814.357 87.6974 813.863C87.6699 813.4 87.7414 812.918 87.7065 812.423C87.6735 811.962 87.4609 811.496 87.4224 811" fill="#FDFCF8"/>
<path d="M78 813.085C78.2163 813.832 77.9303 813.898 78.1467 814.645C78.363 815.393 78.6269 815.333 78.8432 816.08C79.0596 816.828 78.7846 816.892 79.0009 817.64C79.2172 818.387 79.2575 818.379 79.4738 819.127C79.6902 819.875 79.8661 819.834 80.0825 820.582C80.2988 821.329 80.3519 821.318 80.5682 822.066C80.7846 822.813 80.977 822.828 80.8762 823.595C80.7956 824.222 80.5041 824.139 80.121 824.67C79.7378 825.202 79.7672 825.219 79.3859 825.75C79.0046 826.282 78.1485 826.274 78.6104 826.752C79.1989 827.357 79.4665 826.665 80.3648 826.665C81.263 826.665 81.263 826.904 82.1612 826.904C83.0595 826.904 83.0595 826.711 83.9577 826.711C84.856 826.711 84.856 826.853 85.7542 826.853C86.6525 826.853 86.7258 827.12 87.5874 826.888C87.6222 826.392 87.7102 825.816 87.7395 825.354C87.7725 824.86 87.5599 824.371 87.5855 823.908C87.613 823.415 87.7835 822.946 87.8055 822.478C87.8275 822.01 87.8128 821.511 87.8257 821.041C87.8385 820.572 87.9925 820.083 87.9998 819.606C88.0072 819.13 87.7872 818.651 87.7835 818.17C87.7798 817.689 87.8568 817.219 87.844 816.733C87.8312 816.247 87.789 815.789 87.7688 815.298C87.7487 814.807 87.7248 814.357 87.6974 813.863C87.6699 813.4 87.7414 812.918 87.7065 812.423C87.6735 811.962 87.4609 811.496 87.4224 811" stroke="#464646" stroke-width="2" stroke-linecap="round" stroke-linejoin="round"/>
<path d="M51.59 769.506C52.1017 769.443 52.5994 769.369 52.9637 769.415C53.3545 769.464 53.7266 769.295 54.1886 769.466C54.6584 769.364 55.1593 770.281 55.6415 770.21C56.1237 770.139 56.5082 769.373 56.992 769.33C57.4757 769.287 57.9626 769.02 58.4463 769.002C58.9301 768.983 59.4371 769.122 59.9209 769.128C60.4046 769.134 60.9163 768.977 61.3985 769.003C61.8807 769.029 62.3877 769.094 62.8668 769.14C63.3459 769.187 63.7211 770.23 64.1956 770.295C64.6701 770.36 65.2112 770.283 65.6794 770.364C66.2888 770.394 66.3058 769.809 66.9167 769.809C67.5276 769.809 67.5276 769.68 68.137 769.68C68.7463 769.68 68.7479 770.62 69.3588 770.62C69.9697 770.62 69.9619 770.244 70.5728 770.264C70.9574 770.313 71.3806 770.272 71.852 770.509C72.2226 770.696 72.7001 770.804 73.1048 771.089C73.4552 771.335 73.8382 771.608 74.2041 771.921C74.5375 772.206 74.9701 772.431 75.3065 772.763C75.6228 773.074 75.8492 773.504 76.1624 773.851C76.4756 774.198 77.0431 774.31 77.3346 774.671C77.6261 775.032 77.8168 775.473 78.0866 775.844C78.3564 776.216 78.406 776.741 78.6541 777.125C78.9022 777.509 78.7905 778.099 79.0138 778.495C79.2371 778.892 79.2014 779.396 79.3983 779.802C79.5952 780.209 80.0604 780.481 80.2247 780.898C80.3891 781.316 80.5379 781.739 80.6635 782.167C80.7891 782.596 81.1442 782.987 81.2202 783.425C81.2961 783.863 81.1845 784.344 81.1969 784.786C81.2093 785.228 80.9535 785.641 80.8822 786.082C80.8108 786.523 81.2124 787.093 81.0419 787.513C80.8248 788.048 80.1147 788.134 79.8588 788.439C79.4789 788.891 79.3952 789.763 78.9595 789.777C78.5238 789.791 78.0819 789.193 77.6307 788.86C77.2865 788.604 76.9563 788.256 76.6183 787.841C76.3345 787.491 76.3903 786.898 76.1236 786.46C75.8833 786.065 75.6368 785.689 75.4166 785.242C75.2089 784.82 75.1019 784.373 74.9189 783.918C74.7359 783.463 74.3592 783.124 74.2103 782.662C74.0615 782.199 74.1716 781.695 74.0568 781.23C73.9421 780.764 73.4506 780.384 73.3746 779.917C73.2986 779.45 73.035 778.967 73.0056 778.502C72.9746 777.999 72.618 777.47 72.6536 777.013C72.6769 776.704 73.7669 777.125 74.0692 777.993C74.2026 778.378 74.0274 778.945 74.1716 779.433C74.2987 779.866 74.1157 780.402 74.2305 780.855C74.3452 781.308 74.6491 781.732 74.7344 782.161C74.8383 782.691 74.4476 783.178 74.4646 783.548C74.4848 784.009 75.3763 784.428 75.3856 784.868C75.3949 785.329 75.2011 785.788 75.1918 786.227C75.1825 786.688 74.5406 787.097 74.5065 787.534C74.4693 787.994 75.0786 788.507 75.0088 788.942C74.9391 789.376 74.9654 789.783 74.8476 790.21C75.0305 790.742 74.677 791.326 74.8832 791.661C75.1747 792.134 76.012 791.787 76.3934 791.992C76.7749 792.197 76.9237 792.959 77.4493 793.042C77.8633 793.107 78.313 793.407 78.8417 793.478C79.4913 793.541 79.5704 792.664 80.2216 792.718C80.8728 792.772 80.8806 792.673 81.5318 792.727C82.183 792.781 82.1117 793.626 82.7629 793.68C83.4141 793.734 83.3924 793.993 84.0436 794.047C84.6948 794.101 84.7274 793.702 85.3786 793.759C85.8949 793.809 86.3678 793.928 86.8283 793.985C87.3478 794.048 87.9494 793.349 88.4021 793.421C88.9231 793.504 89.2115 794.589 89.6549 794.69C90.1728 794.807 90.9015 794.05 91.3295 794.199C91.8272 794.372 92.328 794.639 92.7296 794.864C93.1699 795.11 93.0924 796.052 93.4506 796.377C93.8087 796.703 94.384 796.777 94.6894 797.185C94.9638 797.552 94.7096 798.256 94.9701 798.708C95.198 799.103 96.0601 799.18 96.2942 799.647C96.4958 800.046 97.0942 800.342 97.2446 800.781C97.395 801.221 97.0493 801.806 97.1516 802.261C97.2539 802.716 97.1578 803.172 97.2245 803.633C97.2912 804.094 97.2881 804.522 97.3253 804.986C97.3625 805.45 97.9842 805.859 97.9997 806.323C98.0152 806.787 97.3377 807.235 97.3361 807.699C97.3346 808.163 97.7749 808.607 97.761 809.071C97.747 809.535 97.3687 809.959 97.3454 810.42C97.3222 810.881 96.9252 811.297 96.8973 811.758C96.8694 812.219 97.871 812.723 97.84 813.184C97.809 813.645 97.1346 814.042 97.102 814.502C97.0694 814.961 97.2229 815.416 97.1919 815.875C97.1609 816.334 97.0136 816.771 96.9842 817.228C96.9547 817.686 97.5113 818.166 97.4834 818.625C97.4586 819.049 97.3423 819.49 97.3299 819.966C97.3175 820.41 96.5066 820.854 96.5035 821.313C96.5004 821.773 96.8058 822.232 96.8089 822.679C96.812 823.152 96.9128 823.61 96.9206 824.04C96.9283 824.544 96.8508 825.008 96.8601 825.404C96.8803 826.232 97.395 826.039 96.7562 826.283C96.1174 826.526 96.2368 827.117 95.5329 827.117C94.829 827.117 94.8274 826.835 94.1219 826.835C93.4164 826.835 93.4164 826.252 92.711 826.252C92.0055 826.252 92.0055 826.58 91.3 826.58C90.5945 826.58 90.2426 827.382 89.996 826.724C89.7076 825.953 89.9232 825.808 90.3697 825.114C90.8162 824.421 90.8209 824.535 91.131 823.772C90.9744 823.346 91.3093 823.168 91.1527 822.762C90.9961 822.357 90.8038 821.937 90.641 821.534C90.4782 821.13 90.4147 820.661 90.2472 820.257C90.0798 819.853 89.4363 819.628 89.2657 819.221C89.0952 818.815 88.9432 818.392 88.7727 817.984C88.6021 817.575 88.8176 817.006 88.6502 816.595C88.4827 816.183 88.3385 815.769 88.1757 815.351C88.0129 814.933 87.4206 814.687 87.2656 814.264C87.1105 813.842 87.8424 813.133 87.6966 812.704C87.5509 812.276 86.8997 812.226 86.7648 811.793C86.3074 811.955 86.0531 812.268 85.5771 812.416C85.1011 812.564 84.5522 812.438 84.0731 812.566C83.594 812.694 83.1102 812.781 82.6296 812.895C82.1489 813.01 81.6636 813.1 81.1799 813.198C80.6961 813.295 80.1612 813.113 79.6774 813.194C79.1936 813.276 78.82 814.138 78.3362 814.206C77.8525 814.273 77.6648 814.146 77.1811 814.2C77.1563 814.659 76.7811 814.721 76.7609 815.152C76.7376 815.611 76.5128 816.046 76.4927 816.478C76.471 816.936 76.2663 817.37 76.2461 817.805C76.226 818.24 76.0818 818.696 76.0601 819.132C76.0384 819.568 76.8772 820.074 76.8508 820.515C76.8245 820.956 76.6415 821.398 76.6074 821.843C76.5733 822.289 76.7919 822.754 76.75 823.203C76.7082 823.652 75.598 823.971 75.5453 824.422C75.4926 824.874 76.1329 825.375 76.0725 825.83C76.0151 826.258 75.5143 826.634 75.4445 827.089C75.3794 827.516 75.5701 827.83 75.491 828.284C74.8383 828.489 74.8615 828.262 74.1778 828.262C73.494 828.262 73.4924 828.279 72.8087 828.279C72.1249 828.279 72.1233 828.233 71.4396 828.233C70.7558 828.233 70.7542 828.832 70.0705 828.832C69.3867 828.832 69.3851 828.858 68.6998 828.858C68.0145 828.858 66.9958 829.29 66.7725 828.646C66.4919 827.829 68.2269 827.969 68.6533 827.218C69.0797 826.468 68.5308 826.181 68.8502 825.378C68.796 824.882 68.6564 824.518 68.5944 824.065C68.5277 823.571 68.7262 823.066 68.6564 822.613C68.5804 822.126 68.875 821.6 68.8022 821.141C68.7293 820.681 68.2176 820.26 68.1494 819.793C68.0812 819.326 67.9509 818.859 67.8998 818.38C67.8486 817.9 68.044 817.424 68.0161 816.934C67.9897 816.475 67.43 816.394 67.4284 815.897C66.9431 815.846 66.8423 815.846 66.4175 815.763C65.9384 815.67 65.45 815.507 65.0375 815.371C64.5786 815.22 64.3646 814.506 63.9754 814.298C63.563 814.078 62.8001 814.327 62.4497 814.036C62.0993 813.745 62.042 813.097 61.7412 812.735C61.4605 812.398 61.5659 811.786 61.3101 811.379C61.0791 811.01 60.2387 810.961 60.0185 810.531C59.8201 810.144 60.3441 809.393 60.1472 808.954C59.9689 808.556 59.3642 808.322 59.1813 807.878C59.3658 808.327 59.1441 808.917 59.3146 809.298C59.5146 809.743 60.3845 809.826 60.5752 810.196C60.7984 810.628 61.2434 810.847 61.4667 811.203C61.7148 811.602 61.338 812.37 61.6047 812.718C61.8714 813.067 62.1288 813.372 62.4389 813.72C62.4466 814.183 62.6932 814.566 62.7056 815.001C62.718 815.462 62.8219 815.906 62.8374 816.342C62.8544 816.801 63.2886 817.23 63.3072 817.669C63.3258 818.109 62.7319 818.599 62.7536 819.04C62.7753 819.48 63.0296 819.929 63.0498 820.374C63.0699 820.82 62.566 821.293 62.5846 821.74C62.6032 822.187 63.1196 822.614 63.1335 823.066C63.1475 823.517 62.5784 823.969 62.5877 824.425C62.597 824.882 63.1165 825.302 63.118 825.762C63.1196 826.221 63.0358 826.648 63.0327 827.109C63.0296 827.545 63.1304 828.419 63.1196 828.882C62.3846 829.102 62.2234 828.271 61.4559 828.271C60.6884 828.271 60.6884 828.572 59.9209 828.572C59.1534 828.572 59.1534 828.228 58.3859 828.228C57.6184 828.228 57.6184 827.912 56.8509 827.912C56.0834 827.912 55.933 828.932 55.4244 828.361C55.029 827.915 55.505 827.87 55.8275 827.369C56.15 826.869 56.733 827.238 57.0555 826.737C57.378 826.237 57.4214 826.135 57.6137 825.572C57.8385 824.917 56.8819 825.017 56.6617 824.174C56.5625 823.793 56.885 823.231 56.7547 822.721C56.6493 822.309 56.319 821.913 56.1996 821.432C56.0927 821.006 56.0632 820.538 55.9485 820.069C55.843 819.636 56.0818 819.104 55.9717 818.642C55.8616 818.179 55.3019 817.86 55.1949 817.401C55.0879 816.942 54.8755 816.532 54.7732 816.075C54.6708 815.619 54.5964 815.171 54.4987 814.716C54.4011 814.261 54.784 813.712 54.691 813.261C54.598 812.809 54.3096 812.394 54.2212 811.944C54.1328 811.494 53.8801 811.061 53.7995 810.614C53.7188 810.167 54.201 809.603 54.1282 809.157C54.0522 808.687 53.2909 808.339 53.2289 807.897C53.1653 807.439 52.6815 807.032 52.618 806.568C52.5544 806.104 52.8754 805.589 52.8118 805.127C52.7482 804.664 52.956 804.16 52.894 803.702C52.8319 803.245 52.7234 802.774 52.6614 802.32C52.5994 801.865 52.9343 801.327 52.8723 800.878C52.8071 800.396 52.48 799.967 52.4195 799.527C52.3528 799.032 51.6427 798.653 51.5838 798.226C51.5125 797.7 51.4148 797.238 51.3621 796.843C51.2442 795.972 51.5869 796.211 51.2752 795.584C50.9341 794.898 51.3031 794.907 50.7465 794.166C50.4783 793.808 49.8891 793.569 49.5836 793.093C49.3216 792.686 49.3557 792.058 49.1076 791.587C48.8735 791.143 48.6642 790.68 48.475 790.199C48.3386 789.853 48.3091 789.399 48.2564 788.849C48.2161 788.427 48.4347 787.967 48.4332 787.466C48.4332 787.023 47.5044 786.526 47.5277 786.045C47.5509 785.564 48.3169 785.161 48.3541 784.692C48.3913 784.223 48.2719 783.745 48.32 783.288C48.368 782.83 48.1742 782.313 48.23 781.87C48.2921 781.376 49.0999 781.009 49.1603 780.586C49.2379 780.045 49.2596 779.574 49.3201 779.208C49.4689 778.293 49.3263 777.985 49.1821 778.856C49.1076 779.306 48.3618 779.647 48.2688 780.118C48.1758 780.59 48.827 781.185 48.7216 781.648C48.6161 782.11 48.2223 782.498 48.106 782.953C47.9897 783.408 47.9944 783.904 47.8641 784.348C47.7339 784.792 47.016 785.073 46.8687 785.506C46.7121 785.967 47.3323 786.694 47.1633 787.112C46.9772 787.573 46.6904 787.995 46.4904 788.387C46.2532 788.848 45.4298 788.885 45.1771 789.218C44.8391 789.663 44.7228 790.053 44.3615 790.204C43.932 790.384 43.6219 790.404 43.1707 790.059C42.8746 789.833 42.442 789.601 42.1397 789.105C41.9288 788.681 41.8978 788.186 41.7474 787.755C41.597 787.323 41.1225 786.945 41.0295 786.495C40.9365 786.045 41.0962 785.526 41.0636 785.065C41.031 784.604 41.2388 784.146 41.2683 783.681C41.2977 783.215 41.628 782.833 41.7164 782.372C41.8047 781.911 41.9055 781.521 42.0482 781.073C42.1908 780.624 41.8187 780.023 42.0079 779.59C42.197 779.157 42.2125 778.642 42.442 778.227C42.6715 777.813 42.9986 777.458 43.2607 777.065C43.5227 776.672 44.3243 776.701 44.6158 776.327C44.9073 775.952 45.0453 775.514 45.3632 775.161C45.681 774.808 45.7647 774.28 46.1012 773.947C46.4377 773.614 46.6175 773.136 46.9726 772.821C47.3277 772.507 48.2238 772.877 48.5944 772.581C48.965 772.285 49.2828 772 49.6658 771.722C50.0488 771.445 50.4132 771.217 50.807 770.955C51.2008 770.693 51.1884 769.755 51.5931 769.509L51.59 769.506Z" fill="#FDFCF8" stroke="#464646" stroke-width="2" stroke-linecap="round" stroke-linejoin="round"/>
<rect width="390" height="581" fill="#FFFDEA"/>
<rect y="1013" width="390" height="110" fill="#FFFDEA"/>
<rect x="21" y="185" width="158" height="38" rx="19" fill="#FDFCF8" stroke="#F3CD68" stroke-width="2"/>
<circle cx="161" cy="546" r="25" fill="#EDEAE3"/>
<circle cx="223" cy="546" r="25" fill="#EDEAE3"/>
<circle cx="99" cy="546" r="25" fill="#EDEAE3"/>
<circle cx="37" cy="546" r="25" fill="#F3CD68"/>
<path d="M41.96 551.1C42.54 551.1 42.82 550.68 42.82 550.26C42.82 549.84 42.54 549.42 41.96 549.42H40.18V548.9L40.12 545.48C41.4 547.6 43 549.52 44.56 550.8C44.84 551.02 45.12 551.12 45.36 551.12C45.92 551.12 46.34 550.64 46.34 550.12C46.34 549.84 46.22 549.54 45.92 549.32C44.04 547.92 42.12 546.1 40.68 543.64L44.68 543.7H44.7C45.28 543.7 45.56 543.28 45.56 542.84C45.56 542.4 45.26 541.96 44.68 541.96H40.22V538.56C40.22 538 39.74 537.7 39.24 537.7C38.78 537.7 38.3 537.98 38.3 538.56V541.96H34.4C33.8 541.96 33.48 542.42 33.48 542.86C33.48 543.3 33.76 543.7 34.38 543.7H34.4L37.8 543.64C36.54 546.22 34.92 548.24 32.94 549.86C32.84 549.94 32.74 550.04 32.68 550.14L32.84 542.4C33.58 541.14 34.56 539.26 34.56 538.78C34.56 538.22 33.98 537.8 33.44 537.8C33.08 537.8 32.74 538 32.58 538.44C31.66 541.22 29.92 543.86 28.02 545.68C27.78 545.9 27.68 546.16 27.68 546.38C27.68 546.86 28.1 547.26 28.62 547.26C29.06 547.26 29.6 546.96 30.88 545.3L30.68 554.54V554.56C30.68 555.16 31.14 555.46 31.62 555.46C32.1 555.46 32.6 555.16 32.6 554.54L32.66 551C32.82 551.26 33.12 551.44 33.46 551.44C33.7 551.44 33.96 551.36 34.18 551.14C36.02 549.44 37.36 547.56 38.4 545.46L38.34 548.92V549.42H36.6C36.02 549.42 35.7 549.86 35.7 550.3C35.7 550.7 35.98 551.1 36.6 551.1H38.34V554.56C38.34 555.1 38.8 555.36 39.26 555.36C39.72 555.36 40.18 555.1 40.18 554.56V551.1H41.96Z" fill="#464646"/>
<path d="M105.04 551.88C105.06 550.88 105.08 549 105.08 547.02C105.08 544.76 105.06 542.38 105.02 541.1C104.96 539.64 103.88 538.94 102.54 538.86C101.9 538.82 100.88 538.8 99.8 538.8C98.22 538.8 96.48 538.84 95.66 538.86C94.06 538.92 93.14 539.68 93.08 541.26C93.04 542.58 93.02 544.66 93.02 546.68C93.02 548.72 93.04 550.72 93.08 551.92C93.16 554.62 94.82 554.66 99.36 554.66C100.28 554.66 101.2 554.64 101.98 554.6C103.92 554.52 104.98 553.74 105.04 551.88ZM94.86 543.48C94.86 540.98 94.94 540.64 96.34 540.56C96.98 540.52 98.02 540.5 99.12 540.5C102.62 540.5 103.08 540.52 103.14 541.86C103.16 542.28 103.18 542.84 103.18 543.48H94.86ZM103.2 548H94.84V545.18H103.2V548ZM103.18 549.7C103.18 552.14 103.18 552.74 101.64 552.82C100.98 552.86 100.06 552.88 99.16 552.88C95.52 552.88 94.94 552.86 94.9 551.52C94.88 551.08 94.86 550.44 94.86 549.7H103.18Z" fill="#464646"/>
<path d="M168.28 551.16C168.34 549.84 168.38 548.4 168.38 546.9C168.38 545.4 168.34 543.86 168.28 542.4C168.22 541 167.06 540.14 165.86 540.1C164.26 540.04 162.7 540.02 161.18 540.02C159.52 540.02 157.88 540.04 156.3 540.1C154.82 540.14 153.84 541 153.82 542.24C153.78 543.88 153.76 545.5 153.76 547.08C153.76 548.5 153.78 549.88 153.82 551.22C153.86 552.68 154.74 553.52 156.46 553.6C157.86 553.66 159.26 553.7 160.7 553.7C162.38 553.7 164.08 553.66 165.82 553.6C167.24 553.56 168.22 552.54 168.28 551.16ZM166.26 550.36C166.2 551.86 165.52 551.86 161.24 551.86C159.92 551.86 158.64 551.84 157.46 551.78C156.24 551.72 155.82 551.56 155.78 550.42C155.74 549.08 155.72 547.74 155.72 546.4C155.72 545.36 155.74 544.3 155.78 543.22C155.82 542.2 156.12 541.9 157.26 541.86C158.36 541.82 159.58 541.82 160.88 541.82C162.16 541.82 163.5 541.82 164.84 541.86C165.82 541.88 166.24 542.08 166.26 543.22C166.28 544.48 166.32 545.92 166.32 547.4C166.32 548.4 166.3 549.4 166.26 550.36Z" fill="#464646"/>
<path d="M229.78 550.9C230.26 550.86 230.5 550.5 230.5 550.12C230.5 549.72 230.22 549.32 229.72 549.32C229.68 549.32 229.64 549.32 229.6 549.32L224.32 549.9V548.56L228.9 548.08C229.38 548.04 229.62 547.68 229.62 547.3C229.62 546.9 229.34 546.5 228.84 546.5C228.8 546.5 228.76 546.5 228.72 546.5L224.34 546.98L224.36 545.76C227.6 545.26 228.28 545.12 228.28 544.38C228.28 543.96 227.92 543.5 227.36 543.5C227.26 543.5 227.16 543.52 227.06 543.54C224.42 544.26 221.9 544.54 219.52 544.7C219.04 544.74 218.82 545.12 218.82 545.5C218.82 545.94 219.1 546.36 219.64 546.36C219.72 546.36 220.24 546.36 222.56 546.04V547.18L219.2 547.52C218.7 547.56 218.44 547.96 218.44 548.34C218.44 548.72 218.72 549.1 219.24 549.1C219.28 549.1 219.34 549.1 219.38 549.1L222.54 548.74V550.08L218.6 550.48C218.1 550.52 217.84 550.92 217.84 551.28C217.84 551.68 218.12 552.06 218.66 552.06C218.7 552.06 218.74 552.06 218.78 552.06L222.54 551.66C222.54 552.24 222.52 552.68 222.52 552.84C222.52 555.02 224.32 555.1 226.42 555.1C228.6 555.1 231.18 555.02 231.18 552.22C231.18 551.48 230.52 551.26 230.1 551.26C229.64 551.26 229.2 551.5 229.2 552.04C229.2 553.12 228.54 553.42 226.7 553.42C224.64 553.42 224.36 553.24 224.32 552.5V551.46L229.78 550.9ZM218.22 542.96C219.16 542.98 220.1 542.98 221.02 542.98C223.38 542.98 225.6 542.94 227.38 542.9C229.46 542.86 229.66 541.82 229.66 540.68C229.66 539.48 229.66 538.28 227.54 538.24C226.24 538.2 224.5 538.2 222.78 538.2C221.06 538.2 219.36 538.2 218.1 538.24C216.72 538.28 216.14 539.06 216.14 540.1C216.14 540.12 216.14 540.14 216.14 540.16C216.16 541.54 216.22 542.98 216.22 544.4C216.22 547.68 215.9 550.92 214.12 553.38C213.96 553.6 213.88 553.82 213.88 554.02C213.88 554.52 214.32 554.88 214.84 554.88C215.2 554.88 215.58 554.72 215.9 554.32C217.92 551.68 218.22 547.7 218.22 543.84C218.22 543.54 218.22 543.26 218.22 542.96ZM218.18 540.68C218.18 540.18 218.5 539.84 219 539.84C220.2 539.82 221.74 539.8 223.28 539.8C227.64 539.8 227.64 539.8 227.66 540.3C227.66 540.76 227.66 540.76 227.66 540.76C227.64 541 227.44 541.24 226.96 541.26C225.46 541.32 223.52 541.34 221.44 541.34C220.38 541.34 219.3 541.34 218.2 541.32L218.18 540.68Z" fill="#464646"/>
<path d="M233.859 485.87L227.104 422.65L256.012 417.247C257.485 437.982 254.86 476.17 253.581 496.407H227.104C227.927 491.092 229.214 488.656 233.859 485.87Z" fill="#CFAA7F" stroke="#464646" stroke-width="5" stroke-linecap="round" stroke-linejoin="round"/>
<path d="M307.371 292.746C296.333 300.631 318.408 319.552 275.834 352.666L283.718 360.55C324.716 335.321 318.408 284.862 307.371 292.746Z" fill="#CFAA7F" stroke="#464646" stroke-width="5"/>
<path d="M126.33 234.341C139.092 231.191 142.474 231.249 155.238 234.341C161.352 231.451 169.287 236.232 169.287 236.232C169.287 236.232 181.937 246.987 191.981 259.197C202.026 271.406 213.679 295.49 204.493 303.866C196.117 308.188 191.981 302.964 186.848 295.94C186.329 295.514 185.658 294.224 184.927 292.402C184.583 300.465 183.184 309.657 184.956 314.852C188.115 324.111 201.687 331.141 209.272 334.304L257.903 346.192C281.948 351.325 289.936 367.437 293.357 376.672C296.778 385.907 292.731 433.381 293.628 467.99C293.913 479.01 292.007 496.088 292.007 496.088H267.421C268.219 491.418 269.305 489.141 273.635 486.361C267.799 470.337 263.396 432.686 258.425 416.63C247.483 420.529 242.153 423.434 192.178 423.434C191.102 443.379 189.686 481.256 186.314 501H157.676C158.282 495.721 159.436 493.31 163.62 490.463C162.089 476.543 161.154 441.968 161.108 429.378C152.95 428.509 147.371 426.431 143 422.649C143.359 442.662 143 481.388 142.547 501H115.8C116.973 495.131 118.262 492.593 122.554 490.463C122.554 490.463 113.934 426.692 110.586 402.631C107.753 382.27 107.418 346.192 107.418 346.192L109.579 322.146C109.579 322.146 104.608 312.277 101.204 304.585C97.0372 295.171 100.123 280.153 100.123 274.056C100.123 273.72 100.13 273.403 100.141 273.106L94.1795 298.101C92.109 314.147 76.6183 309.448 74.4569 301.613C72.5658 290.266 76.548 276.996 86.3445 259.197C92.5585 249.2 109.039 235.692 113.632 234.341C118.225 232.99 120.83 233.226 126.33 234.341Z" fill="#CFAA7F"/>
<path d="M179.367 265.984C177.556 267.027 181.795 284.593 184.927 292.402M184.927 292.402C185.658 294.224 186.329 295.514 186.848 295.94C191.981 302.964 196.117 308.188 204.493 303.866C213.679 295.49 202.026 271.406 191.981 259.197C181.937 246.987 169.287 236.232 169.287 236.232C169.287 236.232 161.352 231.451 155.238 234.341C142.474 231.249 139.092 231.191 126.33 234.341C120.83 233.226 118.225 232.99 113.632 234.341C109.039 235.692 92.5585 249.2 86.3445 259.197C76.548 276.996 72.5658 290.266 74.4569 301.613C76.6183 309.448 92.109 314.147 94.1795 298.101L101.204 268.653C101.204 268.653 100.123 269.684 100.123 274.056C100.123 280.153 97.0372 295.171 101.204 304.585C104.608 312.277 109.579 322.146 109.579 322.146L107.418 346.192C107.418 346.192 107.753 382.27 110.586 402.631C113.934 426.692 122.554 490.463 122.554 490.463C118.262 492.593 116.973 495.131 115.8 501H142.547C143 481.388 143.359 442.662 143 422.649C138.595 418.252 134.664 413.01 130.849 402.631C138.069 420.205 143.747 427.529 161.108 429.378C161.154 441.968 162.089 476.543 163.62 490.463C159.436 493.31 158.282 495.721 157.676 501H186.314C189.686 481.256 191.102 443.379 192.178 423.434C242.153 423.434 247.483 420.529 258.425 416.63C263.396 432.686 267.799 470.337 273.635 486.361C269.305 489.141 268.219 491.418 267.421 496.088H292.007C292.007 496.088 293.913 479.01 293.628 467.99C292.731 433.381 296.778 385.907 293.357 376.672C289.936 367.437 281.948 351.325 257.903 346.192L209.272 334.304C201.687 331.141 188.115 324.111 184.956 314.852C183.184 309.657 184.583 300.465 184.927 292.402Z" stroke="#464646" stroke-width="5" stroke-linecap="round" stroke-linejoin="round"/>
<circle r="5" transform="matrix(1 0 0 -1 119 279)" fill="#464646"/>
<circle r="5" transform="matrix(1 0 0 -1 156 279)" fill="#464646"/>
<path d="M141.798 297.203C140.244 301.687 133.902 301.687 132.349 297.203L131.179 293.826C130.054 290.577 132.466 287.189 135.903 287.189H138.243C141.681 287.189 144.093 290.577 142.968 293.826L141.798 297.203Z" fill="#464646"/>
<path d="M121.305 301.38C121.305 301.38 125.452 304.422 128.853 304.531C132.542 304.649 136.737 301.38 136.737 301.38C136.737 301.38 141.606 304.554 145.125 304.531C148.586 304.508 152.841 301.38 152.841 301.38" stroke="#464646" stroke-width="3" stroke-linecap="round" stroke-linejoin="round"/>
<path d="M121.352 202.608C120.856 202.608 120.52 203.024 120.52 203.44C120.52 203.856 120.872 204.288 121.368 204.288C121.432 204.288 121.512 204.272 121.608 204.272C121.656 204.272 121.704 204.272 121.752 204.272C122.888 204.272 123.864 204.768 123.864 206.4C123.864 207.728 122.712 208.576 121.56 208.576C120.456 208.576 119.944 208.272 119.224 207.472C119.032 207.264 118.808 207.168 118.6 207.168C118.12 207.168 117.656 207.616 117.656 208.128C117.656 208.88 119.096 210.288 121.48 210.288C123.896 210.288 125.624 208.688 125.624 206.432C125.624 206.128 125.592 204.208 123.72 203.344C124.504 202.928 125.016 202.08 125.016 200.992C125.016 199.2 123.72 197.904 121.688 197.904C120.296 197.904 118.456 198.832 118.456 199.728C118.456 200.208 118.904 200.624 119.352 200.624C119.544 200.624 119.752 200.544 119.912 200.384C120.328 199.952 120.84 199.552 121.608 199.552C122.584 199.552 123.272 200.192 123.272 200.992C123.272 201.936 122.808 202.576 121.832 202.608H121.352ZM128.626 211.44C129.042 210.96 129.778 209.984 130.194 209.376C130.322 209.184 130.386 208.992 130.386 208.816C130.386 208.32 129.938 207.92 129.458 207.92C129.186 207.92 128.898 208.064 128.706 208.4C127.522 210.368 127.362 210.72 127.362 211.008C127.362 211.408 127.714 211.696 128.082 211.696C128.274 211.696 128.466 211.616 128.626 211.44ZM133.108 198.048C132.516 198.08 132.212 198.544 132.212 198.992C132.212 199.408 132.484 199.808 133.076 199.808C133.108 199.808 133.14 199.808 133.172 199.808C133.364 199.792 137.316 199.728 137.428 199.728C137.636 199.728 137.748 199.824 137.748 199.984C137.748 200.064 137.716 200.16 137.668 200.272C136.788 202.128 133.972 206.176 133.268 208.88C133.236 209.008 133.22 209.136 133.22 209.248C133.22 209.84 133.636 210.144 134.084 210.144C134.516 210.144 134.98 209.856 135.124 209.264C135.828 206.32 138.196 203.008 139.508 200.576C139.7 200.224 139.78 199.872 139.78 199.552C139.78 198.704 139.156 198.048 137.988 198.048C133.108 198.048 133.108 198.048 133.108 198.048ZM148.158 210.096C148.814 210.096 149.166 209.616 149.166 209.152C149.166 208.736 148.862 208.32 148.206 208.32C146.894 208.32 145.086 208.448 143.758 208.464C145.086 207.024 146.654 205.664 147.87 204.128C148.814 202.928 149.198 201.872 149.198 200.96C149.198 199.056 147.438 197.904 145.582 197.904C143.07 197.904 141.854 199.808 141.854 200.368C141.854 200.864 142.318 201.216 142.798 201.216C143.102 201.216 143.422 201.072 143.63 200.736C144.158 199.872 144.91 199.504 145.598 199.504C146.494 199.504 147.262 200.128 147.262 201.136C147.262 201.712 147.006 202.416 146.366 203.184C144.958 204.912 143.102 206.816 141.998 208.064C141.678 208.416 141.534 208.8 141.534 209.152C141.534 209.68 141.87 210.096 142.43 210.096H148.158ZM159.016 206.096C159.016 204.352 158.008 202.416 155.144 202.416C154.664 202.416 154.232 202.464 153.944 202.528C153.784 202.56 153.656 202.608 153.576 202.608C153.48 202.608 153.448 202.56 153.448 202.432C153.448 202.4 153.448 202.368 153.448 202.32C153.496 202 153.736 200.72 153.816 200.16C153.864 199.872 153.992 199.728 154.296 199.728C154.776 199.728 156.936 199.744 157.384 199.744C157.928 199.744 158.2 199.328 158.2 198.928C158.2 198.496 157.912 198.064 157.352 198.064C154.728 198.064 154.488 198.064 154.024 198.048C153.976 198.048 153.944 198.048 153.912 198.048C152.888 198.048 152.52 198.448 152.36 199.328C152.12 200.736 151.8 203.216 151.8 203.344C151.8 204.112 152.248 204.432 152.952 204.432C153.032 204.432 153.112 204.416 153.192 204.416C153.448 204.4 153.592 204.272 153.816 204.192C154.2 204.064 154.648 203.968 155.08 203.968C156.936 203.968 157.272 205.488 157.272 206.112C157.272 207.328 156.392 208.544 154.728 208.544C153.992 208.544 153.192 208.288 152.536 207.712C152.344 207.552 152.152 207.472 151.976 207.472C151.512 207.472 151.144 207.904 151.144 208.384C151.144 209.44 153.176 210.208 154.648 210.208C157.272 210.208 159.016 208.432 159.016 206.096Z" fill="#464646"/>
<rect x="201" y="1030" width="168" height="50" rx="25" fill="#F3CD68"/>
<rect x="21" y="1030" width="168" height="50" rx="25" fill="#FDFCF8"/>
<rect opacity="0.3" x="12" y="121" width="365" height="48" rx="24" fill="#D9D9D9"/>
<path d="M194 146C194 132.745 204.745 122 218 122H352.5C365.755 122 376.5 132.745 376.5 146C376.5 159.255 365.755 170 352.5 170H218C204.745 170 194 159.255 194 146Z" fill="#F3CD68"/>
<ellipse cx="47" cy="202" rx="10" ry="5" fill="#F3CD68"/>
<ellipse cx="47" cy="206" rx="10" ry="5" fill="#F3CD68"/>
<path d="M54.3781 198.15C52.4562 197.194 49.9062 196.688 47 196.688C44.0938 196.688 41.5437 197.194 39.6219 198.15C37.7 199.106 36.6875 200.4 36.6875 201.75V206.25C36.6875 207.6 37.7562 208.912 39.6219 209.85C41.4875 210.787 44.0938 211.312 47 211.312C49.9062 211.312 52.4562 210.806 54.3781 209.85C56.3 208.894 57.3125 207.6 57.3125 206.25V201.75C57.3125 200.4 56.2437 199.087 54.3781 198.15ZM40.1281 199.163C41.8625 198.291 44.3 197.812 47 197.812C49.7 197.812 52.1375 198.291 53.8719 199.163C55.3438 199.894 56.1875 200.841 56.1875 201.75C56.1875 202.659 55.3438 203.606 53.8719 204.338C52.1375 205.209 49.7 205.688 47 205.688C44.3 205.688 41.8625 205.209 40.1281 204.338C38.6563 203.606 37.8125 202.659 37.8125 201.75C37.8125 200.841 38.6563 199.894 40.1281 199.163ZM46.4375 206.803V210.178C44.6375 210.131 42.9594 209.869 41.5625 209.419V206.1C42.9969 206.522 44.6375 206.766 46.4375 206.803ZM47.5625 206.803C49.3625 206.766 51.0031 206.522 52.4375 206.1V209.419C51.0406 209.869 49.3625 210.131 47.5625 210.178V206.803ZM37.8125 206.25V204.094C38.3471 204.603 38.9575 205.027 39.6219 205.35C39.8844 205.481 40.1562 205.594 40.4375 205.706V208.987L40.1281 208.838C38.6563 208.106 37.8125 207.159 37.8125 206.25ZM53.8719 208.838L53.5625 208.987V205.706C53.8438 205.594 54.1156 205.481 54.3781 205.35C55.0425 205.027 55.6529 204.603 56.1875 204.094V206.25C56.1875 207.159 55.3438 208.106 53.8719 208.838Z" fill="#464646"/>
<path d="M94.9332 139.592C95.4772 140.2 96.3892 139.192 95.7492 138.552C95.3812 138.184 94.5652 137.784 94.1332 137.64C93.3812 137.4 92.8052 138.36 93.6212 138.68C93.9412 138.808 94.7092 139.352 94.9332 139.592ZM93.4772 141.016C94.0052 141.64 94.9332 140.664 94.3092 139.992C93.9572 139.608 93.1572 139.192 92.7252 139.032C91.9892 138.76 91.3492 139.72 92.1652 140.056C92.4852 140.2 93.2692 140.76 93.4772 141.016ZM88.9172 140.76C89.6692 139.688 88.0692 138.92 87.5412 139.816C86.8052 141.08 84.7252 144.008 83.1892 144.952C82.1012 145.624 83.0452 147.016 84.1172 146.296C85.2212 145.544 86.6292 143.864 87.7172 142.424C88.4372 142.344 89.6052 142.232 90.2772 142.216C90.6612 142.2 90.7892 142.504 90.6612 142.808C89.4772 145.528 86.8372 148.712 83.2852 149.944C81.9572 150.408 82.6132 151.976 83.9732 151.448C88.4692 149.672 90.6772 146.44 92.6292 142.712C93.2212 141.576 92.1492 140.712 90.9172 140.776C90.2772 140.808 89.4932 140.856 88.8052 140.904L88.9172 140.76ZM102.603 145.64C102.363 145.08 102.011 144.504 101.643 144.056C100.987 143.272 99.9148 144.152 100.491 144.792C100.795 145.144 101.083 145.656 101.243 146.136C101.579 147.16 102.987 146.584 102.603 145.64ZM99.8828 151.656C103.035 150.232 104.811 147.784 105.723 144.76C106.027 143.784 104.475 143.304 104.219 144.344C103.579 147.016 101.851 149.272 99.1788 150.392C98.7308 150.584 98.6348 151.016 98.7788 151.352C98.9388 151.704 99.3388 151.896 99.8828 151.656ZM100.395 146.312C100.091 145.784 99.6428 145.272 99.2108 144.888C98.4588 144.216 97.5308 145.224 98.1868 145.784C98.5388 146.088 98.8748 146.568 99.0988 147.016C99.5788 147.96 100.907 147.176 100.395 146.312ZM124.987 140.024C124.683 139.608 123.947 139.048 123.547 138.84C122.843 138.472 122.107 139.336 122.859 139.784C123.163 139.96 123.851 140.648 124.027 140.92C124.459 141.608 125.515 140.776 124.987 140.024ZM123.099 140.984C122.811 140.552 122.091 139.992 121.707 139.768C121.019 139.368 120.235 140.184 120.971 140.664C121.259 140.856 121.931 141.544 122.091 141.832C122.507 142.536 123.595 141.752 123.099 140.984ZM118.123 147.016C119.435 147.8 121.083 149.256 121.867 150.232C122.619 151.176 123.819 149.928 123.179 149.032C122.443 148.008 120.411 146.664 119.083 145.864C119.739 145 120.315 144.088 120.859 143.144C121.483 142.056 120.667 141.144 119.227 141.144C117.611 141.144 115.259 141.176 114.091 141.224C113.067 141.272 113.131 142.808 114.091 142.776C115.499 142.744 117.707 142.664 118.715 142.68C119.067 142.68 119.131 142.936 118.987 143.208C117.723 145.592 115.195 148.152 112.283 149.16C111.083 149.576 111.627 151.144 112.795 150.712C114.987 149.88 116.715 148.584 118.123 147.016Z" fill="#464646"/>
<path d="M97.432 1051.74C97.8 1051.74 98.232 1051.74 98.712 1051.74C99.848 1051.74 101.128 1051.74 101.704 1051.75C101.944 1051.75 102.024 1051.85 102.024 1051.99C102.024 1052.17 101.464 1053.32 101.032 1053.91C100.936 1054.04 100.904 1054.17 100.904 1054.3C100.904 1054.66 101.272 1054.94 101.688 1054.94C101.976 1054.94 102.296 1054.81 102.504 1054.47C102.6 1054.33 103.736 1052.47 103.736 1051.66C103.736 1050.94 103.176 1050.44 102.248 1050.41C101.784 1050.39 101.256 1050.39 100.68 1050.39C99.768 1050.39 98.776 1050.41 97.944 1050.42C98.12 1049.91 98.376 1049.05 98.376 1048.78C98.376 1048.31 97.976 1048.02 97.56 1048.02C97.224 1048.02 96.904 1048.23 96.808 1048.71C96.44 1050.78 95.56 1052.38 94.648 1053.51C94.504 1053.69 94.456 1053.85 94.456 1054.02C94.456 1054.41 94.792 1054.71 95.192 1054.71C95.432 1054.71 95.704 1054.6 95.928 1054.3C96.552 1053.48 97.032 1052.63 97.432 1051.74ZM93.496 1053.18C93.928 1053.18 94.36 1052.74 94.36 1052.28C94.36 1051.42 92.056 1049.82 91.48 1049.82C91.032 1049.82 90.632 1050.18 90.632 1050.57C90.632 1050.74 90.728 1050.92 90.936 1051.06C91.528 1051.45 92.28 1051.99 92.92 1052.86C93.08 1053.08 93.288 1053.18 93.496 1053.18ZM99.56 1054.79L99.576 1054.71C99.608 1054.46 99.624 1054.25 99.624 1053.24C99.624 1052.74 99.208 1052.52 98.792 1052.52C98.376 1052.52 97.96 1052.74 97.96 1053.21C97.96 1053.21 97.96 1053.22 97.96 1053.24C97.976 1053.64 98.008 1054.12 98.008 1054.5C98.008 1056.92 96.472 1059.86 92.936 1060.65C92.456 1060.76 92.248 1061.06 92.248 1061.37C92.248 1061.74 92.584 1062.12 93.112 1062.12C93.224 1062.12 97.304 1061.5 98.952 1057.3C99.944 1059.58 102.296 1061.91 103.32 1061.91C103.848 1061.91 104.216 1061.48 104.216 1061.06C104.216 1060.81 104.088 1060.55 103.768 1060.38C101.752 1059.29 99.848 1056.95 99.56 1054.84V1054.79ZM95.304 1056.95C95.512 1056.76 95.592 1056.55 95.592 1056.34C95.592 1055.93 95.224 1055.58 94.824 1055.58C94.664 1055.58 94.504 1055.62 94.36 1055.75C93.256 1056.73 91.784 1057.66 90.44 1058.22C90.104 1058.36 89.96 1058.63 89.96 1058.9C89.96 1059.34 90.296 1059.77 90.824 1059.77C91.432 1059.77 93.816 1058.36 95.304 1056.95ZM118.856 1059.75C120.088 1060.36 120.936 1058.68 119.896 1058.15C117.672 1057 115.448 1055.06 113.4 1053.59C112.248 1052.76 111.176 1052.55 109.784 1053.54C108.968 1054.12 107.752 1054.86 107.352 1055.06C106.072 1055.74 107.224 1057.19 108.28 1056.57C109.128 1056.07 109.88 1055.38 110.648 1054.78C111.32 1054.25 111.736 1054.22 112.536 1054.81C114.392 1056.18 116.92 1058.79 118.856 1059.75Z" fill="#464646"/>
<path d="M257.053 1054.02C258.093 1054.02 259.101 1054.04 260.093 1054.07C261.213 1054.1 261.549 1052.5 260.045 1052.52C259.085 1052.52 258.061 1052.54 257.037 1052.55C257.037 1051.83 257.037 1051.13 257.053 1050.49C257.069 1049.26 255.389 1049.18 255.453 1050.5C255.469 1050.95 255.469 1051.74 255.469 1052.57C254.605 1052.58 253.757 1052.6 252.893 1052.62C252.877 1051.83 252.861 1051.11 252.829 1050.58C252.765 1049.43 251.197 1049.56 251.245 1050.65C251.277 1051.19 251.293 1051.9 251.309 1052.65C250.301 1052.66 249.293 1052.68 248.333 1052.71C247.229 1052.74 247.181 1054.26 248.429 1054.2C249.325 1054.15 250.317 1054.12 251.325 1054.09C251.325 1054.97 251.309 1055.8 251.277 1056.46C251.245 1056.98 251.661 1057.27 252.077 1057.27C252.493 1057.27 252.877 1056.98 252.893 1056.44C252.909 1055.82 252.909 1054.97 252.909 1054.06C253.757 1054.04 254.605 1054.02 255.469 1054.02V1054.39C255.469 1056.97 254.365 1059 251.885 1060.36C250.893 1060.9 251.533 1062.38 252.813 1061.64C255.757 1059.94 257.053 1057.38 257.053 1054.33V1054.02ZM268.683 1055.03C268.667 1056.9 268.603 1059.51 268.587 1060.79C268.571 1062.1 270.299 1061.96 270.267 1060.74C270.219 1059.14 270.251 1054.95 270.299 1053.32C270.987 1052.52 271.675 1051.66 272.395 1050.7C273.083 1049.77 271.675 1048.74 270.971 1049.85C269.163 1052.7 266.107 1055.64 263.163 1057.08C262.075 1057.61 262.907 1059.24 264.379 1058.34C266.043 1057.34 267.419 1056.26 268.683 1055.03ZM291.963 1050.02C291.659 1049.61 290.923 1049.05 290.523 1048.84C289.819 1048.47 289.083 1049.34 289.835 1049.78C290.139 1049.96 290.827 1050.65 291.003 1050.92C291.435 1051.61 292.491 1050.78 291.963 1050.02ZM290.075 1050.98C289.787 1050.55 289.067 1049.99 288.683 1049.77C287.995 1049.37 287.211 1050.18 287.947 1050.66C288.235 1050.86 288.907 1051.54 289.067 1051.83C289.483 1052.54 290.571 1051.75 290.075 1050.98ZM285.099 1057.02C286.411 1057.8 288.059 1059.26 288.843 1060.23C289.595 1061.18 290.795 1059.93 290.155 1059.03C289.419 1058.01 287.387 1056.66 286.059 1055.86C286.715 1055 287.291 1054.09 287.835 1053.14C288.459 1052.06 287.643 1051.14 286.203 1051.14C284.587 1051.14 282.235 1051.18 281.067 1051.22C280.043 1051.27 280.107 1052.81 281.067 1052.78C282.475 1052.74 284.683 1052.66 285.691 1052.68C286.043 1052.68 286.107 1052.94 285.963 1053.21C284.699 1055.59 282.171 1058.15 279.259 1059.16C278.059 1059.58 278.603 1061.14 279.771 1060.71C281.963 1059.88 283.691 1058.58 285.099 1057.02ZM302.555 1054.92C302.555 1053.98 301.803 1053.22 300.859 1053.22C299.915 1053.22 299.163 1053.98 299.163 1054.92C299.163 1055.86 299.915 1056.62 300.859 1056.62C301.803 1056.62 302.555 1055.86 302.555 1054.92ZM313.099 1057.32C314.379 1057.34 315.675 1057.35 316.955 1057.35C318.075 1057.35 319.179 1057.34 320.267 1057.3C321.339 1057.27 321.995 1056.63 322.043 1055.85C322.059 1055.58 322.075 1055.13 322.075 1054.68C322.075 1054.23 322.059 1053.78 322.043 1053.54C321.995 1052.89 321.323 1052.33 320.347 1052.31C319.531 1052.3 318.699 1052.28 317.899 1052.28C318.875 1051.35 319.211 1050.98 319.211 1050.46C319.211 1049.99 318.859 1049.62 318.155 1049.59C317.899 1049.58 317.467 1049.58 316.987 1049.58C316.507 1049.58 315.979 1049.58 315.531 1049.59C315.899 1049.05 315.915 1048.89 315.915 1048.74C315.915 1048.33 315.515 1047.99 315.115 1047.99C314.859 1047.99 314.603 1048.12 314.427 1048.44C313.515 1050.18 311.659 1052.2 310.123 1053.22C309.851 1053.42 309.739 1053.66 309.739 1053.88C309.739 1054.26 310.027 1054.6 310.443 1054.6C310.651 1054.6 310.923 1054.52 311.627 1053.88C311.595 1055.02 311.579 1056.71 311.579 1058.14C311.579 1058.6 311.579 1059.05 311.579 1059.43C311.595 1060.66 312.363 1061.48 313.563 1061.59C314.539 1061.69 315.771 1061.74 317.035 1061.74C318.395 1061.74 319.787 1061.67 320.923 1061.54C323.323 1061.27 323.339 1059.26 323.339 1058.54C323.339 1058.09 322.891 1057.83 322.475 1057.83C322.075 1057.83 321.691 1058.06 321.691 1058.55C321.691 1059.27 321.547 1059.98 320.667 1060.09C319.627 1060.23 318.411 1060.3 317.179 1060.3C316.075 1060.3 314.955 1060.25 313.931 1060.15C313.099 1060.09 313.083 1059.51 313.083 1058.76C313.083 1058.31 313.083 1057.72 313.099 1057.32ZM317.499 1053.51C318.283 1053.51 319.051 1053.51 319.739 1053.53C320.491 1053.54 320.491 1053.8 320.491 1054.9C320.491 1055.14 320.491 1055.37 320.475 1055.5C320.411 1056.09 320.187 1056.09 317.499 1056.09V1053.51ZM316.219 1052.28C315.211 1052.28 314.251 1052.3 313.371 1052.31C313.323 1052.31 313.291 1052.33 313.243 1052.33C313.739 1051.83 314.235 1051.29 314.667 1050.74C315.115 1050.73 315.627 1050.73 316.075 1050.73C317.227 1050.73 317.355 1050.76 317.355 1050.92C317.355 1051.02 317.211 1051.34 316.219 1052.28ZM315.995 1056.09C315.035 1056.09 314.043 1056.07 313.099 1056.04C313.099 1055.59 313.115 1054.5 313.131 1054.1C313.147 1053.83 313.371 1053.53 313.851 1053.53C314.523 1053.53 315.243 1053.51 315.995 1053.51V1056.09Z" fill="#464646"/>
<path d="M283.448 146.088C283.288 144.728 282.184 143.224 281.048 142.376C280.088 141.656 279.224 142.84 279.992 143.368C280.856 143.96 281.512 145.192 281.768 146.472C281.992 147.576 283.576 147.256 283.448 146.088ZM276.456 148.728C276.632 148.44 276.92 147.944 277.08 147.496C277.384 146.664 276.056 145.992 275.624 146.92C275.512 147.176 275.288 147.592 275.096 147.864C274.744 148.344 274.536 148.296 274.12 147.896C273.224 147.032 272.92 145.448 272.856 143.768C272.824 143.032 272.888 143 272.856 142.376C272.808 141.176 271.256 141.384 271.224 142.392C271.208 142.968 271.24 143.256 271.304 144.168C271.432 146.184 271.96 148.04 273.112 149.288C274.008 150.248 275.432 150.392 276.456 148.728ZM297.496 149.848C297.72 150.056 297.96 150.264 298.184 150.488C298.968 151.24 300.216 149.976 299.224 149.16C298.952 148.936 298.664 148.728 298.376 148.536C298.92 147.352 299.064 146.232 298.952 145C298.68 142.152 296.056 141.128 293.496 141.752C293.512 141.224 293.48 140.744 293.416 140.296C293.272 139.352 291.672 139.352 291.832 140.632C291.912 141.208 291.928 141.784 291.912 142.36C291.016 142.84 290.168 143.496 289.432 144.28C289.256 143.784 289.144 143.24 289.08 142.616C288.968 141.448 287.448 141.592 287.592 142.728C287.736 143.8 287.992 144.76 288.392 145.592C287.8 146.472 287.384 147.416 287.208 148.36C286.616 151.4 289.464 151.704 291.16 149.288C291.304 149.08 291.432 148.872 291.576 148.632C291.64 148.664 291.688 148.68 291.752 148.696C292.232 148.888 292.648 148.632 292.792 148.328C292.936 148.024 292.888 147.56 292.472 147.384C292.392 147.352 292.312 147.32 292.232 147.288C292.776 146.008 293.176 144.504 293.368 143.096C295.208 142.456 297.208 142.968 297.368 145.08C297.432 146.024 297.416 146.808 297 147.816C296.056 147.448 295.048 147.32 294.056 147.64C292.2 148.248 292.136 150.136 293.816 150.792C295.112 151.304 296.52 150.84 297.496 149.848ZM296.312 148.968C295.672 149.656 294.856 149.784 294.312 149.592C293.88 149.432 293.784 148.952 294.392 148.76C295.112 148.536 295.736 148.648 296.312 148.968ZM291.784 143.864C291.64 144.84 291.4 145.784 291.08 146.6C290.664 146.28 290.312 145.912 290.024 145.48C290.552 144.84 291.16 144.264 291.784 143.864ZM290.408 147.992C290.28 148.216 290.136 148.408 289.992 148.6C289.224 149.608 288.328 149.896 288.616 148.2C288.696 147.768 288.888 147.288 289.144 146.792C289.512 147.256 289.928 147.656 290.408 147.992Z" fill="#464646"/>
<path d="M334.768 84.696C334.608 84.808 334.464 84.936 334.304 85.064C331.712 87.128 331.616 89.72 333.92 90.888C335.504 91.688 338.176 91.368 339.44 91.016C340.864 90.616 340.384 88.776 339.04 89.288C338.08 89.64 335.792 90.056 334.672 89.496C333.424 88.888 333.472 87.688 335.056 86.344C336.32 85.272 337.968 84.344 339.6 83.512C340.832 82.888 340 81.352 338.912 81.96C337.872 82.536 336.96 83.112 336.096 83.72C335.632 82.392 334.912 80.968 334.224 79.992C333.584 79.08 332.016 79.944 332.848 80.968C333.584 81.864 334.352 83.432 334.768 84.696ZM356.32 81.8C356.912 82.456 357.904 81.368 357.2 80.68C356.8 80.28 355.92 79.864 355.456 79.704C354.64 79.432 353.984 80.488 354.88 80.824C355.232 80.952 356.08 81.544 356.32 81.8ZM354.608 83.336C355.184 84.008 356.192 82.952 355.52 82.232C355.136 81.832 354.256 81.384 353.792 81.208C352.992 80.904 352.304 81.928 353.184 82.296C353.536 82.44 354.384 83.064 354.608 83.336ZM356.976 89.528C357.888 88.792 356.912 87.32 355.872 88.136C353.088 90.328 350.24 90.488 350.144 88.152C350.08 86.6 350.32 85.144 350.432 83.448C350.512 82.376 350.624 80.856 350.656 79.848C350.688 78.792 348.88 78.696 348.912 79.88C348.944 80.872 348.832 82.44 348.784 83.48C348.704 85.176 348.528 86.536 348.592 88.216C348.736 92.536 353.856 92.072 356.976 89.528ZM369.44 89.816C369.392 88.376 368.192 87.608 366.912 87.656C365.024 87.72 364.272 89.704 365.968 90.808C367.184 91.608 369.68 91.544 371.264 90.408C372.944 89.192 373.696 86.376 371.392 85C370.208 84.296 368.304 84.296 366.896 85.048C367.472 84.488 368.112 83.912 368.752 83.32C369.392 82.728 370.032 82.104 370.544 81.528C371.344 80.632 370.288 79.496 369.008 79.864C368.096 80.136 366.56 80.52 365.488 80.648C364.4 80.776 364.64 82.36 365.904 82.088C367.088 81.832 368.144 81.512 368.592 81.272C368.72 81.208 368.88 81.144 368.704 81.368C366.928 83.56 365.632 84.792 363.872 86.536C362.88 87.512 364.48 88.456 365.056 87.608C365.424 87.064 365.76 86.776 366.4 86.408C368.016 85.464 369.744 85.576 370.576 86.136C371.488 86.744 371.536 88.264 370.368 89.304C370.08 89.56 369.744 89.752 369.44 89.816ZM368.08 90.056C367.632 90.072 367.104 90.008 366.736 89.816C366.224 89.544 366.256 88.888 366.96 88.824C367.664 88.76 368.096 89.32 368.08 90.056Z" fill="#464646"/>
<circle cx="50" cy="80" r="30" fill="#F3CD68"/>
<rect x="38" y="66" width="25" height="29" rx="3" fill="#FDFCF8"/>
<rect x="36" y="70" width="29" height="8" rx="3" fill="#FDFCF8"/>
<path d="M52.4499 83.425V89.275C52.4499 89.5336 52.5526 89.7816 52.7355 89.9644C52.9183 90.1473 53.1663 90.25 53.4249 90.25H59.2749C59.5335 90.25 59.7815 90.1473 59.9643 89.9644C60.1472 89.7816 60.2499 89.5336 60.2499 89.275V83.425C60.2499 83.1664 60.1472 82.9184 59.9643 82.7356C59.7815 82.5527 59.5335 82.45 59.2749 82.45H53.4249C53.1663 82.45 52.9183 82.5527 52.7355 82.7356C52.5526 82.9184 52.4499 83.1664 52.4499 83.425ZM54.3999 88.3V84.4H58.2999V88.3H54.3999ZM40.7499 64.9C40.607 64.9 40.4658 64.9315 40.3364 64.9922C40.207 65.0528 40.0926 65.1412 40.0011 65.251L35.1261 71.101C34.98 71.2761 34.9 71.4969 34.8999 71.725V74.65C34.8999 76.3816 35.6526 77.9396 36.8499 79.0102V95.125C36.8499 95.3836 36.9526 95.6316 37.1355 95.8144C37.3183 95.9973 37.5663 96.1 37.8249 96.1H63.1749C63.4335 96.1 63.6815 95.9973 63.8643 95.8144C64.0472 95.6316 64.1499 95.3836 64.1499 95.125V79.0102C65.3472 77.9377 66.0999 76.3816 66.0999 74.65V71.6899C66.0999 71.5144 66.0999 71.374 65.8737 71.101L60.9987 65.251C60.9072 65.1412 60.7928 65.0528 60.6634 64.9922C60.534 64.9315 60.3928 64.9 60.2499 64.9H40.7499ZM40.7499 78.55C39.7156 78.55 38.7236 78.1391 37.9922 77.4077C37.2608 76.6763 36.8499 75.6843 36.8499 74.65V72.7H44.6499V74.65C44.6499 75.6843 44.239 76.6763 43.5076 77.4077C42.7762 78.1391 41.7842 78.55 40.7499 78.55ZM50.4999 78.55C49.4656 78.55 48.4736 78.1391 47.7422 77.4077C47.0108 76.6763 46.5999 75.6843 46.5999 74.65V72.7H54.3999V74.65C54.3999 75.6843 53.989 76.6763 53.2576 77.4077C52.5262 78.1391 51.5342 78.55 50.4999 78.55ZM60.2499 78.55C59.2156 78.55 58.2236 78.1391 57.4922 77.4077C56.7608 76.6763 56.3499 75.6843 56.3499 74.65V72.7H64.1499V74.65C64.1499 75.6843 63.739 76.6763 63.0076 77.4077C62.2762 78.1391 61.2842 78.55 60.2499 78.55ZM40.7499 94.15H38.7999V80.1685C40.029 80.6042 41.3685 80.6162 42.6052 80.2028C43.8419 79.7894 44.9049 78.9742 45.6249 77.887C46.1585 78.6912 46.883 79.3508 47.7337 79.8067C48.5844 80.2627 49.5347 80.5009 50.4999 80.5C51.4652 80.5007 52.4157 80.2622 53.2664 79.8059C54.1171 79.3496 54.8415 78.6896 55.3749 77.885C56.0949 78.9723 57.1579 79.7874 58.3946 80.2009C59.6313 80.6143 60.9708 80.6022 62.1999 80.1665V94.15H50.4999V83.425C50.4999 83.1664 50.3972 82.9184 50.2143 82.7356C50.0315 82.5527 49.7835 82.45 49.5249 82.45H41.7249C41.4663 82.45 41.2183 82.5527 41.0355 82.7356C40.8526 82.9184 40.7499 83.1664 40.7499 83.425V94.15ZM44.9229 70.75H37.9575L41.2062 66.85H46.2216L44.9229 70.75ZM54.0216 70.75H46.9782L48.2769 66.85H52.7229L54.0216 70.75ZM56.0769 70.75L54.7782 66.85H59.7936L63.0443 70.75H56.0769ZM42.6999 94.15V84.4H48.5499V94.15H42.6999Z" fill="#464646"/>
<path d="M101.22 78.594C101.616 78.154 101.704 77.406 101.11 76.878C100.274 76.13 99.152 75.492 98.184 75.052C96.688 74.392 95.808 76.35 97.062 76.856C97.898 77.208 98.778 77.846 99.46 78.55C100.054 79.166 100.824 79.034 101.22 78.594ZM109.712 77.978C110.68 76.24 108.48 75.338 107.754 76.702C105.444 81.08 100.56 85.92 96.182 87.108C94.444 87.57 95.17 89.946 96.908 89.374C101.902 87.724 106.896 83.016 109.712 77.978ZM98.602 82.092C98.888 81.586 98.8 80.816 98.096 80.442C97.106 79.892 95.918 79.54 94.884 79.342C93.278 79.034 92.86 81.124 94.18 81.344C95.082 81.498 96.094 81.938 96.908 82.466C97.634 82.928 98.316 82.62 98.602 82.092ZM125.15 84.446C125.15 84.974 125.128 85.458 125.106 85.788C125.084 86.206 124.776 86.426 124.38 86.448C123.192 86.536 120.024 86.536 118.308 86.47C116.922 86.426 116.922 88.384 118.33 88.384C119.98 88.384 122.84 88.362 124.556 88.274C125.788 88.208 127.02 87.812 127.064 86.096C127.086 84.666 127.064 82.356 127.064 81.388C127.064 80.178 126.426 79.232 124.842 79.188C123.236 79.144 120.266 79.188 118.484 79.254C117.054 79.32 117.098 81.146 118.55 81.08C120.2 81.014 122.884 80.904 124.292 80.948C124.776 80.97 125.084 81.146 125.106 81.63C125.106 81.872 125.128 82.224 125.128 82.664C123.544 82.664 120.486 82.752 118.99 82.752C118.264 82.752 117.846 83.148 117.868 83.632C117.89 84.094 118.308 84.49 118.924 84.49C120.376 84.512 123.06 84.49 125.15 84.446ZM144.443 81.63C144.113 80.86 143.629 80.068 143.123 79.452C142.221 78.374 140.747 79.584 141.539 80.464C141.957 80.948 142.353 81.652 142.573 82.312C143.035 83.72 144.971 82.928 144.443 81.63ZM140.703 89.902C145.037 87.944 147.479 84.578 148.733 80.42C149.151 79.078 147.017 78.418 146.665 79.848C145.785 83.522 143.409 86.624 139.735 88.164C139.119 88.428 138.987 89.022 139.185 89.484C139.405 89.968 139.955 90.232 140.703 89.902ZM141.407 82.554C140.989 81.828 140.373 81.124 139.779 80.596C138.745 79.672 137.469 81.058 138.371 81.828C138.855 82.246 139.317 82.906 139.625 83.522C140.285 84.82 142.111 83.742 141.407 82.554ZM175.407 73.336C175.407 72.06 174.351 71.004 173.075 71.004C171.799 71.004 170.765 72.06 170.765 73.336C170.765 74.612 171.799 75.646 173.075 75.646C174.351 75.646 175.407 74.612 175.407 73.336ZM161.019 89.33C167.179 86.976 169.863 82.708 171.403 78.308C172.041 76.504 170.787 75.162 169.005 75.14C166.211 75.096 162.097 75.118 159.193 75.25C157.631 75.316 157.785 77.472 159.237 77.428C162.405 77.318 165.881 77.186 168.037 77.252C168.851 77.274 168.917 77.824 168.741 78.418C167.751 81.652 164.869 85.656 160.007 87.196C158.335 87.724 159.149 90.034 161.019 89.33ZM174.197 73.336C174.197 73.952 173.691 74.436 173.075 74.436C172.459 74.436 171.953 73.952 171.953 73.336C171.953 72.72 172.459 72.192 173.075 72.192C173.691 72.192 174.197 72.72 174.197 73.336Z" fill="#464646"/>
</svg>
