<?xml version="1.0" encoding="UTF-8"?><svg xmlns="http://www.w3.org/2000/svg" viewBox="0 0 199.02 102.82"><defs><style>.d{fill:#fdfcea;}.e,.f{fill:#464546;}.g,.h{fill:#2e4b5e;}.i{fill:#edd493;}.i,.j,.k,.l,.h,.f,.m,.n{stroke-miterlimit:10;}.i,.j,.m{stroke:#b28146;}.j{fill:#f1c550;}.k{fill:#bf5a5b;}.k,.l{stroke:#fdfcf8;}.l{fill:#c85d5d;}.h{stroke:#fdfcea;}.f{stroke:#464646;}.m,.n{fill:none;}.n{stroke:#285d30;stroke-width:.25px;}</style></defs><g id="a"/><g id="b"><g id="c"><path class="d" d="M30.01,9.4C5.63,10.92,.02,22.82,0,28.91c.84,20.59,28.53,19.78,28.53,19.78,0,0-5.53,10.54-2.65,20.59,4.31,12.27,18.68,14.57,18.68,14.57,0,0-1.22,7.04,3.15,12.21,7.06,7.62,19.22,7.43,26.76,5.9s13.05-7.75,13.05-7.75c13.36,4.17,33.48,2.34,56.46-2.04,1.53,4.22,4.67,6.7,8.04,8.14,6.36,2.49,16.98,4.18,25.93-.13s12.09-18.58,12.09-18.58c2.69-10.79,2.95-21.89-.54-31.27,0,0,8.84-9.69,9.53-25.17,0-11.04-12.14-15.97-19.44-8.15-7.3,7.82-6.87,14.14-11.77,16.2-42.98-11.65-55.92,.76-75.02-1.19-1.44-16.49-9.91-24.43-21.08-26.15-7.02-7.35-33.89-9.48-41.69,3.51Z"/><path class="g" d="M67.53,16.33c-18.73-16.64-35.41,1.87-35.41,1.87,0,0-23.89-1.81-22.71,10.77,1.46,15.74,30.86,9.1,31.13,10.14-7.3,29.97,19.11,38.69,19.11,38.69,0,0,1.84,1.1,1.03,5.25-5.09,5.1,.28,8.21,.28,8.21h10.25s4.17-1.17,2.77-9.29c33.05,10.43,84.46-5.55,84.46-5.55,0,0,2.16,2.37,1.53,6.38-4.85,4-1.39,8.46-1.39,8.46h11.79c4.46-2.45,2.51-8.37,2.36-9.02,11.41-16.04,8.78-26.4,3.36-32.74-.35-.41,5.67-4.75,9.27-10.99,4.47-7.75,6.67-15.57,2.22-15.69-3.43-.1-4.55,6.19-7.61,11.57-3.42,6.03-8.79,10.73-9.29,10.4-4.01-2.67-7.73-3.8-7.94-3.88-19.24-7.3-31.72-3.34-53.26-.42-21.54,2.93-32.1-2.41-31.9-3.19,1.6-1.29,6.46-13.08-10.06-20.97Z"/><path class="l" d="M79.2,60.77c.55,.21,.95,.57,1.19,1.08s.24,1.02,0,1.54c-.86,1.86-1.88,3.31-3.07,4.33s-2.34,1.54-3.46,1.54c-1.49,0-2.87-.96-4.15-2.89s-1.92-4.28-1.92-7.06c0-2.22,.26-4.47,.78-6.75,.13-.58,.45-1.04,.96-1.37,.51-.33,1.06-.46,1.66-.4l.36,.05c.53,.06,.96,.32,1.27,.76,.32,.45,.42,.93,.3,1.47-.49,2.35-.73,4.43-.73,6.24,0,.76,.06,1.48,.18,2.17,.12,.69,.28,1.25,.47,1.7,.19,.45,.39,.8,.59,1.07,.2,.27,.39,.4,.57,.4,.24,0,.56-.23,.95-.69,.39-.46,.8-1.13,1.24-2,.26-.52,.66-.9,1.2-1.14,.54-.24,1.07-.26,1.59-.05Z"/><path class="k" d="M109.65,69.66c.55-.03,1.05,.1,1.5,.39,.45,.29,.73,.7,.83,1.21,.1,.55-.01,1.06-.33,1.52-.32,.46-.74,.72-1.27,.79-.73,.08-1.37,.12-1.92,.12-1.65,0-2.9-.23-3.74-.7-.84-.47-1.38-1.21-1.6-2.21-.15-.65-.29-1.09-.44-1.33s-.32-.36-.53-.36c-.19,0-.57,.17-1.12,.5-.55,.33-2.19,1.4-4.93,3.22-.47,.32-.99,.43-1.55,.33s-1.02-.39-1.36-.86l-.05-.05c-.32-.47-.43-.97-.32-1.52,.11-.54,.4-.97,.87-1.27l10.24-6.6s.02,0,.02-.02,0-.02-.02-.02h-8.11c-.53,0-.99-.19-1.37-.57-.38-.38-.57-.84-.57-1.37s.19-.99,.57-1.37c.38-.38,.84-.57,1.37-.57h12.26c.57,0,1.05,.2,1.46,.61,.4,.4,.61,.89,.61,1.46v.41c0,1.36-.57,2.42-1.72,3.18l-2.74,1.8,.02,.02c.23,0,.47,.17,.73,.5s.44,.75,.56,1.25c.16,.7,.35,1.13,.57,1.31,.22,.18,.68,.27,1.37,.27,.31,0,.54,0,.7-.02Z"/><path class="l" d="M164.13,64.26l.51,.66c.31,.42,.42,.89,.35,1.41-.07,.52-.32,.94-.74,1.26l-.56,.41c-.24,.19-.52,.27-.83,.24-.31-.03-.56-.18-.75-.44-.06-.08-.13-.09-.19-.02-1.04,1.04-2.2,1.55-3.5,1.55s-2.31-.38-3.13-1.15c-.83-.77-1.24-1.76-1.24-2.97s.43-2.14,1.29-2.94c.86-.79,1.97-1.19,3.33-1.19,.42,0,.82,.02,1.19,.07,.18,.03,.27-.04,.27-.22v-.83c0-.81-.21-1.56-.64-2.26-.43-.7-1.02-1.27-1.78-1.72-.16-.1-.28-.06-.34,.12-1.62,4.11-3.28,7.2-4.99,9.26-1.71,2.06-3.25,3.09-4.62,3.09-1.46,0-2.63-.6-3.52-1.81-.89-1.21-1.33-2.95-1.33-5.23,0-2.9,1.04-5.33,3.11-7.31,.13-.13,.17-.27,.12-.44-.13-.49-.32-1.23-.58-2.23-.13-.52-.05-1.01,.24-1.47,.29-.46,.7-.76,1.24-.89,.53-.11,1.04-.02,1.5,.27,.47,.29,.77,.7,.9,1.24,.02,.1,.06,.25,.12,.46,.06,.21,.1,.36,.12,.46,.03,.18,.14,.23,.32,.17,1.33-.47,2.77-.7,4.32-.7h.22c.19,0,.32-.08,.36-.24,.03-.1,.08-.23,.13-.41,.06-.18,.1-.31,.13-.39,.18-.57,.52-1,1.02-1.31,.5-.31,1.04-.41,1.63-.32h.05c.55,.1,.97,.38,1.25,.85,.28,.47,.34,.96,.18,1.48-.13,.42-.23,.73-.29,.92-.06,.18-.02,.31,.15,.39,1.67,.73,2.98,1.8,3.93,3.22,.95,1.42,1.43,3.01,1.43,4.79,0,1.36-.15,2.59-.44,3.69-.05,.18-.02,.33,.07,.46Zm-16.38-.02c.26,0,.66-.32,1.19-.95,.1-.11,.11-.26,.05-.44-.21-.55-.63-1.78-1.26-3.69-.02-.05-.05-.07-.1-.06-.05,0-.09,.04-.12,.08-.32,.74-.49,1.54-.49,2.38,0,.55,.04,1.04,.12,1.46s.17,.73,.28,.92c.1,.19,.21,.29,.33,.29Zm5.36-8.67c.03-.06,.03-.12,0-.17-.03-.05-.08-.06-.15-.05-.74,.11-1.38,.28-1.89,.49-.16,.05-.21,.18-.15,.39,.24,.84,.47,1.59,.68,2.23,.02,.05,.05,.07,.1,.07s.09-.02,.12-.07c.45-.95,.88-1.92,1.29-2.89Zm6.48,9.52c.1-.18,.07-.32-.07-.44-.23-.19-.51-.29-.85-.29-.26,0-.49,.08-.68,.25-.19,.17-.29,.37-.29,.59,0,.21,.07,.38,.21,.52,.14,.14,.31,.21,.52,.21,.52,0,.91-.28,1.17-.85Z"/><rect class="l" x="82.79" y="54.83" width="5.17" height="6.31" rx="2.58" ry="2.58" transform="translate(-12.1 24.07) rotate(-15)"/><rect class="l" x="99.82" y="50.94" width="5.17" height="6.31" rx="2.58" ry="2.58" transform="translate(48.3 156.5) rotate(-90)"/><path class="l" d="M128.7,63.56c.55,.21,.95,.57,1.19,1.08s.24,1.02,0,1.54c-.86,1.86-1.88,3.31-3.07,4.33s-2.34,1.54-3.46,1.54c-1.49,0-2.87-.96-4.15-2.89s-1.92-4.28-1.92-7.06c0-2.22,.26-4.47,.78-6.75,.13-.58,.45-1.04,.96-1.37,.51-.33,1.06-.46,1.66-.4l.36,.05c.53,.06,.96,.32,1.27,.76,.32,.45,.42,.93,.3,1.47-.49,2.35-.73,4.43-.73,6.24,0,.76,.06,1.48,.18,2.17,.12,.69,.28,1.25,.47,1.7,.19,.45,.39,.8,.59,1.07,.2,.27,.39,.4,.57,.4,.24,0,.56-.23,.95-.69,.39-.46,.8-1.13,1.24-2,.26-.52,.66-.9,1.2-1.14,.54-.24,1.07-.26,1.59-.05Z"/><rect class="l" x="132.29" y="57.62" width="5.17" height="6.31" rx="2.58" ry="2.58" transform="translate(-11.13 36.98) rotate(-15)"/><path class="j" d="M59,82.72s-4.79,1.75-4.79,4.47c0,5.01,5.69,4.98,5.69,4.98h12.86c4.08-1.85,3.33-7.39,2.86-7.74-.39-.42-16.11-4.84-16.48-4.55-.12,.1-.14,2.84-.14,2.84Z"/><rect class="f" x="58.17" y="83.8" width="2.57" height=".09" rx=".04" ry=".04" transform="translate(25.29 -13.1) rotate(15.93)"/><rect class="f" x="56.05" y="85" width="2.57" height=".09" rx=".04" ry=".04" transform="translate(25.53 -12.47) rotate(15.92)"/><path class="i" d="M35.69,55.67c-.13,.05-1.79,.74-2.18,1-.5,.32-.82,.63-.86,1.26,0,.87,.06,9.97,.07,10.09-.01,.83,.36,1,.79,1.14,.14,.04,12.71,3.19,12.82,3.17,.88,.08,1.18,.01,1.82-.21l2.05-.94c.41-.24,.66-.64,.64-1.3l-.03-10.22c-.08-.56-.36-.75-1.22-1.02,0,0-12.42-3.1-12.56-3.11-.35-.04-.84-.06-1.33,.14Z"/><path class="d" d="M34.15,57.47l12.22,3.11c.19,.04,.41,.02,.64-.05l2.25-1.02c.42,.12,.61,.28,.65,.47l-2.32,1.07c-.25,.14-.38,.37-.37,.71l.08,9.47c-.01,.2-.1,.31-.25,.31-.18,.03-.35,.03-.52,0-.13-.03-.21-.12-.21-.3l-.07-9.59c0-.17-.14-.36-.31-.41l-12.57-3.09c.11-.29,.46-.58,.78-.68Z"/><ellipse class="e" cx="37.34" cy="56.64" rx="2.14" ry="1.13"/><path class="e" d="M40.03,61.67c.12-.05,.24-.1,.36-.13,1.61-.46,3.38,.79,3.95,2.79s-.28,3.99-1.9,4.45c-.04,.01-.08,.02-.11,.03"/><line class="n" x1="39.13" y1="61.9" x2="40.39" y2="61.54"/><line class="n" x1="41.18" y1="69.14" x2="42.44" y2="68.78"/><path class="j" d="M157.92,82.72s-4.79,1.75-4.79,4.47c0,5.01,5.69,4.98,5.69,4.98h12.86c4.08-1.85,3.33-7.39,2.86-7.74-.39-.42-16.11-4.84-16.48-4.55-.12,.1-.14,2.84-.14,2.84Z"/><rect class="f" x="157.09" y="83.8" width="2.57" height=".09" rx=".04" ry=".04" transform="translate(29.08 -40.24) rotate(15.93)"/><rect class="f" x="154.97" y="85" width="2.57" height=".09" rx=".04" ry=".04" transform="translate(29.33 -39.61) rotate(15.92)"/><ellipse class="h" cx="40.15" cy="65.52" rx="3.04" ry="3.76" transform="translate(-16.34 13.43) rotate(-15.82)"/><path class="m" d="M39.23,44.78c.02-.05-4.2,11.91,2.57,13.48,5.66,1.32,15.78-3.2,24.96-12.23,7.06-6.95,12.18-7.78,11.7-7.71"/></g></g></svg>