<svg width="499" height="193" viewBox="0 0 499 193" fill="none" xmlns="http://www.w3.org/2000/svg">
<path d="M0 96.5C0 43.2045 43.2045 0 96.5 0H499V193H96.5C43.2045 193 0 149.795 0 96.5V96.5Z" fill="#D26060"/>
<path d="M106.887 53.578C106.266 53.578 105.99 53.969 105.99 54.59C105.99 55.188 106.266 55.533 106.864 55.533H118.939C119.836 55.533 120.066 55.763 120.066 56.591V66.136C120.066 66.964 119.836 67.217 118.939 67.217H106.496C105.875 67.217 105.599 67.562 105.599 68.183C105.599 68.781 105.921 69.172 106.473 69.172H119.514C121.285 69.172 122.136 68.229 122.136 66.389V56.384C122.136 54.544 121.285 53.578 119.514 53.578H106.887ZM139.064 58.339C141.41 56.706 143.411 54.935 144.837 53.302C144.998 53.095 145.09 52.888 145.09 52.681C145.09 52.405 144.952 52.129 144.676 51.922C144.469 51.761 144.239 51.692 144.009 51.692C143.733 51.692 143.434 51.83 143.227 52.06C141.364 54.176 139.501 55.74 136.971 57.373C133.889 59.374 130.807 60.777 128.116 61.651C127.656 61.812 127.426 62.203 127.426 62.571C127.426 62.686 127.449 62.801 127.472 62.916C127.656 63.353 127.932 63.56 128.323 63.56C128.484 63.56 128.645 63.537 128.829 63.468C131.428 62.617 134.28 61.306 137.017 59.673V70.046C137.017 70.667 137.454 70.943 138.052 70.943C138.627 70.943 139.064 70.644 139.064 70.069V58.339ZM153.37 53.348C153.163 53.21 152.933 53.118 152.68 53.118C152.404 53.118 152.151 53.21 151.944 53.463C151.783 53.647 151.691 53.9 151.691 54.13C151.691 54.406 151.806 54.682 152.059 54.866C153.715 55.993 155.601 57.626 156.866 59.075C157.142 59.374 157.441 59.512 157.717 59.512C157.993 59.512 158.246 59.397 158.43 59.19C158.637 58.96 158.752 58.684 158.752 58.408C158.752 58.155 158.66 57.902 158.476 57.672C157.142 56.039 155.049 54.406 153.37 53.348ZM168.78 55.027C168.665 55.004 168.55 54.981 168.435 54.981C168.021 54.981 167.676 55.234 167.515 55.855C166.687 59.259 164.686 62.617 161.995 64.71C159.695 66.481 155.785 67.815 152.381 67.976C151.806 67.999 151.461 68.436 151.461 68.988C151.461 69.034 151.461 69.057 151.461 69.103C151.507 69.678 151.944 70.023 152.542 70.023C152.565 70.023 152.565 70.023 152.588 70.023C156.153 69.885 160.408 68.528 163.191 66.435C166.388 64.02 168.573 60.294 169.516 56.384C169.539 56.246 169.562 56.108 169.562 55.97C169.562 55.487 169.263 55.165 168.78 55.027ZM177.957 59.811C179.153 58.776 180.211 57.396 181.108 55.878C183.73 55.809 186.605 55.556 189.503 55.142C190.009 55.05 190.285 54.728 190.285 54.291C190.285 54.222 190.285 54.176 190.285 54.13C190.216 53.647 189.917 53.394 189.457 53.394C189.388 53.394 189.319 53.394 189.25 53.417C186.72 53.785 183.983 54.061 182.028 54.13C182.373 53.44 182.672 52.819 182.948 52.152C183.017 52.014 183.04 51.876 183.04 51.761C183.04 51.416 182.787 51.14 182.327 51.048C182.212 51.025 182.12 51.002 182.005 51.002C181.637 51.002 181.315 51.186 181.154 51.669C180.878 52.497 180.464 53.348 180.004 54.176C179.567 54.176 179.13 54.176 178.693 54.176C177.175 54.176 175.703 54.153 174.622 54.061C174.599 54.061 174.576 54.061 174.553 54.061C174.093 54.061 173.771 54.452 173.725 54.912C173.725 54.935 173.725 54.981 173.725 55.004C173.725 55.464 174.024 55.832 174.53 55.855C175.565 55.901 176.876 55.924 178.026 55.924C178.394 55.924 178.762 55.924 179.084 55.924C177.589 58.293 175.611 60.685 173.633 62.525C173.426 62.732 173.311 62.985 173.311 63.261C173.311 63.514 173.403 63.767 173.61 63.951C173.794 64.135 174.001 64.227 174.231 64.227C174.484 64.227 174.76 64.112 174.967 63.882C177.727 61.076 180.257 59.558 182.212 59.558C183.224 59.558 183.914 59.949 184.052 61.352C179.774 62.893 177.658 65.032 177.658 67.217C177.658 69.862 180.096 71.058 184.42 71.058C186.881 71.058 189.112 70.874 190.837 70.575C191.366 70.506 191.688 70.115 191.688 69.632C191.688 69.563 191.688 69.494 191.665 69.402C191.573 68.919 191.274 68.689 190.814 68.689C190.699 68.689 190.607 68.689 190.492 68.712C188.79 69.011 186.49 69.218 184.282 69.218C181.039 69.218 179.544 68.505 179.544 67.148C179.544 65.722 180.97 64.342 184.19 63.1C184.19 63.445 184.19 63.836 184.19 64.204C184.19 64.94 184.19 65.699 184.19 66.32C184.19 66.895 184.512 67.194 185.041 67.194C185.547 67.194 185.915 66.895 185.938 66.32C185.961 65.883 185.961 65.446 185.961 65.009C185.961 64.181 185.938 63.376 185.892 62.548C188.1 61.743 190.262 61.168 191.941 60.731C192.447 60.616 192.677 60.294 192.677 59.88C192.677 59.765 192.654 59.65 192.631 59.512C192.493 59.098 192.194 58.891 191.78 58.891C191.665 58.891 191.527 58.914 191.389 58.937C189.802 59.397 187.801 60.018 185.731 60.754C185.432 58.776 184.213 58.063 182.557 58.063C181.131 58.063 179.843 58.684 178.049 59.949L177.957 59.811ZM210.41 56.154H210.502C211.146 56.154 211.376 56.361 211.376 56.798C211.376 56.913 211.353 57.051 211.33 57.212C209.95 63.445 205.833 67.539 199.117 69.31C198.634 69.425 198.358 69.77 198.358 70.207C198.358 70.299 198.381 70.414 198.404 70.529C198.542 70.966 198.91 71.196 199.347 71.196C199.439 71.196 199.531 71.196 199.623 71.173C207.466 69.287 212.043 64.02 213.423 57.511C213.492 57.189 213.515 56.913 213.515 56.637C213.515 55.142 212.595 54.314 211.123 54.337L203.924 54.475C204.361 53.716 204.683 53.072 204.821 52.589C204.844 52.497 204.867 52.405 204.867 52.313C204.867 51.922 204.637 51.6 204.154 51.462C203.993 51.416 203.855 51.393 203.74 51.393C203.28 51.393 203.004 51.646 202.843 52.06C201.302 55.901 199.002 58.431 196.725 59.903C196.38 60.133 196.242 60.455 196.242 60.777C196.242 60.984 196.311 61.191 196.426 61.352C196.633 61.628 196.909 61.766 197.208 61.766C197.415 61.766 197.599 61.72 197.806 61.582C199.83 60.248 201.67 58.339 203.004 56.269L210.41 56.154ZM211.238 51.485C211.238 51.692 211.33 51.876 211.468 52.037C212.112 52.75 212.802 53.693 213.285 54.544C213.423 54.82 213.607 54.935 213.883 54.935C214.32 54.935 214.642 54.636 214.642 54.291C214.642 53.992 214.55 53.831 214.481 53.693C214.044 52.934 213.216 51.83 212.503 51.117C212.319 50.933 212.158 50.864 211.905 50.864C211.537 50.864 211.238 51.186 211.238 51.485ZM214.113 50.427C214.113 50.703 214.182 50.818 214.389 51.025C215.01 51.692 215.608 52.589 216.114 53.463C216.275 53.716 216.436 53.831 216.712 53.831C217.149 53.831 217.425 53.463 217.425 53.187C217.425 52.934 217.356 52.75 217.287 52.612C216.873 51.876 215.999 50.68 215.401 50.105C215.194 49.921 215.033 49.829 214.78 49.829C214.458 49.829 214.113 50.128 214.113 50.427ZM221.311 57.281C220.966 57.396 220.713 57.695 220.713 58.04C220.713 58.155 220.736 58.247 220.805 58.362C221.472 59.673 222.208 61.559 222.645 63.031C222.76 63.422 223.082 63.606 223.45 63.606C223.565 63.606 223.68 63.583 223.818 63.537C224.209 63.422 224.462 63.169 224.462 62.778C224.462 62.663 224.439 62.571 224.416 62.433C223.956 60.938 223.22 59.029 222.507 57.672C222.346 57.35 222.07 57.189 221.748 57.189C221.61 57.189 221.449 57.212 221.311 57.281ZM226.164 56.361C225.819 56.499 225.566 56.775 225.566 57.097C225.566 57.212 225.589 57.327 225.658 57.442C226.279 58.684 226.992 60.524 227.383 61.996C227.452 62.341 227.797 62.525 228.165 62.525C228.303 62.525 228.418 62.502 228.556 62.479C228.97 62.341 229.177 62.042 229.177 61.697C229.177 61.628 229.177 61.536 229.154 61.467C228.74 59.903 228.073 58.132 227.36 56.775C227.176 56.43 226.9 56.269 226.578 56.269C226.44 56.269 226.302 56.292 226.164 56.361ZM234.421 56.752C234.375 56.752 234.329 56.752 234.306 56.752C233.915 56.752 233.478 56.959 233.455 57.465C233.156 60.248 232.351 63.008 230.971 64.917C229.43 67.056 226.785 68.597 224.209 69.218C223.795 69.31 223.565 69.609 223.565 69.977C223.565 70.092 223.588 70.207 223.611 70.322C223.726 70.713 224.025 70.943 224.439 70.943C224.508 70.943 224.6 70.943 224.692 70.92C227.774 70.276 230.626 68.413 232.42 66.044C234.007 63.928 234.996 60.846 235.295 57.787C235.295 57.741 235.295 57.672 235.295 57.626C235.295 57.12 234.996 56.844 234.421 56.752ZM252.18 55.464C252.755 55.464 253.008 55.625 253.008 55.97C253.008 56.108 252.962 56.269 252.893 56.476C251.996 59.052 250.087 61.743 247.695 63.951C245.234 66.205 242.313 67.861 239.53 68.919C239.093 69.08 238.84 69.471 238.84 69.908C238.84 70.046 238.863 70.161 238.909 70.299C239.047 70.69 239.369 70.874 239.76 70.874C239.944 70.874 240.128 70.828 240.312 70.759C243.877 69.425 247.488 67.194 250.041 64.388C252.594 66.389 254.388 68.114 256.113 70.184C256.32 70.437 256.619 70.552 256.941 70.552C257.217 70.552 257.516 70.437 257.723 70.207C257.93 70 258.045 69.747 258.045 69.471C258.045 69.195 257.93 68.919 257.7 68.666C255.791 66.435 253.905 64.94 251.329 62.939C252.939 60.961 254.227 59.006 254.963 56.959C255.147 56.476 255.239 56.016 255.239 55.625C255.239 55.165 255.124 54.797 254.917 54.475C254.526 53.877 253.882 53.555 252.893 53.555L241.186 53.67C240.657 53.67 240.335 54.038 240.335 54.59C240.335 55.211 240.634 55.602 241.186 55.602L252.18 55.464ZM254.25 51.485C254.25 51.692 254.342 51.876 254.48 52.037C255.124 52.75 255.814 53.693 256.297 54.544C256.435 54.82 256.619 54.935 256.895 54.935C257.332 54.935 257.654 54.636 257.654 54.291C257.654 53.992 257.562 53.831 257.493 53.693C257.056 52.934 256.228 51.83 255.515 51.117C255.331 50.933 255.17 50.864 254.917 50.864C254.549 50.864 254.25 51.186 254.25 51.485ZM257.125 50.427C257.125 50.703 257.194 50.818 257.401 51.025C258.022 51.692 258.62 52.589 259.126 53.463C259.287 53.716 259.448 53.831 259.724 53.831C260.161 53.831 260.437 53.463 260.437 53.187C260.437 52.934 260.368 52.75 260.299 52.612C259.885 51.876 259.011 50.68 258.413 50.105C258.206 49.921 258.045 49.829 257.792 49.829C257.47 49.829 257.125 50.128 257.125 50.427ZM270.925 58.454C270.258 56.522 269.775 54.291 269.384 52.106C269.315 51.577 268.924 51.324 268.464 51.324C268.372 51.324 268.303 51.324 268.211 51.347C267.751 51.439 267.383 51.738 267.383 52.244C267.383 52.313 267.383 52.382 267.406 52.451C267.843 54.774 268.395 57.166 269.085 59.236C265.773 60.846 263.841 63.1 263.841 65.423C263.841 68.896 266.44 70.46 272.075 70.437C274.766 70.437 277.273 70.276 279.044 69.885C279.596 69.77 279.918 69.379 279.918 68.896C279.918 68.804 279.918 68.735 279.895 68.643C279.826 68.114 279.481 67.815 278.975 67.815C278.883 67.815 278.791 67.815 278.699 67.838C276.951 68.206 274.421 68.459 272.167 68.459C267.291 68.459 265.819 67.447 265.819 65.446C265.819 63.767 267.383 62.042 270.373 60.685C272.811 59.581 276.077 58.523 278.469 57.925C278.998 57.787 279.251 57.442 279.251 57.028C279.251 56.913 279.228 56.798 279.205 56.683C279.067 56.223 278.768 55.993 278.308 55.993C278.193 55.993 278.078 56.016 277.94 56.039C275.893 56.568 273.202 57.488 270.925 58.454ZM294.937 64.503C293.833 63.33 292.867 61.973 292.062 60.363C291.924 60.133 291.717 60.018 291.464 60.018C291.257 60.018 291.05 60.087 290.866 60.202C290.59 60.386 290.452 60.593 290.452 60.823C290.452 60.984 290.498 61.145 290.613 61.329C291.418 62.962 292.453 64.411 293.695 65.722C291.487 67.7 288.704 69.126 285.438 69.977C285.047 70.092 284.863 70.391 284.863 70.736C284.863 70.874 284.886 71.012 284.932 71.127C285.093 71.564 285.369 71.771 285.737 71.771C285.852 71.771 285.944 71.748 286.036 71.725C289.647 70.713 292.591 69.08 294.96 66.941C297.421 69.103 300.48 70.713 304.022 71.748C304.091 71.771 304.183 71.771 304.275 71.771C304.643 71.771 304.965 71.564 305.126 71.104C305.149 70.966 305.172 70.851 305.172 70.736C305.172 70.345 304.965 70 304.597 69.908C301.285 68.965 298.479 67.654 296.179 65.699C297.398 64.388 298.41 62.916 299.238 61.306C299.33 61.145 299.376 60.984 299.376 60.846C299.376 60.57 299.238 60.34 298.916 60.156C298.732 60.041 298.525 59.972 298.341 59.972C298.088 59.972 297.858 60.087 297.743 60.363C296.984 61.904 296.041 63.284 294.937 64.503ZM295.788 53.417V51.14C295.788 50.703 295.397 50.496 294.845 50.496C294.339 50.496 293.925 50.703 293.925 51.14V53.417H285.392C284.955 53.417 284.725 53.785 284.725 54.268C284.725 54.751 284.955 55.096 285.392 55.096H304.528C304.965 55.096 305.195 54.728 305.195 54.268C305.195 53.762 304.965 53.417 304.528 53.417H295.788ZM291.717 56.108C291.533 55.993 291.349 55.947 291.142 55.947C290.912 55.947 290.682 56.039 290.544 56.246C289.302 58.201 287.508 59.834 285.553 61.053C285.3 61.214 285.162 61.467 285.162 61.72C285.162 61.904 285.231 62.111 285.346 62.295C285.53 62.571 285.806 62.709 286.082 62.709C286.243 62.709 286.45 62.663 286.634 62.548C288.704 61.168 290.567 59.351 291.993 57.235C292.108 57.074 292.154 56.936 292.154 56.775C292.154 56.522 291.993 56.292 291.717 56.108ZM297.835 56.085C297.582 56.246 297.421 56.499 297.421 56.752C297.421 56.913 297.467 57.074 297.582 57.212C299.077 59.19 301.262 61.214 303.47 62.387C303.631 62.479 303.792 62.525 303.953 62.525C304.229 62.525 304.482 62.387 304.689 62.065C304.781 61.904 304.827 61.72 304.827 61.559C304.827 61.26 304.666 60.961 304.39 60.823C302.435 59.742 300.411 58.109 299.031 56.223C298.87 56.016 298.64 55.924 298.387 55.924C298.203 55.924 298.019 55.97 297.835 56.085ZM314.579 64.825H313.728C313.36 64.825 313.13 65.147 313.13 65.584C313.13 66.021 313.36 66.32 313.728 66.32H319.34C318.305 68.574 316.235 69.77 313.038 70.299C312.693 70.368 312.463 70.667 312.463 71.035C312.463 71.104 312.463 71.196 312.486 71.265C312.578 71.679 312.877 71.932 313.291 71.932C313.383 71.932 313.452 71.932 313.544 71.909C316.902 71.173 319.455 69.701 320.766 67.056C322.192 69.494 324.584 71.012 327.689 71.886C327.781 71.909 327.873 71.909 327.942 71.909C328.333 71.909 328.655 71.679 328.793 71.242C328.816 71.127 328.839 71.035 328.839 70.943C328.839 70.552 328.609 70.276 328.195 70.184C325.619 69.632 323.342 68.344 322.008 66.32H328.264C328.655 66.32 328.862 66.021 328.862 65.584C328.862 65.147 328.655 64.825 328.264 64.825H327.505V57.534C327.505 56.361 326.884 55.855 325.619 55.855H322.928C323.457 55.234 323.963 54.475 324.4 53.785C324.584 53.486 324.653 53.21 324.653 52.957C324.653 52.313 324.124 51.83 323.342 51.83H319.294C319.363 51.692 319.432 51.554 319.501 51.416C319.547 51.324 319.57 51.232 319.57 51.14C319.57 50.887 319.386 50.657 318.972 50.542C318.834 50.519 318.719 50.496 318.604 50.496C318.259 50.496 318.029 50.634 317.891 50.91C316.787 53.233 315.407 54.843 313.636 56.108L313.613 56.131C313.636 56.039 313.636 55.947 313.636 55.855C313.636 55.395 313.406 55.096 312.992 55.096H311.658V51.232C311.658 50.772 311.359 50.542 310.83 50.542C310.301 50.542 310.002 50.772 310.002 51.232V55.096H308.001C307.587 55.096 307.357 55.395 307.357 55.878C307.357 56.338 307.587 56.66 308.001 56.66H310.002V61.904C309.174 62.203 308.369 62.456 307.679 62.64C307.403 62.732 307.219 62.962 307.219 63.307C307.219 63.422 307.242 63.537 307.265 63.652C307.403 64.066 307.656 64.273 307.955 64.273C308.047 64.273 308.116 64.25 308.208 64.227C308.737 64.066 309.358 63.859 310.002 63.606V69.448C310.002 70.023 309.841 70.161 309.335 70.161C309.036 70.161 308.599 70.092 308.3 70.023C308.254 70 308.208 70 308.162 70C307.886 70 307.633 70.161 307.541 70.621C307.518 70.713 307.518 70.805 307.518 70.874C307.518 71.265 307.725 71.541 308.07 71.61C308.461 71.702 308.967 71.771 309.542 71.771C310.945 71.771 311.658 71.265 311.658 69.747V62.962C312.302 62.709 312.923 62.433 313.475 62.157C313.774 62.019 313.935 61.812 313.935 61.513C313.935 61.375 313.912 61.26 313.866 61.099C313.728 60.777 313.521 60.616 313.245 60.616C313.153 60.616 313.061 60.639 312.969 60.685C312.555 60.869 312.118 61.076 311.658 61.26V56.66H312.992C313.107 56.66 313.222 56.637 313.314 56.591C313.291 56.66 313.268 56.729 313.268 56.798C313.268 56.959 313.314 57.097 313.406 57.235C313.59 57.465 313.797 57.603 314.05 57.603C314.211 57.603 314.395 57.534 314.556 57.419C314.648 57.35 314.74 57.281 314.809 57.212C314.602 57.902 314.579 58.799 314.579 59.903V64.825ZM316.189 64.825V57.81C316.189 57.396 316.419 57.281 316.856 57.281H318.742C318.719 59.742 318.121 61.191 316.787 62.18C316.649 62.272 316.58 62.456 316.58 62.64C316.58 62.824 316.649 63.008 316.764 63.146C316.925 63.33 317.132 63.422 317.362 63.422C317.523 63.422 317.707 63.353 317.845 63.238C319.455 61.858 320.122 60.225 320.145 57.281H321.801V60.846C321.801 61.904 322.445 62.134 324.147 62.249C324.331 62.272 324.515 62.272 324.676 62.272C324.837 62.272 325.021 62.272 325.182 62.249C325.412 62.226 325.642 62.226 325.895 62.203V64.825H321.502C321.594 64.457 321.64 64.089 321.686 63.675C321.686 63.652 321.686 63.629 321.686 63.606C321.686 63.238 321.387 63.008 320.904 62.985C320.858 62.985 320.812 62.985 320.789 62.985C320.352 62.985 320.076 63.215 320.053 63.56C320.007 64.02 319.938 64.434 319.846 64.825H316.189ZM322.238 53.302C322.514 53.302 322.652 53.348 322.652 53.486C322.652 53.532 322.629 53.624 322.56 53.716C322.238 54.268 321.663 55.119 320.996 55.855H319.202C317.914 55.855 316.925 55.832 316.189 56.016C317.04 55.211 317.799 54.291 318.443 53.302H322.238ZM325.895 60.846C325.389 60.869 324.952 60.869 324.584 60.892C324.469 60.892 324.354 60.892 324.262 60.892C323.434 60.892 323.25 60.708 323.25 60.294V57.281H325.251C325.688 57.281 325.895 57.396 325.895 57.81V60.846ZM335.854 51.6C335.831 51.6 335.808 51.6 335.808 51.6C335.21 51.6 334.842 51.968 334.819 52.566C334.658 55.947 334.543 60.202 334.543 63.767C334.543 66.688 335.026 68.183 336.084 69.218C337.211 70.299 338.821 70.805 340.983 70.805C343.352 70.805 345.514 70.023 347.216 68.367C348.596 67.033 349.562 65.17 350.275 62.847C350.321 62.709 350.344 62.571 350.344 62.456C350.344 61.996 350.045 61.628 349.631 61.513C349.516 61.467 349.378 61.444 349.263 61.444C348.872 61.444 348.55 61.697 348.389 62.226C347.837 64.135 346.986 65.745 345.951 66.803C344.594 68.206 342.8 68.781 341.029 68.781C339.442 68.781 338.292 68.528 337.533 67.815C336.797 67.102 336.521 65.906 336.521 63.744C336.521 60.064 336.705 55.993 336.82 52.612C336.82 52.589 336.82 52.566 336.82 52.543C336.82 51.968 336.498 51.623 335.854 51.6ZM365.708 63.767C365.639 63.169 365.57 62.525 365.478 61.881C365.225 59.88 365.11 58.753 365.087 57.879C367.548 57.833 370.124 57.58 371.849 57.258C372.447 57.143 372.677 56.775 372.677 56.338C372.677 56.246 372.677 56.177 372.654 56.085C372.585 55.602 372.24 55.326 371.78 55.326C371.688 55.326 371.619 55.326 371.527 55.349C369.733 55.694 367.364 55.947 364.995 56.016C364.949 54.843 364.949 53.555 364.949 52.083C364.949 51.439 364.627 51.14 364.006 51.14C363.431 51.14 363.04 51.393 363.04 52.083C363.04 54.383 363.109 56.246 363.224 57.971C363.316 59.282 363.454 60.662 363.638 62.065C363.684 62.456 363.73 62.87 363.776 63.261C362.718 63.054 361.706 62.962 360.717 62.962C357.221 62.962 355.013 64.618 355.013 67.01C355.013 69.379 357.382 70.897 360.303 70.897C363.73 70.897 365.938 69.701 365.961 67.148C365.961 66.757 365.961 66.366 365.938 65.929C367.502 66.596 369.388 67.907 370.906 69.402C371.182 69.655 371.481 69.77 371.757 69.77C372.033 69.77 372.309 69.632 372.493 69.425C372.677 69.195 372.769 68.942 372.769 68.689C372.769 68.367 372.631 68.045 372.332 67.815C370.584 66.228 368.468 64.871 366.536 64.089C366.26 63.974 365.984 63.859 365.708 63.767ZM363.983 65.193C364.029 65.699 364.052 66.182 364.052 66.642C364.052 68.39 362.465 69.08 360.234 69.08C358.187 69.08 356.922 68.16 356.922 66.987C356.922 65.63 358.256 64.733 360.625 64.733C361.775 64.733 362.902 64.894 363.983 65.193ZM381.808 53.417C384.522 54.038 388.846 54.567 391.882 54.636C391.905 54.636 391.928 54.636 391.951 54.636C392.549 54.636 392.917 54.314 392.94 53.762C392.94 53.739 392.94 53.716 392.94 53.716C392.94 53.141 392.595 52.727 391.997 52.704C388.961 52.566 385.074 52.129 382.268 51.485C382.199 51.485 382.13 51.485 382.084 51.485C381.601 51.485 381.233 51.738 381.118 52.244C381.095 52.359 381.072 52.451 381.072 52.543C381.072 52.98 381.325 53.302 381.808 53.417ZM394.734 62.111C394.734 59.213 392.595 57.143 388.202 57.143C385.557 57.143 381.946 57.787 379.347 58.592C378.91 58.707 378.634 59.075 378.634 59.535C378.634 59.65 378.657 59.765 378.68 59.88C378.841 60.34 379.186 60.57 379.577 60.57C379.692 60.57 379.807 60.547 379.922 60.524C382.521 59.719 385.833 59.006 388.248 59.006C391.514 59.006 392.733 60.317 392.733 62.203C392.733 64.204 391.698 65.952 389.467 67.217C387.88 68.114 385.396 68.804 383.326 69.08C382.797 69.172 382.498 69.54 382.498 70.023C382.498 70.092 382.498 70.184 382.521 70.253C382.636 70.759 382.958 71.081 383.487 71.081C383.556 71.081 383.625 71.081 383.694 71.058C385.902 70.782 388.478 70.023 390.272 69.034C393.262 67.378 394.734 65.032 394.734 62.111ZM409.04 64.986C409.04 65.515 409.477 65.768 409.96 65.768C410.42 65.768 410.857 65.515 410.88 64.986L411.202 53.21C411.225 52.566 410.719 52.152 409.983 52.152C409.224 52.152 408.718 52.566 408.718 53.21L409.04 64.986ZM409.96 67.171C409.063 67.171 408.373 67.792 408.373 68.758C408.373 69.724 409.063 70.345 409.96 70.345C410.811 70.345 411.547 69.724 411.547 68.758C411.547 67.792 410.811 67.171 409.96 67.171ZM84.9013 87.819C83.2913 87.819 82.3713 88.601 82.3713 90.234V94.995C82.3713 95.547 82.8083 95.915 83.4063 95.915C83.9813 95.915 84.4183 95.547 84.4183 94.995V90.671C84.4183 89.889 84.6713 89.705 85.5453 89.705H96.4473C97.3213 89.705 97.6433 89.981 97.6433 90.74C97.6433 90.763 97.6433 90.786 97.6433 90.809C97.5513 94.397 96.7003 97.226 95.0443 99.296C93.4113 101.412 90.9043 102.93 87.6613 103.758C87.1553 103.873 86.8793 104.195 86.8793 104.632C86.8793 104.747 86.9023 104.862 86.9253 104.977C87.0633 105.437 87.4083 105.713 87.9143 105.713C88.0523 105.713 88.1903 105.69 88.3283 105.667C91.6863 104.816 94.3773 103.252 96.2863 100.998C98.4253 98.468 99.6213 95.064 99.7133 90.832C99.7133 90.763 99.7133 90.694 99.7133 90.625C99.7133 88.785 98.7703 87.819 96.7003 87.819H84.9013ZM107.257 88.348C107.05 88.21 106.82 88.118 106.567 88.118C106.291 88.118 106.038 88.21 105.831 88.463C105.67 88.647 105.578 88.9 105.578 89.13C105.578 89.406 105.693 89.682 105.946 89.866C107.602 90.993 109.488 92.626 110.753 94.075C111.029 94.374 111.328 94.512 111.604 94.512C111.88 94.512 112.133 94.397 112.317 94.19C112.524 93.96 112.639 93.684 112.639 93.408C112.639 93.155 112.547 92.902 112.363 92.672C111.029 91.039 108.936 89.406 107.257 88.348ZM122.667 90.027C122.552 90.004 122.437 89.981 122.322 89.981C121.908 89.981 121.563 90.234 121.402 90.855C120.574 94.259 118.573 97.617 115.882 99.71C113.582 101.481 109.672 102.815 106.268 102.976C105.693 102.999 105.348 103.436 105.348 103.988C105.348 104.034 105.348 104.057 105.348 104.103C105.394 104.678 105.831 105.023 106.429 105.023C106.452 105.023 106.452 105.023 106.475 105.023C110.04 104.885 114.295 103.528 117.078 101.435C120.275 99.02 122.46 95.294 123.403 91.384C123.426 91.246 123.449 91.108 123.449 90.97C123.449 90.487 123.15 90.165 122.667 90.027ZM131.798 97.755C132.902 95.984 133.891 93.983 134.742 91.775C138.008 91.706 141.435 91.407 143.85 91.062C144.356 90.993 144.655 90.671 144.655 90.142C144.655 90.096 144.655 90.027 144.655 89.981C144.586 89.521 144.241 89.245 143.804 89.245C143.735 89.245 143.666 89.245 143.597 89.268C141.32 89.567 138.238 89.843 135.386 89.935C135.662 89.13 135.938 88.21 136.191 87.313C136.214 87.198 136.237 87.083 136.237 86.968C136.237 86.554 135.984 86.255 135.501 86.186C135.432 86.163 135.34 86.163 135.271 86.163C134.811 86.163 134.443 86.37 134.351 86.945C134.075 88.003 133.799 89.015 133.477 89.981C131.568 89.981 129.912 89.935 128.509 89.866C128.486 89.866 128.44 89.866 128.417 89.866C127.957 89.866 127.635 90.211 127.612 90.717C127.612 90.74 127.612 90.763 127.612 90.786C127.612 91.292 127.888 91.66 128.394 91.706C129.337 91.775 130.533 91.798 131.752 91.798C132.12 91.798 132.488 91.798 132.856 91.798C131.913 94.19 130.832 96.421 129.429 98.721C129.268 98.974 129.199 99.227 129.199 99.434C129.199 99.802 129.406 100.078 129.682 100.239C129.843 100.331 130.004 100.377 130.211 100.377C130.533 100.377 130.901 100.216 131.361 99.871C133.339 98.284 136.26 97.203 138.836 97.203C141.895 97.203 143.482 98.215 143.482 100.101C143.482 102.516 140.883 103.781 137.18 103.781C135.225 103.781 133.178 103.482 132.005 103.114C131.867 103.068 131.752 103.045 131.637 103.045C131.2 103.045 130.901 103.298 130.763 103.735C130.717 103.85 130.694 103.965 130.694 104.08C130.694 104.471 130.947 104.839 131.407 104.977C132.787 105.414 134.903 105.667 137.226 105.667C143.022 105.667 145.46 103.183 145.46 100.101C145.46 97.433 143.344 95.524 139.066 95.524C136.306 95.524 133.73 96.513 131.913 97.801L131.798 97.755ZM160.548 93.201C159.444 93.408 157.972 93.868 156.799 94.282C156.523 93.454 156.247 92.511 155.879 91.591C155.741 91.2 155.442 91.016 155.097 91.016C154.982 91.016 154.867 91.039 154.729 91.062C154.361 91.177 154.108 91.453 154.108 91.821C154.108 91.913 154.131 92.028 154.154 92.12C154.522 93.017 154.867 94.006 155.12 94.857C154.177 95.202 153.188 95.593 152.291 96.03C151.923 96.214 151.762 96.513 151.762 96.812C151.762 96.95 151.785 97.088 151.831 97.203C151.992 97.525 152.245 97.709 152.567 97.709C152.705 97.709 152.82 97.686 152.958 97.617C153.763 97.249 154.775 96.812 155.626 96.467C156.477 99.388 157.328 102.7 157.972 105.759C158.087 106.242 158.409 106.449 158.8 106.449C158.892 106.449 158.984 106.449 159.076 106.426C159.513 106.334 159.789 106.035 159.789 105.552C159.789 105.483 159.789 105.414 159.766 105.345C159.099 102.217 158.133 98.882 157.259 95.869C157.88 95.616 158.685 95.363 159.421 95.156C160.64 94.811 161.859 94.581 163.193 94.581C165.056 94.581 166.114 95.662 166.114 97.157C166.114 98.767 164.987 99.756 163.193 99.756C162.457 99.756 161.652 99.526 161.054 99.204C160.916 99.135 160.755 99.089 160.617 99.089C160.295 99.089 159.996 99.296 159.858 99.595C159.812 99.71 159.789 99.825 159.789 99.94C159.789 100.285 159.973 100.584 160.341 100.791C161.123 101.205 162.273 101.458 163.285 101.458C166.091 101.458 167.816 99.618 167.816 97.157C167.816 94.696 166.114 92.948 163.216 92.948C162.871 92.948 162.526 92.971 162.25 92.994L162.112 90.97C162.089 90.441 161.744 90.211 161.261 90.211C161.238 90.211 161.215 90.211 161.192 90.211C160.755 90.257 160.364 90.487 160.364 90.97C160.364 90.993 160.364 91.016 160.364 91.039L160.548 93.201ZM177.407 97.64C177.729 97.088 178.074 96.283 178.373 95.547C179.362 93.04 180.443 90.418 181.57 87.612C181.639 87.451 181.662 87.267 181.662 87.129C181.662 86.738 181.455 86.439 181.041 86.324C180.903 86.278 180.765 86.255 180.627 86.255C180.236 86.255 179.914 86.485 179.753 86.922C177.614 92.304 175.268 98.583 173.221 104.31C173.152 104.471 173.129 104.632 173.129 104.793C173.129 105.23 173.382 105.552 173.819 105.667C173.957 105.713 174.095 105.736 174.21 105.736C174.601 105.736 174.877 105.506 175.084 105C175.82 102.907 176.855 100.63 177.729 99.296C178.879 97.525 180.443 96.467 181.892 96.467C182.582 96.467 182.927 96.766 183.134 97.272C183.41 97.962 183.479 98.744 183.525 100.515C183.594 102.815 183.939 103.873 184.514 104.54C185.112 105.253 186.078 105.598 187.32 105.598C188.7 105.598 189.988 105.115 190.908 103.896C191.851 102.723 192.564 100.998 192.863 98.836C192.886 98.767 192.886 98.675 192.886 98.606C192.886 98.1 192.61 97.755 192.104 97.663C192.035 97.64 191.943 97.64 191.874 97.64C191.391 97.64 191.069 97.939 190.977 98.468C190.724 100.147 190.218 101.55 189.574 102.47C189.068 103.206 188.286 103.597 187.458 103.597C186.86 103.597 186.262 103.413 185.94 102.999C185.641 102.585 185.48 101.849 185.411 99.779C185.342 97.479 185.135 96.628 184.721 95.892C184.33 95.202 183.617 94.65 182.421 94.65C180.65 94.65 178.971 95.731 177.568 97.686L177.407 97.64ZM206.916 89.567C210.987 89.705 213.54 92.534 213.54 96.421C213.54 98.836 212.482 100.699 211.033 101.78C209.883 102.631 208.112 103.206 206.433 103.436C205.904 103.528 205.605 103.873 205.605 104.333C205.605 104.402 205.605 104.494 205.628 104.563C205.72 105.138 206.111 105.368 206.594 105.368C206.663 105.368 206.755 105.368 206.847 105.345C208.687 105.069 210.343 104.54 211.677 103.689C214.069 102.171 215.472 99.71 215.472 96.467C215.472 91.407 211.884 87.865 206.456 87.865C200.177 87.865 196.175 92.005 196.175 97.732C196.175 101.596 198.084 103.919 200.476 103.919C201.419 103.919 202.385 103.62 203.121 102.907C203.926 102.148 204.593 101.113 205.398 98.744C206.203 96.283 206.709 93.063 206.916 89.567ZM205.007 89.636C204.846 92.787 204.271 95.938 203.558 98.1C203.006 99.779 202.477 100.768 201.971 101.251C201.488 101.734 200.959 101.918 200.43 101.918C199.211 101.918 198.038 100.469 198.038 97.709C198.038 93.247 200.798 90.027 205.007 89.636ZM226.489 100.469C224.649 102.24 221.613 103.965 218.83 104.793C218.485 104.885 218.255 105.161 218.255 105.552C218.255 105.667 218.278 105.782 218.324 105.92C218.462 106.265 218.784 106.472 219.152 106.472C219.267 106.472 219.359 106.449 219.474 106.426C222.717 105.299 226.282 103.068 228.145 100.791C227.984 101.504 227.869 102.516 227.869 103.275V106.311C227.869 106.702 228.237 106.955 228.72 106.955C229.272 106.955 229.571 106.702 229.571 106.311V103.16C229.571 102.401 229.456 101.458 229.318 100.768C231.227 103.137 234.884 105.391 238.38 106.403C238.495 106.426 238.587 106.449 238.679 106.449C239.07 106.449 239.392 106.219 239.507 105.828C239.553 105.713 239.576 105.598 239.576 105.483C239.576 105.115 239.346 104.816 238.932 104.701C236.011 103.988 232.975 102.378 230.905 100.469H238.357C238.771 100.469 239.001 100.17 239.001 99.687C239.001 99.204 238.771 98.905 238.357 98.905H229.571V97.709C229.571 97.295 229.272 97.042 228.743 97.042C228.237 97.042 227.869 97.295 227.869 97.709V98.905H219.382C218.968 98.905 218.738 99.204 218.738 99.687C218.738 100.17 218.968 100.469 219.382 100.469H226.489ZM229.042 87.75C229.249 87.336 229.456 86.807 229.663 86.278C229.686 86.186 229.709 86.094 229.709 86.025C229.709 85.749 229.479 85.519 229.042 85.45C228.95 85.427 228.881 85.427 228.812 85.427C228.421 85.427 228.122 85.588 228.007 85.933C227.846 86.508 227.616 87.152 227.34 87.75H226.443C225.109 87.75 224.557 88.256 224.557 89.498V94.834C224.557 96.099 225.086 96.582 226.443 96.582H231.319C232.653 96.582 233.205 96.099 233.205 94.834V89.498C233.205 88.256 232.653 87.75 231.319 87.75H229.042ZM226.167 91.453V89.705C226.167 89.291 226.374 89.176 226.788 89.176H230.951C231.388 89.176 231.595 89.291 231.595 89.705V91.453H226.167ZM226.167 92.833H231.595V94.627C231.595 95.041 231.388 95.156 230.951 95.156H226.788C226.374 95.156 226.167 95.041 226.167 94.627V92.833ZM220.417 87.221C220.256 87.106 220.072 87.037 219.888 87.037C219.658 87.037 219.405 87.152 219.221 87.359C219.06 87.543 218.991 87.75 218.991 87.934C218.991 88.118 219.083 88.302 219.244 88.44C220.21 89.222 221.406 90.395 222.073 91.177C222.234 91.384 222.464 91.476 222.694 91.476C222.924 91.476 223.154 91.384 223.338 91.2C223.499 91.039 223.568 90.832 223.568 90.625C223.568 90.349 223.453 90.096 223.269 89.889C222.602 89.107 221.452 88.003 220.417 87.221ZM237.253 87.221C236.471 88.187 235.206 89.383 234.309 90.004C234.102 90.165 234.01 90.418 234.01 90.671C234.01 90.878 234.079 91.062 234.217 91.2C234.378 91.384 234.585 91.499 234.815 91.499C235.022 91.499 235.252 91.407 235.528 91.223C236.333 90.648 237.713 89.383 238.564 88.371C238.725 88.187 238.817 87.98 238.817 87.773C238.817 87.543 238.725 87.336 238.495 87.152C238.334 86.968 238.104 86.899 237.897 86.899C237.667 86.899 237.414 87.014 237.253 87.221ZM222.717 93.224C221.797 93.914 220.072 94.903 218.738 95.478C218.439 95.593 218.255 95.869 218.255 96.214C218.255 96.329 218.278 96.467 218.347 96.605C218.485 96.904 218.761 97.065 219.083 97.065C219.198 97.065 219.336 97.042 219.474 96.973C220.762 96.375 222.579 95.317 223.545 94.535C223.775 94.374 223.959 94.098 223.959 93.799C223.959 93.661 223.936 93.523 223.844 93.408C223.706 93.178 223.476 93.063 223.223 93.063C223.062 93.063 222.878 93.109 222.717 93.224ZM235.114 93.063C234.907 92.971 234.723 92.925 234.562 92.925C234.24 92.925 233.987 93.086 233.849 93.362C233.78 93.523 233.734 93.661 233.734 93.799C233.734 94.098 233.895 94.351 234.148 94.466C235.298 94.995 237.092 96.168 238.058 96.904C238.219 97.019 238.403 97.088 238.587 97.088C238.886 97.088 239.185 96.927 239.369 96.628C239.438 96.49 239.484 96.352 239.484 96.214C239.484 95.915 239.3 95.616 239.001 95.409C238.058 94.742 236.126 93.546 235.114 93.063ZM246.729 86.6C246.706 86.6 246.683 86.6 246.683 86.6C246.085 86.6 245.717 86.968 245.694 87.566C245.533 90.947 245.418 95.202 245.418 98.767C245.418 101.688 245.901 103.183 246.959 104.218C248.086 105.299 249.696 105.805 251.858 105.805C254.227 105.805 256.389 105.023 258.091 103.367C259.471 102.033 260.437 100.17 261.15 97.847C261.196 97.709 261.219 97.571 261.219 97.456C261.219 96.996 260.92 96.628 260.506 96.513C260.391 96.467 260.253 96.444 260.138 96.444C259.747 96.444 259.425 96.697 259.264 97.226C258.712 99.135 257.861 100.745 256.826 101.803C255.469 103.206 253.675 103.781 251.904 103.781C250.317 103.781 249.167 103.528 248.408 102.815C247.672 102.102 247.396 100.906 247.396 98.744C247.396 95.064 247.58 90.993 247.695 87.612C247.695 87.589 247.695 87.566 247.695 87.543C247.695 86.968 247.373 86.623 246.729 86.6ZM265.911 89.015C265.911 91.476 265.934 94.167 266.072 96.007C266.302 99.342 267.015 101.849 268.004 103.344C268.786 104.517 269.821 104.954 270.787 104.954C271.661 104.954 272.558 104.563 273.34 103.597C274.099 102.608 274.697 101.044 275.019 98.905C275.042 98.836 275.042 98.767 275.042 98.698C275.042 98.146 274.697 97.87 274.168 97.801C274.099 97.778 274.007 97.778 273.938 97.778C273.455 97.778 273.202 98.031 273.11 98.606C272.88 100.193 272.466 101.389 271.983 102.102C271.638 102.631 271.201 102.815 270.672 102.815C270.166 102.815 269.568 102.378 269.269 101.78C268.579 100.4 268.188 98.629 267.958 95.869C267.889 94.811 267.866 93.431 267.866 91.959C267.866 90.993 267.866 89.981 267.866 89.015C267.866 88.44 267.682 88.049 266.946 88.049C266.302 88.049 265.911 88.417 265.911 89.015ZM279.09 89.383C278.791 89.521 278.607 89.82 278.607 90.142C278.607 90.326 278.676 90.533 278.791 90.717C280.861 93.638 282.264 97.778 282.586 101.642C282.632 102.217 283 102.539 283.529 102.539C283.598 102.539 283.69 102.539 283.782 102.516C284.357 102.401 284.587 102.01 284.587 101.412C284.587 101.366 284.587 101.32 284.587 101.251C284.265 97.318 282.632 92.672 280.424 89.682C280.217 89.36 279.941 89.222 279.642 89.222C279.458 89.222 279.274 89.268 279.09 89.383ZM293.626 96.628C291.533 97.456 289.831 98.698 288.934 99.917C288.497 100.538 288.244 101.182 288.244 101.849C288.244 103.045 289.026 104.034 290.084 104.724C291.004 105.368 292.016 105.69 292.821 105.69C294.523 105.69 295.42 104.816 295.42 103.045V97.824C296.984 97.272 298.709 96.95 300.25 96.95C303.309 96.95 304.85 98.353 304.85 100.561C304.85 102.562 303.516 103.712 301.952 103.712C300.871 103.712 300.135 103.252 299.537 102.447C299.33 102.148 299.054 102.033 298.778 102.033C298.548 102.033 298.341 102.102 298.134 102.24C297.881 102.424 297.743 102.7 297.743 102.999C297.743 103.206 297.812 103.436 297.95 103.643C298.847 104.977 300.296 105.598 301.998 105.598C304.758 105.598 306.782 103.62 306.782 100.538C306.782 97.272 304.367 95.271 300.319 95.271C298.732 95.271 297.03 95.57 295.42 96.053V92.028C297.007 91.89 298.548 91.706 299.836 91.453C300.273 91.361 300.549 91.085 300.549 90.625C300.549 90.556 300.549 90.464 300.526 90.372C300.434 89.912 300.135 89.682 299.721 89.682C299.652 89.682 299.583 89.682 299.491 89.705C298.318 89.935 296.892 90.119 295.42 90.234V86.738C295.42 86.209 295.075 85.91 294.523 85.91C293.994 85.91 293.626 86.186 293.626 86.715V90.372C292.108 90.487 290.59 90.533 289.302 90.533C288.796 90.533 288.52 90.878 288.52 91.43C288.52 91.936 288.819 92.327 289.325 92.327C290.636 92.327 292.177 92.281 293.626 92.189V96.628ZM293.626 102.631C293.626 103.505 293.327 103.804 292.637 103.804C292.2 103.804 291.579 103.597 291.096 103.275C290.544 102.907 290.107 102.401 290.107 101.849C290.107 101.504 290.245 101.09 290.521 100.722C291.05 100.009 292.177 99.158 293.626 98.491V102.631ZM303.056 88.026C302.895 87.934 302.688 87.888 302.527 87.888C302.228 87.888 301.975 88.003 301.791 88.233C301.63 88.44 301.561 88.647 301.561 88.854C301.561 89.107 301.699 89.337 301.952 89.498C303.401 90.395 305.103 91.867 306.276 93.224C306.483 93.454 306.736 93.546 306.989 93.546C307.242 93.546 307.472 93.454 307.679 93.27C307.863 93.086 307.955 92.833 307.955 92.58C307.955 92.35 307.863 92.097 307.702 91.89C306.529 90.487 304.62 88.923 303.056 88.026ZM317.063 88.141V86.232C317.063 85.795 316.672 85.588 316.143 85.588C315.614 85.588 315.269 85.795 315.269 86.232V88.141H311.313C310.899 88.141 310.669 88.486 310.669 88.923C310.669 89.383 310.899 89.728 311.313 89.728H321.364C321.778 89.728 321.985 89.383 321.985 88.923C321.985 88.486 321.778 88.141 321.364 88.141H317.063ZM318.673 94.489C319.248 93.454 319.777 92.304 320.168 91.177C320.191 91.062 320.214 90.97 320.214 90.878C320.214 90.487 319.938 90.211 319.547 90.142C319.455 90.119 319.363 90.119 319.294 90.119C318.926 90.119 318.673 90.303 318.558 90.694C318.213 91.844 317.684 93.201 317.017 94.489H310.738C310.324 94.489 310.094 94.811 310.094 95.294C310.094 95.754 310.324 96.122 310.738 96.122H321.732C322.123 96.122 322.353 95.754 322.353 95.294C322.353 94.811 322.123 94.489 321.732 94.489H318.673ZM321.019 99.848C321.019 98.491 320.329 97.916 318.972 97.916H313.59C312.256 97.916 311.543 98.491 311.543 99.848V104.241C311.543 105.598 312.256 106.173 313.59 106.173H318.972C320.329 106.173 321.019 105.598 321.019 104.241V99.848ZM314.05 104.586C313.59 104.586 313.291 104.402 313.291 103.942V100.17C313.291 99.687 313.59 99.503 314.05 99.503H318.558C318.995 99.503 319.294 99.687 319.294 100.17V103.942C319.294 104.402 318.995 104.586 318.558 104.586H314.05ZM323.135 106.219C323.135 106.702 323.434 106.955 323.986 106.955C324.538 106.955 324.883 106.702 324.883 106.219V88.486C324.883 88.049 325.136 87.911 325.573 87.911H328.839C329.161 87.911 329.322 88.003 329.322 88.256C329.322 88.348 329.299 88.44 329.253 88.578C328.77 90.096 327.827 91.89 326.907 93.224C326.7 93.523 326.585 93.845 326.585 94.167C326.585 94.535 326.723 94.903 326.999 95.202C328.402 96.766 329.644 98.675 329.644 100.515C329.644 101.964 329.184 102.378 328.08 102.378C327.574 102.378 326.907 102.309 326.47 102.217C326.401 102.194 326.332 102.194 326.263 102.194C325.895 102.194 325.619 102.447 325.55 102.861C325.527 102.953 325.527 103.022 325.527 103.114C325.527 103.528 325.734 103.804 326.171 103.919C326.7 104.057 327.597 104.103 328.31 104.103C330.38 104.103 331.461 103.045 331.461 100.63C331.461 98.146 330.196 96.145 328.655 94.535C328.517 94.397 328.448 94.282 328.448 94.167C328.448 94.052 328.517 93.914 328.632 93.73C329.575 92.258 330.495 90.51 331.116 88.831C331.231 88.509 331.3 88.21 331.3 87.911C331.3 86.991 330.679 86.301 329.437 86.301H325.182C323.756 86.301 323.135 86.876 323.135 88.233V106.219ZM312.808 90.188C312.463 90.326 312.302 90.556 312.302 90.855C312.302 90.97 312.325 91.108 312.394 91.246C312.716 91.89 313.038 92.81 313.245 93.523C313.36 93.868 313.636 94.052 313.958 94.052C314.05 94.052 314.165 94.029 314.257 94.006C314.648 93.891 314.878 93.638 314.878 93.27C314.878 93.201 314.855 93.109 314.832 93.017C314.602 92.212 314.234 91.246 313.866 90.579C313.705 90.28 313.475 90.119 313.153 90.119C313.061 90.119 312.923 90.142 312.808 90.188ZM342.179 94.834C341.696 95.754 341.144 96.651 340.546 97.479C340.293 97.479 340.017 97.479 339.764 97.479C339.327 97.479 338.89 97.479 338.453 97.479C337.97 97.479 337.74 97.778 337.74 98.192C337.74 98.215 337.74 98.238 337.74 98.261C337.763 98.767 338.039 98.974 338.545 98.974C342.777 98.905 346.756 98.721 350.482 98.238C350.804 98.583 351.126 98.951 351.425 99.319C351.586 99.503 351.77 99.595 351.977 99.595C352.184 99.595 352.368 99.503 352.552 99.365C352.759 99.204 352.851 98.974 352.851 98.744C352.851 98.56 352.782 98.353 352.621 98.215C351.517 97.088 350.39 95.938 349.102 94.972C349.01 94.903 348.895 94.857 348.803 94.834H353.403C353.794 94.834 354.001 94.535 354.001 94.098C354.001 93.638 353.794 93.362 353.403 93.362H337.142C337.142 92.787 337.165 92.212 337.165 91.591H351.517C352.828 91.591 353.426 91.131 353.426 89.82V88.072C353.426 86.784 352.782 86.232 351.356 86.232H337.533C336.153 86.232 335.44 86.83 335.44 88.187C335.44 91.89 335.394 94.719 335.21 97.019C334.934 100.285 334.244 102.907 333.117 105.023C333.025 105.184 332.979 105.368 332.979 105.506C332.979 105.805 333.14 106.058 333.462 106.219C333.623 106.311 333.784 106.357 333.968 106.357C334.313 106.357 334.612 106.15 334.773 105.828C335.9 103.482 336.636 100.745 336.935 97.295C337.004 96.467 337.05 95.662 337.073 94.834H342.179ZM348.481 94.834C348.343 94.857 348.182 94.949 348.044 95.087C347.906 95.225 347.837 95.363 347.837 95.501C347.837 95.708 347.975 95.892 348.182 96.076C348.527 96.375 348.918 96.697 349.309 97.065C347.009 97.318 344.709 97.41 342.409 97.456C343.007 96.628 343.513 95.731 343.996 94.834H348.481ZM337.188 90.119V88.486C337.188 87.911 337.395 87.75 338.085 87.75H350.965C351.425 87.75 351.701 87.888 351.701 88.348V89.521C351.701 90.004 351.425 90.119 350.965 90.119H337.188ZM345.951 104.747V102.447H352.414C352.805 102.447 353.012 102.148 353.012 101.711C353.012 101.297 352.805 100.998 352.414 100.998H345.951V99.848C345.951 99.411 345.629 99.135 345.123 99.135C344.571 99.135 344.295 99.388 344.295 99.848V100.998H338.614C338.223 100.998 338.016 101.297 338.016 101.711C338.016 102.148 338.223 102.447 338.614 102.447H344.295V104.747H336.935C336.544 104.747 336.314 105.046 336.314 105.483C336.314 105.92 336.544 106.265 336.935 106.265H353.863C354.254 106.265 354.461 105.92 354.461 105.483C354.461 105.046 354.254 104.747 353.863 104.747H345.951ZM361.844 94.811C363.04 93.776 364.098 92.396 364.995 90.878C367.617 90.809 370.492 90.556 373.39 90.142C373.896 90.05 374.172 89.728 374.172 89.291C374.172 89.222 374.172 89.176 374.172 89.13C374.103 88.647 373.804 88.394 373.344 88.394C373.275 88.394 373.206 88.394 373.137 88.417C370.607 88.785 367.87 89.061 365.915 89.13C366.26 88.44 366.559 87.819 366.835 87.152C366.904 87.014 366.927 86.876 366.927 86.761C366.927 86.416 366.674 86.14 366.214 86.048C366.099 86.025 366.007 86.002 365.892 86.002C365.524 86.002 365.202 86.186 365.041 86.669C364.765 87.497 364.351 88.348 363.891 89.176C363.454 89.176 363.017 89.176 362.58 89.176C361.062 89.176 359.59 89.153 358.509 89.061C358.486 89.061 358.463 89.061 358.44 89.061C357.98 89.061 357.658 89.452 357.612 89.912C357.612 89.935 357.612 89.981 357.612 90.004C357.612 90.464 357.911 90.832 358.417 90.855C359.452 90.901 360.763 90.924 361.913 90.924C362.281 90.924 362.649 90.924 362.971 90.924C361.476 93.293 359.498 95.685 357.52 97.525C357.313 97.732 357.198 97.985 357.198 98.261C357.198 98.514 357.29 98.767 357.497 98.951C357.681 99.135 357.888 99.227 358.118 99.227C358.371 99.227 358.647 99.112 358.854 98.882C361.614 96.076 364.144 94.558 366.099 94.558C367.111 94.558 367.801 94.949 367.939 96.352C363.661 97.893 361.545 100.032 361.545 102.217C361.545 104.862 363.983 106.058 368.307 106.058C370.768 106.058 372.999 105.874 374.724 105.575C375.253 105.506 375.575 105.115 375.575 104.632C375.575 104.563 375.575 104.494 375.552 104.402C375.46 103.919 375.161 103.689 374.701 103.689C374.586 103.689 374.494 103.689 374.379 103.712C372.677 104.011 370.377 104.218 368.169 104.218C364.926 104.218 363.431 103.505 363.431 102.148C363.431 100.722 364.857 99.342 368.077 98.1C368.077 98.445 368.077 98.836 368.077 99.204C368.077 99.94 368.077 100.699 368.077 101.32C368.077 101.895 368.399 102.194 368.928 102.194C369.434 102.194 369.802 101.895 369.825 101.32C369.848 100.883 369.848 100.446 369.848 100.009C369.848 99.181 369.825 98.376 369.779 97.548C371.987 96.743 374.149 96.168 375.828 95.731C376.334 95.616 376.564 95.294 376.564 94.88C376.564 94.765 376.541 94.65 376.518 94.512C376.38 94.098 376.081 93.891 375.667 93.891C375.552 93.891 375.414 93.914 375.276 93.937C373.689 94.397 371.688 95.018 369.618 95.754C369.319 93.776 368.1 93.063 366.444 93.063C365.018 93.063 363.73 93.684 361.936 94.949L361.844 94.811ZM391.031 90.625V106.265C391.031 106.679 391.353 106.909 391.905 106.909C392.434 106.909 392.779 106.679 392.779 106.265V100.998H399.127C399.541 100.998 399.748 100.653 399.748 100.17C399.748 99.71 399.541 99.365 399.127 99.365H392.779V95.8H399.035C399.449 95.8 399.679 95.455 399.679 94.972C399.679 94.535 399.449 94.167 399.035 94.167H392.779V90.625H399.794C400.231 90.625 400.438 90.303 400.438 89.797C400.438 89.337 400.231 88.992 399.794 88.992H391.008C391.33 88.187 391.629 87.382 391.859 86.6C391.882 86.508 391.905 86.416 391.905 86.324C391.905 85.979 391.675 85.703 391.192 85.588C391.077 85.565 390.985 85.542 390.893 85.542C390.502 85.542 390.226 85.749 390.111 86.14C389.329 89.13 387.65 92.327 385.741 94.466C385.603 94.65 385.534 94.857 385.534 95.064C385.534 95.34 385.649 95.593 385.833 95.777C386.017 95.938 386.247 96.007 386.454 96.007C386.707 96.007 386.96 95.892 387.144 95.662C388.294 94.236 389.375 92.465 390.272 90.625H391.031ZM382.59 106.196C382.59 106.633 382.935 106.863 383.464 106.863C384.016 106.863 384.384 106.633 384.384 106.196V91.154C385.212 89.682 385.856 88.164 386.362 86.646C386.408 86.554 386.431 86.439 386.431 86.347C386.431 86.002 386.178 85.726 385.718 85.611C385.603 85.588 385.488 85.565 385.373 85.565C385.005 85.565 384.706 85.749 384.591 86.117C383.579 89.59 381.647 92.672 379.347 94.995C379.186 95.156 379.094 95.386 379.094 95.593C379.094 95.846 379.186 96.076 379.393 96.26C379.6 96.444 379.807 96.536 380.037 96.536C380.244 96.536 380.474 96.444 380.658 96.237C381.417 95.432 382.176 94.42 382.797 93.339C382.636 94.374 382.59 95.455 382.59 96.421V106.196ZM414.399 92.741C411.731 92.741 408.442 93.362 405.705 94.19C405.245 94.328 405.038 94.627 405.038 95.018C405.038 95.133 405.061 95.248 405.084 95.363C405.176 95.731 405.498 95.984 405.912 95.984C406.027 95.984 406.142 95.961 406.257 95.938C408.948 95.064 412.122 94.443 414.445 94.443C417.205 94.443 418.539 95.892 418.539 98.054C418.539 99.963 417.688 101.435 415.917 102.24C414.399 102.93 411.869 103.252 409.753 103.252C409.178 103.252 408.856 103.666 408.856 104.195C408.856 104.195 408.856 104.218 408.856 104.241C408.856 104.747 409.224 105.115 409.822 105.115C409.891 105.115 409.937 105.115 410.006 105.115C412.283 105.115 414.905 104.701 416.561 103.942C419.045 102.838 420.379 100.699 420.379 98.008C420.379 94.972 418.332 92.741 414.399 92.741ZM436.914 89.797C432.475 91.384 430.037 94.535 430.037 98.008C430.037 100.929 431.624 103.022 433.993 104.172C435.442 104.862 437.259 105.23 439.168 105.23C439.858 105.23 440.226 104.862 440.272 104.195C440.272 104.149 440.272 104.126 440.272 104.08C440.272 103.551 439.927 103.137 439.26 103.137C437.719 103.114 436.178 102.861 434.959 102.286C433.303 101.527 432.015 100.147 432.015 97.847C432.015 94.144 435.488 90.832 440.456 90.004C440.985 89.912 441.353 89.866 441.744 89.82C442.411 89.751 442.641 89.314 442.641 88.831C442.641 88.808 442.641 88.785 442.641 88.762C442.595 88.233 442.296 87.865 441.652 87.865C441.629 87.865 441.606 87.865 441.583 87.865C436.017 88.118 429.945 88.509 424.333 88.946C423.827 88.992 423.482 89.406 423.482 89.912C423.482 89.935 423.482 89.958 423.482 90.004C423.528 90.533 423.873 90.878 424.471 90.878C424.517 90.878 424.54 90.878 424.586 90.878C427.507 90.648 430.727 90.349 434.016 90.073C434.775 90.004 435.764 89.889 436.891 89.659L436.914 89.797ZM168.16 132.272C168.643 132.272 168.919 131.743 168.919 131.26C168.919 130.754 168.643 130.271 168.16 130.271H148.817C148.334 130.271 148.058 130.754 148.058 131.26C148.058 131.743 148.334 132.272 148.817 132.272H168.16ZM184.789 129.282C183.202 130.708 181.385 131.95 179.545 133.008C179.269 133.169 179.108 133.422 179.108 133.698C179.108 133.836 179.154 133.997 179.223 134.135C179.361 134.434 179.614 134.572 179.89 134.572C180.028 134.572 180.189 134.526 180.327 134.434C180.649 134.227 180.971 134.02 181.293 133.813C181.109 134.526 181.086 135.492 181.086 136.435V139.724C181.086 140.966 181.707 141.472 183.087 141.472H188.952C190.309 141.472 190.93 140.966 190.93 139.724V133.353C190.93 132.088 190.309 131.605 188.952 131.605H186.629C185.548 131.605 184.835 131.628 184.168 131.766C185.042 131.099 185.87 130.386 186.675 129.604C186.79 129.489 186.905 129.397 186.997 129.282H191.643C192.057 129.282 192.241 128.983 192.241 128.5C192.241 128.017 192.011 127.741 191.597 127.741H188.423C189.527 126.43 190.585 124.935 191.712 123.095C191.827 122.934 191.873 122.75 191.873 122.589C191.873 122.313 191.735 122.083 191.459 121.922C191.252 121.807 191.091 121.761 190.93 121.761C190.677 121.761 190.47 121.922 190.286 122.244C189.044 124.544 187.664 126.315 186.353 127.741H185.134V124.912H187.825C188.216 124.912 188.423 124.613 188.423 124.153C188.423 123.693 188.216 123.394 187.802 123.394H185.134V121.347C185.134 120.91 184.835 120.68 184.306 120.68C183.8 120.68 183.478 120.91 183.478 121.347V123.394H180.603C180.212 123.394 179.982 123.693 179.982 124.153C179.982 124.613 180.212 124.912 180.603 124.912H183.478V127.741H179.89C179.476 127.741 179.269 128.04 179.269 128.523C179.269 128.983 179.476 129.282 179.89 129.282H184.789ZM182.742 135.653V133.583C182.742 133.169 182.972 133.031 183.409 133.031H188.63C189.044 133.031 189.274 133.169 189.274 133.583V135.653H182.742ZM182.742 137.125H189.274V139.448C189.274 139.862 189.044 140 188.63 140H183.409C182.972 140 182.742 139.862 182.742 139.448V137.125ZM174.784 141.357C174.784 141.748 175.129 141.955 175.589 141.955C176.095 141.955 176.394 141.748 176.394 141.357V131.996C176.486 131.996 176.578 131.973 176.67 131.973C177.222 131.927 177.751 131.858 178.303 131.812C178.326 131.904 178.372 131.996 178.395 132.065C178.533 132.479 178.763 132.663 179.062 132.663C179.177 132.663 179.315 132.64 179.453 132.571C179.729 132.456 179.89 132.272 179.89 131.973C179.89 131.835 179.867 131.697 179.798 131.49C179.522 130.685 178.924 129.305 178.395 128.339C178.28 128.132 178.073 127.994 177.82 127.994C177.705 127.994 177.567 128.017 177.429 128.086C177.199 128.224 177.038 128.454 177.038 128.707C177.038 128.822 177.061 128.937 177.13 129.052C177.36 129.466 177.59 129.949 177.774 130.409C177.406 130.432 177.061 130.478 176.693 130.501C176.049 130.547 175.382 130.616 174.715 130.639C176.164 128.776 177.751 126.292 178.855 124.291C178.924 124.153 178.97 124.015 178.97 123.9C178.97 123.624 178.809 123.371 178.487 123.233C178.349 123.164 178.211 123.141 178.096 123.141C177.82 123.141 177.59 123.279 177.429 123.578C176.877 124.682 176.118 125.993 175.267 127.327C174.853 126.775 174.393 126.246 173.933 125.717C174.876 124.337 175.658 122.911 176.233 121.669C176.302 121.531 176.325 121.416 176.325 121.301C176.325 121.002 176.118 120.772 175.819 120.657C175.681 120.611 175.543 120.588 175.428 120.588C175.152 120.588 174.945 120.726 174.807 121.025C174.347 122.129 173.657 123.486 172.898 124.59C172.668 124.36 172.461 124.153 172.254 123.969C172.116 123.854 171.978 123.808 171.84 123.808C171.61 123.808 171.403 123.923 171.219 124.13C171.081 124.291 171.012 124.475 171.012 124.682C171.012 124.866 171.081 125.05 171.242 125.211C172.231 126.108 173.473 127.442 174.393 128.661C173.933 129.351 173.45 130.041 172.967 130.708C172.461 130.731 171.978 130.731 171.518 130.731C171.081 130.731 170.828 131.007 170.828 131.444C170.828 131.444 170.828 131.467 170.828 131.49C170.828 131.996 171.081 132.295 171.518 132.295C171.541 132.295 171.541 132.295 171.564 132.295C172.599 132.272 173.68 132.203 174.784 132.134V141.357ZM172.921 133.583C172.898 133.583 172.875 133.583 172.852 133.583C172.461 133.583 172.116 133.767 172.093 134.112C171.932 135.837 171.564 137.953 170.943 139.402C170.92 139.494 170.897 139.586 170.897 139.655C170.897 139.977 171.15 140.23 171.495 140.345C171.587 140.368 171.679 140.391 171.771 140.391C172.093 140.391 172.438 140.207 172.553 139.885C173.128 138.367 173.519 136.044 173.657 134.273C173.657 134.25 173.657 134.25 173.657 134.227C173.657 133.813 173.312 133.606 172.921 133.583ZM177.866 133.537C177.521 133.629 177.314 133.813 177.314 134.135C177.314 134.204 177.337 134.296 177.36 134.411C177.636 135.584 177.912 137.125 178.05 138.436C178.096 138.85 178.395 139.034 178.74 139.034C178.786 139.034 178.832 139.034 178.901 139.011C179.292 138.965 179.591 138.758 179.591 138.39C179.591 138.367 179.591 138.321 179.591 138.298C179.407 136.872 179.108 135.239 178.763 134.089C178.625 133.675 178.464 133.491 178.165 133.491C178.073 133.491 177.981 133.514 177.866 133.537ZM198.405 121.646C198.313 121.623 198.244 121.623 198.152 121.623C197.738 121.623 197.37 121.83 197.232 122.313C196.358 125.556 195.921 129.282 195.921 132.87C195.921 135.446 196.128 137.93 196.565 140.046C196.68 140.667 197.025 140.92 197.462 140.92C197.531 140.92 197.623 140.92 197.715 140.897C198.198 140.782 198.497 140.506 198.497 139.977C198.497 139.862 198.497 139.747 198.474 139.632C198.083 137.493 197.876 135.055 197.876 132.778C197.876 129.42 198.313 125.786 199.141 122.727C199.164 122.612 199.187 122.52 199.187 122.428C199.187 121.991 198.865 121.715 198.405 121.646ZM212.113 124.107C210.25 124.314 207.582 124.429 205.144 124.429C204.293 124.429 203.465 124.406 202.729 124.383C202.706 124.383 202.706 124.383 202.683 124.383C202.085 124.383 201.763 124.843 201.74 125.349C201.74 125.878 201.993 126.338 202.706 126.361C203.465 126.384 204.293 126.407 205.144 126.407C207.651 126.407 210.411 126.292 212.343 126.062C213.01 125.993 213.24 125.556 213.24 125.027C213.24 125.004 213.24 124.981 213.24 124.958C213.171 124.429 212.872 124.107 212.297 124.107C212.228 124.107 212.182 124.107 212.113 124.107ZM204.155 131.513C203.971 131.352 203.764 131.26 203.557 131.26C203.304 131.26 203.028 131.375 202.775 131.605C201.602 132.709 201.027 134.02 201.027 135.423C201.027 138.321 203.281 139.517 207.513 139.517C209.629 139.517 211.653 139.356 213.355 139.011C213.861 138.919 214.137 138.482 214.137 138.022C214.137 137.93 214.137 137.861 214.114 137.769C214.022 137.309 213.677 137.01 213.217 137.01C213.125 137.01 213.033 137.01 212.941 137.033C211.377 137.378 209.261 137.585 207.283 137.585C204.063 137.585 202.821 136.849 202.821 135.423C202.821 134.549 203.189 133.675 204.155 132.755C204.339 132.571 204.454 132.364 204.454 132.134C204.454 131.927 204.362 131.72 204.155 131.513ZM228.535 124.567C232.606 124.705 235.159 127.534 235.159 131.421C235.159 133.836 234.101 135.699 232.652 136.78C231.502 137.631 229.731 138.206 228.052 138.436C227.523 138.528 227.224 138.873 227.224 139.333C227.224 139.402 227.224 139.494 227.247 139.563C227.339 140.138 227.73 140.368 228.213 140.368C228.282 140.368 228.374 140.368 228.466 140.345C230.306 140.069 231.962 139.54 233.296 138.689C235.688 137.171 237.091 134.71 237.091 131.467C237.091 126.407 233.503 122.865 228.075 122.865C221.796 122.865 217.794 127.005 217.794 132.732C217.794 136.596 219.703 138.919 222.095 138.919C223.038 138.919 224.004 138.62 224.74 137.907C225.545 137.148 226.212 136.113 227.017 133.744C227.822 131.283 228.328 128.063 228.535 124.567ZM226.626 124.636C226.465 127.787 225.89 130.938 225.177 133.1C224.625 134.779 224.096 135.768 223.59 136.251C223.107 136.734 222.578 136.918 222.049 136.918C220.83 136.918 219.657 135.469 219.657 132.709C219.657 128.247 222.417 125.027 226.626 124.636ZM245.026 132.64C245.348 132.088 245.693 131.283 245.992 130.547C246.981 128.04 248.062 125.418 249.189 122.612C249.258 122.451 249.281 122.267 249.281 122.129C249.281 121.738 249.074 121.439 248.66 121.324C248.522 121.278 248.384 121.255 248.246 121.255C247.855 121.255 247.533 121.485 247.372 121.922C245.233 127.304 242.887 133.583 240.84 139.31C240.771 139.471 240.748 139.632 240.748 139.793C240.748 140.23 241.001 140.552 241.438 140.667C241.576 140.713 241.714 140.736 241.829 140.736C242.22 140.736 242.496 140.506 242.703 140C243.439 137.907 244.474 135.63 245.348 134.296C246.498 132.525 248.062 131.467 249.511 131.467C250.201 131.467 250.546 131.766 250.753 132.272C251.029 132.962 251.098 133.744 251.144 135.515C251.213 137.815 251.558 138.873 252.133 139.54C252.731 140.253 253.697 140.598 254.939 140.598C256.319 140.598 257.607 140.115 258.527 138.896C259.47 137.723 260.183 135.998 260.482 133.836C260.505 133.767 260.505 133.675 260.505 133.606C260.505 133.1 260.229 132.755 259.723 132.663C259.654 132.64 259.562 132.64 259.493 132.64C259.01 132.64 258.688 132.939 258.596 133.468C258.343 135.147 257.837 136.55 257.193 137.47C256.687 138.206 255.905 138.597 255.077 138.597C254.479 138.597 253.881 138.413 253.559 137.999C253.26 137.585 253.099 136.849 253.03 134.779C252.961 132.479 252.754 131.628 252.34 130.892C251.949 130.202 251.236 129.65 250.04 129.65C248.269 129.65 246.59 130.731 245.187 132.686L245.026 132.64ZM270.119 124.59C266.784 127.051 264.783 130.432 264.783 133.813C264.783 138.62 267.773 140.966 271.499 140.966C276.467 140.966 279.227 137.631 279.227 131.927C279.227 130.432 278.882 128.615 278.284 126.821L278.422 126.775C279.434 129.052 280.699 130.984 282.447 132.548C282.677 132.778 282.93 132.87 283.183 132.87C283.436 132.87 283.689 132.755 283.873 132.548C284.034 132.364 284.126 132.111 284.126 131.881C284.126 131.582 284.011 131.306 283.735 131.076C281.527 129.236 279.457 126.499 278.054 123.279C277.893 122.934 277.594 122.727 277.203 122.727C277.088 122.727 276.973 122.727 276.835 122.773C276.398 122.911 276.145 123.187 276.145 123.555C276.145 123.67 276.168 123.785 276.214 123.923C276.996 126.062 277.456 128.661 277.456 131.214C277.456 136.458 275.363 139.034 271.453 139.034C268.831 139.034 266.692 137.332 266.692 133.859C266.692 130.547 268.555 127.304 272.327 124.636C272.626 124.429 272.764 124.13 272.764 123.808C272.764 123.647 272.718 123.463 272.626 123.279C272.419 122.911 272.143 122.727 271.706 122.727C271.591 122.727 271.476 122.727 271.361 122.75C269.13 123.141 267.129 123.348 264.829 123.394C264.3 123.394 264.001 123.808 264.001 124.268V124.314C264.024 124.912 264.346 125.211 264.852 125.211C266.784 125.211 268.44 124.958 270.05 124.452L270.119 124.59ZM278.974 121.761C278.974 121.968 279.066 122.152 279.204 122.313C279.848 123.026 280.538 123.969 281.021 124.82C281.159 125.096 281.343 125.211 281.619 125.211C282.056 125.211 282.378 124.912 282.378 124.567C282.378 124.268 282.286 124.107 282.217 123.969C281.78 123.21 280.952 122.106 280.239 121.393C280.055 121.209 279.894 121.14 279.641 121.14C279.273 121.14 278.974 121.462 278.974 121.761ZM281.619 120.427C281.619 120.703 281.688 120.818 281.895 121.025C282.516 121.692 283.114 122.589 283.62 123.463C283.781 123.716 283.942 123.831 284.218 123.831C284.655 123.831 284.931 123.463 284.931 123.187C284.931 122.934 284.862 122.75 284.793 122.612C284.379 121.876 283.505 120.68 282.907 120.105C282.7 119.921 282.539 119.829 282.286 119.829C281.964 119.829 281.619 120.128 281.619 120.427ZM291.026 130.662C291.118 129.88 291.21 129.029 291.279 128.293C291.417 126.752 291.946 124.268 292.498 122.221C292.544 122.083 292.567 121.945 292.567 121.83C292.567 121.416 292.314 121.14 291.831 121.071C291.762 121.048 291.693 121.048 291.601 121.048C291.164 121.048 290.842 121.301 290.681 121.853C289.968 124.59 289.416 127.649 289.416 130.225C289.416 131.697 289.554 133.215 289.738 134.296C289.876 134.963 290.267 135.262 290.773 135.262C290.773 135.262 290.796 135.262 290.819 135.262C291.463 135.216 291.762 134.802 291.762 134.135C291.762 132.387 292.291 130.179 293.165 128.316C294.269 125.947 295.902 124.613 297.742 124.613C300.019 124.613 301.744 126.591 301.744 130.386C301.744 133.583 300.824 135.814 298.961 137.24C297.604 138.275 295.58 138.988 293.28 139.287C292.728 139.356 292.406 139.701 292.406 140.207C292.406 140.276 292.406 140.368 292.429 140.46C292.521 140.966 292.935 141.242 293.441 141.242C293.487 141.242 293.533 141.242 293.602 141.242C296.017 140.943 298.386 140.115 299.996 138.965C302.434 137.217 303.722 134.457 303.722 130.455C303.722 125.165 301.054 122.796 297.88 122.796C295.787 122.796 293.786 124.13 292.452 126.729C291.969 127.672 291.555 128.891 291.164 130.685L291.026 130.662ZM314.348 121.6C314.325 121.6 314.302 121.6 314.302 121.6C313.704 121.6 313.336 121.968 313.313 122.566C313.152 125.947 313.037 130.202 313.037 133.767C313.037 136.688 313.52 138.183 314.578 139.218C315.705 140.299 317.315 140.805 319.477 140.805C321.846 140.805 324.008 140.023 325.71 138.367C327.09 137.033 328.056 135.17 328.769 132.847C328.815 132.709 328.838 132.571 328.838 132.456C328.838 131.996 328.539 131.628 328.125 131.513C328.01 131.467 327.872 131.444 327.757 131.444C327.366 131.444 327.044 131.697 326.883 132.226C326.331 134.135 325.48 135.745 324.445 136.803C323.088 138.206 321.294 138.781 319.523 138.781C317.936 138.781 316.786 138.528 316.027 137.815C315.291 137.102 315.015 135.906 315.015 133.744C315.015 130.064 315.199 125.993 315.314 122.612C315.314 122.589 315.314 122.566 315.314 122.543C315.314 121.968 314.992 121.623 314.348 121.6ZM344.202 133.767C344.133 133.169 344.064 132.525 343.972 131.881C343.719 129.88 343.604 128.753 343.581 127.879C346.042 127.833 348.618 127.58 350.343 127.258C350.941 127.143 351.171 126.775 351.171 126.338C351.171 126.246 351.171 126.177 351.148 126.085C351.079 125.602 350.734 125.326 350.274 125.326C350.182 125.326 350.113 125.326 350.021 125.349C348.227 125.694 345.858 125.947 343.489 126.016C343.443 124.843 343.443 123.555 343.443 122.083C343.443 121.439 343.121 121.14 342.5 121.14C341.925 121.14 341.534 121.393 341.534 122.083C341.534 124.383 341.603 126.246 341.718 127.971C341.81 129.282 341.948 130.662 342.132 132.065C342.178 132.456 342.224 132.87 342.27 133.261C341.212 133.054 340.2 132.962 339.211 132.962C335.715 132.962 333.507 134.618 333.507 137.01C333.507 139.379 335.876 140.897 338.797 140.897C342.224 140.897 344.432 139.701 344.455 137.148C344.455 136.757 344.455 136.366 344.432 135.929C345.996 136.596 347.882 137.907 349.4 139.402C349.676 139.655 349.975 139.77 350.251 139.77C350.527 139.77 350.803 139.632 350.987 139.425C351.171 139.195 351.263 138.942 351.263 138.689C351.263 138.367 351.125 138.045 350.826 137.815C349.078 136.228 346.962 134.871 345.03 134.089C344.754 133.974 344.478 133.859 344.202 133.767ZM342.477 135.193C342.523 135.699 342.546 136.182 342.546 136.642C342.546 138.39 340.959 139.08 338.728 139.08C336.681 139.08 335.416 138.16 335.416 136.987C335.416 135.63 336.75 134.733 339.119 134.733C340.269 134.733 341.396 134.894 342.477 135.193ZM360.302 123.417C363.016 124.038 367.34 124.567 370.376 124.636C370.399 124.636 370.422 124.636 370.445 124.636C371.043 124.636 371.411 124.314 371.434 123.762C371.434 123.739 371.434 123.716 371.434 123.716C371.434 123.141 371.089 122.727 370.491 122.704C367.455 122.566 363.568 122.129 360.762 121.485C360.693 121.485 360.624 121.485 360.578 121.485C360.095 121.485 359.727 121.738 359.612 122.244C359.589 122.359 359.566 122.451 359.566 122.543C359.566 122.98 359.819 123.302 360.302 123.417ZM373.228 132.111C373.228 129.213 371.089 127.143 366.696 127.143C364.051 127.143 360.44 127.787 357.841 128.592C357.404 128.707 357.128 129.075 357.128 129.535C357.128 129.65 357.151 129.765 357.174 129.88C357.335 130.34 357.68 130.57 358.071 130.57C358.186 130.57 358.301 130.547 358.416 130.524C361.015 129.719 364.327 129.006 366.742 129.006C370.008 129.006 371.227 130.317 371.227 132.203C371.227 134.204 370.192 135.952 367.961 137.217C366.374 138.114 363.89 138.804 361.82 139.08C361.291 139.172 360.992 139.54 360.992 140.023C360.992 140.092 360.992 140.184 361.015 140.253C361.13 140.759 361.452 141.081 361.981 141.081C362.05 141.081 362.119 141.081 362.188 141.058C364.396 140.782 366.972 140.023 368.766 139.034C371.756 137.378 373.228 135.032 373.228 132.111Z" fill="white"/>
</svg>
