<svg width="563" height="118" viewBox="0 0 563 118" fill="none" xmlns="http://www.w3.org/2000/svg">
<path d="M563 59C563 26.4152 536.585 0 504 0H0V118H504C536.585 118 563 91.5848 563 59V59Z" fill="#D26060"/>
<path d="M138.18 65.82C138.26 66 138.34 66.2 138.42 66.36C138.54 66.58 138.74 66.7 138.98 66.7C139.1 66.7 139.24 66.66 139.38 66.6C139.68 66.44 139.82 66.2 139.82 65.92C139.82 65.78 139.78 65.64 139.72 65.52C139.58 65.22 139.48 64.96 139.38 64.72C140.76 63.28 142.08 60.84 142.74 58.36C145.08 58.66 146.32 60.1 146.32 62.1C146.32 64.52 144.26 66.38 140.7 66.56C140.3 66.58 140 66.84 140 67.3C140 67.3 140 67.32 140 67.34C140.02 67.76 140.32 68.1 140.8 68.1C140.82 68.1 140.82 68.1 140.84 68.1C145.14 67.94 148 65.42 148 62.18C148 59.5 146.34 57.54 143.08 57.04C143.14 56.78 143.2 56.52 143.24 56.28C143.24 56.24 143.24 56.2 143.24 56.16C143.24 55.82 143 55.58 142.6 55.54C142.54 55.52 142.48 55.52 142.44 55.52C142.08 55.52 141.84 55.7 141.78 56.02C141.74 56.26 141.68 56.56 141.6 56.9C140.14 56.9 139 57.1 138.18 57.32C138.18 57.14 138.18 56.96 138.18 56.78C138.18 56.02 138.2 55.28 138.22 54.54C140.96 54.44 143.5 54.26 145.72 53.96C146.18 53.9 146.42 53.64 146.42 53.24C146.42 53.2 146.42 53.16 146.42 53.1C146.36 52.68 146.1 52.44 145.7 52.44C145.66 52.44 145.6 52.44 145.56 52.44C143.34 52.78 140.9 52.96 138.34 53.06C138.38 52.38 138.42 51.76 138.48 51.18C138.48 51.14 138.48 51.1 138.48 51.08C138.48 50.7 138.28 50.48 137.8 50.44C137.76 50.44 137.74 50.44 137.7 50.44C137.26 50.44 136.98 50.7 136.94 51.08C136.88 51.7 136.84 52.42 136.82 53.12C135.92 53.14 135.04 53.14 134.18 53.14C133.84 53.14 133.48 53.14 133.14 53.14C132.7 53.14 132.44 53.44 132.44 53.86C132.44 54.34 132.68 54.62 133.2 54.64C134.38 54.64 135.62 54.62 136.74 54.6C136.72 55.38 136.7 56.18 136.7 56.98C136.7 57.28 136.7 57.56 136.72 57.84C133.92 59.08 131.92 61.46 131.92 64.12C131.92 66.08 133.08 67.22 134.64 67.22C135.7 67.22 136.82 66.9 138.18 65.82ZM137.66 64.34C136.58 65.3 135.58 65.66 134.84 65.66C134.02 65.66 133.44 65.12 133.44 64.02C133.44 62.36 134.6 60.48 136.8 59.3C136.9 61.14 137.2 62.94 137.66 64.34ZM138.84 63.16C138.48 61.86 138.26 60.32 138.22 58.66C138.78 58.44 139.86 58.18 141.32 58.18C140.8 60.12 139.86 61.9 138.84 63.16ZM163.74 53.32C163.62 53.28 163.5 53.26 163.38 53.26C163.08 53.26 162.82 53.4 162.64 53.68C162.56 53.82 162.52 53.98 162.52 54.14C162.52 54.4 162.64 54.64 162.9 54.74C164.4 55.34 165.9 56.12 167.08 56.94C167.24 57.04 167.4 57.1 167.58 57.1C167.84 57.1 168.1 56.96 168.26 56.72C168.34 56.58 168.38 56.42 168.38 56.26C168.38 56 168.26 55.7 167.98 55.52C166.86 54.76 165.26 53.9 163.74 53.32ZM156.88 55.52C158.08 55.42 159.26 55.32 160.3 55.16C160.78 55.08 161.02 54.78 161.02 54.4C161.02 54.36 161.02 54.32 161.02 54.28C160.94 53.86 160.7 53.62 160.3 53.62C160.24 53.62 160.18 53.62 160.12 53.64C159.28 53.76 158.34 53.84 157.36 53.92C157.58 53.06 157.78 52.2 157.96 51.38C157.98 51.28 157.98 51.2 157.98 51.12C157.98 50.72 157.72 50.5 157.28 50.42C157.2 50.4 157.14 50.4 157.08 50.4C156.68 50.4 156.38 50.62 156.34 51.06C156.14 52.08 155.9 53.08 155.62 54.06C154.76 54.1 153.86 54.12 153 54.12C152.7 54.12 152.42 54.12 152.14 54.12C151.68 54.12 151.4 54.42 151.4 54.9C151.4 55.38 151.64 55.68 152.1 55.68C152.36 55.68 152.62 55.68 152.86 55.68C153.64 55.68 154.42 55.66 155.16 55.62C154.34 58.32 153 61.18 151.62 63.52C151.5 63.72 151.44 63.94 151.44 64.12C151.44 64.38 151.56 64.62 151.82 64.78C152.02 64.9 152.2 64.96 152.38 64.96C152.66 64.96 152.92 64.78 153.12 64.44C154.62 61.82 155.92 58.66 156.88 55.52ZM164.5 62.32C164.34 60.9 164.26 59.5 164.26 57.78C164.26 57.22 163.92 56.96 163.44 56.96C163 56.96 162.66 57.2 162.66 57.78C162.66 59.08 162.76 60.66 162.88 61.78C162.06 61.56 161.24 61.44 160.4 61.44C157.92 61.44 156.22 62.82 156.22 64.74C156.22 66.62 157.88 67.94 160.38 67.94C163.1 67.94 164.5 66.92 164.6 64.74C164.6 64.56 164.6 64.3 164.56 64.06C165.4 64.54 166.38 65.36 167.16 66.14C167.34 66.3 167.56 66.4 167.76 66.4C167.96 66.4 168.16 66.3 168.34 66.12C168.48 65.96 168.56 65.76 168.56 65.56C168.56 65.34 168.46 65.1 168.26 64.9C167.26 63.9 165.84 62.96 164.5 62.32ZM163 63.38C163.04 63.78 163.04 64.06 163.04 64.38C163.04 65.8 162.12 66.44 160.42 66.44C158.78 66.44 157.8 65.82 157.8 64.72C157.8 63.62 158.82 62.86 160.44 62.86C161.3 62.86 162.2 63.02 163 63.38ZM175.58 55.56C174.64 59.22 173.28 63.02 171.82 66.04C171.74 66.22 171.7 66.4 171.7 66.54C171.7 66.86 171.86 67.12 172.14 67.26C172.3 67.34 172.44 67.38 172.6 67.38C172.9 67.38 173.18 67.2 173.36 66.84C174.9 63.58 176.26 59.4 177.26 55.44C178.88 55.32 180.46 55.14 181.74 54.92C182.08 54.86 182.32 54.56 182.32 54.2C182.32 54.14 182.32 54.06 182.3 54C182.24 53.56 181.96 53.36 181.58 53.36C181.52 53.36 181.44 53.36 181.38 53.38C180.32 53.58 179 53.74 177.66 53.86C177.86 53 178.02 52.18 178.16 51.4C178.18 51.34 178.18 51.28 178.18 51.24C178.18 50.88 177.92 50.58 177.46 50.54C177.4 50.52 177.34 50.52 177.28 50.52C176.86 50.52 176.6 50.72 176.52 51.16C176.36 52.1 176.16 53.04 175.94 53.98C174.64 54.06 173.3 54.08 172.22 54.08C171.72 54.08 171.48 54.38 171.46 54.82C171.46 54.84 171.46 54.86 171.46 54.88C171.46 55.36 171.7 55.64 172.18 55.66C172.32 55.66 172.44 55.66 172.58 55.66C173.5 55.66 174.56 55.6 175.58 55.56ZM185.12 56.22C183.48 56.22 181.5 56.42 180.02 56.7C179.6 56.78 179.38 57.1 179.38 57.46C179.38 57.52 179.38 57.56 179.4 57.62C179.44 58.06 179.76 58.32 180.18 58.32C180.24 58.32 180.3 58.32 180.36 58.3C181.72 58.04 183.6 57.88 185.02 57.88C185.58 57.88 186.28 57.88 186.8 57.9C186.82 57.9 186.86 57.9 186.88 57.9C187.34 57.9 187.64 57.58 187.64 57.12C187.64 56.66 187.36 56.3 186.86 56.28C186.24 56.24 185.64 56.22 185.12 56.22ZM180.18 62.48C180.32 62.34 180.38 62.18 180.38 62.02C180.38 61.8 180.26 61.56 180.06 61.44C179.92 61.36 179.78 61.3 179.62 61.3C179.44 61.3 179.26 61.38 179.08 61.54C178.32 62.24 177.86 63.32 177.86 64.22C177.86 65.48 178.32 66.34 179.46 66.92C180.32 67.36 181.58 67.56 183.18 67.56C184.88 67.56 186.52 67.42 187.7 67.14C188.22 67.02 188.44 66.7 188.44 66.3C188.44 66.24 188.44 66.18 188.42 66.1C188.36 65.72 188.1 65.48 187.68 65.48C187.58 65.48 187.5 65.48 187.4 65.5C186.26 65.74 184.6 65.9 183.06 65.9C181.82 65.9 180.9 65.8 180.32 65.52C179.72 65.22 179.42 64.8 179.42 64.12C179.42 63.52 179.66 63 180.18 62.48ZM191.42 54.88C191.42 55.36 191.66 55.64 192.14 55.66C192.28 55.66 192.4 55.66 192.54 55.66C193.46 55.66 194.52 55.62 195.54 55.56C194.6 59.22 193.24 63.02 191.78 66.04C191.7 66.22 191.66 66.38 191.66 66.54C191.66 66.86 191.82 67.12 192.1 67.26C192.26 67.34 192.4 67.38 192.56 67.38C192.86 67.38 193.14 67.2 193.32 66.84C194.86 63.58 196.22 59.4 197.22 55.44C198.84 55.32 200.42 55.14 201.7 54.92C202.04 54.86 202.28 54.56 202.28 54.2C202.28 54.14 202.28 54.06 202.26 54C202.2 53.58 201.92 53.36 201.54 53.36C201.48 53.36 201.4 53.36 201.34 53.38C200.28 53.58 198.96 53.74 197.62 53.86C197.82 53 197.98 52.18 198.12 51.4C198.14 51.34 198.14 51.3 198.14 51.24C198.14 50.88 197.88 50.6 197.42 50.54C197.36 50.54 197.3 50.52 197.24 50.52C196.82 50.52 196.56 50.72 196.48 51.16C196.32 52.1 196.12 53.04 195.9 53.98C194.6 54.06 193.26 54.08 192.18 54.08C191.68 54.08 191.44 54.38 191.42 54.82V54.88ZM206.84 57.9C207.3 57.9 207.6 57.58 207.6 57.12C207.6 56.66 207.32 56.3 206.82 56.28C206.2 56.24 205.6 56.22 205.08 56.22C203.44 56.22 201.46 56.42 199.98 56.7C199.56 56.76 199.34 57.1 199.34 57.46C199.34 57.5 199.36 57.56 199.36 57.62C199.42 58.04 199.74 58.32 200.16 58.32C200.2 58.32 200.26 58.3 200.32 58.3C201.68 58.04 203.56 57.88 204.98 57.88C205.54 57.88 206.24 57.88 206.76 57.9H206.84ZM200.14 62.48C200.28 62.34 200.34 62.18 200.34 62.02C200.34 61.8 200.22 61.56 200.02 61.44C199.88 61.36 199.72 61.3 199.58 61.3C199.4 61.3 199.22 61.38 199.04 61.54C198.28 62.24 197.82 63.32 197.82 64.22C197.82 65.48 198.28 66.34 199.42 66.92C200.28 67.36 201.54 67.56 203.14 67.56C204.84 67.56 206.48 67.42 207.66 67.14C208.18 67.02 208.4 66.7 208.4 66.3C208.4 66.24 208.4 66.16 208.38 66.1C208.32 65.72 208.06 65.48 207.62 65.48C207.54 65.48 207.46 65.48 207.36 65.5C206.22 65.74 204.56 65.9 203.02 65.9C201.78 65.9 200.86 65.8 200.28 65.52C199.68 65.22 199.38 64.8 199.38 64.12C199.38 63.52 199.62 63 200.14 62.48ZM204.36 51.52C204.36 51.7 204.44 51.86 204.56 52C205.12 52.62 205.72 53.44 206.14 54.18C206.26 54.42 206.42 54.52 206.66 54.52C207.04 54.52 207.32 54.26 207.32 53.96C207.32 53.7 207.24 53.56 207.18 53.44C206.8 52.78 206.08 51.82 205.46 51.2C205.3 51.04 205.16 50.98 204.94 50.98C204.62 50.98 204.36 51.26 204.36 51.52ZM206.56 50.22C206.56 50.46 206.62 50.56 206.8 50.74C207.34 51.32 207.86 52.1 208.3 52.86C208.44 53.08 208.58 53.18 208.82 53.18C209.2 53.18 209.44 52.86 209.44 52.62C209.44 52.4 209.38 52.24 209.32 52.12C208.96 51.48 208.2 50.44 207.68 49.94C207.5 49.78 207.36 49.7 207.14 49.7C206.86 49.7 206.56 49.96 206.56 50.22ZM225.48 56.8C226.46 56.7 227.3 56.56 228.08 56.42C228.46 56.36 228.7 56.06 228.7 55.68C228.7 55.62 228.7 55.56 228.68 55.5C228.64 55.12 228.38 54.86 227.98 54.86C227.92 54.86 227.86 54.86 227.78 54.88C227.1 55.02 226.26 55.16 225.44 55.24C225.4 53.84 225.32 52.5 225.24 51.5C225.2 51 224.92 50.76 224.46 50.76C224.44 50.76 224.42 50.76 224.4 50.76C223.9 50.8 223.62 51.02 223.62 51.5C223.62 51.54 223.62 51.56 223.62 51.6C223.7 52.62 223.78 54.02 223.82 55.42C222.8 55.5 221.74 55.52 220.66 55.52C219.7 55.52 218.36 55.48 217.66 55.44C217.64 55.44 217.64 55.44 217.62 55.44C217.22 55.44 216.92 55.72 216.9 56.18C216.9 56.2 216.9 56.22 216.9 56.22C216.9 56.66 217.2 56.96 217.6 57C218.34 57.06 219.66 57.08 220.76 57.08C221.82 57.08 222.84 57.04 223.86 56.96C223.88 57.5 223.88 58.02 223.88 58.54C223.88 61.26 223.44 63.04 222.78 64.1C222.08 65.24 220.72 66.06 219.44 66.5C219.08 66.62 218.9 66.86 218.9 67.2C218.9 67.32 218.92 67.44 218.98 67.6C219.1 67.96 219.36 68.12 219.7 68.12C219.82 68.12 219.94 68.1 220.08 68.06C221.74 67.54 223.28 66.4 224.14 65C224.98 63.64 225.5 61.58 225.5 58.62C225.5 58 225.5 57.42 225.48 56.8ZM214.74 50.98C214.68 50.98 214.62 50.98 214.58 50.98C214.12 50.98 213.76 51.2 213.68 51.7C213.12 54.58 212.72 57.4 212.72 59.72C212.72 62.12 213 64.64 213.52 66.7C213.66 67.16 214 67.36 214.36 67.36C214.46 67.36 214.56 67.34 214.64 67.32C215 67.22 215.22 66.98 215.22 66.6C215.22 66.48 215.2 66.36 215.16 66.24C214.68 64.22 214.42 61.86 214.42 59.7C214.42 57.5 214.8 54.7 215.38 52C215.4 51.9 215.42 51.82 215.42 51.74C215.42 51.34 215.18 51.04 214.74 50.98ZM240.9 53.58C244.44 53.7 246.66 56.16 246.66 59.54C246.66 61.64 245.74 63.26 244.48 64.2C243.48 64.94 241.94 65.44 240.48 65.64C240.02 65.72 239.76 66.02 239.76 66.42C239.76 66.48 239.76 66.56 239.78 66.62C239.86 67.12 240.2 67.32 240.62 67.32C240.68 67.32 240.76 67.32 240.84 67.3C242.44 67.06 243.88 66.6 245.04 65.86C247.12 64.54 248.34 62.4 248.34 59.58C248.34 55.18 245.22 52.1 240.5 52.1C235.04 52.1 231.56 55.7 231.56 60.68C231.56 64.04 233.22 66.06 235.3 66.06C236.12 66.06 236.96 65.8 237.6 65.18C238.3 64.52 238.88 63.62 239.58 61.56C240.28 59.42 240.72 56.62 240.9 53.58ZM239.24 53.64C239.1 56.38 238.6 59.12 237.98 61C237.5 62.46 237.04 63.32 236.6 63.74C236.18 64.16 235.72 64.32 235.26 64.32C234.2 64.32 233.18 63.06 233.18 60.66C233.18 56.78 235.58 53.98 239.24 53.64ZM256.78 55.66C257.04 55.4 257.16 55.12 257.16 54.86C257.16 54.48 256.88 54.16 256.42 54.18C256.46 53.24 256.5 52.28 256.56 51.32C256.56 51.3 256.56 51.3 256.56 51.28C256.56 50.84 256.26 50.56 255.8 50.56C255.26 50.56 255 50.78 254.98 51.26C254.92 52.3 254.88 53.28 254.86 54.28C253.96 54.34 252.92 54.44 251.9 54.54C251.5 54.58 251.24 54.86 251.24 55.32C251.24 55.34 251.24 55.36 251.24 55.38C251.26 55.78 251.52 56.08 251.9 56.08C251.94 56.08 251.96 56.08 252 56.08C252.9 56 253.88 55.86 254.82 55.8C254.8 56.78 254.76 57.94 254.76 58.86C253.42 60.26 252.14 61.82 251.22 63.1C251.08 63.3 251.02 63.5 251.02 63.7C251.02 63.96 251.12 64.18 251.3 64.34C251.48 64.48 251.66 64.54 251.84 64.54C252.08 64.54 252.3 64.42 252.46 64.18C253.02 63.36 253.66 62.5 254.02 62.06C254.26 61.76 254.58 61.28 254.82 60.86C254.74 61.58 254.74 62.2 254.74 62.56C254.72 63.14 254.72 63.92 254.72 64.78C254.72 65.64 254.72 66.58 254.74 67.52C254.74 67.96 255.08 68.28 255.52 68.28C256.04 68.28 256.34 67.98 256.34 67.52C256.32 65.58 256.28 63.72 256.28 61.84C256.28 61.08 256.28 60.3 256.3 59.5C256.9 58.92 257.48 58.38 258.08 57.92C259.62 56.72 261.2 56.02 262.9 56.02C265.16 56.02 266.74 57.64 266.74 60C266.74 62.08 266.06 63.32 264.66 64.16C263.58 64.8 261.78 65.16 260.22 65.18C259.7 65.18 259.4 65.52 259.4 66.02C259.42 66.52 259.68 66.9 260.24 66.9C262.12 66.88 264.1 66.48 265.48 65.68C267.54 64.48 268.46 62.6 268.46 60.06C268.46 56.86 266.34 54.48 263.02 54.48C261.12 54.48 259.44 55.18 257.68 56.48C257.42 56.66 257.22 56.8 256.94 57.06C256.68 57.32 256.52 57.5 256.32 57.7C256.34 57.4 256.36 57.06 256.38 56.78C256.4 56.64 256.4 56.52 256.4 56.38C256.4 56.26 256.4 56.14 256.4 56.04L256.78 55.66ZM275.24 60.6C275.52 60.12 275.82 59.42 276.08 58.78C276.94 56.6 277.88 54.32 278.86 51.88C278.92 51.74 278.94 51.58 278.94 51.46C278.94 51.12 278.76 50.86 278.4 50.76C278.28 50.72 278.16 50.7 278.04 50.7C277.7 50.7 277.42 50.9 277.28 51.28C275.42 55.96 273.38 61.42 271.6 66.4C271.54 66.54 271.52 66.68 271.52 66.82C271.52 67.2 271.74 67.48 272.12 67.58C272.24 67.62 272.36 67.64 272.46 67.64C272.8 67.64 273.04 67.44 273.22 67C273.86 65.18 274.76 63.2 275.52 62.04C276.52 60.5 277.88 59.58 279.14 59.58C279.74 59.58 280.04 59.84 280.22 60.28C280.46 60.88 280.52 61.56 280.56 63.1C280.62 65.1 280.92 66.02 281.42 66.6C281.94 67.22 282.78 67.52 283.86 67.52C285.06 67.52 286.18 67.1 286.98 66.04C287.8 65.02 288.42 63.52 288.68 61.64C288.7 61.58 288.7 61.5 288.7 61.44C288.7 61 288.46 60.7 288.02 60.62C287.96 60.6 287.88 60.6 287.82 60.6C287.4 60.6 287.12 60.86 287.04 61.32C286.82 62.78 286.38 64 285.82 64.8C285.38 65.44 284.7 65.78 283.98 65.78C283.46 65.78 282.94 65.62 282.66 65.26C282.4 64.9 282.26 64.26 282.2 62.46C282.14 60.46 281.96 59.72 281.6 59.08C281.26 58.48 280.64 58 279.6 58C278.06 58 276.6 58.94 275.38 60.64L275.24 60.6ZM295.58 60.7C296.54 59.16 297.4 57.42 298.14 55.5C300.98 55.44 303.96 55.18 306.06 54.88C306.5 54.82 306.76 54.54 306.76 54.08C306.76 54.04 306.76 53.98 306.76 53.94C306.7 53.54 306.4 53.3 306.02 53.3C305.96 53.3 305.9 53.3 305.84 53.32C303.86 53.58 301.18 53.82 298.7 53.9C298.94 53.2 299.18 52.4 299.4 51.62C299.42 51.52 299.44 51.42 299.44 51.32C299.44 50.96 299.22 50.7 298.8 50.64C298.74 50.62 298.66 50.62 298.6 50.62C298.2 50.62 297.88 50.8 297.8 51.3C297.56 52.22 297.32 53.1 297.04 53.94C295.38 53.94 293.94 53.9 292.72 53.84C292.7 53.84 292.66 53.84 292.64 53.84C292.24 53.84 291.96 54.14 291.94 54.58C291.94 54.6 291.94 54.62 291.94 54.64C291.94 55.08 292.18 55.4 292.62 55.44C293.44 55.5 294.48 55.52 295.54 55.52C295.86 55.52 296.18 55.52 296.5 55.52C295.68 57.6 294.74 59.54 293.52 61.54C293.38 61.76 293.32 61.98 293.32 62.16C293.32 62.48 293.5 62.72 293.74 62.86C293.88 62.94 294.02 62.98 294.2 62.98C294.48 62.98 294.8 62.84 295.2 62.54C296.92 61.16 299.46 60.22 301.7 60.22C304.36 60.22 305.74 61.1 305.74 62.74C305.74 64.84 303.48 65.94 300.26 65.94C298.56 65.94 296.78 65.68 295.76 65.36C295.64 65.32 295.54 65.3 295.44 65.3C295.06 65.3 294.8 65.52 294.68 65.9C294.64 66 294.62 66.1 294.62 66.2C294.62 66.54 294.84 66.86 295.24 66.98C296.44 67.36 298.28 67.58 300.3 67.58C305.34 67.58 307.46 65.42 307.46 62.74C307.46 60.42 305.62 58.76 301.9 58.76C299.5 58.76 297.26 59.62 295.68 60.74L295.58 60.7ZM320.58 56.74C319.62 56.92 318.34 57.32 317.32 57.68C317.08 56.96 316.84 56.14 316.52 55.34C316.4 55 316.14 54.84 315.84 54.84C315.74 54.84 315.64 54.86 315.52 54.88C315.2 54.98 314.98 55.22 314.98 55.54C314.98 55.62 315 55.72 315.02 55.8C315.34 56.58 315.64 57.44 315.86 58.18C315.04 58.48 314.18 58.82 313.4 59.2C313.08 59.36 312.94 59.62 312.94 59.88C312.94 60 312.96 60.12 313 60.22C313.14 60.5 313.36 60.66 313.64 60.66C313.76 60.66 313.86 60.64 313.98 60.58C314.68 60.26 315.56 59.88 316.3 59.58C317.04 62.12 317.78 65 318.34 67.66C318.44 68.08 318.72 68.26 319.06 68.26C319.14 68.26 319.22 68.26 319.3 68.24C319.68 68.16 319.92 67.9 319.92 67.48C319.92 67.42 319.92 67.36 319.9 67.3C319.32 64.58 318.48 61.68 317.72 59.06C318.26 58.84 318.96 58.62 319.6 58.44C320.66 58.14 321.72 57.94 322.88 57.94C324.5 57.94 325.42 58.88 325.42 60.18C325.42 61.58 324.44 62.44 322.88 62.44C322.24 62.44 321.54 62.24 321.02 61.96C320.9 61.9 320.76 61.86 320.64 61.86C320.36 61.86 320.1 62.04 319.98 62.3C319.94 62.4 319.92 62.5 319.92 62.6C319.92 62.9 320.08 63.16 320.4 63.34C321.08 63.7 322.08 63.92 322.96 63.92C325.4 63.92 326.9 62.32 326.9 60.18C326.9 58.04 325.42 56.52 322.9 56.52C322.6 56.52 322.3 56.54 322.06 56.56L321.94 54.8C321.92 54.34 321.62 54.14 321.2 54.14C321.18 54.14 321.16 54.14 321.14 54.14C320.76 54.18 320.42 54.38 320.42 54.8C320.42 54.82 320.42 54.84 320.42 54.86L320.58 56.74ZM335.24 60.6C335.52 60.12 335.82 59.42 336.08 58.78C336.94 56.6 337.88 54.32 338.86 51.88C338.92 51.74 338.94 51.58 338.94 51.46C338.94 51.12 338.76 50.86 338.4 50.76C338.28 50.72 338.16 50.7 338.04 50.7C337.7 50.7 337.42 50.9 337.28 51.28C335.42 55.96 333.38 61.42 331.6 66.4C331.54 66.54 331.52 66.68 331.52 66.82C331.52 67.2 331.74 67.48 332.12 67.58C332.24 67.62 332.36 67.64 332.46 67.64C332.8 67.64 333.04 67.44 333.22 67C333.86 65.18 334.76 63.2 335.52 62.04C336.52 60.5 337.88 59.58 339.14 59.58C339.74 59.58 340.04 59.84 340.22 60.28C340.46 60.88 340.52 61.56 340.56 63.1C340.62 65.1 340.92 66.02 341.42 66.6C341.94 67.22 342.78 67.52 343.86 67.52C345.06 67.52 346.18 67.1 346.98 66.04C347.8 65.02 348.42 63.52 348.68 61.64C348.7 61.58 348.7 61.5 348.7 61.44C348.7 61 348.46 60.7 348.02 60.62C347.96 60.6 347.88 60.6 347.82 60.6C347.4 60.6 347.12 60.86 347.04 61.32C346.82 62.78 346.38 64 345.82 64.8C345.38 65.44 344.7 65.78 343.98 65.78C343.46 65.78 342.94 65.62 342.66 65.26C342.4 64.9 342.26 64.26 342.2 62.46C342.14 60.46 341.96 59.72 341.6 59.08C341.26 58.48 340.64 58 339.6 58C338.06 58 336.6 58.94 335.38 60.64L335.24 60.6ZM355.62 58.14C356.66 57.24 357.58 56.04 358.36 54.72C360.64 54.66 363.14 54.44 365.66 54.08C366.1 54 366.34 53.72 366.34 53.34C366.34 53.28 366.34 53.24 366.34 53.2C366.28 52.78 366.02 52.56 365.62 52.56C365.56 52.56 365.5 52.56 365.44 52.58C363.24 52.9 360.86 53.14 359.16 53.2C359.46 52.6 359.72 52.06 359.96 51.48C360.02 51.36 360.04 51.24 360.04 51.14C360.04 50.84 359.82 50.6 359.42 50.52C359.32 50.5 359.24 50.48 359.14 50.48C358.82 50.48 358.54 50.64 358.4 51.06C358.16 51.78 357.8 52.52 357.4 53.24C357.02 53.24 356.64 53.24 356.26 53.24C354.94 53.24 353.66 53.22 352.72 53.14C352.7 53.14 352.68 53.14 352.66 53.14C352.26 53.14 351.98 53.48 351.94 53.88C351.94 53.9 351.94 53.94 351.94 53.96C351.94 54.36 352.2 54.68 352.64 54.7C353.54 54.74 354.68 54.76 355.68 54.76C356 54.76 356.32 54.76 356.6 54.76C355.3 56.82 353.58 58.9 351.86 60.5C351.68 60.68 351.58 60.9 351.58 61.14C351.58 61.36 351.66 61.58 351.84 61.74C352 61.9 352.18 61.98 352.38 61.98C352.6 61.98 352.84 61.88 353.02 61.68C355.42 59.24 357.62 57.92 359.32 57.92C360.2 57.92 360.8 58.26 360.92 59.48C357.2 60.82 355.36 62.68 355.36 64.58C355.36 66.88 357.48 67.92 361.24 67.92C363.38 67.92 365.32 67.76 366.82 67.5C367.28 67.44 367.56 67.1 367.56 66.68C367.56 66.62 367.56 66.56 367.54 66.48C367.46 66.06 367.2 65.86 366.8 65.86C366.7 65.86 366.62 65.86 366.52 65.88C365.04 66.14 363.04 66.32 361.12 66.32C358.3 66.32 357 65.7 357 64.52C357 63.28 358.24 62.08 361.04 61C361.04 61.3 361.04 61.64 361.04 61.96C361.04 62.6 361.04 63.26 361.04 63.8C361.04 64.3 361.32 64.56 361.78 64.56C362.22 64.56 362.54 64.3 362.56 63.8C362.58 63.42 362.58 63.04 362.58 62.66C362.58 61.94 362.56 61.24 362.52 60.52C364.44 59.82 366.32 59.32 367.78 58.94C368.22 58.84 368.42 58.56 368.42 58.2C368.42 58.1 368.4 58 368.38 57.88C368.26 57.52 368 57.34 367.64 57.34C367.54 57.34 367.42 57.36 367.3 57.38C365.92 57.78 364.18 58.32 362.38 58.96C362.12 57.24 361.06 56.62 359.62 56.62C358.38 56.62 357.26 57.16 355.7 58.26L355.62 58.14ZM381 54.5V68.1C381 68.46 381.28 68.66 381.76 68.66C382.22 68.66 382.52 68.46 382.52 68.1V63.52H388.04C388.4 63.52 388.58 63.22 388.58 62.8C388.58 62.4 388.4 62.1 388.04 62.1H382.52V59H387.96C388.32 59 388.52 58.7 388.52 58.28C388.52 57.9 388.32 57.58 387.96 57.58H382.52V54.5H388.62C389 54.5 389.18 54.22 389.18 53.78C389.18 53.38 389 53.08 388.62 53.08H380.98C381.26 52.38 381.52 51.68 381.72 51C381.74 50.92 381.76 50.84 381.76 50.76C381.76 50.46 381.56 50.22 381.14 50.12C381.04 50.1 380.96 50.08 380.88 50.08C380.54 50.08 380.3 50.26 380.2 50.6C379.52 53.2 378.06 55.98 376.4 57.84C376.28 58 376.22 58.18 376.22 58.36C376.22 58.6 376.32 58.82 376.48 58.98C376.64 59.12 376.84 59.18 377.02 59.18C377.24 59.18 377.46 59.08 377.62 58.88C378.62 57.64 379.56 56.1 380.34 54.5H381ZM373.66 68.04C373.66 68.42 373.96 68.62 374.42 68.62C374.9 68.62 375.22 68.42 375.22 68.04V54.96C375.94 53.68 376.5 52.36 376.94 51.04C376.98 50.96 377 50.86 377 50.78C377 50.48 376.78 50.24 376.38 50.14C376.28 50.12 376.18 50.1 376.08 50.1C375.76 50.1 375.5 50.26 375.4 50.58C374.52 53.6 372.84 56.28 370.84 58.3C370.7 58.44 370.62 58.64 370.62 58.82C370.62 59.04 370.7 59.24 370.88 59.4C371.06 59.56 371.24 59.64 371.44 59.64C371.62 59.64 371.82 59.56 371.98 59.38C372.64 58.68 373.3 57.8 373.84 56.86C373.7 57.76 373.66 58.7 373.66 59.54V68.04ZM397.6 58.94C398.34 58.52 399.04 58.06 399.68 57.58C401.28 56.4 403.06 54.98 404.56 53.5C404.84 53.24 404.98 52.92 404.98 52.6C404.98 52.44 404.94 52.26 404.86 52.12C404.64 51.8 404.34 51.62 403.78 51.62C403.74 51.62 403.68 51.62 403.62 51.62C402.36 51.72 400.86 51.78 399.36 51.82C397.9 51.86 396.38 51.86 395 51.86C394.98 51.86 394.98 51.86 394.96 51.86C394.5 51.86 394.22 52.18 394.22 52.68C394.22 53.14 394.54 53.42 395.02 53.44C395.24 53.44 395.46 53.44 395.68 53.44C398.08 53.44 400.74 53.34 402.64 53.16C399.92 55.72 395.88 58.82 392.46 61.06C392.18 61.22 392.04 61.5 392.04 61.78C392.04 61.94 392.08 62.1 392.18 62.24C392.34 62.48 392.6 62.62 392.88 62.62C393.06 62.62 393.24 62.56 393.44 62.44C394.76 61.58 396 60.88 397.22 60.38C398.86 59.7 400.42 59.38 402.02 59.38C404.56 59.38 406.08 60.48 406.08 62.4C406.08 64.48 403.88 65.96 400.02 65.96C398.66 65.96 397.1 65.74 396.1 65.42C396 65.4 395.9 65.38 395.82 65.38C395.42 65.38 395.12 65.6 395.02 66.02C395 66.1 395 66.18 395 66.26C395 66.64 395.26 66.94 395.66 67.08C396.82 67.44 398.54 67.62 400.12 67.62C404.98 67.62 407.8 65.62 407.8 62.44C407.8 59.76 405.84 57.98 402.3 57.98C400.84 57.98 399.14 58.34 397.66 59.06L397.6 58.94ZM415.48 52.58C417.84 53.12 421.6 53.58 424.24 53.64C424.26 53.64 424.28 53.64 424.3 53.64C424.82 53.64 425.14 53.36 425.16 52.88C425.16 52.86 425.16 52.84 425.16 52.84C425.16 52.34 424.86 51.98 424.34 51.96C421.7 51.84 418.32 51.46 415.88 50.9C415.82 50.9 415.76 50.9 415.72 50.9C415.3 50.9 414.98 51.12 414.88 51.56C414.86 51.66 414.84 51.74 414.84 51.82C414.84 52.2 415.06 52.48 415.48 52.58ZM426.72 60.14C426.72 57.62 424.86 55.82 421.04 55.82C418.74 55.82 415.6 56.38 413.34 57.08C412.96 57.18 412.72 57.5 412.72 57.9C412.72 58 412.74 58.1 412.76 58.2C412.9 58.6 413.2 58.8 413.54 58.8C413.64 58.8 413.74 58.78 413.84 58.76C416.1 58.06 418.98 57.44 421.08 57.44C423.92 57.44 424.98 58.58 424.98 60.22C424.98 61.96 424.08 63.48 422.14 64.58C420.76 65.36 418.6 65.96 416.8 66.2C416.34 66.28 416.08 66.6 416.08 67.02C416.08 67.08 416.08 67.16 416.1 67.22C416.2 67.66 416.48 67.94 416.94 67.94C417 67.94 417.06 67.94 417.12 67.92C419.04 67.68 421.28 67.02 422.84 66.16C425.44 64.72 426.72 62.68 426.72 60.14ZM439.16 62.64C439.16 63.1 439.54 63.32 439.96 63.32C440.36 63.32 440.74 63.1 440.76 62.64L441.04 52.4C441.06 51.84 440.62 51.48 439.98 51.48C439.32 51.48 438.88 51.84 438.88 52.4L439.16 62.64ZM439.96 64.54C439.18 64.54 438.58 65.08 438.58 65.92C438.58 66.76 439.18 67.3 439.96 67.3C440.7 67.3 441.34 66.76 441.34 65.92C441.34 65.08 440.7 64.54 439.96 64.54Z" fill="white"/>
</svg>
