<svg width="544" height="216" viewBox="0 0 544 216" fill="none" xmlns="http://www.w3.org/2000/svg">
<path d="M544 106C544 47.4578 496.542 0 438 0H0V216H438C496.542 216 544 168.542 544 110V106Z" fill="#D26060"/>
<path d="M101.407 62.643C101.499 62.85 101.591 63.08 101.683 63.264C101.821 63.517 102.051 63.655 102.327 63.655C102.465 63.655 102.626 63.609 102.787 63.54C103.132 63.356 103.293 63.08 103.293 62.758C103.293 62.597 103.247 62.436 103.178 62.298C103.017 61.953 102.902 61.654 102.787 61.378C104.374 59.722 105.892 56.916 106.651 54.064C109.342 54.409 110.768 56.065 110.768 58.365C110.768 61.148 108.399 63.287 104.305 63.494C103.845 63.517 103.5 63.816 103.5 64.345C103.5 64.345 103.5 64.368 103.5 64.391C103.523 64.874 103.868 65.265 104.42 65.265C104.443 65.265 104.443 65.265 104.466 65.265C109.411 65.081 112.7 62.183 112.7 58.457C112.7 55.375 110.791 53.121 107.042 52.546C107.111 52.247 107.18 51.948 107.226 51.672C107.226 51.626 107.226 51.58 107.226 51.534C107.226 51.143 106.95 50.867 106.49 50.821C106.421 50.798 106.352 50.798 106.306 50.798C105.892 50.798 105.616 51.005 105.547 51.373C105.501 51.649 105.432 51.994 105.34 52.385C103.661 52.385 102.35 52.615 101.407 52.868C101.407 52.661 101.407 52.454 101.407 52.247C101.407 51.373 101.43 50.522 101.453 49.671C104.604 49.556 107.525 49.349 110.078 49.004C110.607 48.935 110.883 48.636 110.883 48.176C110.883 48.13 110.883 48.084 110.883 48.015C110.814 47.532 110.515 47.256 110.055 47.256C110.009 47.256 109.94 47.256 109.894 47.256C107.341 47.647 104.535 47.854 101.591 47.969C101.637 47.187 101.683 46.474 101.752 45.807C101.752 45.761 101.752 45.715 101.752 45.692C101.752 45.255 101.522 45.002 100.97 44.956C100.924 44.956 100.901 44.956 100.855 44.956C100.349 44.956 100.027 45.255 99.981 45.692C99.912 46.405 99.866 47.233 99.843 48.038C98.808 48.061 97.796 48.061 96.807 48.061C96.416 48.061 96.002 48.061 95.611 48.061C95.105 48.061 94.806 48.406 94.806 48.889C94.806 49.441 95.082 49.763 95.68 49.786C97.037 49.786 98.463 49.763 99.751 49.74C99.728 50.637 99.705 51.557 99.705 52.477C99.705 52.822 99.705 53.144 99.728 53.466C96.508 54.892 94.208 57.629 94.208 60.688C94.208 62.942 95.542 64.253 97.336 64.253C98.555 64.253 99.843 63.885 101.407 62.643ZM100.809 60.941C99.567 62.045 98.417 62.459 97.566 62.459C96.623 62.459 95.956 61.838 95.956 60.573C95.956 58.664 97.29 56.502 99.82 55.145C99.935 57.261 100.28 59.331 100.809 60.941ZM102.166 59.584C101.752 58.089 101.499 56.318 101.453 54.409C102.097 54.156 103.339 53.857 105.018 53.857C104.42 56.088 103.339 58.135 102.166 59.584ZM130.801 48.268C130.663 48.222 130.525 48.199 130.387 48.199C130.042 48.199 129.743 48.36 129.536 48.682C129.444 48.843 129.398 49.027 129.398 49.211C129.398 49.51 129.536 49.786 129.835 49.901C131.56 50.591 133.285 51.488 134.642 52.431C134.826 52.546 135.01 52.615 135.217 52.615C135.516 52.615 135.815 52.454 135.999 52.178C136.091 52.017 136.137 51.833 136.137 51.649C136.137 51.35 135.999 51.005 135.677 50.798C134.389 49.924 132.549 48.935 130.801 48.268ZM122.912 50.798C124.292 50.683 125.649 50.568 126.845 50.384C127.397 50.292 127.673 49.947 127.673 49.51C127.673 49.464 127.673 49.418 127.673 49.372C127.581 48.889 127.305 48.613 126.845 48.613C126.776 48.613 126.707 48.613 126.638 48.636C125.672 48.774 124.591 48.866 123.464 48.958C123.717 47.969 123.947 46.98 124.154 46.037C124.177 45.922 124.177 45.83 124.177 45.738C124.177 45.278 123.878 45.025 123.372 44.933C123.28 44.91 123.211 44.91 123.142 44.91C122.682 44.91 122.337 45.163 122.291 45.669C122.061 46.842 121.785 47.992 121.463 49.119C120.474 49.165 119.439 49.188 118.45 49.188C118.105 49.188 117.783 49.188 117.461 49.188C116.932 49.188 116.61 49.533 116.61 50.085C116.61 50.637 116.886 50.982 117.415 50.982C117.714 50.982 118.013 50.982 118.289 50.982C119.186 50.982 120.083 50.959 120.934 50.913C119.991 54.018 118.45 57.307 116.863 59.998C116.725 60.228 116.656 60.481 116.656 60.688C116.656 60.987 116.794 61.263 117.093 61.447C117.323 61.585 117.53 61.654 117.737 61.654C118.059 61.654 118.358 61.447 118.588 61.056C120.313 58.043 121.808 54.409 122.912 50.798ZM131.675 58.618C131.491 56.985 131.399 55.375 131.399 53.397C131.399 52.753 131.008 52.454 130.456 52.454C129.95 52.454 129.559 52.73 129.559 53.397C129.559 54.892 129.674 56.709 129.812 57.997C128.869 57.744 127.926 57.606 126.96 57.606C124.108 57.606 122.153 59.193 122.153 61.401C122.153 63.563 124.062 65.081 126.937 65.081C130.065 65.081 131.675 63.908 131.79 61.401C131.79 61.194 131.79 60.895 131.744 60.619C132.71 61.171 133.837 62.114 134.734 63.011C134.941 63.195 135.194 63.31 135.424 63.31C135.654 63.31 135.884 63.195 136.091 62.988C136.252 62.804 136.344 62.574 136.344 62.344C136.344 62.091 136.229 61.815 135.999 61.585C134.849 60.435 133.216 59.354 131.675 58.618ZM129.95 59.837C129.996 60.297 129.996 60.619 129.996 60.987C129.996 62.62 128.938 63.356 126.983 63.356C125.097 63.356 123.97 62.643 123.97 61.378C123.97 60.113 125.143 59.239 127.006 59.239C127.995 59.239 129.03 59.423 129.95 59.837ZM144.417 50.844C143.336 55.053 141.772 59.423 140.093 62.896C140.001 63.103 139.955 63.31 139.955 63.471C139.955 63.839 140.139 64.138 140.461 64.299C140.645 64.391 140.806 64.437 140.99 64.437C141.335 64.437 141.657 64.23 141.864 63.816C143.635 60.067 145.199 55.26 146.349 50.706C148.212 50.568 150.029 50.361 151.501 50.108C151.892 50.039 152.168 49.694 152.168 49.28C152.168 49.211 152.168 49.119 152.145 49.05C152.076 48.544 151.754 48.314 151.317 48.314C151.248 48.314 151.156 48.314 151.087 48.337C149.868 48.567 148.35 48.751 146.809 48.889C147.039 47.9 147.223 46.957 147.384 46.06C147.407 45.991 147.407 45.922 147.407 45.876C147.407 45.462 147.108 45.117 146.579 45.071C146.51 45.048 146.441 45.048 146.372 45.048C145.889 45.048 145.59 45.278 145.498 45.784C145.314 46.865 145.084 47.946 144.831 49.027C143.336 49.119 141.795 49.142 140.553 49.142C139.978 49.142 139.702 49.487 139.679 49.993C139.679 50.016 139.679 50.039 139.679 50.062C139.679 50.614 139.955 50.936 140.507 50.959C140.668 50.959 140.806 50.959 140.967 50.959C142.025 50.959 143.244 50.89 144.417 50.844ZM155.388 51.603C153.502 51.603 151.225 51.833 149.523 52.155C149.04 52.247 148.787 52.615 148.787 53.029C148.787 53.098 148.787 53.144 148.81 53.213C148.856 53.719 149.224 54.018 149.707 54.018C149.776 54.018 149.845 54.018 149.914 53.995C151.478 53.696 153.64 53.512 155.273 53.512C155.917 53.512 156.722 53.512 157.32 53.535C157.343 53.535 157.389 53.535 157.412 53.535C157.941 53.535 158.286 53.167 158.286 52.638C158.286 52.109 157.964 51.695 157.389 51.672C156.676 51.626 155.986 51.603 155.388 51.603ZM149.707 58.802C149.868 58.641 149.937 58.457 149.937 58.273C149.937 58.02 149.799 57.744 149.569 57.606C149.408 57.514 149.247 57.445 149.063 57.445C148.856 57.445 148.649 57.537 148.442 57.721C147.568 58.526 147.039 59.768 147.039 60.803C147.039 62.252 147.568 63.241 148.879 63.908C149.868 64.414 151.317 64.644 153.157 64.644C155.112 64.644 156.998 64.483 158.355 64.161C158.953 64.023 159.206 63.655 159.206 63.195C159.206 63.126 159.206 63.057 159.183 62.965C159.114 62.528 158.815 62.252 158.332 62.252C158.217 62.252 158.125 62.252 158.01 62.275C156.699 62.551 154.79 62.735 153.019 62.735C151.593 62.735 150.535 62.62 149.868 62.298C149.178 61.953 148.833 61.47 148.833 60.688C148.833 59.998 149.109 59.4 149.707 58.802ZM173.535 48.567C177.606 48.705 180.159 51.534 180.159 55.421C180.159 57.836 179.101 59.699 177.652 60.78C176.502 61.631 174.731 62.206 173.052 62.436C172.523 62.528 172.224 62.873 172.224 63.333C172.224 63.402 172.224 63.494 172.247 63.563C172.339 64.138 172.73 64.368 173.213 64.368C173.282 64.368 173.374 64.368 173.466 64.345C175.306 64.069 176.962 63.54 178.296 62.689C180.688 61.171 182.091 58.71 182.091 55.467C182.091 50.407 178.503 46.865 173.075 46.865C166.796 46.865 162.794 51.005 162.794 56.732C162.794 60.596 164.703 62.919 167.095 62.919C168.038 62.919 169.004 62.62 169.74 61.907C170.545 61.148 171.212 60.113 172.017 57.744C172.822 55.283 173.328 52.063 173.535 48.567ZM171.626 48.636C171.465 51.787 170.89 54.938 170.177 57.1C169.625 58.779 169.096 59.768 168.59 60.251C168.107 60.734 167.578 60.918 167.049 60.918C165.83 60.918 164.657 59.469 164.657 56.709C164.657 52.247 167.417 49.027 171.626 48.636ZM190.854 50.315C189.566 50.315 189.06 50.844 188.899 52.178C188.761 53.259 188.577 54.501 188.324 55.743H185.38C184.966 55.743 184.713 56.065 184.713 56.548C184.713 57.031 184.966 57.353 185.38 57.353H187.979C187.703 58.549 187.381 59.722 187.059 60.757C186.967 61.079 186.921 61.355 186.921 61.608C186.921 62.574 187.565 63.103 188.784 63.103H200.031C199.801 63.954 199.456 64.23 198.812 64.23C198.214 64.23 197.57 64.138 197.156 64.023C197.11 64 197.041 64 196.995 64C196.65 64 196.397 64.253 196.282 64.713C196.259 64.805 196.259 64.874 196.259 64.966C196.259 65.334 196.466 65.61 196.857 65.679C197.386 65.817 198.191 65.886 198.973 65.886C200.399 65.886 201.25 65.288 201.687 63.494C201.71 63.356 201.756 63.241 201.779 63.103H204.24C204.654 63.103 204.884 62.781 204.884 62.298C204.884 61.815 204.654 61.493 204.24 61.493H202.124C202.377 60.113 202.561 58.733 202.722 57.353H205.482C205.896 57.353 206.126 57.031 206.126 56.548C206.126 56.065 205.896 55.743 205.482 55.743H202.883C202.975 54.616 203.044 53.443 203.113 52.27C203.113 52.201 203.113 52.155 203.113 52.086C203.113 50.867 202.446 50.315 201.227 50.315H190.854ZM195.017 51.879C194.925 53.167 194.764 54.455 194.58 55.743H189.98C190.21 54.57 190.394 53.443 190.532 52.454C190.601 51.994 190.762 51.879 191.199 51.879H195.017ZM195.224 61.493C195.546 60.113 195.822 58.733 196.029 57.353H200.997C200.813 58.733 200.629 60.113 200.376 61.493H195.224ZM189.405 61.493C188.968 61.493 188.761 61.355 188.761 61.056C188.761 60.941 188.784 60.803 188.83 60.665C189.106 59.722 189.405 58.572 189.658 57.353H194.35C194.12 58.756 193.821 60.113 193.476 61.493H189.405ZM200.721 51.879C201.135 51.879 201.388 51.971 201.388 52.385C201.388 52.408 201.388 52.431 201.388 52.454C201.342 53.535 201.25 54.639 201.158 55.743H196.282C196.466 54.455 196.581 53.167 196.696 51.879H200.721ZM204.677 48.406C205.091 48.406 205.344 48.061 205.344 47.578C205.344 47.072 205.091 46.75 204.677 46.75H190.9C191.13 46.359 191.337 45.968 191.521 45.577C191.59 45.462 191.613 45.347 191.613 45.255C191.613 44.933 191.36 44.657 190.923 44.565C190.808 44.542 190.693 44.519 190.578 44.519C190.21 44.519 189.957 44.68 189.796 45.002C188.784 47.371 187.289 49.372 185.357 51.074C185.15 51.235 185.058 51.465 185.058 51.718C185.058 51.948 185.15 52.178 185.334 52.362C185.541 52.523 185.771 52.615 186.024 52.615C186.254 52.615 186.507 52.523 186.691 52.339C187.933 51.143 189.014 49.809 189.911 48.406H204.677ZM226.688 47.854C226.688 46.359 225.975 45.738 224.549 45.738H212.451C211.025 45.738 210.312 46.359 210.312 47.854V62.666C210.312 64.138 211.025 64.759 212.451 64.759H224.549C225.975 64.759 226.688 64.138 226.688 62.666V47.854ZM212.152 54.064V48.176C212.152 47.647 212.428 47.486 212.934 47.486H224.066C224.572 47.486 224.848 47.647 224.848 48.176V54.064H212.152ZM212.152 55.789H224.848V62.321C224.848 62.85 224.572 63.011 224.066 63.011H212.934C212.428 63.011 212.152 62.85 212.152 62.321V55.789ZM242.535 48.567C246.606 48.705 249.159 51.534 249.159 55.421C249.159 57.836 248.101 59.699 246.652 60.78C245.502 61.631 243.731 62.206 242.052 62.436C241.523 62.528 241.224 62.873 241.224 63.333C241.224 63.402 241.224 63.494 241.247 63.563C241.339 64.138 241.73 64.368 242.213 64.368C242.282 64.368 242.374 64.368 242.466 64.345C244.306 64.069 245.962 63.54 247.296 62.689C249.688 61.171 251.091 58.71 251.091 55.467C251.091 50.407 247.503 46.865 242.075 46.865C235.796 46.865 231.794 51.005 231.794 56.732C231.794 60.596 233.703 62.919 236.095 62.919C237.038 62.919 238.004 62.62 238.74 61.907C239.545 61.148 240.212 60.113 241.017 57.744C241.822 55.283 242.328 52.063 242.535 48.567ZM240.626 48.636C240.465 51.787 239.89 54.938 239.177 57.1C238.625 58.779 238.096 59.768 237.59 60.251C237.107 60.734 236.578 60.918 236.049 60.918C234.83 60.918 233.657 59.469 233.657 56.709C233.657 52.247 236.417 49.027 240.626 48.636ZM265.535 51.695V48.797H272.435C272.849 48.797 273.079 48.429 273.079 47.946C273.079 47.509 272.849 47.141 272.435 47.141H265.535V45.186C265.535 44.749 265.19 44.496 264.661 44.496C264.132 44.496 263.787 44.749 263.787 45.186V51.695H259.762V46.98C259.762 46.589 259.417 46.359 258.888 46.359C258.359 46.359 257.991 46.589 257.991 46.98V51.695H254.679C254.242 51.695 254.012 52.063 254.012 52.5C254.012 52.983 254.242 53.305 254.679 53.305H263.741V58.089C263.741 58.687 263.534 58.871 262.844 58.871C262.315 58.871 261.694 58.802 261.257 58.71C261.165 58.687 261.096 58.687 261.027 58.687C260.682 58.687 260.452 58.917 260.36 59.285C260.337 59.354 260.337 59.423 260.337 59.492C260.337 59.929 260.59 60.228 260.935 60.297C261.556 60.412 262.2 60.481 263.028 60.481C264.707 60.481 265.535 59.929 265.535 58.411V53.305H274.344C274.758 53.305 274.988 52.983 274.988 52.5C274.988 52.04 274.758 51.695 274.344 51.695H265.535ZM269.928 54.409C269.79 54.248 269.606 54.179 269.399 54.179C269.169 54.179 268.939 54.271 268.778 54.409C268.548 54.593 268.41 54.846 268.41 55.099C268.41 55.237 268.456 55.375 268.571 55.513C270.066 57.238 271.883 58.687 273.585 59.63C273.746 59.699 273.884 59.745 274.045 59.745C274.367 59.745 274.666 59.584 274.827 59.285C274.942 59.101 274.988 58.917 274.988 58.71C274.988 58.434 274.873 58.158 274.597 58.02C272.941 57.169 271.216 55.835 269.928 54.409ZM260.199 54.478C260.015 54.363 259.808 54.317 259.647 54.317C259.371 54.317 259.141 54.432 259.003 54.639C257.853 56.387 256.128 57.882 254.449 58.94C254.242 59.078 254.127 59.308 254.127 59.584C254.127 59.768 254.196 59.998 254.334 60.182C254.541 60.458 254.817 60.573 255.093 60.573C255.3 60.573 255.507 60.504 255.668 60.389C257.393 59.285 259.187 57.675 260.567 55.628C260.636 55.513 260.682 55.375 260.682 55.237C260.682 54.961 260.498 54.662 260.199 54.478ZM270.365 58.319C270.181 58.158 269.951 58.066 269.744 58.066C269.514 58.066 269.307 58.158 269.123 58.342C266.34 61.677 261.533 63.839 256.128 64.069C255.622 64.115 255.3 64.46 255.3 64.966C255.3 65.012 255.3 65.081 255.323 65.15C255.415 65.679 255.829 65.886 256.289 65.886C256.335 65.886 256.358 65.886 256.381 65.886C261.924 65.518 267.375 63.195 270.411 59.607C270.572 59.423 270.664 59.193 270.664 58.963C270.664 58.733 270.572 58.503 270.365 58.319ZM297.459 50.361C297.873 50.361 298.103 50.039 298.103 49.579C298.103 49.096 297.85 48.774 297.436 48.774H291.203C291.594 47.647 291.893 46.52 292.1 45.508C292.123 45.416 292.123 45.347 292.123 45.278C292.123 44.887 291.87 44.634 291.41 44.565C291.318 44.542 291.249 44.542 291.157 44.542C290.72 44.542 290.444 44.772 290.398 45.186C289.869 48.383 288.558 51.787 286.695 54.225C286.557 54.409 286.488 54.593 286.488 54.777C286.488 54.984 286.603 55.214 286.81 55.352C286.971 55.49 287.178 55.559 287.362 55.559C287.592 55.559 287.822 55.444 288.006 55.191C288.397 54.639 288.834 53.926 289.202 53.213C289.616 55.628 290.352 57.997 291.617 60.09C290.421 61.677 288.834 62.988 286.856 64.069C286.58 64.207 286.442 64.483 286.442 64.782C286.442 64.966 286.488 65.173 286.603 65.334C286.764 65.587 287.063 65.725 287.339 65.725C287.523 65.725 287.73 65.679 287.891 65.564C289.777 64.391 291.341 63.103 292.583 61.539C293.733 63.034 295.136 64.345 296.838 65.564C296.999 65.656 297.183 65.725 297.367 65.725C297.643 65.725 297.919 65.587 298.103 65.334C298.264 65.127 298.333 64.897 298.333 64.667C298.333 64.414 298.218 64.161 297.988 64C296.217 62.804 294.768 61.585 293.618 60.09C295.435 57.146 296.033 53.742 296.24 50.361H297.459ZM294.538 50.361C294.423 53.167 293.963 56.042 292.606 58.526C291.341 56.226 290.697 53.673 290.283 51.097C290.398 50.867 290.513 50.614 290.605 50.361H294.538ZM287.523 58.112C287.937 58.112 288.167 57.813 288.167 57.353C288.167 56.916 287.937 56.617 287.523 56.617H282.141C282.279 56.341 282.417 56.042 282.509 55.789C282.555 55.697 282.578 55.628 282.578 55.536C282.578 55.26 282.325 55.053 281.934 54.961C281.819 54.938 281.704 54.915 281.589 54.915C281.29 54.915 281.083 55.053 280.945 55.398C280.784 55.812 280.6 56.226 280.416 56.617H277.265C276.851 56.617 276.644 56.916 276.644 57.353C276.644 57.813 276.851 58.112 277.265 58.112H279.657C279.335 58.618 278.99 59.101 278.645 59.515C278.392 59.814 278.277 60.113 278.277 60.412C278.277 60.826 278.53 61.171 279.059 61.332C279.864 61.562 280.738 61.884 281.589 62.252C280.416 63.126 278.99 63.77 277.426 64.184C277.058 64.276 276.828 64.529 276.828 64.897C276.828 64.989 276.851 65.104 276.874 65.219C277.012 65.633 277.311 65.817 277.656 65.817C277.748 65.817 277.863 65.794 277.955 65.771C279.887 65.173 281.681 64.253 283.107 62.942C283.889 63.333 284.602 63.747 285.246 64.161C285.384 64.23 285.522 64.276 285.66 64.276C285.959 64.276 286.212 64.115 286.396 63.793C286.488 63.632 286.534 63.471 286.534 63.31C286.534 63.034 286.396 62.781 286.12 62.643C285.591 62.321 284.947 61.999 284.303 61.7C285.108 60.642 285.729 59.423 286.028 58.112H287.523ZM284.418 58.112C284.142 59.193 283.567 60.205 282.854 61.056C282.026 60.734 281.221 60.435 280.508 60.228C280.255 60.159 280.14 60.09 280.14 59.975C280.14 59.906 280.209 59.791 280.347 59.63C280.692 59.216 281.06 58.664 281.382 58.112H284.418ZM283.314 49.188V45.094C283.314 44.703 283.015 44.496 282.532 44.496C282.026 44.496 281.727 44.703 281.727 45.094V49.188H277.311C276.943 49.188 276.736 49.51 276.736 49.924C276.736 50.315 276.943 50.614 277.311 50.614H280.738C279.772 52.109 278.369 53.213 277.127 53.972C276.851 54.133 276.736 54.34 276.736 54.57C276.736 54.708 276.782 54.823 276.851 54.984C276.989 55.26 277.242 55.398 277.518 55.398C277.679 55.398 277.84 55.352 278.001 55.26C279.335 54.363 280.876 52.96 281.865 51.143C281.796 51.534 281.727 52.017 281.727 52.523V54.179C281.727 54.57 282.026 54.777 282.532 54.777C283.015 54.777 283.314 54.57 283.314 54.179V52.592C283.314 52.04 283.245 51.488 283.199 51.143C283.751 52.109 284.671 53.19 285.499 53.765C285.66 53.857 285.821 53.926 285.982 53.926C286.189 53.926 286.396 53.811 286.58 53.558C286.649 53.42 286.695 53.282 286.695 53.144C286.695 52.891 286.557 52.661 286.35 52.546C285.66 52.132 284.855 51.465 284.165 50.614H287.408C287.776 50.614 288.006 50.315 288.006 49.924C288.006 49.51 287.776 49.188 287.408 49.188H283.314ZM287.017 45.209C286.856 45.14 286.718 45.117 286.58 45.117C286.327 45.117 286.12 45.232 286.005 45.485C285.729 46.129 285.223 47.003 284.671 47.693C284.579 47.808 284.533 47.946 284.533 48.061C284.533 48.268 284.648 48.475 284.878 48.613C285.062 48.728 285.223 48.774 285.384 48.774C285.591 48.774 285.775 48.682 285.913 48.498C286.511 47.785 287.086 46.842 287.408 46.152C287.454 46.037 287.477 45.922 287.477 45.83C287.477 45.531 287.293 45.301 287.017 45.209ZM278.07 45.278C277.84 45.416 277.725 45.646 277.725 45.853C277.725 45.968 277.771 46.106 277.84 46.198C278.254 46.727 278.76 47.647 279.059 48.36C279.151 48.544 279.358 48.636 279.588 48.636C279.726 48.636 279.887 48.59 280.048 48.521C280.301 48.36 280.462 48.13 280.462 47.877C280.462 47.808 280.462 47.739 280.439 47.67C280.14 46.911 279.611 45.991 279.151 45.37C279.013 45.209 278.829 45.117 278.599 45.117C278.438 45.117 278.254 45.163 278.07 45.278ZM304.405 45.646C304.313 45.623 304.244 45.623 304.152 45.623C303.738 45.623 303.37 45.83 303.232 46.313C302.358 49.556 301.921 53.282 301.921 56.87C301.921 59.446 302.128 61.93 302.565 64.046C302.68 64.667 303.025 64.92 303.462 64.92C303.531 64.92 303.623 64.92 303.715 64.897C304.198 64.782 304.497 64.506 304.497 63.977C304.497 63.862 304.497 63.747 304.474 63.632C304.083 61.493 303.876 59.055 303.876 56.778C303.876 53.42 304.313 49.786 305.141 46.727C305.164 46.612 305.187 46.52 305.187 46.428C305.187 45.991 304.865 45.715 304.405 45.646ZM318.113 48.107C316.25 48.314 313.582 48.429 311.144 48.429C310.293 48.429 309.465 48.406 308.729 48.383C308.706 48.383 308.706 48.383 308.683 48.383C308.085 48.383 307.763 48.843 307.74 49.349C307.74 49.878 307.993 50.338 308.706 50.361C309.465 50.384 310.293 50.407 311.144 50.407C313.651 50.407 316.411 50.292 318.343 50.062C319.01 49.993 319.24 49.556 319.24 49.027C319.24 49.004 319.24 48.981 319.24 48.958C319.171 48.429 318.872 48.107 318.297 48.107C318.228 48.107 318.182 48.107 318.113 48.107ZM310.155 55.513C309.971 55.352 309.764 55.26 309.557 55.26C309.304 55.26 309.028 55.375 308.775 55.605C307.602 56.709 307.027 58.02 307.027 59.423C307.027 62.321 309.281 63.517 313.513 63.517C315.629 63.517 317.653 63.356 319.355 63.011C319.861 62.919 320.137 62.482 320.137 62.022C320.137 61.93 320.137 61.861 320.114 61.769C320.022 61.309 319.677 61.01 319.217 61.01C319.125 61.01 319.033 61.01 318.941 61.033C317.377 61.378 315.261 61.585 313.283 61.585C310.063 61.585 308.821 60.849 308.821 59.423C308.821 58.549 309.189 57.675 310.155 56.755C310.339 56.571 310.454 56.364 310.454 56.134C310.454 55.927 310.362 55.72 310.155 55.513ZM332.12 45.278C329.866 48.268 326.83 50.683 323.242 52.385C322.874 52.546 322.667 52.891 322.667 53.236C322.667 53.374 322.69 53.512 322.759 53.65C322.943 54.018 323.242 54.202 323.587 54.202C323.725 54.202 323.886 54.156 324.024 54.087C327.566 52.431 331.108 49.533 333.178 46.704C333.27 46.589 333.362 46.52 333.454 46.52C333.546 46.52 333.638 46.589 333.753 46.727C335.869 49.51 339.273 52.201 342.999 54.087C343.137 54.156 343.298 54.179 343.436 54.179C343.804 54.179 344.149 53.949 344.31 53.604C344.379 53.443 344.402 53.282 344.402 53.144C344.402 52.799 344.218 52.477 343.85 52.316C340.308 50.637 337.226 48.475 334.765 45.278C334.466 44.91 333.96 44.726 333.454 44.726C332.948 44.726 332.419 44.91 332.12 45.278ZM328.854 51.879C328.417 51.879 328.187 52.27 328.187 52.73C328.187 53.213 328.417 53.581 328.854 53.581H338.169C338.583 53.581 338.836 53.213 338.836 52.73C338.836 52.27 338.583 51.879 338.169 51.879H328.854ZM328.026 56.157C326.623 56.157 325.979 56.755 325.979 58.135V63.195C325.979 64.598 326.623 65.173 328.026 65.173H339.02C340.423 65.173 341.067 64.598 341.067 63.195V58.135C341.067 56.755 340.423 56.157 339.02 56.157H328.026ZM328.532 63.517C328.049 63.517 327.819 63.379 327.819 62.873V58.457C327.819 57.951 328.049 57.813 328.532 57.813H338.491C338.974 57.813 339.227 57.951 339.227 58.457V62.873C339.227 63.379 338.974 63.517 338.491 63.517H328.532ZM352.797 50.959C353.096 50.66 353.234 50.338 353.234 50.039C353.234 49.602 352.912 49.234 352.383 49.257C352.429 48.176 352.475 47.072 352.544 45.968C352.544 45.945 352.544 45.945 352.544 45.922C352.544 45.416 352.199 45.094 351.67 45.094C351.049 45.094 350.75 45.347 350.727 45.899C350.658 47.095 350.612 48.222 350.589 49.372C349.554 49.441 348.358 49.556 347.185 49.671C346.725 49.717 346.426 50.039 346.426 50.568C346.426 50.591 346.426 50.614 346.426 50.637C346.449 51.097 346.748 51.442 347.185 51.442C347.231 51.442 347.254 51.442 347.3 51.442C348.335 51.35 349.462 51.189 350.543 51.12C350.52 52.247 350.474 53.581 350.474 54.639C348.933 56.249 347.461 58.043 346.403 59.515C346.242 59.745 346.173 59.975 346.173 60.205C346.173 60.504 346.288 60.757 346.495 60.941C346.702 61.102 346.909 61.171 347.116 61.171C347.392 61.171 347.645 61.033 347.829 60.757C348.473 59.814 349.209 58.825 349.623 58.319C349.899 57.974 350.267 57.422 350.543 56.939C350.451 57.767 350.451 58.48 350.451 58.894C350.428 59.561 350.428 60.458 350.428 61.447C350.428 62.436 350.428 63.517 350.451 64.598C350.451 65.104 350.842 65.472 351.348 65.472C351.946 65.472 352.291 65.127 352.291 64.598C352.268 62.367 352.222 60.228 352.222 58.066C352.222 57.192 352.222 56.295 352.245 55.375C352.935 54.708 353.602 54.087 354.292 53.558C356.063 52.178 357.88 51.373 359.835 51.373C362.434 51.373 364.251 53.236 364.251 55.95C364.251 58.342 363.469 59.768 361.859 60.734C360.617 61.47 358.547 61.884 356.753 61.907C356.155 61.907 355.81 62.298 355.81 62.873C355.833 63.448 356.132 63.885 356.776 63.885C358.938 63.862 361.215 63.402 362.802 62.482C365.171 61.102 366.229 58.94 366.229 56.019C366.229 52.339 363.791 49.602 359.973 49.602C357.788 49.602 355.856 50.407 353.832 51.902C353.533 52.109 353.303 52.27 352.981 52.569C352.682 52.868 352.498 53.075 352.268 53.305C352.291 52.96 352.314 52.569 352.337 52.247C352.36 52.086 352.36 51.948 352.36 51.787C352.36 51.649 352.36 51.511 352.36 51.396L352.797 50.959ZM385.227 52.293C386.561 52.27 387.895 52.224 389.183 52.224C389.804 52.224 390.057 51.879 390.057 51.304C390.057 50.775 389.804 50.453 389.16 50.453C387.872 50.476 386.492 50.499 385.25 50.545C385.273 49.786 385.273 49.096 385.273 48.406C385.273 47.716 385.273 47.049 385.273 46.382C385.273 45.876 384.836 45.577 384.307 45.577C383.778 45.577 383.387 45.876 383.387 46.405C383.387 47.279 383.41 48.199 383.41 49.142C383.41 49.625 383.41 50.108 383.387 50.591C382.076 50.637 380.857 50.706 379.868 50.752C378.373 50.821 376.924 50.913 375.521 51.005C375.544 49.602 375.544 48.199 375.544 46.842C375.544 46.313 375.176 46.014 374.578 45.991C374.049 45.991 373.635 46.29 373.635 46.842C373.635 48.107 373.635 49.694 373.612 51.12C372.324 51.235 371.059 51.327 369.817 51.419C369.334 51.442 369.035 51.787 369.035 52.27C369.035 52.293 369.035 52.316 369.035 52.339C369.058 52.799 369.357 53.167 369.84 53.167C369.886 53.167 369.932 53.167 369.978 53.167C371.197 53.075 372.439 52.96 373.612 52.891C373.612 53.811 373.589 54.685 373.589 55.536C373.589 55.743 373.589 55.973 373.589 56.157C373.589 60.113 373.796 61.24 374.417 62.206C375.245 63.655 377.177 64.253 380.811 64.253C383.134 64.253 385.503 64.046 387.159 63.724C387.688 63.632 388.01 63.287 388.01 62.735C388.01 62.666 388.01 62.597 387.987 62.528C387.918 62.045 387.596 61.769 387.113 61.769C387.021 61.769 386.906 61.769 386.791 61.792C385.227 62.114 382.973 62.344 380.742 62.344C377.821 62.344 376.533 62.045 375.958 60.987C375.613 60.412 375.498 59.446 375.498 55.306C375.498 54.432 375.498 53.604 375.498 52.776C376.993 52.661 378.465 52.592 379.937 52.5C381.018 52.431 382.168 52.408 383.387 52.362C383.364 53.834 383.295 55.168 383.134 56.042C382.95 56.985 382.605 57.33 381.915 57.33C381.179 57.33 380.305 56.939 379.73 56.479C379.546 56.318 379.339 56.249 379.132 56.249C378.856 56.249 378.58 56.387 378.396 56.617C378.281 56.778 378.212 56.985 378.212 57.169C378.212 57.445 378.327 57.698 378.534 57.882C379.592 58.756 380.972 59.193 382.099 59.193C383.732 59.193 384.583 58.227 384.905 56.502C385.112 55.421 385.227 53.88 385.227 52.293ZM406.295 48.797C401.856 50.384 399.418 53.535 399.418 57.008C399.418 59.929 401.005 62.022 403.374 63.172C404.823 63.862 406.64 64.23 408.549 64.23C409.239 64.23 409.607 63.862 409.653 63.195C409.653 63.149 409.653 63.126 409.653 63.08C409.653 62.551 409.308 62.137 408.641 62.137C407.1 62.114 405.559 61.861 404.34 61.286C402.684 60.527 401.396 59.147 401.396 56.847C401.396 53.144 404.869 49.832 409.837 49.004C410.366 48.912 410.734 48.866 411.125 48.82C411.792 48.751 412.022 48.314 412.022 47.831C412.022 47.808 412.022 47.785 412.022 47.762C411.976 47.233 411.677 46.865 411.033 46.865C411.01 46.865 410.987 46.865 410.964 46.865C405.398 47.118 399.326 47.509 393.714 47.946C393.208 47.992 392.863 48.406 392.863 48.912C392.863 48.935 392.863 48.958 392.863 49.004C392.909 49.533 393.254 49.878 393.852 49.878C393.898 49.878 393.921 49.878 393.967 49.878C396.888 49.648 400.108 49.349 403.397 49.073C404.156 49.004 405.145 48.889 406.272 48.659L406.295 48.797ZM176.893 82.578C176.272 82.578 175.996 82.969 175.996 83.59C175.996 84.188 176.272 84.533 176.87 84.533H188.945C189.842 84.533 190.072 84.763 190.072 85.591V95.136C190.072 95.964 189.842 96.217 188.945 96.217H176.502C175.881 96.217 175.605 96.562 175.605 97.183C175.605 97.781 175.927 98.172 176.479 98.172H189.52C191.291 98.172 192.142 97.229 192.142 95.389V85.384C192.142 83.544 191.291 82.578 189.52 82.578H176.893ZM209.07 87.339C211.416 85.706 213.417 83.935 214.843 82.302C215.004 82.095 215.096 81.888 215.096 81.681C215.096 81.405 214.958 81.129 214.682 80.922C214.475 80.761 214.245 80.692 214.015 80.692C213.739 80.692 213.44 80.83 213.233 81.06C211.37 83.176 209.507 84.74 206.977 86.373C203.895 88.374 200.813 89.777 198.122 90.651C197.662 90.812 197.432 91.203 197.432 91.571C197.432 91.686 197.455 91.801 197.478 91.916C197.662 92.353 197.938 92.56 198.329 92.56C198.49 92.56 198.651 92.537 198.835 92.468C201.434 91.617 204.286 90.306 207.023 88.673V99.046C207.023 99.667 207.46 99.943 208.058 99.943C208.633 99.943 209.07 99.644 209.07 99.069V87.339ZM223.376 82.348C223.169 82.21 222.939 82.118 222.686 82.118C222.41 82.118 222.157 82.21 221.95 82.463C221.789 82.647 221.697 82.9 221.697 83.13C221.697 83.406 221.812 83.682 222.065 83.866C223.721 84.993 225.607 86.626 226.872 88.075C227.148 88.374 227.447 88.512 227.723 88.512C227.999 88.512 228.252 88.397 228.436 88.19C228.643 87.96 228.758 87.684 228.758 87.408C228.758 87.155 228.666 86.902 228.482 86.672C227.148 85.039 225.055 83.406 223.376 82.348ZM238.786 84.027C238.671 84.004 238.556 83.981 238.441 83.981C238.027 83.981 237.682 84.234 237.521 84.855C236.693 88.259 234.692 91.617 232.001 93.71C229.701 95.481 225.791 96.815 222.387 96.976C221.812 96.999 221.467 97.436 221.467 97.988C221.467 98.034 221.467 98.057 221.467 98.103C221.513 98.678 221.95 99.023 222.548 99.023C222.571 99.023 222.571 99.023 222.594 99.023C226.159 98.885 230.414 97.528 233.197 95.435C236.394 93.02 238.579 89.294 239.522 85.384C239.545 85.246 239.568 85.108 239.568 84.97C239.568 84.487 239.269 84.165 238.786 84.027ZM261.74 86.281C262.315 86.281 262.591 85.936 262.591 85.361C262.591 84.786 262.315 84.464 261.717 84.464H248.929C249.297 83.682 249.941 82.348 250.171 81.405C250.171 81.336 250.194 81.244 250.194 81.175C250.194 80.784 249.941 80.462 249.435 80.324C249.32 80.301 249.228 80.278 249.136 80.278C248.745 80.278 248.446 80.508 248.285 80.968C248.147 81.405 247.94 82.049 247.641 82.693C246.399 85.476 245.065 87.638 242.972 89.363C242.696 89.593 242.581 89.869 242.581 90.145C242.581 90.421 242.696 90.674 242.88 90.858C243.064 91.042 243.294 91.157 243.547 91.157C243.777 91.157 244.03 91.065 244.26 90.881C245.732 89.708 247.02 88.167 248.124 86.281H255.093C254.84 92.606 251.988 96.355 246.974 98.218C246.514 98.379 246.284 98.747 246.284 99.115C246.284 99.276 246.33 99.437 246.399 99.575C246.537 99.943 246.882 100.127 247.273 100.127C247.411 100.127 247.572 100.104 247.733 100.058C253.736 97.896 256.887 93.089 257.094 86.281H261.74ZM258.267 80.485C258.267 80.692 258.359 80.876 258.497 81.037C259.141 81.75 259.831 82.693 260.314 83.544C260.452 83.82 260.636 83.935 260.912 83.935C261.349 83.935 261.671 83.636 261.671 83.291C261.671 82.992 261.579 82.831 261.51 82.693C261.073 81.934 260.245 80.83 259.532 80.117C259.348 79.933 259.187 79.864 258.934 79.864C258.566 79.864 258.267 80.186 258.267 80.485ZM261.142 79.427C261.142 79.703 261.211 79.818 261.418 80.025C262.039 80.692 262.637 81.589 263.143 82.463C263.304 82.716 263.465 82.831 263.741 82.831C264.178 82.831 264.454 82.463 264.454 82.187C264.454 81.934 264.385 81.75 264.316 81.612C263.902 80.876 263.028 79.68 262.43 79.105C262.223 78.921 262.062 78.829 261.809 78.829C261.487 78.829 261.142 79.128 261.142 79.427ZM269.238 86.281C268.893 86.396 268.64 86.695 268.64 87.04C268.64 87.155 268.663 87.247 268.732 87.362C269.399 88.673 270.135 90.559 270.572 92.031C270.687 92.422 271.009 92.606 271.377 92.606C271.492 92.606 271.607 92.583 271.745 92.537C272.136 92.422 272.389 92.169 272.389 91.778C272.389 91.663 272.366 91.571 272.343 91.433C271.883 89.938 271.147 88.029 270.434 86.672C270.273 86.35 269.997 86.189 269.675 86.189C269.537 86.189 269.376 86.212 269.238 86.281ZM274.091 85.361C273.746 85.499 273.493 85.775 273.493 86.097C273.493 86.212 273.516 86.327 273.585 86.442C274.206 87.684 274.919 89.524 275.31 90.996C275.379 91.341 275.724 91.525 276.092 91.525C276.23 91.525 276.345 91.502 276.483 91.479C276.897 91.341 277.104 91.042 277.104 90.697C277.104 90.628 277.104 90.536 277.081 90.467C276.667 88.903 276 87.132 275.287 85.775C275.103 85.43 274.827 85.269 274.505 85.269C274.367 85.269 274.229 85.292 274.091 85.361ZM282.348 85.752C282.302 85.752 282.256 85.752 282.233 85.752C281.842 85.752 281.405 85.959 281.382 86.465C281.083 89.248 280.278 92.008 278.898 93.917C277.357 96.056 274.712 97.597 272.136 98.218C271.722 98.31 271.492 98.609 271.492 98.977C271.492 99.092 271.515 99.207 271.538 99.322C271.653 99.713 271.952 99.943 272.366 99.943C272.435 99.943 272.527 99.943 272.619 99.92C275.701 99.276 278.553 97.413 280.347 95.044C281.934 92.928 282.923 89.846 283.222 86.787C283.222 86.741 283.222 86.672 283.222 86.626C283.222 86.12 282.923 85.844 282.348 85.752ZM295.665 89.294C299.023 90.26 302.979 91.847 306.015 93.388C306.176 93.457 306.337 93.503 306.498 93.503C306.912 93.503 307.28 93.227 307.418 92.836C307.487 92.652 307.51 92.491 307.51 92.33C307.51 91.916 307.326 91.571 306.889 91.364C303.416 89.708 299.138 88.167 295.665 87.247V81.336C295.665 80.692 295.228 80.439 294.653 80.439C294.032 80.439 293.641 80.692 293.641 81.313V99.184C293.641 99.805 294.032 100.058 294.653 100.058C295.228 100.058 295.665 99.805 295.665 99.184V89.294ZM321.034 93.986C321.034 94.515 321.471 94.768 321.954 94.768C322.414 94.768 322.851 94.515 322.874 93.986L323.196 82.21C323.219 81.566 322.713 81.152 321.977 81.152C321.218 81.152 320.712 81.566 320.712 82.21L321.034 93.986ZM321.954 96.171C321.057 96.171 320.367 96.792 320.367 97.758C320.367 98.724 321.057 99.345 321.954 99.345C322.805 99.345 323.541 98.724 323.541 97.758C323.541 96.792 322.805 96.171 321.954 96.171ZM155.02 116.819C153.41 116.819 152.49 117.601 152.49 119.234V123.995C152.49 124.547 152.927 124.915 153.525 124.915C154.1 124.915 154.537 124.547 154.537 123.995V119.671C154.537 118.889 154.79 118.705 155.664 118.705H166.566C167.44 118.705 167.762 118.981 167.762 119.74C167.762 119.763 167.762 119.786 167.762 119.809C167.67 123.397 166.819 126.226 165.163 128.296C163.53 130.412 161.023 131.93 157.78 132.758C157.274 132.873 156.998 133.195 156.998 133.632C156.998 133.747 157.021 133.862 157.044 133.977C157.182 134.437 157.527 134.713 158.033 134.713C158.171 134.713 158.309 134.69 158.447 134.667C161.805 133.816 164.496 132.252 166.405 129.998C168.544 127.468 169.74 124.064 169.832 119.832C169.832 119.763 169.832 119.694 169.832 119.625C169.832 117.785 168.889 116.819 166.819 116.819H155.02ZM177.376 117.348C177.169 117.21 176.939 117.118 176.686 117.118C176.41 117.118 176.157 117.21 175.95 117.463C175.789 117.647 175.697 117.9 175.697 118.13C175.697 118.406 175.812 118.682 176.065 118.866C177.721 119.993 179.607 121.626 180.872 123.075C181.148 123.374 181.447 123.512 181.723 123.512C181.999 123.512 182.252 123.397 182.436 123.19C182.643 122.96 182.758 122.684 182.758 122.408C182.758 122.155 182.666 121.902 182.482 121.672C181.148 120.039 179.055 118.406 177.376 117.348ZM192.786 119.027C192.671 119.004 192.556 118.981 192.441 118.981C192.027 118.981 191.682 119.234 191.521 119.855C190.693 123.259 188.692 126.617 186.001 128.71C183.701 130.481 179.791 131.815 176.387 131.976C175.812 131.999 175.467 132.436 175.467 132.988C175.467 133.034 175.467 133.057 175.467 133.103C175.513 133.678 175.95 134.023 176.548 134.023C176.571 134.023 176.571 134.023 176.594 134.023C180.159 133.885 184.414 132.528 187.197 130.435C190.394 128.02 192.579 124.294 193.522 120.384C193.545 120.246 193.568 120.108 193.568 119.97C193.568 119.487 193.269 119.165 192.786 119.027ZM201.917 126.755C203.021 124.984 204.01 122.983 204.861 120.775C208.127 120.706 211.554 120.407 213.969 120.062C214.475 119.993 214.774 119.671 214.774 119.142C214.774 119.096 214.774 119.027 214.774 118.981C214.705 118.521 214.36 118.245 213.923 118.245C213.854 118.245 213.785 118.245 213.716 118.268C211.439 118.567 208.357 118.843 205.505 118.935C205.781 118.13 206.057 117.21 206.31 116.313C206.333 116.198 206.356 116.083 206.356 115.968C206.356 115.554 206.103 115.255 205.62 115.186C205.551 115.163 205.459 115.163 205.39 115.163C204.93 115.163 204.562 115.37 204.47 115.945C204.194 117.003 203.918 118.015 203.596 118.981C201.687 118.981 200.031 118.935 198.628 118.866C198.605 118.866 198.559 118.866 198.536 118.866C198.076 118.866 197.754 119.211 197.731 119.717C197.731 119.74 197.731 119.763 197.731 119.786C197.731 120.292 198.007 120.66 198.513 120.706C199.456 120.775 200.652 120.798 201.871 120.798C202.239 120.798 202.607 120.798 202.975 120.798C202.032 123.19 200.951 125.421 199.548 127.721C199.387 127.974 199.318 128.227 199.318 128.434C199.318 128.802 199.525 129.078 199.801 129.239C199.962 129.331 200.123 129.377 200.33 129.377C200.652 129.377 201.02 129.216 201.48 128.871C203.458 127.284 206.379 126.203 208.955 126.203C212.014 126.203 213.601 127.215 213.601 129.101C213.601 131.516 211.002 132.781 207.299 132.781C205.344 132.781 203.297 132.482 202.124 132.114C201.986 132.068 201.871 132.045 201.756 132.045C201.319 132.045 201.02 132.298 200.882 132.735C200.836 132.85 200.813 132.965 200.813 133.08C200.813 133.471 201.066 133.839 201.526 133.977C202.906 134.414 205.022 134.667 207.345 134.667C213.141 134.667 215.579 132.183 215.579 129.101C215.579 126.433 213.463 124.524 209.185 124.524C206.425 124.524 203.849 125.513 202.032 126.801L201.917 126.755ZM230.667 122.201C229.563 122.408 228.091 122.868 226.918 123.282C226.642 122.454 226.366 121.511 225.998 120.591C225.86 120.2 225.561 120.016 225.216 120.016C225.101 120.016 224.986 120.039 224.848 120.062C224.48 120.177 224.227 120.453 224.227 120.821C224.227 120.913 224.25 121.028 224.273 121.12C224.641 122.017 224.986 123.006 225.239 123.857C224.296 124.202 223.307 124.593 222.41 125.03C222.042 125.214 221.881 125.513 221.881 125.812C221.881 125.95 221.904 126.088 221.95 126.203C222.111 126.525 222.364 126.709 222.686 126.709C222.824 126.709 222.939 126.686 223.077 126.617C223.882 126.249 224.894 125.812 225.745 125.467C226.596 128.388 227.447 131.7 228.091 134.759C228.206 135.242 228.528 135.449 228.919 135.449C229.011 135.449 229.103 135.449 229.195 135.426C229.632 135.334 229.908 135.035 229.908 134.552C229.908 134.483 229.908 134.414 229.885 134.345C229.218 131.217 228.252 127.882 227.378 124.869C227.999 124.616 228.804 124.363 229.54 124.156C230.759 123.811 231.978 123.581 233.312 123.581C235.175 123.581 236.233 124.662 236.233 126.157C236.233 127.767 235.106 128.756 233.312 128.756C232.576 128.756 231.771 128.526 231.173 128.204C231.035 128.135 230.874 128.089 230.736 128.089C230.414 128.089 230.115 128.296 229.977 128.595C229.931 128.71 229.908 128.825 229.908 128.94C229.908 129.285 230.092 129.584 230.46 129.791C231.242 130.205 232.392 130.458 233.404 130.458C236.21 130.458 237.935 128.618 237.935 126.157C237.935 123.696 236.233 121.948 233.335 121.948C232.99 121.948 232.645 121.971 232.369 121.994L232.231 119.97C232.208 119.441 231.863 119.211 231.38 119.211C231.357 119.211 231.334 119.211 231.311 119.211C230.874 119.257 230.483 119.487 230.483 119.97C230.483 119.993 230.483 120.016 230.483 120.039L230.667 122.201ZM247.526 126.64C247.848 126.088 248.193 125.283 248.492 124.547C249.481 122.04 250.562 119.418 251.689 116.612C251.758 116.451 251.781 116.267 251.781 116.129C251.781 115.738 251.574 115.439 251.16 115.324C251.022 115.278 250.884 115.255 250.746 115.255C250.355 115.255 250.033 115.485 249.872 115.922C247.733 121.304 245.387 127.583 243.34 133.31C243.271 133.471 243.248 133.632 243.248 133.793C243.248 134.23 243.501 134.552 243.938 134.667C244.076 134.713 244.214 134.736 244.329 134.736C244.72 134.736 244.996 134.506 245.203 134C245.939 131.907 246.974 129.63 247.848 128.296C248.998 126.525 250.562 125.467 252.011 125.467C252.701 125.467 253.046 125.766 253.253 126.272C253.529 126.962 253.598 127.744 253.644 129.515C253.713 131.815 254.058 132.873 254.633 133.54C255.231 134.253 256.197 134.598 257.439 134.598C258.819 134.598 260.107 134.115 261.027 132.896C261.97 131.723 262.683 129.998 262.982 127.836C263.005 127.767 263.005 127.675 263.005 127.606C263.005 127.1 262.729 126.755 262.223 126.663C262.154 126.64 262.062 126.64 261.993 126.64C261.51 126.64 261.188 126.939 261.096 127.468C260.843 129.147 260.337 130.55 259.693 131.47C259.187 132.206 258.405 132.597 257.577 132.597C256.979 132.597 256.381 132.413 256.059 131.999C255.76 131.585 255.599 130.849 255.53 128.779C255.461 126.479 255.254 125.628 254.84 124.892C254.449 124.202 253.736 123.65 252.54 123.65C250.769 123.65 249.09 124.731 247.687 126.686L247.526 126.64ZM274.919 122.454C274.252 120.522 273.769 118.291 273.378 116.106C273.309 115.577 272.918 115.324 272.458 115.324C272.366 115.324 272.297 115.324 272.205 115.347C271.745 115.439 271.377 115.738 271.377 116.244C271.377 116.313 271.377 116.382 271.4 116.451C271.837 118.774 272.389 121.166 273.079 123.236C269.767 124.846 267.835 127.1 267.835 129.423C267.835 132.896 270.434 134.46 276.069 134.437C278.76 134.437 281.267 134.276 283.038 133.885C283.59 133.77 283.912 133.379 283.912 132.896C283.912 132.804 283.912 132.735 283.889 132.643C283.82 132.114 283.475 131.815 282.969 131.815C282.877 131.815 282.785 131.815 282.693 131.838C280.945 132.206 278.415 132.459 276.161 132.459C271.285 132.459 269.813 131.447 269.813 129.446C269.813 127.767 271.377 126.042 274.367 124.685C276.805 123.581 280.071 122.523 282.463 121.925C282.992 121.787 283.245 121.442 283.245 121.028C283.245 120.913 283.222 120.798 283.199 120.683C283.061 120.223 282.762 119.993 282.302 119.993C282.187 119.993 282.072 120.016 281.934 120.039C279.887 120.568 277.196 121.488 274.919 122.454ZM308.66 126.272C309.143 126.272 309.419 125.743 309.419 125.26C309.419 124.754 309.143 124.271 308.66 124.271H289.317C288.834 124.271 288.558 124.754 288.558 125.26C288.558 125.743 288.834 126.272 289.317 126.272H308.66ZM325.289 123.282C323.702 124.708 321.885 125.95 320.045 127.008C319.769 127.169 319.608 127.422 319.608 127.698C319.608 127.836 319.654 127.997 319.723 128.135C319.861 128.434 320.114 128.572 320.39 128.572C320.528 128.572 320.689 128.526 320.827 128.434C321.149 128.227 321.471 128.02 321.793 127.813C321.609 128.526 321.586 129.492 321.586 130.435V133.724C321.586 134.966 322.207 135.472 323.587 135.472H329.452C330.809 135.472 331.43 134.966 331.43 133.724V127.353C331.43 126.088 330.809 125.605 329.452 125.605H327.129C326.048 125.605 325.335 125.628 324.668 125.766C325.542 125.099 326.37 124.386 327.175 123.604C327.29 123.489 327.405 123.397 327.497 123.282H332.143C332.557 123.282 332.741 122.983 332.741 122.5C332.741 122.017 332.511 121.741 332.097 121.741H328.923C330.027 120.43 331.085 118.935 332.212 117.095C332.327 116.934 332.373 116.75 332.373 116.589C332.373 116.313 332.235 116.083 331.959 115.922C331.752 115.807 331.591 115.761 331.43 115.761C331.177 115.761 330.97 115.922 330.786 116.244C329.544 118.544 328.164 120.315 326.853 121.741H325.634V118.912H328.325C328.716 118.912 328.923 118.613 328.923 118.153C328.923 117.693 328.716 117.394 328.302 117.394H325.634V115.347C325.634 114.91 325.335 114.68 324.806 114.68C324.3 114.68 323.978 114.91 323.978 115.347V117.394H321.103C320.712 117.394 320.482 117.693 320.482 118.153C320.482 118.613 320.712 118.912 321.103 118.912H323.978V121.741H320.39C319.976 121.741 319.769 122.04 319.769 122.523C319.769 122.983 319.976 123.282 320.39 123.282H325.289ZM323.242 129.653V127.583C323.242 127.169 323.472 127.031 323.909 127.031H329.13C329.544 127.031 329.774 127.169 329.774 127.583V129.653H323.242ZM323.242 131.125H329.774V133.448C329.774 133.862 329.544 134 329.13 134H323.909C323.472 134 323.242 133.862 323.242 133.448V131.125ZM315.284 135.357C315.284 135.748 315.629 135.955 316.089 135.955C316.595 135.955 316.894 135.748 316.894 135.357V125.996C316.986 125.996 317.078 125.973 317.17 125.973C317.722 125.927 318.251 125.858 318.803 125.812C318.826 125.904 318.872 125.996 318.895 126.065C319.033 126.479 319.263 126.663 319.562 126.663C319.677 126.663 319.815 126.64 319.953 126.571C320.229 126.456 320.39 126.272 320.39 125.973C320.39 125.835 320.367 125.697 320.298 125.49C320.022 124.685 319.424 123.305 318.895 122.339C318.78 122.132 318.573 121.994 318.32 121.994C318.205 121.994 318.067 122.017 317.929 122.086C317.699 122.224 317.538 122.454 317.538 122.707C317.538 122.822 317.561 122.937 317.63 123.052C317.86 123.466 318.09 123.949 318.274 124.409C317.906 124.432 317.561 124.478 317.193 124.501C316.549 124.547 315.882 124.616 315.215 124.639C316.664 122.776 318.251 120.292 319.355 118.291C319.424 118.153 319.47 118.015 319.47 117.9C319.47 117.624 319.309 117.371 318.987 117.233C318.849 117.164 318.711 117.141 318.596 117.141C318.32 117.141 318.09 117.279 317.929 117.578C317.377 118.682 316.618 119.993 315.767 121.327C315.353 120.775 314.893 120.246 314.433 119.717C315.376 118.337 316.158 116.911 316.733 115.669C316.802 115.531 316.825 115.416 316.825 115.301C316.825 115.002 316.618 114.772 316.319 114.657C316.181 114.611 316.043 114.588 315.928 114.588C315.652 114.588 315.445 114.726 315.307 115.025C314.847 116.129 314.157 117.486 313.398 118.59C313.168 118.36 312.961 118.153 312.754 117.969C312.616 117.854 312.478 117.808 312.34 117.808C312.11 117.808 311.903 117.923 311.719 118.13C311.581 118.291 311.512 118.475 311.512 118.682C311.512 118.866 311.581 119.05 311.742 119.211C312.731 120.108 313.973 121.442 314.893 122.661C314.433 123.351 313.95 124.041 313.467 124.708C312.961 124.731 312.478 124.731 312.018 124.731C311.581 124.731 311.328 125.007 311.328 125.444C311.328 125.444 311.328 125.467 311.328 125.49C311.328 125.996 311.581 126.295 312.018 126.295C312.041 126.295 312.041 126.295 312.064 126.295C313.099 126.272 314.18 126.203 315.284 126.134V135.357ZM313.421 127.583C313.398 127.583 313.375 127.583 313.352 127.583C312.961 127.583 312.616 127.767 312.593 128.112C312.432 129.837 312.064 131.953 311.443 133.402C311.42 133.494 311.397 133.586 311.397 133.655C311.397 133.977 311.65 134.23 311.995 134.345C312.087 134.368 312.179 134.391 312.271 134.391C312.593 134.391 312.938 134.207 313.053 133.885C313.628 132.367 314.019 130.044 314.157 128.273C314.157 128.25 314.157 128.25 314.157 128.227C314.157 127.813 313.812 127.606 313.421 127.583ZM318.366 127.537C318.021 127.629 317.814 127.813 317.814 128.135C317.814 128.204 317.837 128.296 317.86 128.411C318.136 129.584 318.412 131.125 318.55 132.436C318.596 132.85 318.895 133.034 319.24 133.034C319.286 133.034 319.332 133.034 319.401 133.011C319.792 132.965 320.091 132.758 320.091 132.39C320.091 132.367 320.091 132.321 320.091 132.298C319.907 130.872 319.608 129.239 319.263 128.089C319.125 127.675 318.964 127.491 318.665 127.491C318.573 127.491 318.481 127.514 318.366 127.537ZM338.905 115.646C338.813 115.623 338.744 115.623 338.652 115.623C338.238 115.623 337.87 115.83 337.732 116.313C336.858 119.556 336.421 123.282 336.421 126.87C336.421 129.446 336.628 131.93 337.065 134.046C337.18 134.667 337.525 134.92 337.962 134.92C338.031 134.92 338.123 134.92 338.215 134.897C338.698 134.782 338.997 134.506 338.997 133.977C338.997 133.862 338.997 133.747 338.974 133.632C338.583 131.493 338.376 129.055 338.376 126.778C338.376 123.42 338.813 119.786 339.641 116.727C339.664 116.612 339.687 116.52 339.687 116.428C339.687 115.991 339.365 115.715 338.905 115.646ZM352.613 118.107C350.75 118.314 348.082 118.429 345.644 118.429C344.793 118.429 343.965 118.406 343.229 118.383C343.206 118.383 343.206 118.383 343.183 118.383C342.585 118.383 342.263 118.843 342.24 119.349C342.24 119.878 342.493 120.338 343.206 120.361C343.965 120.384 344.793 120.407 345.644 120.407C348.151 120.407 350.911 120.292 352.843 120.062C353.51 119.993 353.74 119.556 353.74 119.027C353.74 119.004 353.74 118.981 353.74 118.958C353.671 118.429 353.372 118.107 352.797 118.107C352.728 118.107 352.682 118.107 352.613 118.107ZM344.655 125.513C344.471 125.352 344.264 125.26 344.057 125.26C343.804 125.26 343.528 125.375 343.275 125.605C342.102 126.709 341.527 128.02 341.527 129.423C341.527 132.321 343.781 133.517 348.013 133.517C350.129 133.517 352.153 133.356 353.855 133.011C354.361 132.919 354.637 132.482 354.637 132.022C354.637 131.93 354.637 131.861 354.614 131.769C354.522 131.309 354.177 131.01 353.717 131.01C353.625 131.01 353.533 131.01 353.441 131.033C351.877 131.378 349.761 131.585 347.783 131.585C344.563 131.585 343.321 130.849 343.321 129.423C343.321 128.549 343.689 127.675 344.655 126.755C344.839 126.571 344.954 126.364 344.954 126.134C344.954 125.927 344.862 125.72 344.655 125.513ZM191.245 160.628C189.152 161.456 187.45 162.698 186.553 163.917C186.116 164.538 185.863 165.182 185.863 165.849C185.863 167.045 186.645 168.034 187.703 168.724C188.623 169.368 189.635 169.69 190.44 169.69C192.142 169.69 193.039 168.816 193.039 167.045V161.824C194.603 161.272 196.328 160.95 197.869 160.95C200.928 160.95 202.469 162.353 202.469 164.561C202.469 166.562 201.135 167.712 199.571 167.712C198.49 167.712 197.754 167.252 197.156 166.447C196.949 166.148 196.673 166.033 196.397 166.033C196.167 166.033 195.96 166.102 195.753 166.24C195.5 166.424 195.362 166.7 195.362 166.999C195.362 167.206 195.431 167.436 195.569 167.643C196.466 168.977 197.915 169.598 199.617 169.598C202.377 169.598 204.401 167.62 204.401 164.538C204.401 161.272 201.986 159.271 197.938 159.271C196.351 159.271 194.649 159.57 193.039 160.053V156.028C194.626 155.89 196.167 155.706 197.455 155.453C197.892 155.361 198.168 155.085 198.168 154.625C198.168 154.556 198.168 154.464 198.145 154.372C198.053 153.912 197.754 153.682 197.34 153.682C197.271 153.682 197.202 153.682 197.11 153.705C195.937 153.935 194.511 154.119 193.039 154.234V150.738C193.039 150.209 192.694 149.91 192.142 149.91C191.613 149.91 191.245 150.186 191.245 150.715V154.372C189.727 154.487 188.209 154.533 186.921 154.533C186.415 154.533 186.139 154.878 186.139 155.43C186.139 155.936 186.438 156.327 186.944 156.327C188.255 156.327 189.796 156.281 191.245 156.189V160.628ZM191.245 166.631C191.245 167.505 190.946 167.804 190.256 167.804C189.819 167.804 189.198 167.597 188.715 167.275C188.163 166.907 187.726 166.401 187.726 165.849C187.726 165.504 187.864 165.09 188.14 164.722C188.669 164.009 189.796 163.158 191.245 162.491V166.631ZM200.675 152.026C200.514 151.934 200.307 151.888 200.146 151.888C199.847 151.888 199.594 152.003 199.41 152.233C199.249 152.44 199.18 152.647 199.18 152.854C199.18 153.107 199.318 153.337 199.571 153.498C201.02 154.395 202.722 155.867 203.895 157.224C204.102 157.454 204.355 157.546 204.608 157.546C204.861 157.546 205.091 157.454 205.298 157.27C205.482 157.086 205.574 156.833 205.574 156.58C205.574 156.35 205.482 156.097 205.321 155.89C204.148 154.487 202.239 152.923 200.675 152.026ZM228.643 155.361C229.057 155.361 229.287 154.993 229.287 154.533C229.287 154.05 229.057 153.728 228.643 153.728H222.617C222.985 152.601 223.238 151.497 223.399 150.508C223.422 150.439 223.422 150.393 223.422 150.324C223.422 149.933 223.123 149.657 222.686 149.611C222.617 149.588 222.571 149.588 222.502 149.588C222.111 149.588 221.812 149.772 221.72 150.209C221.191 153.337 220.133 156.557 218.408 158.857C218.27 159.041 218.201 159.248 218.201 159.432C218.201 159.662 218.293 159.869 218.477 160.053C218.638 160.214 218.822 160.306 219.006 160.306C219.236 160.306 219.466 160.168 219.65 159.938C219.903 159.57 220.179 159.156 220.432 158.742C220.892 160.95 221.628 163.02 222.755 164.998C221.628 166.608 220.202 167.965 218.5 169.115C218.247 169.276 218.109 169.552 218.109 169.828C218.109 170.012 218.155 170.196 218.27 170.357C218.454 170.633 218.707 170.771 218.983 170.771C219.167 170.771 219.351 170.725 219.512 170.61C221.122 169.529 222.548 168.149 223.744 166.516C224.848 167.988 226.182 169.322 227.815 170.564C227.999 170.702 228.183 170.771 228.39 170.771C228.689 170.771 228.965 170.633 229.172 170.334C229.31 170.15 229.379 169.92 229.379 169.69C229.379 169.414 229.264 169.138 229.011 168.977C227.286 167.781 225.883 166.493 224.756 164.975C226.113 162.606 226.987 159.915 227.286 157.201C227.332 156.764 227.378 156.327 227.401 155.89C227.424 155.706 227.424 155.545 227.447 155.361H228.643ZM225.699 155.361C225.584 158.144 225.009 160.904 223.721 163.388C222.594 161.295 221.881 159.018 221.49 156.672C221.697 156.235 221.881 155.798 222.042 155.361H225.699ZM210.22 153.36V155.913H208.288C207.874 155.913 207.644 156.212 207.644 156.672C207.644 157.132 207.874 157.431 208.288 157.431H218.431C218.822 157.431 219.052 157.109 219.052 156.672C219.052 156.212 218.822 155.913 218.431 155.913H216.338V153.36H218.017C218.408 153.36 218.638 153.061 218.638 152.601C218.638 152.141 218.408 151.865 218.017 151.865H216.338V150.117C216.338 149.726 216.016 149.519 215.533 149.519C215.05 149.519 214.728 149.726 214.728 150.117V151.865H211.83V150.117C211.83 149.726 211.531 149.496 211.025 149.496C210.542 149.496 210.22 149.726 210.22 150.117V151.865H208.771C208.357 151.865 208.127 152.141 208.127 152.601C208.127 153.061 208.357 153.36 208.771 153.36H210.22ZM211.83 153.36H214.728V155.913H211.83V153.36ZM210.565 166.539H216.131V168.494C216.131 169.046 215.924 169.207 215.303 169.207C214.82 169.207 214.36 169.161 214.038 169.069C213.969 169.046 213.9 169.046 213.854 169.046C213.578 169.046 213.302 169.207 213.233 169.575C213.21 169.667 213.21 169.759 213.21 169.828C213.21 170.196 213.417 170.472 213.716 170.541C214.13 170.656 214.751 170.725 215.533 170.725C216.982 170.725 217.741 170.173 217.741 168.885V160.559C217.741 159.317 217.143 158.811 215.832 158.811H210.818C209.507 158.811 208.909 159.317 208.909 160.559V170.311C208.909 170.725 209.254 170.932 209.737 170.932C210.243 170.932 210.565 170.725 210.565 170.311V166.539ZM210.565 165.182V163.411H216.131V165.182H210.565ZM210.565 162.054V160.835C210.565 160.398 210.795 160.283 211.232 160.283H215.464C215.901 160.283 216.131 160.398 216.131 160.835V162.054H210.565ZM242.535 156.695V153.797H249.435C249.849 153.797 250.079 153.429 250.079 152.946C250.079 152.509 249.849 152.141 249.435 152.141H242.535V150.186C242.535 149.749 242.19 149.496 241.661 149.496C241.132 149.496 240.787 149.749 240.787 150.186V156.695H236.762V151.98C236.762 151.589 236.417 151.359 235.888 151.359C235.359 151.359 234.991 151.589 234.991 151.98V156.695H231.679C231.242 156.695 231.012 157.063 231.012 157.5C231.012 157.983 231.242 158.305 231.679 158.305H240.741V163.089C240.741 163.687 240.534 163.871 239.844 163.871C239.315 163.871 238.694 163.802 238.257 163.71C238.165 163.687 238.096 163.687 238.027 163.687C237.682 163.687 237.452 163.917 237.36 164.285C237.337 164.354 237.337 164.423 237.337 164.492C237.337 164.929 237.59 165.228 237.935 165.297C238.556 165.412 239.2 165.481 240.028 165.481C241.707 165.481 242.535 164.929 242.535 163.411V158.305H251.344C251.758 158.305 251.988 157.983 251.988 157.5C251.988 157.04 251.758 156.695 251.344 156.695H242.535ZM246.928 159.409C246.79 159.248 246.606 159.179 246.399 159.179C246.169 159.179 245.939 159.271 245.778 159.409C245.548 159.593 245.41 159.846 245.41 160.099C245.41 160.237 245.456 160.375 245.571 160.513C247.066 162.238 248.883 163.687 250.585 164.63C250.746 164.699 250.884 164.745 251.045 164.745C251.367 164.745 251.666 164.584 251.827 164.285C251.942 164.101 251.988 163.917 251.988 163.71C251.988 163.434 251.873 163.158 251.597 163.02C249.941 162.169 248.216 160.835 246.928 159.409ZM237.199 159.478C237.015 159.363 236.808 159.317 236.647 159.317C236.371 159.317 236.141 159.432 236.003 159.639C234.853 161.387 233.128 162.882 231.449 163.94C231.242 164.078 231.127 164.308 231.127 164.584C231.127 164.768 231.196 164.998 231.334 165.182C231.541 165.458 231.817 165.573 232.093 165.573C232.3 165.573 232.507 165.504 232.668 165.389C234.393 164.285 236.187 162.675 237.567 160.628C237.636 160.513 237.682 160.375 237.682 160.237C237.682 159.961 237.498 159.662 237.199 159.478ZM247.365 163.319C247.181 163.158 246.951 163.066 246.744 163.066C246.514 163.066 246.307 163.158 246.123 163.342C243.34 166.677 238.533 168.839 233.128 169.069C232.622 169.115 232.3 169.46 232.3 169.966C232.3 170.012 232.3 170.081 232.323 170.15C232.415 170.679 232.829 170.886 233.289 170.886C233.335 170.886 233.358 170.886 233.381 170.886C238.924 170.518 244.375 168.195 247.411 164.607C247.572 164.423 247.664 164.193 247.664 163.963C247.664 163.733 247.572 163.503 247.365 163.319ZM259.348 150.6C259.325 150.6 259.302 150.6 259.302 150.6C258.704 150.6 258.336 150.968 258.313 151.566C258.152 154.947 258.037 159.202 258.037 162.767C258.037 165.688 258.52 167.183 259.578 168.218C260.705 169.299 262.315 169.805 264.477 169.805C266.846 169.805 269.008 169.023 270.71 167.367C272.09 166.033 273.056 164.17 273.769 161.847C273.815 161.709 273.838 161.571 273.838 161.456C273.838 160.996 273.539 160.628 273.125 160.513C273.01 160.467 272.872 160.444 272.757 160.444C272.366 160.444 272.044 160.697 271.883 161.226C271.331 163.135 270.48 164.745 269.445 165.803C268.088 167.206 266.294 167.781 264.523 167.781C262.936 167.781 261.786 167.528 261.027 166.815C260.291 166.102 260.015 164.906 260.015 162.744C260.015 159.064 260.199 154.993 260.314 151.612C260.314 151.589 260.314 151.566 260.314 151.543C260.314 150.968 259.992 150.623 259.348 150.6ZM289.202 162.767C289.133 162.169 289.064 161.525 288.972 160.881C288.719 158.88 288.604 157.753 288.581 156.879C291.042 156.833 293.618 156.58 295.343 156.258C295.941 156.143 296.171 155.775 296.171 155.338C296.171 155.246 296.171 155.177 296.148 155.085C296.079 154.602 295.734 154.326 295.274 154.326C295.182 154.326 295.113 154.326 295.021 154.349C293.227 154.694 290.858 154.947 288.489 155.016C288.443 153.843 288.443 152.555 288.443 151.083C288.443 150.439 288.121 150.14 287.5 150.14C286.925 150.14 286.534 150.393 286.534 151.083C286.534 153.383 286.603 155.246 286.718 156.971C286.81 158.282 286.948 159.662 287.132 161.065C287.178 161.456 287.224 161.87 287.27 162.261C286.212 162.054 285.2 161.962 284.211 161.962C280.715 161.962 278.507 163.618 278.507 166.01C278.507 168.379 280.876 169.897 283.797 169.897C287.224 169.897 289.432 168.701 289.455 166.148C289.455 165.757 289.455 165.366 289.432 164.929C290.996 165.596 292.882 166.907 294.4 168.402C294.676 168.655 294.975 168.77 295.251 168.77C295.527 168.77 295.803 168.632 295.987 168.425C296.171 168.195 296.263 167.942 296.263 167.689C296.263 167.367 296.125 167.045 295.826 166.815C294.078 165.228 291.962 163.871 290.03 163.089C289.754 162.974 289.478 162.859 289.202 162.767ZM287.477 164.193C287.523 164.699 287.546 165.182 287.546 165.642C287.546 167.39 285.959 168.08 283.728 168.08C281.681 168.08 280.416 167.16 280.416 165.987C280.416 164.63 281.75 163.733 284.119 163.733C285.269 163.733 286.396 163.894 287.477 164.193ZM305.302 152.417C308.016 153.038 312.34 153.567 315.376 153.636C315.399 153.636 315.422 153.636 315.445 153.636C316.043 153.636 316.411 153.314 316.434 152.762C316.434 152.739 316.434 152.716 316.434 152.716C316.434 152.141 316.089 151.727 315.491 151.704C312.455 151.566 308.568 151.129 305.762 150.485C305.693 150.485 305.624 150.485 305.578 150.485C305.095 150.485 304.727 150.738 304.612 151.244C304.589 151.359 304.566 151.451 304.566 151.543C304.566 151.98 304.819 152.302 305.302 152.417ZM318.228 161.111C318.228 158.213 316.089 156.143 311.696 156.143C309.051 156.143 305.44 156.787 302.841 157.592C302.404 157.707 302.128 158.075 302.128 158.535C302.128 158.65 302.151 158.765 302.174 158.88C302.335 159.34 302.68 159.57 303.071 159.57C303.186 159.57 303.301 159.547 303.416 159.524C306.015 158.719 309.327 158.006 311.742 158.006C315.008 158.006 316.227 159.317 316.227 161.203C316.227 163.204 315.192 164.952 312.961 166.217C311.374 167.114 308.89 167.804 306.82 168.08C306.291 168.172 305.992 168.54 305.992 169.023C305.992 169.092 305.992 169.184 306.015 169.253C306.13 169.759 306.452 170.081 306.981 170.081C307.05 170.081 307.119 170.081 307.188 170.058C309.396 169.782 311.972 169.023 313.766 168.034C316.756 166.378 318.228 164.032 318.228 161.111Z" fill="white"/>
</svg>
