<svg width="455" height="212" viewBox="0 0 455 212" fill="none" xmlns="http://www.w3.org/2000/svg">
<path d="M0 106C0 47.4578 47.4578 0 106 0H455V212H106C47.4578 212 0 164.542 0 106V106Z" fill="#D26060"/>
<path d="M117.41 75.32C117.18 76.309 116.927 77.137 116.674 77.689C116.283 78.54 115.915 78.724 114.42 78.724C113.638 78.724 112.419 78.586 111.568 78.379C111.499 78.356 111.407 78.356 111.338 78.356C110.993 78.356 110.694 78.586 110.579 79.046C110.556 79.138 110.533 79.253 110.533 79.322C110.533 79.736 110.763 80.035 111.131 80.127C111.982 80.334 113.293 80.472 114.558 80.472C116.835 80.472 117.571 79.943 118.169 78.563C118.514 77.735 118.859 76.608 119.135 75.32H123.436C123.827 75.32 124.057 74.952 124.057 74.492C124.057 74.032 123.827 73.687 123.436 73.687H119.434C119.572 72.928 119.664 72.123 119.733 71.341C119.756 71.249 119.756 71.157 119.756 71.065C119.756 69.938 119.089 69.432 117.732 69.432H109.36C108.946 69.432 108.785 69.363 108.785 69.179C108.785 69.11 108.808 69.018 108.854 68.926C109.061 68.443 109.337 67.707 109.613 66.879H119.963C120.331 66.879 120.561 66.511 120.561 66.051C120.561 65.591 120.331 65.269 119.963 65.269H110.119C110.28 64.717 110.441 64.165 110.556 63.659C110.579 63.59 110.579 63.498 110.579 63.429C110.579 63.084 110.349 62.808 109.889 62.739C109.797 62.716 109.728 62.716 109.659 62.716C109.245 62.716 108.969 62.923 108.9 63.314C108.463 65.338 107.635 67.73 106.991 69.202C106.876 69.478 106.83 69.708 106.83 69.938C106.83 70.582 107.313 70.973 108.187 70.973H117.295C117.732 70.973 117.985 71.111 117.985 71.502C117.985 71.525 117.985 71.548 117.985 71.594C117.916 72.284 117.824 72.997 117.709 73.687H103.656C103.265 73.687 103.035 74.032 103.035 74.492C103.035 74.952 103.265 75.32 103.656 75.32H117.41ZM105.588 60.416C104.231 60.416 103.564 60.968 103.564 62.302V64.832C103.564 65.269 103.909 65.499 104.438 65.499C104.99 65.499 105.335 65.269 105.335 64.832V62.693C105.335 62.187 105.611 62.049 106.071 62.049H120.929C121.389 62.049 121.642 62.187 121.642 62.693V64.786C121.642 65.223 121.987 65.453 122.539 65.453C123.068 65.453 123.39 65.223 123.39 64.786V62.302C123.39 60.968 122.746 60.416 121.389 60.416H105.588ZM137.167 64.418V62.9H145.999C146.413 62.9 146.62 62.578 146.62 62.118C146.62 61.681 146.413 61.359 145.999 61.359H137.167V60.002C137.167 59.611 136.891 59.404 136.339 59.404C135.833 59.404 135.511 59.611 135.511 60.002V61.359H127.001C126.587 61.359 126.357 61.681 126.357 62.141C126.357 62.578 126.587 62.9 127.001 62.9H135.511V64.418H130.796C129.508 64.418 128.91 64.924 128.91 66.12V72.307C128.91 73.503 129.531 74.009 130.819 74.009H142.181C143.446 74.009 144.067 73.503 144.067 72.307V66.12C144.067 64.924 143.469 64.418 142.204 64.418H137.167ZM130.612 67.224V66.304C130.612 65.89 130.819 65.752 131.256 65.752H141.721C142.158 65.752 142.365 65.89 142.365 66.304V67.224H130.612ZM130.612 69.892V68.512H142.365V69.892H130.612ZM130.612 71.18H142.365V72.1C142.365 72.514 142.158 72.629 141.721 72.629H131.256C130.819 72.629 130.612 72.514 130.612 72.1V71.18ZM146.344 76.723C146.758 76.723 146.965 76.401 146.965 75.941C146.965 75.504 146.758 75.205 146.344 75.205H126.633C126.242 75.205 126.012 75.504 126.012 75.964C126.012 76.401 126.242 76.723 126.633 76.723H146.344ZM132.705 77.367C131.463 78.103 129.324 78.931 127.116 79.299C126.725 79.368 126.495 79.667 126.495 80.035C126.495 80.104 126.495 80.196 126.518 80.265C126.633 80.771 126.955 80.978 127.323 80.978C127.392 80.978 127.461 80.978 127.507 80.955C129.807 80.61 132.13 79.667 133.694 78.724C134.016 78.54 134.177 78.264 134.177 78.011C134.177 77.827 134.108 77.666 133.97 77.505C133.786 77.298 133.533 77.206 133.257 77.206C133.073 77.206 132.866 77.252 132.705 77.367ZM146.114 79.299C144.527 79 142.204 78.425 140.249 77.39C140.019 77.275 139.812 77.206 139.628 77.206C139.352 77.206 139.122 77.321 138.938 77.528C138.777 77.689 138.708 77.873 138.708 78.057C138.708 78.31 138.869 78.563 139.191 78.747C141.1 79.874 143.676 80.587 145.746 80.955C145.815 80.978 145.884 80.978 145.93 80.978C146.367 80.978 146.689 80.702 146.758 80.242C146.781 80.196 146.781 80.127 146.781 80.081C146.781 79.667 146.482 79.368 146.114 79.299ZM160.535 63.567C164.606 63.705 167.159 66.534 167.159 70.421C167.159 72.836 166.101 74.699 164.652 75.78C163.502 76.631 161.731 77.206 160.052 77.436C159.523 77.528 159.224 77.873 159.224 78.333C159.224 78.402 159.224 78.494 159.247 78.563C159.339 79.138 159.73 79.368 160.213 79.368C160.282 79.368 160.374 79.368 160.466 79.345C162.306 79.069 163.962 78.54 165.296 77.689C167.688 76.171 169.091 73.71 169.091 70.467C169.091 65.407 165.503 61.865 160.075 61.865C153.796 61.865 149.794 66.005 149.794 71.732C149.794 75.596 151.703 77.919 154.095 77.919C155.038 77.919 156.004 77.62 156.74 76.907C157.545 76.148 158.212 75.113 159.017 72.744C159.822 70.283 160.328 67.063 160.535 63.567ZM158.626 63.636C158.465 66.787 157.89 69.938 157.177 72.1C156.625 73.779 156.096 74.768 155.59 75.251C155.107 75.734 154.578 75.918 154.049 75.918C152.83 75.918 151.657 74.469 151.657 71.709C151.657 67.247 154.417 64.027 158.626 63.636ZM178.245 70.628C176.152 71.456 174.45 72.698 173.553 73.917C173.116 74.538 172.863 75.182 172.863 75.849C172.863 77.045 173.645 78.034 174.703 78.724C175.623 79.368 176.635 79.69 177.44 79.69C179.142 79.69 180.039 78.816 180.039 77.045V71.824C181.603 71.272 183.328 70.95 184.869 70.95C187.928 70.95 189.469 72.353 189.469 74.561C189.469 76.562 188.135 77.712 186.571 77.712C185.49 77.712 184.754 77.252 184.156 76.447C183.949 76.148 183.673 76.033 183.397 76.033C183.167 76.033 182.96 76.102 182.753 76.24C182.5 76.424 182.362 76.7 182.362 76.999C182.362 77.206 182.431 77.436 182.569 77.643C183.466 78.977 184.915 79.598 186.617 79.598C189.377 79.598 191.401 77.62 191.401 74.538C191.401 71.272 188.986 69.271 184.938 69.271C183.351 69.271 181.649 69.57 180.039 70.053V66.028C181.626 65.89 183.167 65.706 184.455 65.453C184.892 65.361 185.168 65.085 185.168 64.625C185.168 64.556 185.168 64.464 185.145 64.372C185.053 63.912 184.754 63.682 184.34 63.682C184.271 63.682 184.202 63.682 184.11 63.705C182.937 63.935 181.511 64.119 180.039 64.234V60.738C180.039 60.209 179.694 59.91 179.142 59.91C178.613 59.91 178.245 60.186 178.245 60.715V64.372C176.727 64.487 175.209 64.533 173.921 64.533C173.415 64.533 173.139 64.878 173.139 65.43C173.139 65.936 173.438 66.327 173.944 66.327C175.255 66.327 176.796 66.281 178.245 66.189V70.628ZM178.245 76.631C178.245 77.505 177.946 77.804 177.256 77.804C176.819 77.804 176.198 77.597 175.715 77.275C175.163 76.907 174.726 76.401 174.726 75.849C174.726 75.504 174.864 75.09 175.14 74.722C175.669 74.009 176.796 73.158 178.245 72.491V76.631ZM187.675 62.026C187.514 61.934 187.307 61.888 187.146 61.888C186.847 61.888 186.594 62.003 186.41 62.233C186.249 62.44 186.18 62.647 186.18 62.854C186.18 63.107 186.318 63.337 186.571 63.498C188.02 64.395 189.722 65.867 190.895 67.224C191.102 67.454 191.355 67.546 191.608 67.546C191.861 67.546 192.091 67.454 192.298 67.27C192.482 67.086 192.574 66.833 192.574 66.58C192.574 66.35 192.482 66.097 192.321 65.89C191.148 64.487 189.239 62.923 187.675 62.026ZM199.865 76.999C199.06 76.424 198.37 75.711 197.818 74.883C197.933 74.17 198.025 73.434 198.071 72.698C198.071 72.675 198.071 72.652 198.071 72.629C198.071 72.192 197.841 71.916 197.312 71.893C197.289 71.893 197.266 71.893 197.243 71.893C196.783 71.893 196.461 72.123 196.438 72.537C196.323 75.113 195.656 77.505 194.506 79.23C194.414 79.368 194.368 79.506 194.368 79.644C194.368 79.92 194.552 80.196 194.851 80.38C194.989 80.449 195.15 80.495 195.288 80.495C195.61 80.495 195.886 80.334 196.047 80.081C196.622 79.138 197.082 77.942 197.427 76.608C198.462 78.011 199.842 79 202.05 79.644C204.028 80.219 206.328 80.357 209.548 80.357C211.388 80.357 213.343 80.311 215.689 80.127C216.31 80.081 216.563 79.874 216.563 79.322C216.563 78.816 216.241 78.517 215.804 78.517C215.781 78.517 215.781 78.517 215.758 78.517C213.688 78.609 211.388 78.724 208.835 78.724C208.421 78.724 208.03 78.724 207.616 78.724C205.017 78.678 202.763 78.379 201.452 77.896V74.607H204.097C204.511 74.607 204.741 74.285 204.741 73.848C204.741 73.411 204.511 73.135 204.097 73.135H201.452V70.789H204.603C205.017 70.789 205.224 70.49 205.224 70.053C205.224 69.616 205.017 69.317 204.603 69.317H195.426C194.989 69.317 194.782 69.616 194.782 70.053C194.782 70.49 194.989 70.789 195.426 70.789H199.865V76.999ZM209.824 61.888C209.64 62.509 209.456 63.13 209.226 63.728H207.823C206.512 63.728 205.96 64.188 205.96 65.407V72.767C205.96 74.009 206.512 74.446 207.823 74.446H213.274C214.585 74.446 215.16 74.009 215.16 72.767V65.476C215.16 64.234 214.562 63.728 213.251 63.728H210.79C211.043 63.13 211.25 62.509 211.411 61.888H215.597C216.011 61.888 216.218 61.566 216.218 61.129C216.218 60.692 216.011 60.393 215.597 60.393H205.822C205.431 60.393 205.224 60.692 205.224 61.129C205.224 61.566 205.431 61.888 205.822 61.888H209.824ZM207.547 66.856V65.568C207.547 65.154 207.777 65.016 208.214 65.016H212.883C213.32 65.016 213.55 65.154 213.55 65.568V66.856H207.547ZM207.547 69.846V68.121H213.55V69.846H207.547ZM207.547 71.111H213.55V72.583C213.55 72.997 213.32 73.135 212.883 73.135H208.214C207.777 73.135 207.547 72.997 207.547 72.583V71.111ZM205.155 76.792C204.902 76.884 204.718 77.091 204.718 77.39C204.718 77.482 204.741 77.574 204.764 77.689C204.902 78.08 205.224 78.218 205.523 78.218C205.661 78.218 205.776 78.195 205.891 78.149C206.926 77.781 208.145 77.045 208.996 76.401C209.203 76.24 209.295 76.079 209.295 75.872C209.295 75.711 209.203 75.527 209.019 75.343C208.858 75.182 208.651 75.09 208.467 75.09C208.283 75.09 208.122 75.159 207.961 75.274C207.34 75.757 206.236 76.447 205.155 76.792ZM214.654 78.057C214.769 78.126 214.907 78.149 215.045 78.149C215.344 78.149 215.62 77.988 215.781 77.643C215.827 77.528 215.85 77.413 215.85 77.298C215.85 77.045 215.689 76.815 215.344 76.677C214.585 76.355 213.412 75.711 212.63 75.136C212.515 75.044 212.377 74.998 212.216 74.998C211.986 74.998 211.756 75.09 211.595 75.297C211.457 75.481 211.388 75.665 211.388 75.826C211.388 76.01 211.48 76.171 211.664 76.332C212.607 77.022 213.688 77.643 214.654 78.057ZM197.864 60.232C196.691 60.232 196.116 60.669 196.116 61.796V66.442C196.116 67.546 196.691 67.983 197.864 67.983H202.648C203.821 67.983 204.419 67.546 204.419 66.442V61.796C204.419 60.669 203.821 60.232 202.648 60.232H197.864ZM197.726 63.429V62.072C197.726 61.681 197.933 61.566 198.324 61.566H202.211C202.602 61.566 202.809 61.681 202.809 62.072V63.429H197.726ZM202.809 64.74V66.12C202.809 66.511 202.602 66.649 202.211 66.649H198.324C197.933 66.649 197.726 66.511 197.726 66.12V64.74H202.809ZM232.617 64.901C234.319 67.155 235.791 70.283 236.596 72.744C236.734 73.227 237.079 73.457 237.47 73.457C237.608 73.457 237.746 73.411 237.907 73.365C238.275 73.25 238.482 72.928 238.482 72.537C238.482 72.399 238.459 72.261 238.413 72.123C237.631 69.501 235.975 66.189 234.273 63.935C234.066 63.659 233.767 63.521 233.445 63.521C233.284 63.521 233.1 63.567 232.939 63.659C232.64 63.82 232.456 64.119 232.456 64.441C232.456 64.602 232.502 64.763 232.617 64.901ZM223.693 65.338C222.198 65.453 220.289 65.683 218.909 65.89C218.426 65.959 218.127 66.304 218.127 66.741C218.127 66.81 218.127 66.856 218.15 66.925C218.219 67.408 218.541 67.661 218.932 67.661C219.001 67.661 219.07 67.661 219.139 67.638C220.45 67.454 222.083 67.224 223.256 67.132C222.957 68.259 222.566 69.363 222.198 70.444C221.163 73.365 219.921 75.987 218.541 78.195C218.426 78.402 218.357 78.586 218.357 78.793C218.357 79.115 218.541 79.414 218.863 79.598C219.024 79.69 219.208 79.759 219.392 79.759C219.691 79.759 220.013 79.575 220.243 79.184C221.646 76.907 222.888 74.124 223.969 71.019C224.429 69.685 224.843 68.328 225.211 66.994C225.786 66.948 226.407 66.902 227.189 66.902C229.351 66.902 230.018 67.753 230.018 70.306C230.018 72.353 229.719 74.538 229.351 75.826C228.937 77.298 228.339 77.712 227.373 77.712C226.522 77.712 225.602 77.459 224.935 77.137C224.728 77.022 224.521 76.976 224.337 76.976C224.015 76.976 223.739 77.16 223.601 77.482C223.532 77.62 223.486 77.781 223.486 77.942C223.486 78.287 223.67 78.609 223.992 78.793C224.935 79.322 226.223 79.621 227.327 79.621C229.167 79.621 230.478 78.793 231.122 76.539C231.605 74.883 231.927 72.606 231.927 70.398C231.927 66.81 230.547 65.2 227.396 65.2C226.844 65.2 226.292 65.223 225.625 65.246C225.924 63.981 226.223 62.624 226.407 61.313C226.407 61.244 226.407 61.175 226.407 61.106C226.407 60.669 226.131 60.393 225.602 60.324C225.51 60.324 225.441 60.301 225.372 60.301C224.912 60.301 224.567 60.508 224.498 61.106C224.291 62.509 224.038 63.935 223.693 65.338ZM234.043 61.014C234.043 61.221 234.135 61.405 234.273 61.566C234.917 62.279 235.607 63.222 236.09 64.073C236.228 64.349 236.412 64.464 236.688 64.464C237.125 64.464 237.447 64.165 237.447 63.82C237.447 63.521 237.355 63.36 237.286 63.222C236.849 62.463 236.021 61.359 235.308 60.646C235.124 60.462 234.963 60.393 234.71 60.393C234.342 60.393 234.043 60.715 234.043 61.014ZM236.573 59.519C236.573 59.795 236.642 59.91 236.849 60.117C237.47 60.784 238.068 61.681 238.574 62.555C238.735 62.808 238.896 62.923 239.172 62.923C239.609 62.923 239.885 62.555 239.885 62.279C239.885 62.026 239.816 61.842 239.747 61.704C239.333 60.968 238.459 59.772 237.861 59.197C237.654 59.013 237.493 58.921 237.24 58.921C236.918 58.921 236.573 59.22 236.573 59.519ZM250.465 69.777V78.379H244.669C244.117 78.379 243.864 78.149 243.864 77.597V72.491C243.864 71.962 243.496 71.709 242.944 71.709C242.369 71.709 242.024 71.962 242.024 72.491V77.942C242.024 79.437 242.783 80.104 244.186 80.104H258.768C260.171 80.104 260.953 79.46 260.953 77.965V72.468C260.953 71.962 260.585 71.709 260.033 71.709C259.481 71.709 259.113 71.962 259.113 72.468V77.597C259.113 78.149 258.837 78.379 258.285 78.379H252.328V69.777H257.871C259.251 69.777 260.01 69.133 260.01 67.73V62.486C260.01 62.003 259.619 61.773 259.09 61.773C258.538 61.773 258.193 62.003 258.193 62.486V67.362C258.193 67.914 257.963 68.098 257.434 68.098H252.328V60.6C252.328 60.14 251.937 59.864 251.385 59.864C250.833 59.864 250.465 60.14 250.465 60.6V68.098H245.589C245.06 68.098 244.83 67.914 244.83 67.362V62.463C244.83 62.003 244.439 61.773 243.91 61.773C243.358 61.773 243.013 62.003 243.013 62.463V67.73C243.013 69.133 243.772 69.777 245.129 69.777H250.465ZM278.962 71.525C277.605 70.95 275.558 70.444 273.419 70.444C269.095 70.444 266.312 72.169 266.312 75.044C266.312 78.034 269.049 79.805 273.971 79.805C276.478 79.805 278.824 79.483 280.71 78.908C281.216 78.77 281.469 78.448 281.469 78.011C281.469 77.896 281.446 77.758 281.4 77.62C281.308 77.229 280.986 77.022 280.572 77.022C280.457 77.022 280.319 77.045 280.181 77.068C278.41 77.574 276.11 77.919 273.902 77.919C270.521 77.919 268.29 76.93 268.29 75.067C268.29 73.043 270.406 72.077 273.603 72.077C276.202 72.077 278.686 72.698 280.204 73.503C280.526 73.687 280.825 73.779 281.101 73.779C281.331 73.779 281.538 73.71 281.745 73.526C281.929 73.319 282.044 73.066 282.044 72.79C282.044 72.537 281.952 72.284 281.722 72.054C279.767 70.191 277.996 68.121 276.777 66.005C278.502 65.729 280.503 65.338 282.113 64.832C282.527 64.717 282.734 64.372 282.734 64.004C282.734 63.889 282.711 63.774 282.688 63.659C282.527 63.245 282.251 63.038 281.883 63.038C281.768 63.038 281.63 63.061 281.492 63.107C279.859 63.59 277.835 64.004 275.811 64.28C275.213 63.153 274.73 62.003 274.339 60.807C274.178 60.301 273.879 60.117 273.488 60.117C273.373 60.117 273.258 60.14 273.143 60.163C272.729 60.255 272.43 60.508 272.43 60.922C272.43 61.037 272.453 61.175 272.499 61.313C272.89 62.394 273.373 63.521 273.948 64.556C271.625 64.832 268.888 64.947 266.381 64.947C265.852 64.947 265.507 65.315 265.507 65.844C265.507 66.442 265.852 66.81 266.404 66.81C269.325 66.81 272.269 66.603 274.914 66.258C276.179 68.397 277.605 70.099 279.031 71.41L278.962 71.525ZM293.82 65.683C294.05 65.476 294.165 65.223 294.165 64.97C294.165 64.579 293.843 64.257 293.314 64.257C293.291 64.257 293.268 64.257 293.245 64.257C293.291 63.13 293.337 62.072 293.406 60.968C293.406 60.945 293.406 60.922 293.406 60.922C293.406 60.347 293.061 60.071 292.532 60.071C292.509 60.071 292.486 60.071 292.463 60.071C291.911 60.071 291.566 60.37 291.566 60.945C291.52 62.141 291.474 63.291 291.451 64.372C290.324 64.464 289.105 64.533 287.932 64.648C287.518 64.694 287.219 65.085 287.219 65.591C287.219 65.637 287.219 65.66 287.219 65.706C287.242 66.143 287.587 66.465 288.047 66.465C288.07 66.465 288.116 66.465 288.139 66.465C289.266 66.35 290.416 66.258 291.405 66.166C291.359 67.454 291.336 68.604 291.313 69.823C289.818 71.433 288.392 73.227 287.196 74.745C287.035 74.952 286.943 75.205 286.943 75.435C286.943 75.688 287.058 75.941 287.265 76.125C287.449 76.286 287.679 76.378 287.886 76.378C288.162 76.378 288.415 76.263 288.645 75.964C289.243 75.159 290.002 74.239 290.669 73.296C290.899 72.974 291.129 72.675 291.382 72.169C291.29 73.089 291.267 73.779 291.267 74.354C291.267 74.745 291.267 75.205 291.267 75.711C291.267 76.93 291.29 78.356 291.29 79.667C291.29 80.173 291.727 80.472 292.21 80.472C292.233 80.472 292.233 80.472 292.256 80.472C292.831 80.472 293.176 80.15 293.176 79.644C293.153 77.436 293.107 75.297 293.107 73.158C293.107 72.261 293.107 71.387 293.13 70.49C294.142 69.363 295.315 68.167 296.189 67.431C298.052 65.89 299.386 65.154 300.72 65.154C301.847 65.154 302.445 65.798 302.445 66.948C302.445 67.799 302.284 68.903 301.962 70.559C301.479 72.997 301.295 74.653 301.295 75.734C301.295 77.942 302.583 78.954 304.331 78.954C306.171 78.954 307.482 77.942 308.379 75.136C308.425 74.998 308.448 74.86 308.448 74.745C308.448 74.377 308.241 74.078 307.85 73.94C307.735 73.894 307.597 73.871 307.482 73.871C307.114 73.871 306.815 74.101 306.677 74.515C306.033 76.424 305.366 76.999 304.469 76.999C303.687 76.999 303.227 76.608 303.227 75.481C303.227 74.584 303.457 73.02 303.94 70.467C304.262 68.765 304.4 67.776 304.4 66.58C304.4 64.694 303.135 63.383 300.996 63.383C299.317 63.383 297.73 64.165 295.775 65.706C295.131 66.212 294.395 66.902 293.774 67.523C293.521 67.776 293.245 68.121 293.038 68.397C293.107 68.006 293.13 67.73 293.153 67.362C293.153 67.086 293.153 66.672 293.176 66.258L293.82 65.683ZM317.625 69.34C318.269 68.972 319.051 68.443 319.695 68.006C321.558 66.764 323.72 65.108 325.698 63.268C325.997 62.969 326.135 62.647 326.135 62.325C326.135 62.072 326.066 61.865 325.951 61.658C325.721 61.267 325.33 61.083 324.801 61.083C324.732 61.083 324.663 61.083 324.594 61.083C321.535 61.29 317.602 61.405 314.497 61.405C313.968 61.405 313.692 61.819 313.692 62.348C313.692 62.9 314.06 63.245 314.543 63.245C317.487 63.222 321.006 63.084 323.513 62.877C320.615 65.43 315.509 69.179 311.714 71.502C311.369 71.686 311.185 72.031 311.185 72.376C311.185 72.56 311.231 72.721 311.346 72.882C311.53 73.181 311.852 73.319 312.174 73.319C312.381 73.319 312.588 73.273 312.795 73.158C316.567 70.812 319.35 69.8 322.409 69.8C325.675 69.8 327.469 71.387 327.469 73.572C327.469 75.711 325.721 77.16 323.375 77.712C322.984 74.676 320.937 73.181 318.453 73.181C316.199 73.181 314.704 74.492 314.704 76.286C314.704 78.425 316.912 79.851 320.316 79.851C325.928 79.851 329.447 77.413 329.447 73.549C329.447 70.421 326.917 68.236 322.777 68.236C321.144 68.236 319.465 68.627 317.671 69.432L317.625 69.34ZM321.581 78.126C321.029 78.172 320.454 78.172 319.902 78.172C317.855 78.149 316.475 77.275 316.475 76.217C316.475 75.366 317.165 74.745 318.361 74.745C319.948 74.745 321.397 75.872 321.581 78.126ZM345.202 72.767C345.133 72.169 345.064 71.525 344.972 70.881C344.719 68.88 344.604 67.753 344.581 66.879C347.042 66.833 349.618 66.58 351.343 66.258C351.941 66.143 352.171 65.775 352.171 65.338C352.171 65.246 352.171 65.177 352.148 65.085C352.079 64.602 351.734 64.326 351.274 64.326C351.182 64.326 351.113 64.326 351.021 64.349C349.227 64.694 346.858 64.947 344.489 65.016C344.443 63.843 344.443 62.555 344.443 61.083C344.443 60.439 344.121 60.14 343.5 60.14C342.925 60.14 342.534 60.393 342.534 61.083C342.534 63.383 342.603 65.246 342.718 66.971C342.81 68.282 342.948 69.662 343.132 71.065C343.178 71.456 343.224 71.87 343.27 72.261C342.212 72.054 341.2 71.962 340.211 71.962C336.715 71.962 334.507 73.618 334.507 76.01C334.507 78.379 336.876 79.897 339.797 79.897C343.224 79.897 345.432 78.701 345.455 76.148C345.455 75.757 345.455 75.366 345.432 74.929C346.996 75.596 348.882 76.907 350.4 78.402C350.676 78.655 350.975 78.77 351.251 78.77C351.527 78.77 351.803 78.632 351.987 78.425C352.171 78.195 352.263 77.942 352.263 77.689C352.263 77.367 352.125 77.045 351.826 76.815C350.078 75.228 347.962 73.871 346.03 73.089C345.754 72.974 345.478 72.859 345.202 72.767ZM343.477 74.193C343.523 74.699 343.546 75.182 343.546 75.642C343.546 77.39 341.959 78.08 339.728 78.08C337.681 78.08 336.416 77.16 336.416 75.987C336.416 74.63 337.75 73.733 340.119 73.733C341.269 73.733 342.396 73.894 343.477 74.193ZM365.534 73.986C365.534 74.515 365.971 74.768 366.454 74.768C366.914 74.768 367.351 74.515 367.374 73.986L367.696 62.21C367.719 61.566 367.213 61.152 366.477 61.152C365.718 61.152 365.212 61.566 365.212 62.21L365.534 73.986ZM366.454 76.171C365.557 76.171 364.867 76.792 364.867 77.758C364.867 78.724 365.557 79.345 366.454 79.345C367.305 79.345 368.041 78.724 368.041 77.758C368.041 76.792 367.305 76.171 366.454 76.171ZM111.755 112.643C111.847 112.85 111.939 113.08 112.031 113.264C112.169 113.517 112.399 113.655 112.675 113.655C112.813 113.655 112.974 113.609 113.135 113.54C113.48 113.356 113.641 113.08 113.641 112.758C113.641 112.597 113.595 112.436 113.526 112.298C113.365 111.953 113.25 111.654 113.135 111.378C114.722 109.722 116.24 106.916 116.999 104.064C119.69 104.409 121.116 106.065 121.116 108.365C121.116 111.148 118.747 113.287 114.653 113.494C114.193 113.517 113.848 113.816 113.848 114.345C113.848 114.345 113.848 114.368 113.848 114.391C113.871 114.874 114.216 115.265 114.768 115.265C114.791 115.265 114.791 115.265 114.814 115.265C119.759 115.081 123.048 112.183 123.048 108.457C123.048 105.375 121.139 103.121 117.39 102.546C117.459 102.247 117.528 101.948 117.574 101.672C117.574 101.626 117.574 101.58 117.574 101.534C117.574 101.143 117.298 100.867 116.838 100.821C116.769 100.798 116.7 100.798 116.654 100.798C116.24 100.798 115.964 101.005 115.895 101.373C115.849 101.649 115.78 101.994 115.688 102.385C114.009 102.385 112.698 102.615 111.755 102.868C111.755 102.661 111.755 102.454 111.755 102.247C111.755 101.373 111.778 100.522 111.801 99.671C114.952 99.556 117.873 99.349 120.426 99.004C120.955 98.935 121.231 98.636 121.231 98.176C121.231 98.13 121.231 98.084 121.231 98.015C121.162 97.532 120.863 97.256 120.403 97.256C120.357 97.256 120.288 97.256 120.242 97.256C117.689 97.647 114.883 97.854 111.939 97.969C111.985 97.187 112.031 96.474 112.1 95.807C112.1 95.761 112.1 95.715 112.1 95.692C112.1 95.255 111.87 95.002 111.318 94.956C111.272 94.956 111.249 94.956 111.203 94.956C110.697 94.956 110.375 95.255 110.329 95.692C110.26 96.405 110.214 97.233 110.191 98.038C109.156 98.061 108.144 98.061 107.155 98.061C106.764 98.061 106.35 98.061 105.959 98.061C105.453 98.061 105.154 98.406 105.154 98.889C105.154 99.441 105.43 99.763 106.028 99.786C107.385 99.786 108.811 99.763 110.099 99.74C110.076 100.637 110.053 101.557 110.053 102.477C110.053 102.822 110.053 103.144 110.076 103.466C106.856 104.892 104.556 107.629 104.556 110.688C104.556 112.942 105.89 114.253 107.684 114.253C108.903 114.253 110.191 113.885 111.755 112.643ZM111.157 110.941C109.915 112.045 108.765 112.459 107.914 112.459C106.971 112.459 106.304 111.838 106.304 110.573C106.304 108.664 107.638 106.502 110.168 105.145C110.283 107.261 110.628 109.331 111.157 110.941ZM112.514 109.584C112.1 108.089 111.847 106.318 111.801 104.409C112.445 104.156 113.687 103.857 115.366 103.857C114.768 106.088 113.687 108.135 112.514 109.584ZM141.149 98.268C141.011 98.222 140.873 98.199 140.735 98.199C140.39 98.199 140.091 98.36 139.884 98.682C139.792 98.843 139.746 99.027 139.746 99.211C139.746 99.51 139.884 99.786 140.183 99.901C141.908 100.591 143.633 101.488 144.99 102.431C145.174 102.546 145.358 102.615 145.565 102.615C145.864 102.615 146.163 102.454 146.347 102.178C146.439 102.017 146.485 101.833 146.485 101.649C146.485 101.35 146.347 101.005 146.025 100.798C144.737 99.924 142.897 98.935 141.149 98.268ZM133.26 100.798C134.64 100.683 135.997 100.568 137.193 100.384C137.745 100.292 138.021 99.947 138.021 99.51C138.021 99.464 138.021 99.418 138.021 99.372C137.929 98.889 137.653 98.613 137.193 98.613C137.124 98.613 137.055 98.613 136.986 98.636C136.02 98.774 134.939 98.866 133.812 98.958C134.065 97.969 134.295 96.98 134.502 96.037C134.525 95.922 134.525 95.83 134.525 95.738C134.525 95.278 134.226 95.025 133.72 94.933C133.628 94.91 133.559 94.91 133.49 94.91C133.03 94.91 132.685 95.163 132.639 95.669C132.409 96.842 132.133 97.992 131.811 99.119C130.822 99.165 129.787 99.188 128.798 99.188C128.453 99.188 128.131 99.188 127.809 99.188C127.28 99.188 126.958 99.533 126.958 100.085C126.958 100.637 127.234 100.982 127.763 100.982C128.062 100.982 128.361 100.982 128.637 100.982C129.534 100.982 130.431 100.959 131.282 100.913C130.339 104.018 128.798 107.307 127.211 109.998C127.073 110.228 127.004 110.481 127.004 110.688C127.004 110.987 127.142 111.263 127.441 111.447C127.671 111.585 127.878 111.654 128.085 111.654C128.407 111.654 128.706 111.447 128.936 111.056C130.661 108.043 132.156 104.409 133.26 100.798ZM142.023 108.618C141.839 106.985 141.747 105.375 141.747 103.397C141.747 102.753 141.356 102.454 140.804 102.454C140.298 102.454 139.907 102.73 139.907 103.397C139.907 104.892 140.022 106.709 140.16 107.997C139.217 107.744 138.274 107.606 137.308 107.606C134.456 107.606 132.501 109.193 132.501 111.401C132.501 113.563 134.41 115.081 137.285 115.081C140.413 115.081 142.023 113.908 142.138 111.401C142.138 111.194 142.138 110.895 142.092 110.619C143.058 111.171 144.185 112.114 145.082 113.011C145.289 113.195 145.542 113.31 145.772 113.31C146.002 113.31 146.232 113.195 146.439 112.988C146.6 112.804 146.692 112.574 146.692 112.344C146.692 112.091 146.577 111.815 146.347 111.585C145.197 110.435 143.564 109.354 142.023 108.618ZM140.298 109.837C140.344 110.297 140.344 110.619 140.344 110.987C140.344 112.62 139.286 113.356 137.331 113.356C135.445 113.356 134.318 112.643 134.318 111.378C134.318 110.113 135.491 109.239 137.354 109.239C138.343 109.239 139.378 109.423 140.298 109.837ZM154.765 100.844C153.684 105.053 152.12 109.423 150.441 112.896C150.349 113.103 150.303 113.31 150.303 113.471C150.303 113.839 150.487 114.138 150.809 114.299C150.993 114.391 151.154 114.437 151.338 114.437C151.683 114.437 152.005 114.23 152.212 113.816C153.983 110.067 155.547 105.26 156.697 100.706C158.56 100.568 160.377 100.361 161.849 100.108C162.24 100.039 162.516 99.694 162.516 99.28C162.516 99.211 162.516 99.119 162.493 99.05C162.424 98.544 162.102 98.314 161.665 98.314C161.596 98.314 161.504 98.314 161.435 98.337C160.216 98.567 158.698 98.751 157.157 98.889C157.387 97.9 157.571 96.957 157.732 96.06C157.755 95.991 157.755 95.922 157.755 95.876C157.755 95.462 157.456 95.117 156.927 95.071C156.858 95.048 156.789 95.048 156.72 95.048C156.237 95.048 155.938 95.278 155.846 95.784C155.662 96.865 155.432 97.946 155.179 99.027C153.684 99.119 152.143 99.142 150.901 99.142C150.326 99.142 150.05 99.487 150.027 99.993C150.027 100.016 150.027 100.039 150.027 100.062C150.027 100.614 150.303 100.936 150.855 100.959C151.016 100.959 151.154 100.959 151.315 100.959C152.373 100.959 153.592 100.89 154.765 100.844ZM165.736 101.603C163.85 101.603 161.573 101.833 159.871 102.155C159.388 102.247 159.135 102.615 159.135 103.029C159.135 103.098 159.135 103.144 159.158 103.213C159.204 103.719 159.572 104.018 160.055 104.018C160.124 104.018 160.193 104.018 160.262 103.995C161.826 103.696 163.988 103.512 165.621 103.512C166.265 103.512 167.07 103.512 167.668 103.535C167.691 103.535 167.737 103.535 167.76 103.535C168.289 103.535 168.634 103.167 168.634 102.638C168.634 102.109 168.312 101.695 167.737 101.672C167.024 101.626 166.334 101.603 165.736 101.603ZM160.055 108.802C160.216 108.641 160.285 108.457 160.285 108.273C160.285 108.02 160.147 107.744 159.917 107.606C159.756 107.514 159.595 107.445 159.411 107.445C159.204 107.445 158.997 107.537 158.79 107.721C157.916 108.526 157.387 109.768 157.387 110.803C157.387 112.252 157.916 113.241 159.227 113.908C160.216 114.414 161.665 114.644 163.505 114.644C165.46 114.644 167.346 114.483 168.703 114.161C169.301 114.023 169.554 113.655 169.554 113.195C169.554 113.126 169.554 113.057 169.531 112.965C169.462 112.528 169.163 112.252 168.68 112.252C168.565 112.252 168.473 112.252 168.358 112.275C167.047 112.551 165.138 112.735 163.367 112.735C161.941 112.735 160.883 112.62 160.216 112.298C159.526 111.953 159.181 111.47 159.181 110.688C159.181 109.998 159.457 109.4 160.055 108.802ZM183.883 98.567C187.954 98.705 190.507 101.534 190.507 105.421C190.507 107.836 189.449 109.699 188 110.78C186.85 111.631 185.079 112.206 183.4 112.436C182.871 112.528 182.572 112.873 182.572 113.333C182.572 113.402 182.572 113.494 182.595 113.563C182.687 114.138 183.078 114.368 183.561 114.368C183.63 114.368 183.722 114.368 183.814 114.345C185.654 114.069 187.31 113.54 188.644 112.689C191.036 111.171 192.439 108.71 192.439 105.467C192.439 100.407 188.851 96.865 183.423 96.865C177.144 96.865 173.142 101.005 173.142 106.732C173.142 110.596 175.051 112.919 177.443 112.919C178.386 112.919 179.352 112.62 180.088 111.907C180.893 111.148 181.56 110.113 182.365 107.744C183.17 105.283 183.676 102.063 183.883 98.567ZM181.974 98.636C181.813 101.787 181.238 104.938 180.525 107.1C179.973 108.779 179.444 109.768 178.938 110.251C178.455 110.734 177.926 110.918 177.397 110.918C176.178 110.918 175.005 109.469 175.005 106.709C175.005 102.247 177.765 99.027 181.974 98.636ZM209.758 110.32C209.528 111.309 209.275 112.137 209.022 112.689C208.631 113.54 208.263 113.724 206.768 113.724C205.986 113.724 204.767 113.586 203.916 113.379C203.847 113.356 203.755 113.356 203.686 113.356C203.341 113.356 203.042 113.586 202.927 114.046C202.904 114.138 202.881 114.253 202.881 114.322C202.881 114.736 203.111 115.035 203.479 115.127C204.33 115.334 205.641 115.472 206.906 115.472C209.183 115.472 209.919 114.943 210.517 113.563C210.862 112.735 211.207 111.608 211.483 110.32H215.784C216.175 110.32 216.405 109.952 216.405 109.492C216.405 109.032 216.175 108.687 215.784 108.687H211.782C211.92 107.928 212.012 107.123 212.081 106.341C212.104 106.249 212.104 106.157 212.104 106.065C212.104 104.938 211.437 104.432 210.08 104.432H201.708C201.294 104.432 201.133 104.363 201.133 104.179C201.133 104.11 201.156 104.018 201.202 103.926C201.409 103.443 201.685 102.707 201.961 101.879H212.311C212.679 101.879 212.909 101.511 212.909 101.051C212.909 100.591 212.679 100.269 212.311 100.269H202.467C202.628 99.717 202.789 99.165 202.904 98.659C202.927 98.59 202.927 98.498 202.927 98.429C202.927 98.084 202.697 97.808 202.237 97.739C202.145 97.716 202.076 97.716 202.007 97.716C201.593 97.716 201.317 97.923 201.248 98.314C200.811 100.338 199.983 102.73 199.339 104.202C199.224 104.478 199.178 104.708 199.178 104.938C199.178 105.582 199.661 105.973 200.535 105.973H209.643C210.08 105.973 210.333 106.111 210.333 106.502C210.333 106.525 210.333 106.548 210.333 106.594C210.264 107.284 210.172 107.997 210.057 108.687H196.004C195.613 108.687 195.383 109.032 195.383 109.492C195.383 109.952 195.613 110.32 196.004 110.32H209.758ZM197.936 95.416C196.579 95.416 195.912 95.968 195.912 97.302V99.832C195.912 100.269 196.257 100.499 196.786 100.499C197.338 100.499 197.683 100.269 197.683 99.832V97.693C197.683 97.187 197.959 97.049 198.419 97.049H213.277C213.737 97.049 213.99 97.187 213.99 97.693V99.786C213.99 100.223 214.335 100.453 214.887 100.453C215.416 100.453 215.738 100.223 215.738 99.786V97.302C215.738 95.968 215.094 95.416 213.737 95.416H197.936ZM229.515 99.418V97.9H238.347C238.761 97.9 238.968 97.578 238.968 97.118C238.968 96.681 238.761 96.359 238.347 96.359H229.515V95.002C229.515 94.611 229.239 94.404 228.687 94.404C228.181 94.404 227.859 94.611 227.859 95.002V96.359H219.349C218.935 96.359 218.705 96.681 218.705 97.141C218.705 97.578 218.935 97.9 219.349 97.9H227.859V99.418H223.144C221.856 99.418 221.258 99.924 221.258 101.12V107.307C221.258 108.503 221.879 109.009 223.167 109.009H234.529C235.794 109.009 236.415 108.503 236.415 107.307V101.12C236.415 99.924 235.817 99.418 234.552 99.418H229.515ZM222.96 102.224V101.304C222.96 100.89 223.167 100.752 223.604 100.752H234.069C234.506 100.752 234.713 100.89 234.713 101.304V102.224H222.96ZM222.96 104.892V103.512H234.713V104.892H222.96ZM222.96 106.18H234.713V107.1C234.713 107.514 234.506 107.629 234.069 107.629H223.604C223.167 107.629 222.96 107.514 222.96 107.1V106.18ZM238.692 111.723C239.106 111.723 239.313 111.401 239.313 110.941C239.313 110.504 239.106 110.205 238.692 110.205H218.981C218.59 110.205 218.36 110.504 218.36 110.964C218.36 111.401 218.59 111.723 218.981 111.723H238.692ZM225.053 112.367C223.811 113.103 221.672 113.931 219.464 114.299C219.073 114.368 218.843 114.667 218.843 115.035C218.843 115.104 218.843 115.196 218.866 115.265C218.981 115.771 219.303 115.978 219.671 115.978C219.74 115.978 219.809 115.978 219.855 115.955C222.155 115.61 224.478 114.667 226.042 113.724C226.364 113.54 226.525 113.264 226.525 113.011C226.525 112.827 226.456 112.666 226.318 112.505C226.134 112.298 225.881 112.206 225.605 112.206C225.421 112.206 225.214 112.252 225.053 112.367ZM238.462 114.299C236.875 114 234.552 113.425 232.597 112.39C232.367 112.275 232.16 112.206 231.976 112.206C231.7 112.206 231.47 112.321 231.286 112.528C231.125 112.689 231.056 112.873 231.056 113.057C231.056 113.31 231.217 113.563 231.539 113.747C233.448 114.874 236.024 115.587 238.094 115.955C238.163 115.978 238.232 115.978 238.278 115.978C238.715 115.978 239.037 115.702 239.106 115.242C239.129 115.196 239.129 115.127 239.129 115.081C239.129 114.667 238.83 114.368 238.462 114.299ZM244.051 97.095C243.545 97.095 243.223 97.509 243.223 98.061C243.223 98.636 243.522 99.05 244.051 99.05H257.46C258.173 99.05 258.472 99.211 258.472 99.809C258.472 99.924 258.472 100.039 258.449 100.154C257.69 106.341 253.182 110.688 246.558 112.436C246.098 112.574 245.822 112.942 245.822 113.402C245.822 113.517 245.845 113.655 245.868 113.77C246.006 114.184 246.305 114.414 246.742 114.414C246.88 114.414 247.018 114.391 247.156 114.345C254.792 112.459 259.622 107.215 260.611 100.223C260.634 99.993 260.657 99.786 260.657 99.579C260.657 98.912 260.519 98.337 260.174 97.923C259.737 97.371 259.07 97.095 257.966 97.095H244.051ZM278.16 102.454L278.114 100.154C278.114 100.131 278.114 100.131 278.114 100.108C278.114 99.694 277.792 99.418 277.24 99.418C276.711 99.418 276.32 99.694 276.32 100.154L276.343 102.454L267.948 102.5C267.534 102.5 267.258 102.845 267.258 103.351C267.258 103.811 267.534 104.179 267.948 104.179L275.423 104.156C273.629 107.215 270.478 110.021 267.442 111.332C267.097 111.47 266.913 111.792 266.913 112.137C266.913 112.298 266.959 112.459 267.028 112.597C267.166 112.919 267.442 113.103 267.787 113.103C267.925 113.103 268.063 113.08 268.224 113.011C270.501 112.022 272.985 110.113 274.825 107.905C275.492 107.077 276.09 106.203 276.504 105.329H276.55C276.481 106.065 276.412 106.686 276.412 107.33L276.481 114.437C276.481 114.897 276.826 115.196 277.424 115.196C277.953 115.196 278.321 114.897 278.321 114.414L278.16 104.133L281.656 104.11C282.07 104.11 282.323 103.811 282.323 103.282C282.323 102.799 282.07 102.454 281.656 102.454H278.16ZM297.52 112.068C297.52 113.54 298.21 114.276 299.498 114.276C299.82 114.276 300.188 114.23 300.602 114.138C303.316 113.471 306.122 110.642 307.525 107.169C307.594 107.008 307.617 106.87 307.617 106.755C307.617 106.387 307.41 106.065 307.088 105.927C306.927 105.835 306.743 105.789 306.582 105.789C306.26 105.789 306.007 105.95 305.823 106.318C304.65 108.825 303.339 110.872 300.763 111.999C300.487 112.114 300.257 112.16 300.096 112.16C299.705 112.16 299.521 111.93 299.521 111.516L299.613 96.796C299.613 96.221 299.176 95.876 298.601 95.876C297.98 95.876 297.612 96.221 297.612 96.796L297.52 112.068ZM291.586 101.787C291.586 105.306 291.195 107.606 290.505 109.331C289.838 110.918 288.826 112.114 287.653 112.942C287.354 113.126 287.193 113.425 287.193 113.747C287.193 114 287.262 114.23 287.446 114.437C287.63 114.667 287.929 114.805 288.228 114.805C288.504 114.805 288.803 114.713 289.079 114.483C290.39 113.517 291.517 112.022 292.322 110.228C293.127 108.342 293.587 105.651 293.587 101.948V96.98C293.587 96.359 293.15 96.014 292.575 96.014C291.977 96.014 291.586 96.382 291.586 96.957V101.787ZM324.683 99.763C324.706 99.763 324.752 99.763 324.775 99.763C325.419 99.763 325.626 99.993 325.626 100.407C325.626 100.545 325.603 100.706 325.557 100.89C325.051 103.443 324.154 105.628 322.682 107.537C320.842 105.743 318.68 104.294 317.3 103.466C317.116 103.351 316.909 103.282 316.725 103.282C316.449 103.282 316.196 103.397 315.989 103.65C315.828 103.834 315.736 104.064 315.736 104.271C315.736 104.524 315.874 104.754 316.104 104.915C317.783 105.95 319.669 107.399 321.371 108.986C319.163 111.194 316.472 112.827 312.976 113.862C312.516 114 312.263 114.345 312.263 114.759C312.263 114.874 312.286 115.012 312.332 115.15C312.47 115.541 312.769 115.702 313.16 115.702C313.298 115.702 313.436 115.702 313.597 115.656C317.944 114.483 321.279 112.229 323.648 109.4C325.672 106.985 326.96 104.133 327.535 101.143C327.604 100.821 327.627 100.522 327.627 100.246C327.627 98.82 326.753 97.992 325.327 98.015L317.944 98.13C318.289 97.417 318.611 96.681 318.703 96.221C318.726 96.152 318.726 96.06 318.726 95.991C318.726 95.554 318.381 95.324 317.99 95.255C317.875 95.232 317.737 95.232 317.645 95.232C317.254 95.232 317.001 95.37 316.817 95.83C316.058 97.762 315.23 99.188 314.149 100.545C313.137 101.81 311.872 102.983 310.538 103.926C310.239 104.133 310.101 104.455 310.101 104.777C310.101 104.961 310.17 105.168 310.285 105.329C310.492 105.605 310.745 105.743 311.021 105.743C311.228 105.743 311.435 105.674 311.619 105.536C313.689 104.133 315.621 102.063 316.978 99.901L324.683 99.763ZM325.281 95.324C325.281 95.531 325.373 95.715 325.511 95.876C326.155 96.589 326.845 97.532 327.328 98.383C327.466 98.659 327.65 98.774 327.926 98.774C328.363 98.774 328.685 98.475 328.685 98.13C328.685 97.831 328.593 97.67 328.524 97.532C328.087 96.773 327.259 95.669 326.546 94.956C326.362 94.772 326.201 94.703 325.948 94.703C325.58 94.703 325.281 95.025 325.281 95.324ZM328.294 94.404C328.294 94.68 328.386 94.795 328.57 95.002C329.191 95.715 329.789 96.566 330.295 97.44C330.456 97.693 330.617 97.808 330.893 97.808C331.33 97.808 331.606 97.44 331.606 97.164C331.606 96.911 331.537 96.727 331.468 96.589C331.054 95.853 330.157 94.703 329.582 94.082C329.375 93.875 329.214 93.806 328.961 93.806C328.639 93.806 328.294 94.105 328.294 94.404ZM338.529 100.246C337.034 100.361 335.125 100.591 333.745 100.798C333.262 100.867 332.963 101.212 332.963 101.649C332.963 101.718 332.963 101.787 332.986 101.833C333.055 102.316 333.377 102.569 333.768 102.569C333.837 102.569 333.906 102.569 333.975 102.546C335.286 102.362 336.919 102.132 338.092 102.04C337.793 103.167 337.402 104.271 337.034 105.352C335.999 108.273 334.757 110.895 333.377 113.103C333.239 113.31 333.193 113.517 333.193 113.701C333.193 114.023 333.377 114.322 333.699 114.506C333.86 114.621 334.044 114.667 334.205 114.667C334.527 114.667 334.849 114.506 335.079 114.092C336.482 111.815 337.724 109.032 338.805 105.927C339.265 104.593 339.679 103.236 340.047 101.902C340.622 101.856 341.243 101.81 342.025 101.81C344.187 101.81 344.854 102.661 344.854 105.214C344.854 107.261 344.555 109.446 344.187 110.734C343.773 112.206 343.175 112.62 342.209 112.62C341.358 112.62 340.438 112.367 339.771 112.045C339.564 111.93 339.357 111.884 339.173 111.884C338.851 111.884 338.575 112.068 338.437 112.39C338.345 112.528 338.322 112.689 338.322 112.85C338.322 113.195 338.506 113.517 338.828 113.701C339.771 114.23 341.059 114.529 342.163 114.529C344.003 114.529 345.314 113.701 345.958 111.447C346.441 109.791 346.763 107.514 346.763 105.306C346.763 101.718 345.383 100.108 342.232 100.108C341.68 100.108 341.128 100.131 340.461 100.154C340.76 98.889 341.036 97.532 341.22 96.221C341.243 96.152 341.243 96.083 341.243 96.014C341.243 95.554 340.944 95.278 340.415 95.232C340.346 95.209 340.277 95.209 340.208 95.209C339.748 95.209 339.403 95.416 339.334 96.014C339.127 97.417 338.874 98.843 338.529 100.246ZM353.249 107.031C352.421 104.271 350.627 100.729 348.833 98.498C348.626 98.245 348.327 98.084 348.005 98.084C347.844 98.084 347.683 98.13 347.522 98.222C347.2 98.383 347.016 98.705 347.016 99.004C347.016 99.165 347.062 99.326 347.177 99.464C348.994 101.718 350.581 105.053 351.432 107.652C351.593 108.135 351.915 108.365 352.306 108.365C352.444 108.365 352.605 108.342 352.743 108.273C353.111 108.158 353.318 107.859 353.318 107.445C353.318 107.33 353.295 107.169 353.249 107.031ZM362.173 95.715C362.081 95.692 362.012 95.692 361.92 95.692C361.529 95.692 361.184 95.968 361.069 96.405C361.046 96.52 361.023 96.612 361.023 96.727C361.023 97.118 361.253 97.486 361.69 97.601C364.289 98.291 368.061 98.935 370.89 99.119C370.913 99.119 370.959 99.119 370.982 99.119C371.534 99.119 371.948 98.774 372.017 98.222C372.017 98.176 372.017 98.153 372.017 98.107C372.017 97.624 371.603 97.21 371.097 97.164C368.291 96.934 364.565 96.382 362.173 95.715ZM360.08 106.732C360.241 106.226 360.333 105.789 360.402 105.26C360.494 104.524 360.885 102.684 361.299 100.936C361.322 100.844 361.322 100.752 361.322 100.66C361.322 100.223 361.023 99.947 360.54 99.878C360.471 99.855 360.402 99.855 360.333 99.855C359.873 99.855 359.551 100.154 359.459 100.637C358.93 102.868 358.447 105.398 358.194 107.79C358.171 107.882 358.171 107.997 358.171 108.066C358.171 108.733 358.47 109.078 358.999 109.17C359.114 109.193 359.229 109.216 359.344 109.216C359.758 109.216 360.103 109.009 360.517 108.595C362.472 106.594 365.094 105.444 368.268 105.444C371.189 105.444 372.73 107.031 372.73 108.779C372.73 111.332 370.062 112.896 365.83 112.896C364.197 112.896 362.311 112.643 361.115 112.298C361 112.275 360.908 112.252 360.793 112.252C360.402 112.252 360.08 112.482 359.942 112.942C359.919 113.034 359.919 113.126 359.919 113.218C359.919 113.701 360.218 114.023 360.655 114.161C361.943 114.575 363.944 114.828 365.853 114.828C371.442 114.828 374.708 112.551 374.708 108.894C374.708 105.881 372.293 103.673 368.36 103.673C364.933 103.673 362.196 104.961 360.195 106.801L360.08 106.732ZM123.986 138.949C124.354 138.949 124.561 138.604 124.561 138.19C124.561 137.776 124.354 137.477 123.986 137.477H114.74V135.775H122.054C122.399 135.775 122.629 135.476 122.629 135.062C122.629 134.671 122.399 134.349 122.054 134.349H114.74V132.854H122.928C123.296 132.854 123.503 132.532 123.503 132.095C123.503 131.704 123.296 131.382 122.928 131.382H114.74V130.071C114.74 129.634 114.418 129.45 113.889 129.45C113.36 129.45 113.061 129.634 113.061 130.071V131.382H105.195C104.827 131.382 104.597 131.704 104.597 132.118C104.597 132.532 104.827 132.854 105.195 132.854H113.061V134.349H106.069C105.724 134.349 105.517 134.671 105.517 135.062C105.517 135.476 105.724 135.775 106.069 135.775H113.061V137.477H104.183C103.815 137.477 103.585 137.776 103.585 138.19C103.585 138.604 103.815 138.949 104.183 138.949H112.049C111.451 139.639 110.807 140.283 110.117 140.858C109.473 140.467 108.852 140.099 108.3 139.8C108.162 139.731 108.024 139.685 107.863 139.685C107.61 139.685 107.357 139.8 107.173 140.03C107.081 140.191 107.035 140.329 107.035 140.49C107.035 140.72 107.15 140.904 107.403 141.042C108.783 141.801 110.14 142.56 111.75 143.687C111.681 143.733 111.635 143.756 111.566 143.802C111.451 143.871 111.336 143.963 111.221 144.032C109.611 144.101 108.001 144.124 106.483 144.124C105.862 144.124 105.264 144.124 104.666 144.101C104.643 144.101 104.62 144.101 104.62 144.101C104.183 144.101 103.907 144.377 103.907 144.86C103.93 145.343 104.16 145.688 104.712 145.688C107.265 145.688 110.14 145.596 113.084 145.435V150.334C113.084 150.748 113.429 151.001 113.958 151.001C114.487 151.001 114.832 150.748 114.832 150.334V145.32C117.063 145.182 119.271 144.998 121.479 144.745C121.985 145.297 122.422 145.849 122.79 146.332C122.997 146.631 123.25 146.746 123.526 146.746C123.733 146.746 123.94 146.677 124.101 146.516C124.285 146.378 124.377 146.148 124.377 145.918C124.377 145.688 124.308 145.458 124.147 145.274C123.181 144.101 121.571 142.491 120.421 141.479C120.214 141.295 119.984 141.226 119.754 141.226C119.547 141.226 119.363 141.295 119.179 141.433C118.972 141.594 118.88 141.778 118.88 141.962C118.88 142.169 118.995 142.376 119.202 142.537C119.547 142.813 119.915 143.135 120.283 143.503C118.121 143.733 115.959 143.848 113.797 143.94C115.384 142.928 116.787 141.801 118.075 140.628C118.213 140.49 118.282 140.329 118.282 140.145C118.282 139.938 118.167 139.731 117.937 139.57C117.753 139.455 117.569 139.409 117.385 139.409C117.132 139.409 116.879 139.501 116.718 139.685C115.752 140.72 114.51 141.755 113.038 142.813C112.463 142.399 111.911 142.008 111.336 141.64C112.325 140.835 113.245 139.915 114.073 138.949H123.986ZM110.416 146.355C110.232 146.194 110.025 146.125 109.818 146.125C109.588 146.125 109.381 146.217 109.197 146.378C108.139 147.436 106.437 148.471 104.896 149.115C104.574 149.253 104.39 149.552 104.39 149.874C104.39 150.012 104.436 150.15 104.505 150.288C104.712 150.61 104.965 150.771 105.264 150.771C105.425 150.771 105.586 150.725 105.747 150.656C107.38 149.966 109.151 148.862 110.439 147.574C110.623 147.39 110.715 147.16 110.715 146.953C110.715 146.746 110.623 146.516 110.416 146.355ZM117.615 146.102C117.385 146.263 117.27 146.47 117.27 146.7C117.27 146.861 117.339 147.045 117.523 147.206C118.926 148.563 120.835 149.828 122.491 150.633C122.606 150.679 122.744 150.702 122.859 150.702C123.227 150.702 123.549 150.495 123.733 150.173C123.802 150.035 123.848 149.897 123.848 149.782C123.848 149.46 123.641 149.161 123.25 148.977C121.87 148.31 120.076 147.16 118.926 146.171C118.696 145.964 118.466 145.872 118.236 145.872C118.006 145.872 117.799 145.964 117.615 146.102ZM147.446 134.924C147.86 134.924 148.09 134.602 148.09 134.142C148.09 133.659 147.86 133.337 147.446 133.337H142.064C142.386 132.325 142.662 131.29 142.846 130.347C142.869 130.278 142.869 130.232 142.869 130.163C142.869 129.772 142.57 129.496 142.11 129.45C142.064 129.427 141.995 129.427 141.926 129.427C141.558 129.427 141.236 129.611 141.167 130.025C140.707 132.716 139.672 135.936 138.246 138.075C138.2 138.144 138.154 138.213 138.131 138.305V137.109C138.131 135.844 137.556 135.384 136.291 135.384H135.509C135.923 134.602 136.222 133.751 136.498 132.923H138.154C138.568 132.923 138.798 132.601 138.798 132.164C138.798 131.727 138.568 131.405 138.154 131.405H133.6V129.956C133.6 129.565 133.232 129.358 132.726 129.358C132.22 129.358 131.852 129.565 131.852 129.956V131.405H127.045C126.631 131.405 126.401 131.727 126.401 132.164C126.401 132.624 126.631 132.923 127.045 132.923H128.977C129.322 133.705 129.621 134.556 129.805 135.384H128.793C127.551 135.384 126.953 135.844 126.953 137.109V150.173C126.953 150.587 127.275 150.794 127.758 150.794C128.264 150.794 128.586 150.587 128.586 150.173V137.408C128.586 136.994 128.793 136.856 129.207 136.856H135.923C136.337 136.856 136.544 136.994 136.544 137.408V147.919C136.544 148.494 136.36 148.655 135.854 148.655C135.302 148.655 134.773 148.563 134.428 148.494C134.382 148.471 134.336 148.471 134.29 148.471C134.014 148.471 133.761 148.678 133.692 149.092C133.669 149.161 133.669 149.253 133.669 149.322C133.669 149.69 133.853 149.943 134.175 150.035C134.681 150.15 135.279 150.242 135.992 150.242C137.372 150.242 138.131 149.69 138.131 148.195V138.949C138.177 139.041 138.223 139.156 138.315 139.248C138.476 139.432 138.637 139.501 138.821 139.501C139.028 139.501 139.235 139.386 139.396 139.156C139.511 139.018 139.626 138.811 139.741 138.627C140.086 140.881 140.868 143.112 142.041 145.09C141.075 146.585 139.879 147.896 138.43 149.023C138.154 149.23 138.016 149.506 138.016 149.782C138.016 149.966 138.085 150.15 138.2 150.311C138.384 150.541 138.637 150.656 138.89 150.656C139.097 150.656 139.304 150.587 139.488 150.426C140.822 149.253 141.995 147.965 142.961 146.539C143.973 147.965 145.192 149.276 146.595 150.426C146.756 150.564 146.963 150.633 147.17 150.633C147.446 150.633 147.722 150.518 147.929 150.242C148.044 150.058 148.113 149.828 148.113 149.621C148.113 149.322 147.998 149.046 147.768 148.885C146.25 147.781 144.962 146.493 143.904 144.998C145.606 141.893 146.319 138.42 146.526 134.924H147.446ZM144.824 134.924C144.778 137.822 144.226 140.835 142.938 143.457C141.834 141.318 141.121 138.972 140.845 136.557C141.075 136.028 141.305 135.476 141.512 134.924H144.824ZM134.819 132.923C134.589 133.774 134.267 134.602 133.876 135.384H131.415C131.185 134.556 130.932 133.728 130.61 132.923H134.819ZM133.324 142.054V140.237H135.509C135.877 140.237 136.084 139.938 136.084 139.524C136.084 139.11 135.877 138.857 135.509 138.857H133.324V137.73C133.324 137.339 133.025 137.155 132.611 137.155C132.174 137.155 131.921 137.339 131.921 137.73V138.857H129.69C129.299 138.857 129.092 139.133 129.092 139.524C129.092 139.938 129.299 140.237 129.69 140.237H131.921V142.054H131.277C130.288 142.054 129.828 142.537 129.828 143.595V146.401C129.828 147.459 130.334 147.942 131.346 147.942H133.761C134.773 147.942 135.279 147.459 135.279 146.401V143.595C135.279 142.537 134.819 142.054 133.83 142.054H133.324ZM131.162 143.871C131.162 143.48 131.346 143.342 131.714 143.342H133.393C133.761 143.342 133.945 143.48 133.945 143.871V146.079C133.945 146.47 133.761 146.585 133.393 146.585H131.714C131.346 146.585 131.162 146.47 131.162 146.079V143.871ZM164.374 133.268C164.236 133.222 164.098 133.199 163.96 133.199C163.615 133.199 163.316 133.36 163.109 133.682C163.017 133.843 162.971 134.027 162.971 134.211C162.971 134.51 163.109 134.786 163.408 134.901C165.133 135.591 166.858 136.488 168.215 137.431C168.399 137.546 168.583 137.615 168.79 137.615C169.089 137.615 169.388 137.454 169.572 137.178C169.664 137.017 169.71 136.833 169.71 136.649C169.71 136.35 169.572 136.005 169.25 135.798C167.962 134.924 166.122 133.935 164.374 133.268ZM156.485 135.798C157.865 135.683 159.222 135.568 160.418 135.384C160.97 135.292 161.246 134.947 161.246 134.51C161.246 134.464 161.246 134.418 161.246 134.372C161.154 133.889 160.878 133.613 160.418 133.613C160.349 133.613 160.28 133.613 160.211 133.636C159.245 133.774 158.164 133.866 157.037 133.958C157.29 132.969 157.52 131.98 157.727 131.037C157.75 130.922 157.75 130.83 157.75 130.738C157.75 130.278 157.451 130.025 156.945 129.933C156.853 129.91 156.784 129.91 156.715 129.91C156.255 129.91 155.91 130.163 155.864 130.669C155.634 131.842 155.358 132.992 155.036 134.119C154.047 134.165 153.012 134.188 152.023 134.188C151.678 134.188 151.356 134.188 151.034 134.188C150.505 134.188 150.183 134.533 150.183 135.085C150.183 135.637 150.459 135.982 150.988 135.982C151.287 135.982 151.586 135.982 151.862 135.982C152.759 135.982 153.656 135.959 154.507 135.913C153.564 139.018 152.023 142.307 150.436 144.998C150.298 145.228 150.229 145.481 150.229 145.688C150.229 145.987 150.367 146.263 150.666 146.447C150.896 146.585 151.103 146.654 151.31 146.654C151.632 146.654 151.931 146.447 152.161 146.056C153.886 143.043 155.381 139.409 156.485 135.798ZM165.248 143.618C165.064 141.985 164.972 140.375 164.972 138.397C164.972 137.753 164.581 137.454 164.029 137.454C163.523 137.454 163.132 137.73 163.132 138.397C163.132 139.892 163.247 141.709 163.385 142.997C162.442 142.744 161.499 142.606 160.533 142.606C157.681 142.606 155.726 144.193 155.726 146.401C155.726 148.563 157.635 150.081 160.51 150.081C163.638 150.081 165.248 148.908 165.363 146.401C165.363 146.194 165.363 145.895 165.317 145.619C166.283 146.171 167.41 147.114 168.307 148.011C168.514 148.195 168.767 148.31 168.997 148.31C169.227 148.31 169.457 148.195 169.664 147.988C169.825 147.804 169.917 147.574 169.917 147.344C169.917 147.091 169.802 146.815 169.572 146.585C168.422 145.435 166.789 144.354 165.248 143.618ZM163.523 144.837C163.569 145.297 163.569 145.619 163.569 145.987C163.569 147.62 162.511 148.356 160.556 148.356C158.67 148.356 157.543 147.643 157.543 146.378C157.543 145.113 158.716 144.239 160.579 144.239C161.568 144.239 162.603 144.423 163.523 144.837ZM186.983 145.32C186.753 146.309 186.5 147.137 186.247 147.689C185.856 148.54 185.488 148.724 183.993 148.724C183.211 148.724 181.992 148.586 181.141 148.379C181.072 148.356 180.98 148.356 180.911 148.356C180.566 148.356 180.267 148.586 180.152 149.046C180.129 149.138 180.106 149.253 180.106 149.322C180.106 149.736 180.336 150.035 180.704 150.127C181.555 150.334 182.866 150.472 184.131 150.472C186.408 150.472 187.144 149.943 187.742 148.563C188.087 147.735 188.432 146.608 188.708 145.32H193.009C193.4 145.32 193.63 144.952 193.63 144.492C193.63 144.032 193.4 143.687 193.009 143.687H189.007C189.145 142.928 189.237 142.123 189.306 141.341C189.329 141.249 189.329 141.157 189.329 141.065C189.329 139.938 188.662 139.432 187.305 139.432H178.933C178.519 139.432 178.358 139.363 178.358 139.179C178.358 139.11 178.381 139.018 178.427 138.926C178.634 138.443 178.91 137.707 179.186 136.879H189.536C189.904 136.879 190.134 136.511 190.134 136.051C190.134 135.591 189.904 135.269 189.536 135.269H179.692C179.853 134.717 180.014 134.165 180.129 133.659C180.152 133.59 180.152 133.498 180.152 133.429C180.152 133.084 179.922 132.808 179.462 132.739C179.37 132.716 179.301 132.716 179.232 132.716C178.818 132.716 178.542 132.923 178.473 133.314C178.036 135.338 177.208 137.73 176.564 139.202C176.449 139.478 176.403 139.708 176.403 139.938C176.403 140.582 176.886 140.973 177.76 140.973H186.868C187.305 140.973 187.558 141.111 187.558 141.502C187.558 141.525 187.558 141.548 187.558 141.594C187.489 142.284 187.397 142.997 187.282 143.687H173.229C172.838 143.687 172.608 144.032 172.608 144.492C172.608 144.952 172.838 145.32 173.229 145.32H186.983ZM175.161 130.416C173.804 130.416 173.137 130.968 173.137 132.302V134.832C173.137 135.269 173.482 135.499 174.011 135.499C174.563 135.499 174.908 135.269 174.908 134.832V132.693C174.908 132.187 175.184 132.049 175.644 132.049H190.502C190.962 132.049 191.215 132.187 191.215 132.693V134.786C191.215 135.223 191.56 135.453 192.112 135.453C192.641 135.453 192.963 135.223 192.963 134.786V132.302C192.963 130.968 192.319 130.416 190.962 130.416H175.161ZM206.74 134.418V132.9H215.572C215.986 132.9 216.193 132.578 216.193 132.118C216.193 131.681 215.986 131.359 215.572 131.359H206.74V130.002C206.74 129.611 206.464 129.404 205.912 129.404C205.406 129.404 205.084 129.611 205.084 130.002V131.359H196.574C196.16 131.359 195.93 131.681 195.93 132.141C195.93 132.578 196.16 132.9 196.574 132.9H205.084V134.418H200.369C199.081 134.418 198.483 134.924 198.483 136.12V142.307C198.483 143.503 199.104 144.009 200.392 144.009H211.754C213.019 144.009 213.64 143.503 213.64 142.307V136.12C213.64 134.924 213.042 134.418 211.777 134.418H206.74ZM200.185 137.224V136.304C200.185 135.89 200.392 135.752 200.829 135.752H211.294C211.731 135.752 211.938 135.89 211.938 136.304V137.224H200.185ZM200.185 139.892V138.512H211.938V139.892H200.185ZM200.185 141.18H211.938V142.1C211.938 142.514 211.731 142.629 211.294 142.629H200.829C200.392 142.629 200.185 142.514 200.185 142.1V141.18ZM215.917 146.723C216.331 146.723 216.538 146.401 216.538 145.941C216.538 145.504 216.331 145.205 215.917 145.205H196.206C195.815 145.205 195.585 145.504 195.585 145.964C195.585 146.401 195.815 146.723 196.206 146.723H215.917ZM202.278 147.367C201.036 148.103 198.897 148.931 196.689 149.299C196.298 149.368 196.068 149.667 196.068 150.035C196.068 150.104 196.068 150.196 196.091 150.265C196.206 150.771 196.528 150.978 196.896 150.978C196.965 150.978 197.034 150.978 197.08 150.955C199.38 150.61 201.703 149.667 203.267 148.724C203.589 148.54 203.75 148.264 203.75 148.011C203.75 147.827 203.681 147.666 203.543 147.505C203.359 147.298 203.106 147.206 202.83 147.206C202.646 147.206 202.439 147.252 202.278 147.367ZM215.687 149.299C214.1 149 211.777 148.425 209.822 147.39C209.592 147.275 209.385 147.206 209.201 147.206C208.925 147.206 208.695 147.321 208.511 147.528C208.35 147.689 208.281 147.873 208.281 148.057C208.281 148.31 208.442 148.563 208.764 148.747C210.673 149.874 213.249 150.587 215.319 150.955C215.388 150.978 215.457 150.978 215.503 150.978C215.94 150.978 216.262 150.702 216.331 150.242C216.354 150.196 216.354 150.127 216.354 150.081C216.354 149.667 216.055 149.368 215.687 149.299ZM224.036 138.811C225.232 137.776 226.29 136.396 227.187 134.878C229.809 134.809 232.684 134.556 235.582 134.142C236.088 134.05 236.364 133.728 236.364 133.291C236.364 133.222 236.364 133.176 236.364 133.13C236.295 132.647 235.996 132.394 235.536 132.394C235.467 132.394 235.398 132.394 235.329 132.417C232.799 132.785 230.062 133.061 228.107 133.13C228.452 132.44 228.751 131.819 229.027 131.152C229.096 131.014 229.119 130.876 229.119 130.761C229.119 130.416 228.866 130.14 228.406 130.048C228.291 130.025 228.199 130.002 228.084 130.002C227.716 130.002 227.394 130.186 227.233 130.669C226.957 131.497 226.543 132.348 226.083 133.176C225.646 133.176 225.209 133.176 224.772 133.176C223.254 133.176 221.782 133.153 220.701 133.061C220.678 133.061 220.655 133.061 220.632 133.061C220.172 133.061 219.85 133.452 219.804 133.912C219.804 133.935 219.804 133.981 219.804 134.004C219.804 134.464 220.103 134.832 220.609 134.855C221.644 134.901 222.955 134.924 224.105 134.924C224.473 134.924 224.841 134.924 225.163 134.924C223.668 137.293 221.69 139.685 219.712 141.525C219.505 141.732 219.39 141.985 219.39 142.261C219.39 142.514 219.482 142.767 219.689 142.951C219.873 143.135 220.08 143.227 220.31 143.227C220.563 143.227 220.839 143.112 221.046 142.882C223.806 140.076 226.336 138.558 228.291 138.558C229.303 138.558 229.993 138.949 230.131 140.352C225.853 141.893 223.737 144.032 223.737 146.217C223.737 148.862 226.175 150.058 230.499 150.058C232.96 150.058 235.191 149.874 236.916 149.575C237.445 149.506 237.767 149.115 237.767 148.632C237.767 148.563 237.767 148.494 237.744 148.402C237.652 147.919 237.353 147.689 236.893 147.689C236.778 147.689 236.686 147.689 236.571 147.712C234.869 148.011 232.569 148.218 230.361 148.218C227.118 148.218 225.623 147.505 225.623 146.148C225.623 144.722 227.049 143.342 230.269 142.1C230.269 142.445 230.269 142.836 230.269 143.204C230.269 143.94 230.269 144.699 230.269 145.32C230.269 145.895 230.591 146.194 231.12 146.194C231.626 146.194 231.994 145.895 232.017 145.32C232.04 144.883 232.04 144.446 232.04 144.009C232.04 143.181 232.017 142.376 231.971 141.548C234.179 140.743 236.341 140.168 238.02 139.731C238.526 139.616 238.756 139.294 238.756 138.88C238.756 138.765 238.733 138.65 238.71 138.512C238.572 138.098 238.273 137.891 237.859 137.891C237.744 137.891 237.606 137.914 237.468 137.937C235.881 138.397 233.88 139.018 231.81 139.754C231.511 137.776 230.292 137.063 228.636 137.063C227.21 137.063 225.922 137.684 224.128 138.949L224.036 138.811ZM248.554 143.986C248.14 147.022 246.001 148.563 242.275 149.23C241.838 149.276 241.585 149.598 241.585 150.035C241.585 150.127 241.608 150.219 241.631 150.334C241.746 150.817 242.091 151.024 242.528 151.024C242.597 151.024 242.689 151.024 242.781 151.001C247.174 150.104 249.911 148.034 250.394 143.986H253.246V148.517C253.246 150.127 253.821 150.449 257.547 150.449C260.767 150.449 261.48 150.035 261.917 149.046C262.216 148.402 262.492 147.275 262.561 146.263C262.561 146.24 262.561 146.217 262.561 146.194C262.561 145.757 262.308 145.481 261.756 145.435C261.687 145.412 261.641 145.412 261.572 145.412C261.135 145.412 260.859 145.642 260.813 146.194C260.744 146.976 260.56 147.827 260.376 148.172C260.123 148.655 259.755 148.839 257.386 148.839C255.247 148.839 255.04 148.724 255.04 147.988V143.986H257.593C259.042 143.986 259.686 143.457 259.686 142.031V132.325C259.686 130.853 259.042 130.301 257.593 130.301H246.507C245.081 130.301 244.414 130.853 244.414 132.325V142.031C244.414 143.457 245.081 143.986 246.507 143.986H248.554ZM257.938 134.326H246.162V132.509C246.162 132.026 246.369 131.888 246.852 131.888H257.248C257.708 131.888 257.938 132.026 257.938 132.509V134.326ZM257.938 138.305H246.162V135.867H257.938V138.305ZM257.938 139.846V141.847C257.938 142.33 257.708 142.468 257.248 142.468H246.852C246.369 142.468 246.162 142.33 246.162 141.847V139.846H257.938ZM277.005 133.176C273.624 133.176 269.507 133.843 266.08 134.97C265.597 135.154 265.321 135.499 265.321 135.959C265.321 136.074 265.344 136.166 265.367 136.281C265.482 136.741 265.827 137.017 266.287 137.017C266.425 137.017 266.586 136.994 266.747 136.925C270.174 135.752 274.061 135.108 277.097 135.108C280.593 135.108 282.41 136.971 282.41 139.685C282.41 142.1 281.237 143.94 278.96 144.975C277.005 145.872 273.854 146.309 271.071 146.309C270.427 146.309 270.082 146.7 270.082 147.321C270.082 147.344 270.082 147.367 270.082 147.39C270.105 148.011 270.519 148.356 271.255 148.356C274.199 148.356 277.58 147.804 279.719 146.861C282.847 145.481 284.434 142.882 284.434 139.685C284.434 135.867 281.927 133.176 277.005 133.176ZM304.375 137.27C305.502 137.155 306.468 136.994 307.365 136.833C307.802 136.764 308.078 136.419 308.078 135.982C308.078 135.913 308.078 135.844 308.055 135.775C308.009 135.338 307.71 135.039 307.25 135.039C307.181 135.039 307.112 135.039 307.02 135.062C306.238 135.223 305.272 135.384 304.329 135.476C304.283 133.866 304.191 132.325 304.099 131.175C304.053 130.6 303.731 130.324 303.202 130.324C303.179 130.324 303.156 130.324 303.133 130.324C302.558 130.37 302.236 130.623 302.236 131.175C302.236 131.221 302.236 131.244 302.236 131.29C302.328 132.463 302.42 134.073 302.466 135.683C301.293 135.775 300.074 135.798 298.832 135.798C297.728 135.798 296.187 135.752 295.382 135.706C295.359 135.706 295.359 135.706 295.336 135.706C294.876 135.706 294.531 136.028 294.508 136.557C294.508 136.58 294.508 136.603 294.508 136.603C294.508 137.109 294.853 137.454 295.313 137.5C296.164 137.569 297.682 137.592 298.947 137.592C300.166 137.592 301.339 137.546 302.512 137.454C302.535 138.075 302.535 138.673 302.535 139.271C302.535 142.399 302.029 144.446 301.27 145.665C300.465 146.976 298.901 147.919 297.429 148.425C297.015 148.563 296.808 148.839 296.808 149.23C296.808 149.368 296.831 149.506 296.9 149.69C297.038 150.104 297.337 150.288 297.728 150.288C297.866 150.288 298.004 150.265 298.165 150.219C300.074 149.621 301.845 148.31 302.834 146.7C303.8 145.136 304.398 142.767 304.398 139.363C304.398 138.65 304.398 137.983 304.375 137.27ZM292.024 130.577C291.955 130.577 291.886 130.577 291.84 130.577C291.311 130.577 290.897 130.83 290.805 131.405C290.161 134.717 289.701 137.96 289.701 140.628C289.701 143.388 290.023 146.286 290.621 148.655C290.782 149.184 291.173 149.414 291.587 149.414C291.702 149.414 291.817 149.391 291.909 149.368C292.323 149.253 292.576 148.977 292.576 148.54C292.576 148.402 292.553 148.264 292.507 148.126C291.955 145.803 291.656 143.089 291.656 140.605C291.656 138.075 292.093 134.855 292.76 131.75C292.783 131.635 292.806 131.543 292.806 131.451C292.806 130.991 292.53 130.646 292.024 130.577ZM321.629 142.767C321.56 142.169 321.491 141.525 321.399 140.881C321.146 138.88 321.031 137.753 321.008 136.879C323.469 136.833 326.045 136.58 327.77 136.258C328.368 136.143 328.598 135.775 328.598 135.338C328.598 135.246 328.598 135.177 328.575 135.085C328.506 134.602 328.161 134.326 327.701 134.326C327.609 134.326 327.54 134.326 327.448 134.349C325.654 134.694 323.285 134.947 320.916 135.016C320.87 133.843 320.87 132.555 320.87 131.083C320.87 130.439 320.548 130.14 319.927 130.14C319.352 130.14 318.961 130.393 318.961 131.083C318.961 133.383 319.03 135.246 319.145 136.971C319.237 138.282 319.375 139.662 319.559 141.065C319.605 141.456 319.651 141.87 319.697 142.261C318.639 142.054 317.627 141.962 316.638 141.962C313.142 141.962 310.934 143.618 310.934 146.01C310.934 148.379 313.303 149.897 316.224 149.897C319.651 149.897 321.859 148.701 321.882 146.148C321.882 145.757 321.882 145.366 321.859 144.929C323.423 145.596 325.309 146.907 326.827 148.402C327.103 148.655 327.402 148.77 327.678 148.77C327.954 148.77 328.23 148.632 328.414 148.425C328.598 148.195 328.69 147.942 328.69 147.689C328.69 147.367 328.552 147.045 328.253 146.815C326.505 145.228 324.389 143.871 322.457 143.089C322.181 142.974 321.905 142.859 321.629 142.767ZM319.904 144.193C319.95 144.699 319.973 145.182 319.973 145.642C319.973 147.39 318.386 148.08 316.155 148.08C314.108 148.08 312.843 147.16 312.843 145.987C312.843 144.63 314.177 143.733 316.546 143.733C317.696 143.733 318.823 143.894 319.904 144.193ZM337.729 132.417C340.443 133.038 344.767 133.567 347.803 133.636C347.826 133.636 347.849 133.636 347.872 133.636C348.47 133.636 348.838 133.314 348.861 132.762C348.861 132.739 348.861 132.716 348.861 132.716C348.861 132.141 348.516 131.727 347.918 131.704C344.882 131.566 340.995 131.129 338.189 130.485C338.12 130.485 338.051 130.485 338.005 130.485C337.522 130.485 337.154 130.738 337.039 131.244C337.016 131.359 336.993 131.451 336.993 131.543C336.993 131.98 337.246 132.302 337.729 132.417ZM350.655 141.111C350.655 138.213 348.516 136.143 344.123 136.143C341.478 136.143 337.867 136.787 335.268 137.592C334.831 137.707 334.555 138.075 334.555 138.535C334.555 138.65 334.578 138.765 334.601 138.88C334.762 139.34 335.107 139.57 335.498 139.57C335.613 139.57 335.728 139.547 335.843 139.524C338.442 138.719 341.754 138.006 344.169 138.006C347.435 138.006 348.654 139.317 348.654 141.203C348.654 143.204 347.619 144.952 345.388 146.217C343.801 147.114 341.317 147.804 339.247 148.08C338.718 148.172 338.419 148.54 338.419 149.023C338.419 149.092 338.419 149.184 338.442 149.253C338.557 149.759 338.879 150.081 339.408 150.081C339.477 150.081 339.546 150.081 339.615 150.058C341.823 149.782 344.399 149.023 346.193 148.034C349.183 146.378 350.655 144.032 350.655 141.111ZM364.961 143.986C364.961 144.515 365.398 144.768 365.881 144.768C366.341 144.768 366.778 144.515 366.801 143.986L367.123 132.21C367.146 131.566 366.64 131.152 365.904 131.152C365.145 131.152 364.639 131.566 364.639 132.21L364.961 143.986ZM365.881 146.171C364.984 146.171 364.294 146.792 364.294 147.758C364.294 148.724 364.984 149.345 365.881 149.345C366.732 149.345 367.468 148.724 367.468 147.758C367.468 146.792 366.732 146.171 365.881 146.171Z" fill="white"/>
</svg>
