<?xml version="1.0" encoding="UTF-8"?><svg xmlns="http://www.w3.org/2000/svg" viewBox="0 0 263.39 125.21"><defs><style>.e,.f,.g{fill:#fff;}.f{opacity:.52;}.g{opacity:.5;}</style></defs><g id="a"/><g id="b"><g id="c"><polygon class="g" points="0 0 96.05 108.49 255.15 107.05 0 0"/><ellipse class="e" cx="179.23" cy="109.99" rx="14.72" ry="84.24" transform="translate(61.03 283.92) rotate(-87.34)"/><polygon class="f" points="0 0 125.46 108.22 225.77 109.99 0 0"/></g><g id="d"><path class="e" d="M55.1,103.82c-6.47,1.19-7.43,2.16-8.62,8.62-1.19-6.47-2.16-7.43-8.62-8.62,6.47-1.19,7.43-2.16,8.62-8.62,1.19,6.47,2.16,7.43,8.62,8.62Z"/><path class="e" d="M181.32,59.21c-3.85,.71-4.43,1.28-5.14,5.14-.71-3.85-1.28-4.43-5.14-5.14,3.85-.71,4.43-1.28,5.14-5.14,.71,3.85,1.28,4.43,5.14,5.14Z"/><path class="e" d="M77.34,100.66c-4.44,.82-5.1,1.48-5.92,5.92-.82-4.44-1.48-5.1-5.92-5.92,4.44-.82,5.1-1.48,5.92-5.92,.82,4.44,1.48,5.1,5.92,5.92Z"/><path class="e" d="M60.91,79.07c-4.33,.8-4.97,1.44-5.77,5.77-.8-4.33-1.44-4.97-5.77-5.77,4.33-.8,4.97-1.44,5.77-5.77,.8,4.33,1.44,4.97,5.77,5.77Z"/><path class="e" d="M208.63,48.88c-4.4,.81-5.06,1.47-5.87,5.87-.81-4.4-1.47-5.06-5.87-5.87,4.4-.81,5.06-1.47,5.87-5.87,.81,4.4,1.47,5.06,5.87,5.87Z"/><path class="e" d="M249.08,93.86c-3.23,.6-3.72,1.08-4.31,4.31-.6-3.23-1.08-3.72-4.31-4.31,3.23-.6,3.72-1.08,4.31-4.31,.6,3.23,1.08,3.72,4.31,4.31Z"/><path class="e" d="M243.35,69.98c-5.3,.98-6.09,1.77-7.07,7.07-.98-5.3-1.77-6.09-7.07-7.07,5.3-.98,6.09-1.77,7.07-7.07,.98,5.3,1.77,6.09,7.07,7.07Z"/><path class="e" d="M216.77,74.4c-6.47,1.19-7.43,2.16-8.62,8.62-1.19-6.47-2.16-7.43-8.62-8.62,6.47-1.19,7.43-2.16,8.62-8.62,1.19,6.47,2.16,7.43,8.62,8.62Z"/><path class="e" d="M95.04,115.83c-3.23,.6-3.72,1.08-4.31,4.31-.6-3.23-1.08-3.72-4.31-4.31,3.23-.6,3.72-1.08,4.31-4.31,.6,3.23,1.08,3.72,4.31,4.31Z"/></g></g></svg>