<?xml version="1.0" encoding="UTF-8"?><svg xmlns="http://www.w3.org/2000/svg" viewBox="0 0 268.75 51.12"><defs><style>.d{stroke:#f1c550;stroke-width:3px;}.d,.e,.f,.g,.h{fill:none;}.d,.i,.f,.g{stroke-miterlimit:10;}.e{stroke:#464546;stroke-width:.75px;}.e,.f,.g,.h{stroke-linecap:round;}.e,.h{stroke-linejoin:round;}.j{fill:#f1c550;}.k{fill:#314c60;}.i{fill:#fffdea;}.i,.f,.h{stroke:#fdfcea;}.i,.g{stroke-width:2px;}.g{stroke:#c85d5d;}.h{stroke-width:30px;}</style></defs><g id="a"/><g id="b"><g id="c"><g><g><path class="h" d="M32.53,36.12c68.35-19.91,142.12-19.91,210.47,0"/><g><path class="k" d="M58.16,30.01c.65,1.15,1.3,2.43,1.96,3.86,.14,.3,.15,.61,.04,.93-.11,.32-.32,.55-.63,.71-.14,.07-.27,.13-.41,.2-.23,.12-.47,.15-.72,.07-.25-.08-.43-.24-.54-.49-.04-.1-.1-.13-.18-.09-1.48,.56-2.99,1.08-4.54,1.56-.29,.09-.57,.07-.84-.08-.27-.14-.45-.36-.53-.64l-.11-.36c-.05-.18-.03-.35,.07-.52,.1-.17,.24-.29,.42-.34,.06-.01,.1-.06,.12-.13,.04-.29,.07-.59,.11-.88,0-.02,0-.04-.03-.05-.02-.01-.04,0-.06,.01-.17,.19-.38,.28-.63,.26-.25-.02-.45-.12-.59-.33-.02-.02-.06-.07-.1-.13-.04-.07-.07-.11-.09-.14-.01,0-.02,0-.04,0-.01,0-.02,0-.02,.02l.68,2.99c.07,.32,.02,.61-.16,.89-.18,.28-.43,.45-.75,.53-.32,.07-.62,.03-.9-.15-.28-.17-.46-.42-.54-.73-.15-.63-.3-1.27-.45-1.9,0-.02-.01-.03-.03-.02-.01,0-.02,.01-.03,.02-.05,.37-.11,.71-.17,1.01-.06,.26-.23,.42-.5,.48-.27,.06-.5-.01-.69-.21l-.08-.08c-.25-.27-.4-.57-.46-.92-.06-.35-.03-.7,.1-1.04,.35-.91,.57-1.81,.66-2.68,0-.04-.01-.07-.04-.09-.03-.02-.06-.03-.1-.02-.14,.03-.28,.07-.42,.1-.29,.07-.56,.03-.81-.12-.25-.15-.41-.36-.48-.64-.07-.28-.02-.54,.14-.79,.16-.25,.38-.41,.67-.48,.25-.06,.51-.12,.76-.18,.1-.02,.14-.09,.12-.19l-.24-1c-.02-.1-.09-.14-.19-.11-.15,.05-.3,.1-.46,.15-.28,.08-.55,.06-.8-.06-.26-.12-.43-.32-.53-.58-.09-.25-.07-.49,.06-.73,.13-.24,.33-.4,.6-.49,1.12-.35,2.27-.79,3.44-1.3,.27-.12,.55-.14,.85-.06,.29,.08,.51,.23,.66,.46,.16,.23,.2,.48,.13,.74-.08,.26-.24,.45-.49,.57-.17,.08-.45,.2-.83,.36-.09,.04-.12,.11-.1,.21l.29,1.29c.02,.1,.09,.14,.19,.11,.25-.06,.51-.12,.76-.17,.29-.07,.56-.02,.81,.13,.25,.15,.41,.37,.47,.65,.06,.28,.01,.54-.15,.79-.16,.25-.39,.4-.68,.47l-.14,.03s-.06,.03-.07,.07c-.01,.04,0,.07,.02,.09,.82,.83,1.26,1.29,1.34,1.37,.04,.05,.09,.12,.15,.22,.01,.02,.03,.02,.05,.02,.02,0,.03-.02,.04-.04,.24-2.3,.37-4.62,.4-6.96,0-.33,.11-.62,.35-.88,.24-.25,.53-.39,.87-.42,.11,0,.21-.02,.32-.03,.33-.02,.62,.07,.86,.28,.24,.21,.36,.48,.35,.8-.04,1.58-.13,3.14-.24,4.69,0,.04,0,.07,.03,.09,.02,.02,.05,.03,.09,0,.3-.16,.6-.32,.9-.48,.31-.16,.63-.19,.96-.1,.33,.09,.58,.28,.73,.57Zm-1.41,3.34c.1-.04,.13-.1,.09-.18-.5-.97-.95-1.82-1.37-2.57-.01-.02-.03-.02-.05-.02-.02,0-.03,.02-.04,.04-.06,.7-.17,1.75-.33,3.15-.01,.04,0,.07,.03,.1,.03,.03,.06,.03,.1,.01,.39-.13,.91-.31,1.56-.53Z"/><path class="k" d="M68.52,25.09c-1.29,.23-2.58,.47-3.87,.71-.11,.02-.17,.08-.17,.19-.04,2.58-.19,5.07-.43,7.49-.04,.34-.19,.62-.44,.84-.25,.22-.55,.33-.89,.33l-.2-.02c-.32-.01-.59-.13-.8-.37-.21-.23-.31-.5-.27-.81,.23-2.19,.37-4.5,.42-6.94,0-.11-.06-.16-.16-.14-.14,.03-.27,.05-.41,.08-.31,.06-.6,0-.86-.16-.26-.17-.43-.4-.49-.71-.06-.3,0-.58,.18-.84,.18-.26,.43-.42,.74-.48,.28-.06,.57-.11,.85-.17,.1-.02,.16-.08,.16-.19,0-.03,0-.06,0-.1,0-.04,0-.07,0-.1,0-.33,.11-.63,.34-.89,.23-.26,.52-.41,.87-.45h.15c.34-.05,.63,.04,.89,.24,.25,.21,.38,.47,.38,.79,0,.1,.05,.15,.16,.13,1.16-.22,2.32-.43,3.48-.63,.31-.06,.6,0,.86,.18,.26,.18,.42,.42,.47,.72,.05,.3-.01,.58-.2,.83-.18,.25-.43,.41-.75,.46Zm3.03,5.59c.29-.1,.57-.08,.85,.07,.28,.14,.46,.36,.55,.64,.1,.3,.08,.6-.07,.88-.14,.28-.37,.47-.68,.56-.54,.16-1.14,.3-1.8,.41-1.37,.24-2.5,.19-3.39-.17-.89-.35-1.41-.92-1.56-1.69-.08-.42,.01-.89,.27-1.4,.15-.29,.39-.5,.71-.63,.33-.13,.65-.15,.97-.08,.24,.04,.41,.18,.5,.42,.1,.24,.1,.48,.02,.72-.02,.08-.03,.16-.02,.23,.04,.22,.24,.37,.59,.45,.36,.08,.86,.07,1.5-.05,.51-.09,1.02-.21,1.54-.37Zm-5.51-3.19c-.07-.29-.03-.57,.13-.84,.16-.27,.39-.44,.69-.52,.98-.25,2.21-.53,3.71-.83,.3-.06,.58,0,.83,.17,.25,.17,.4,.41,.45,.7,.05,.29-.01,.56-.19,.8-.18,.24-.41,.39-.71,.45-1.44,.29-2.63,.56-3.56,.8-.3,.07-.58,.04-.84-.11-.26-.14-.43-.36-.5-.64Zm3.53-6.1c.06,.07,.15,.18,.26,.33,.11,.15,.2,.26,.26,.33,.13,.17,.17,.35,.14,.54-.04,.19-.14,.35-.32,.46-.17,.11-.35,.16-.56,.13-.21-.03-.37-.12-.5-.27-.06-.07-.15-.18-.26-.33-.11-.14-.2-.25-.26-.33-.13-.16-.18-.33-.15-.53,.03-.2,.13-.36,.29-.48,.18-.13,.37-.17,.57-.14,.21,.03,.38,.13,.52,.29Zm2.16-.58l.27,.36c.12,.16,.2,.27,.26,.34,.13,.17,.17,.35,.13,.54-.04,.19-.14,.35-.32,.48-.17,.12-.37,.17-.57,.14-.21-.03-.38-.13-.51-.29-.11-.15-.29-.37-.54-.67-.13-.17-.18-.35-.15-.55,.03-.2,.13-.36,.31-.48,.18-.12,.37-.17,.6-.14,.22,.03,.39,.12,.52,.28Z"/><path class="k" d="M76.16,20.58c.33-.01,.61,.09,.83,.31,.22,.22,.33,.48,.32,.8-.06,1.45,.03,2.93,.26,4.44,.23,1.51,.6,2.95,1.08,4.32,.1,.29,.08,.58-.06,.86-.14,.28-.37,.46-.68,.54l-.23,.06c-.34,.09-.66,.06-.97-.09-.31-.15-.52-.38-.64-.7-.52-1.38-.91-2.91-1.18-4.57-.27-1.66-.37-3.23-.31-4.71,.01-.34,.15-.63,.4-.87,.26-.24,.56-.37,.92-.39h.25Zm9.31,.88c.31-.04,.6,.03,.85,.22,.25,.19,.4,.43,.44,.74,.04,.3-.04,.58-.23,.82-.19,.25-.45,.39-.76,.43-.18,.02-.37,.05-.55,.07-.1,.01-.15,.07-.14,.17,.05,.36,.1,.73,.15,1.09,.22,1.65,.15,2.9-.22,3.75-.37,.85-1.16,1.58-2.36,2.18-.3,.16-.61,.18-.94,.07-.32-.11-.57-.31-.74-.62-.16-.28-.18-.57-.09-.87,.1-.3,.29-.53,.59-.69,.7-.36,1.12-.76,1.25-1.18,.13-.42,.12-1.19-.04-2.3l-.15-1.09c-.01-.1-.07-.14-.18-.13-.8,.11-1.6,.23-2.4,.35-.31,.05-.6-.02-.85-.2-.25-.18-.41-.42-.45-.73-.05-.3,.03-.58,.22-.83,.19-.25,.44-.4,.76-.44,.8-.12,1.61-.24,2.41-.35,.11-.01,.15-.07,.14-.17l-.16-1.16c-.05-.32,.04-.61,.24-.88,.21-.26,.48-.42,.81-.46l.14-.02c.34-.05,.64,.03,.91,.23,.27,.2,.43,.46,.47,.78l.16,1.16c.01,.1,.07,.15,.18,.13,.19-.02,.37-.05,.56-.07Z"/><path class="k" d="M94.83,18.25c1.7-.18,3.17,.19,4.38,1.13,1.22,.93,1.89,2.21,2.04,3.83,.13,1.43-.08,2.65-.63,3.66-.55,1.01-1.37,1.73-2.45,2.17-.31,.12-.61,.11-.91-.06-.3-.16-.51-.41-.63-.73l-.03-.05c-.11-.29-.09-.58,.06-.88,.14-.3,.36-.53,.66-.7,1.07-.62,1.53-1.68,1.38-3.16-.07-.72-.33-1.33-.77-1.83-.44-.5-1-.82-1.67-.96-.11-.03-.17,.02-.17,.13-.08,1.69-.22,3.11-.41,4.25-.19,1.14-.45,2.03-.77,2.67-.32,.64-.66,1.09-1.04,1.37-.38,.28-.83,.45-1.36,.51-.83,.1-1.65-.27-2.47-1.1-.82-.83-1.31-1.89-1.48-3.19-.23-1.84,.22-3.42,1.37-4.73,1.15-1.31,2.79-2.09,4.9-2.31Zm-1.44,2.92s0-.06-.04-.08c-.03-.02-.06-.02-.1,0-.79,.36-1.37,.88-1.74,1.56-.37,.68-.5,1.46-.4,2.33,.06,.53,.23,1.01,.49,1.46,.26,.45,.47,.67,.62,.65,.15-.02,.3-.21,.44-.58,.14-.37,.28-1.01,.42-1.94,.14-.93,.24-2.06,.31-3.41Z"/><path class="k" d="M111.44,20.77c1.46,1.37,2.76,2.57,3.91,3.61,.25,.23,.38,.5,.4,.83,.02,.32-.08,.61-.31,.85-.1,.11-.19,.23-.29,.34-.22,.25-.49,.38-.82,.4-.32,.02-.61-.08-.86-.31-.9-.81-2.2-2.03-3.93-3.65-.59-.57-1.01-.95-1.23-1.13-.22-.18-.4-.26-.54-.25-.11,0-.25,.13-.41,.37-.16,.24-.43,.7-.8,1.37-.38,.67-.8,1.42-1.28,2.23-.17,.28-.41,.47-.73,.57-.32,.09-.63,.06-.93-.1l-.27-.13c-.29-.16-.48-.4-.58-.7-.09-.31-.06-.61,.11-.89,.38-.66,.77-1.32,1.16-1.98,.93-1.58,1.54-2.53,1.82-2.86,.32-.37,.69-.59,1.12-.66,.13-.02,.32-.04,.57-.06,.69-.05,1.21,.02,1.56,.22,.35,.2,1.13,.84,2.31,1.94Zm-.22-4.13c.42-.47,.95-.72,1.59-.76,.64-.04,1.2,.15,1.67,.56,.48,.41,.73,.92,.77,1.53,.03,.61-.16,1.15-.59,1.61-.42,.46-.95,.71-1.58,.75-.63,.04-1.18-.14-1.66-.55-.48-.41-.74-.91-.78-1.53-.04-.61,.15-1.15,.57-1.62Zm1.06,2.2c.21,.18,.45,.26,.73,.24,.28-.02,.51-.13,.69-.33,.18-.2,.27-.44,.25-.71-.02-.27-.13-.49-.34-.67-.21-.18-.45-.26-.73-.24-.28,.02-.51,.13-.7,.33-.18,.2-.27,.44-.25,.71,.02,.27,.13,.49,.34,.67Z"/><path class="k" d="M121.23,21.57c.09,.28,.06,.56-.09,.83-.15,.27-.37,.44-.67,.53-.29,.08-.57,.05-.84-.09-.27-.14-.45-.36-.54-.65-.23-.73-.39-1.28-.51-1.64-.09-.27-.07-.54,.07-.8,.14-.26,.35-.43,.64-.5,.29-.09,.58-.06,.86,.07,.28,.14,.46,.35,.55,.63,.12,.35,.29,.89,.51,1.62Zm5.66-3.02c.33,0,.6,.13,.83,.35,.23,.22,.34,.49,.33,.81-.07,2.4-.58,4.18-1.53,5.36-.95,1.17-2.48,1.95-4.6,2.34-.3,.06-.58,0-.84-.17-.26-.17-.43-.4-.51-.7-.08-.28-.04-.53,.13-.77,.16-.24,.39-.39,.68-.45,1.56-.33,2.66-.91,3.31-1.74,.64-.83,.99-2.14,1.03-3.92,0-.31,.13-.57,.35-.78,.22-.22,.49-.32,.81-.32Zm-4.52,.23c.3-.09,.6-.06,.88,.09,.28,.15,.47,.36,.55,.65,.07,.2,.16,.5,.28,.9,.12,.4,.2,.65,.24,.77,.09,.29,.05,.56-.1,.82-.15,.26-.38,.43-.68,.52-.29,.08-.57,.04-.84-.1-.27-.14-.45-.36-.54-.66-.13-.45-.31-1-.52-1.64-.09-.29-.06-.57,.08-.84,.14-.27,.36-.44,.66-.51Z"/><path class="k" d="M142.58,21.3c.32,.11,.56,.31,.7,.61,.14,.3,.16,.61,.05,.92l-.09,.25c-.11,.31-.31,.53-.61,.67-.3,.14-.6,.16-.92,.05-1.7-.58-3.49-1.12-5.38-1.61-.1-.02-.16,.02-.16,.11,0,1.3,0,2.59,.01,3.89,0,.33-.12,.6-.35,.84-.23,.23-.51,.35-.84,.35-.14,0-.28,0-.42,0-.33,0-.61-.11-.85-.34-.24-.23-.36-.51-.36-.83-.03-3.11-.07-6.22-.1-9.33,0-.32,.11-.6,.35-.84,.24-.23,.53-.35,.87-.36,.14,0,.29,0,.43,0,.34,0,.63,.11,.87,.34,.24,.23,.36,.51,.36,.83,0,.81,0,1.62,0,2.42,0,.1,.05,.17,.14,.19,2.08,.5,4.17,1.1,6.27,1.83Z"/><path class="k" d="M156.64,26.25c.03,.33-.06,.62-.28,.88-.22,.26-.49,.4-.82,.42-1.21,.1-2.5,.13-3.89,.08-3.46-.12-5.17-1.36-5.11-3.78,.03-1.2,.71-2.25,2.05-3.15,.09-.06,.12-.14,.09-.23,0,0,0-.03-.02-.06l-.03-.08c-.2-.97-.39-1.99-.56-3.07-.06-.32,.01-.61,.22-.87,.2-.26,.48-.41,.82-.45,.13-.01,.26-.03,.39-.04,.34-.04,.64,.04,.91,.24,.27,.19,.43,.46,.49,.78,.11,.69,.25,1.46,.43,2.3,.02,.1,.08,.14,.18,.1,1.17-.4,2.48-.75,3.91-1.03,.33-.06,.63,0,.91,.2,.27,.19,.44,.44,.49,.76v.06c.06,.32,0,.61-.2,.88-.19,.27-.45,.43-.79,.5-2.11,.41-3.71,.92-4.79,1.49-1.08,.57-1.63,1.12-1.65,1.63-.01,.47,.16,.83,.53,1.07,.37,.24,.98,.37,1.83,.4,1.24,.05,2.45,.02,3.61-.09,.33-.03,.63,.06,.88,.26,.25,.21,.39,.47,.41,.79v.03Z"/><path class="k" d="M173.08,17.48c.18,.21,.26,.45,.23,.71-.02,.27-.14,.49-.36,.66-.21,.17-.46,.25-.74,.22-.16-.01-.32-.03-.47-.04-.02,0-.03,0-.03,.02,0,.01,0,.03,.03,.04,.17,.07,.33,.14,.5,.21,.45,.19,.7,.51,.75,.95,.03,.26,0,.61-.13,1.07-.12,.46-.19,.76-.2,.92-.08,.84-.15,1.68-.23,2.53-.03,.38-.09,.65-.17,.8-.08,.16-.24,.26-.47,.3-.03,0-.05,.03-.06,.06-.01,.03,0,.06,0,.08,.11,.11,.19,.23,.23,.34,.1,.27,.24,.67,.42,1.21,.08,.27,.06,.53-.06,.78-.12,.25-.32,.43-.58,.53-.24,.1-.49,.09-.73-.02-.24-.11-.4-.3-.48-.55,0,0-.02-.03-.02-.06,0-.03-.01-.05-.02-.07,0-.02-.02-.03-.04-.03-.02,0-.03,0-.04,.02-.14,.54-.4,.86-.77,.97-.38,.11-1.12,.12-2.24,.03-.5-.04-.9-.07-1.18-.1-.28-.03-.55-.07-.82-.12-.27-.06-.46-.11-.57-.17-.11-.06-.22-.15-.31-.27-.1-.12-.15-.25-.16-.39-.01-.14-.02-.33-.01-.56,0-.02,0-.03-.03-.04-.02,0-.03,0-.04,.02-.05,.1-.14,.24-.27,.41-.16,.22-.37,.36-.65,.4-.28,.05-.53,0-.75-.16-.22-.15-.35-.35-.39-.6-.04-.26,0-.5,.17-.72,.09-.15,.19-.3,.28-.44,.17-.29,.41-.49,.72-.6,.31-.11,.62-.1,.92,.03l.12,.05s.03,0,.03-.03c0-.07,.04-.14,.1-.19,.06-.05,.13-.07,.2-.07,.44,.03,.89,.06,1.33,.1,.1,0,.2-.02,.28-.09,.02-.02,.02-.04,.01-.06-.01-.02-.03-.04-.06-.04-.18-.02-.33-.1-.45-.22-.12-.13-.19-.28-.19-.45-.01-.11,.08-.23,.26-.36,.19-.13,.28-.24,.29-.34,0-.07-.02-.1-.08-.1-.16-.01-.31-.02-.47-.03-.1,0-.16,.04-.17,.14l-.02,.31c-.02,.28-.14,.51-.35,.69-.21,.18-.46,.26-.74,.24-.28-.02-.52-.13-.71-.34-.19-.21-.28-.45-.26-.73l.24-3.57c0-.15,.09-.22,.24-.21,0,0,.01,0,.02-.03-.06-.15-.12-.3-.19-.45-.12-.29-.1-.56,.04-.83,.14-.27,.37-.43,.68-.51,.23-.05,.45-.1,.66-.16,0,0,.02-.02,.02-.03,0,0,0-.01-.03-.02-.47-.03-.95-.07-1.42-.1-.11,0-.16,.04-.17,.14-.08,1.25-.16,2.49-.25,3.74-.09,1.34-.25,2.43-.49,3.26-.24,.83-.6,1.58-1.07,2.24-.18,.25-.44,.38-.76,.38-.32,0-.58-.12-.78-.36l-.03-.04c-.21-.25-.32-.55-.32-.89,0-.34,.1-.64,.29-.91,.16-.24,.32-.53,.46-.87,.01-.03,0-.05-.02-.07-.02-.02-.05-.03-.08-.02-.27,.07-.52,.03-.77-.12-.24-.15-.39-.36-.46-.63-.08-.31-.04-.6,.13-.87,.16-.27,.4-.46,.71-.56,.27-.1,.47-.17,.6-.22,.1-.03,.17-.05,.22-.06,.1-.01,.16-.06,.17-.16,.05-.5,.08-.92,.1-1.25,0-.04-.02-.05-.06-.03-.13,.07-.26,.08-.39,.04-.13-.04-.23-.12-.3-.25-.21-.42-.44-.84-.69-1.27-.14-.24-.17-.5-.1-.77,.07-.27,.23-.47,.48-.61,.13-.07,.26-.14,.39-.21,.14-.08,.29-.1,.44-.06,.16,.05,.27,.14,.35,.27,.02,0,.03,0,.04-.01l.05-.75c.02-.32,.16-.6,.41-.81,.25-.22,.55-.32,.89-.29,1.15,.07,2.3,.15,3.45,.23,.06,0,.09-.02,.09-.08,.01-.19,.09-.34,.24-.46,.15-.12,.32-.18,.51-.16,.42,.03,.84,.06,1.26,.1,.19,.01,.35,.1,.48,.24,.13,.15,.19,.31,.17,.5,0,.06,.02,.09,.08,.09,1.13,.09,2.25,.18,3.38,.28,.28,.02,.51,.14,.69,.35Zm-1.2,3.66s.03,0,.03-.02c0-.01,0-.03-.01-.04-.49-.22-.89-.41-1.2-.58,0-.01-.02-.01-.03,0-.01,0-.02,.01-.02,.02,0,.08-.04,.15-.11,.21-.07,.05-.14,.08-.23,.07-1.32-.11-2.63-.21-3.95-.31-.09,0-.16-.04-.22-.11-.06-.06-.08-.14-.08-.22,0,0,0-.02-.01-.02,0,0-.02,0-.03,0-.38,.13-.79,.26-1.22,.39,0,0-.02,.02-.02,.03,0,.01,0,.02,.01,.02,.77,.05,1.54,.11,2.3,.17,.33,.03,.61,.16,.83,.41,.22,.25,.32,.54,.29,.86-.06,.79-.12,1.57-.19,2.36-.02,.19-.03,.33-.05,.42,0,.11,.03,.18,.12,.22,.16,.08,.27,.17,.34,.26,.04,.06,.11,.14,.2,.25,.09,.11,.16,.19,.2,.25,.08,.11,.11,.22,.09,.34-.01,.12-.07,.22-.17,.31-.01,0-.01,.02,0,.03,0,.01,0,.02,.02,.02,.37,.11,.75,.22,1.12,.33,.02,.01,.03,0,.05,0,.02-.02,.02-.04,.01-.05-.07-.16-.08-.33-.02-.49,.06-.16,.17-.29,.33-.38,.02,0,.03-.02,.02-.04,0-.02-.02-.03-.04-.03-.09,0-.33-.04-.7-.09-.2-.02-.36-.11-.49-.26-.13-.15-.2-.32-.2-.52h-.01c0-.06-.02-.09-.06-.09-.13-.01-.24-.07-.34-.17-.09-.11-.13-.22-.12-.35,.07-.85,.13-1.69,.2-2.54,.02-.24,.12-.44,.31-.59,.18-.15,.4-.22,.65-.2,.25,.02,.45,.12,.62,.3,.16,.18,.23,.39,.21,.63-.06,.73-.12,1.45-.18,2.18,0,.1,.04,.16,.16,.17,.06,0,.09,0,.1-.03,.01-.02,.02-.08,.03-.17,.05-.63,.11-1.26,.16-1.89,.03-.32,.17-.59,.42-.8,.25-.21,.54-.3,.88-.27Zm-5.66,.94c.09,0,.15-.04,.15-.13,0-.09-.04-.14-.13-.15-.14-.01-.29-.02-.43-.03-.1,0-.15,.04-.15,.13,0,.09,.04,.14,.13,.15,.14,.01,.29,.02,.43,.03Zm-.08,1.11c.09,0,.14-.04,.15-.13,0-.09-.04-.14-.13-.15-.14-.01-.28-.02-.43-.03-.1,0-.15,.04-.15,.13,0,.09,.04,.14,.13,.15,.14,.01,.28,.02,.43,.03Zm1.31,4.15s.06,0,.07-.04c.01-.03,0-.05,0-.08-.18-.26-.41-.55-.71-.89-.02-.02-.04-.03-.07-.02-.03,0-.04,.03-.05,.05l-.04,.5c-.02,.2,.01,.33,.08,.37,.07,.04,.31,.08,.72,.11Zm1.65-7.7s.04-.01,.05-.04c.01,0,0-.02-.01-.03-.05-.03-.13-.09-.25-.17-.12-.08-.22-.15-.28-.19-.09-.07-.18-.08-.27-.04-.26,.13-.46,.22-.6,.29-.04,.02-.04,.04,0,.07,.45,.03,.91,.07,1.36,.11Zm-1.2,7.73c.27,.01,.45-.02,.54-.1,.09-.08,.15-.26,.19-.56,0-.03,0-.05-.03-.07-.02-.02-.04-.02-.06,0-.22,.2-.45,.4-.67,.6-.02,.02-.03,.04-.02,.07,0,.03,.02,.04,.05,.05Z"/><path class="k" d="M183.98,19.79c1.06,.13,1.89,.55,2.47,1.26,.58,.71,.81,1.59,.68,2.63-.15,1.19-.63,2.07-1.43,2.66-.8,.58-1.8,.8-3,.66-.25-.03-.45-.06-.59-.08-.33-.06-.58-.22-.75-.5-.17-.28-.23-.58-.16-.91,.06-.31,.23-.55,.51-.73,.28-.17,.58-.24,.91-.2h.07c.45,.06,.84-.01,1.16-.21,.32-.2,.51-.49,.55-.88,.1-.82-.26-1.29-1.09-1.39-.05,0-.08,0-.11,.04-.02,.03-.03,.07-.03,.11,0,.02,.01,.05,.02,.08,0,.03,0,.06,0,.08,.05,.32-.03,.62-.23,.89-.2,.27-.46,.43-.8,.48l-.09,.02c-.33,.06-.63-.01-.91-.2-.27-.19-.44-.45-.51-.77,0-.03,0-.06-.02-.1-.01-.04-.03-.07-.03-.1-.03-.11-.08-.15-.17-.13-.1,.03-.25,.06-.45,.1-.2,.04-.36,.08-.47,.1-.12,.02-.16,.09-.14,.2,.38,2.02,.69,3.82,.93,5.41,.05,.32-.03,.62-.23,.88-.2,.26-.47,.41-.79,.45l-.27,.04c-.33,.04-.62-.04-.89-.24-.27-.2-.43-.46-.48-.79-.31-1.94-.6-3.62-.88-5.06-.03-.11-.09-.15-.17-.13-.03,0-.18,.05-.46,.12-.28,.08-.49,.13-.63,.18-.32,.09-.63,.06-.93-.1-.3-.15-.49-.39-.59-.71v-.03c-.12-.32-.09-.62,.07-.91,.16-.29,.4-.48,.73-.57,.18-.05,.43-.12,.77-.21,.34-.09,.52-.14,.55-.15,.11-.03,.15-.09,.12-.2-.03-.15-.08-.37-.14-.66-.06-.29-.11-.51-.15-.66-.08-.32-.02-.61,.16-.89,.18-.28,.44-.44,.78-.5l.27-.04c.34-.06,.64,0,.93,.18,.28,.18,.46,.44,.53,.76,.02,.13,.07,.32,.12,.57,.06,.25,.1,.44,.12,.57,.03,.11,.1,.15,.2,.12,.36-.08,.66-.15,.9-.2,.11-.03,.15-.08,.13-.17-.01-.06-.03-.16-.06-.3-.03-.14-.05-.25-.07-.33-.07-.32-.01-.61,.17-.88,.19-.27,.45-.43,.79-.48l.24-.03c.34-.06,.65,.01,.93,.2,.28,.19,.45,.45,.51,.77,.01,.07,.03,.18,.06,.33,.03,.15,.04,.26,.06,.33,.03,.11,.1,.16,.22,.15,.39-.01,.74,0,1.04,.04Z"/><path class="k" d="M199.31,26.56c.29,.17,.48,.41,.57,.72,.09,.31,.04,.6-.15,.87-.92,1.34-1.9,2.26-2.94,2.78-1.04,.51-2.18,.68-3.41,.5-1.14-.17-2-.45-2.58-.86-.58-.41-.96-1.03-1.15-1.86-.19-.83-.18-1.97,.01-3.43,.2-1.46,.46-3.1,.8-4.9,.06-.32,.24-.57,.52-.76,.28-.19,.59-.25,.93-.2l.36,.06c.32,.05,.59,.21,.78,.47,.2,.26,.26,.55,.2,.87-.35,1.75-.62,3.36-.83,4.82-.12,.84-.15,1.48-.09,1.94,.06,.45,.19,.78,.41,.97,.22,.19,.56,.32,1.01,.39,.64,.09,1.26-.02,1.85-.34,.59-.32,1.2-.9,1.83-1.74,.21-.27,.47-.45,.81-.53,.33-.08,.64-.04,.92,.12l.16,.1Z"/><path class="k" d="M214.38,26.71c.33,.1,.58,.3,.75,.6,.17,.29,.19,.6,.08,.9-.2,.55-.48,.85-.85,.92-.37,.06-1.12-.02-2.25-.24-.14-.03-.28-.05-.42-.08s-.28-.05-.42-.08c-.46-.09-.81-.16-1.06-.23-.25-.07-.47-.14-.65-.21-.18-.08-.3-.17-.35-.29-.06-.12-.09-.25-.09-.38,0-.13,.02-.32,.06-.56,.14-.75,.28-1.5,.42-2.25,.02-.1-.02-.16-.13-.18l-.26-.05c-.09-.02-.16,.03-.2,.13-.52,1.82-1.83,2.92-3.91,3.32-.01,0-.02,.02-.02,.03,0,.01,0,.02,.03,.03,2.39,.42,4.78,.86,7.17,1.33,.28,.05,.5,.2,.66,.43,.16,.23,.21,.49,.16,.76-.05,.27-.2,.49-.43,.64-.23,.15-.49,.2-.77,.15-.75-.15-1.51-.29-2.26-.43-.1-.02-.16,.02-.18,.12l-.19,1c-.02,.1,.02,.16,.13,.18,1.18,.22,2.36,.45,3.54,.68,.29,.06,.51,.21,.68,.45,.16,.24,.22,.5,.16,.79-.06,.28-.21,.5-.45,.66-.24,.16-.51,.21-.79,.15-3.32-.66-6.65-1.27-9.98-1.84-.29-.05-.52-.19-.69-.43-.17-.24-.23-.5-.18-.78,.05-.28,.19-.51,.43-.68,.24-.17,.5-.23,.79-.18,1.18,.2,2.36,.41,3.55,.62,.1,.02,.16-.02,.18-.12l.18-1c.02-.1-.02-.16-.13-.18-.73-.13-1.46-.26-2.18-.39-.28-.05-.5-.19-.67-.41-.17-.23-.23-.48-.18-.75,.04-.23,.16-.43,.35-.6,.02-.02,.02-.03,0-.06-.02-.02-.03-.03-.05-.02-.02,0-.05,0-.1,.01-.05,0-.09,0-.12,0-.32,.01-.6-.09-.85-.29-.25-.21-.39-.46-.43-.77-.04-.28,.04-.53,.24-.74,.2-.21,.45-.33,.74-.34,.95-.04,1.66-.2,2.14-.49,.48-.29,.79-.73,.92-1.31,.02-.11-.02-.17-.13-.19-.18-.03-.36-.06-.54-.1-.1-.02-.17,.02-.18,.12l-.03,.19c-.06,.32-.22,.57-.5,.76-.28,.19-.58,.25-.91,.2l-.14-.02c-.33-.06-.59-.22-.79-.49-.2-.27-.27-.56-.22-.88,.07-.39,.13-.78,.2-1.17,.05-.32,.22-.58,.5-.76,.28-.19,.58-.25,.92-.2,1.17,.2,2.34,.41,3.5,.62,.1,.02,.15-.02,.17-.11,.05-.28,.2-.51,.45-.67,.25-.16,.52-.22,.81-.16,.19,.04,.38,.07,.57,.11,.3,.05,.53,.2,.7,.44,.17,.24,.23,.5,.18,.78-.02,.09,.02,.15,.12,.16,1.17,.22,2.33,.44,3.5,.67,.33,.07,.59,.24,.79,.51,.19,.27,.25,.57,.19,.89l-.07,.34c-.06,.32-.24,.57-.52,.75-.28,.18-.59,.24-.92,.17-.24-.05-.48-.1-.72-.14-.17-.03-.31-.12-.4-.26-.1-.14-.13-.3-.1-.46,.01-.05-.01-.09-.07-.1-.16-.03-.31-.06-.47-.09-.1-.02-.17,.02-.19,.12-.08,.41-.16,.81-.23,1.22-.04,.2-.05,.32-.02,.37,.03,.04,.15,.09,.36,.13h.07l.07,.03c.25,.05,.42,.04,.49-.03,.13-.13,.23-.22,.3-.28,.06-.06,.16-.11,.29-.16,.13-.05,.25-.05,.36-.02,.19,.06,.37,.11,.56,.17Z"/><path class="k" d="M222.66,29.3c-.07,.32-.25,.56-.53,.74-.28,.17-.59,.23-.92,.16-.74-.16-1.49-.32-2.23-.48-.1-.02-.17,.02-.19,.12-.37,1.77-.75,3.53-1.12,5.3-.07,.32-.24,.57-.52,.74-.28,.18-.58,.23-.9,.17h-.07c-.32-.08-.58-.25-.76-.53-.18-.27-.24-.57-.18-.89,.69-3.37,1.38-6.73,2.07-10.1,.07-.32,.24-.57,.52-.75,.28-.18,.59-.23,.93-.16,1.24,.26,2.47,.52,3.71,.79,.33,.07,.59,.25,.78,.53,.19,.28,.25,.58,.18,.89-.26,1.16-.51,2.31-.77,3.47Zm-1.3-2.87l.07-.31c.02-.1-.02-.16-.12-.18-.49-.11-.97-.21-1.46-.31-.1-.02-.17,.02-.19,.12l-.07,.31c-.02,.1,.02,.16,.12,.18,.49,.1,.97,.21,1.46,.31,.1,.02,.17-.02,.19-.12Zm-.43,1.97l.07-.31c.02-.1-.02-.16-.12-.18-.48-.1-.97-.21-1.45-.31-.1-.02-.17,.02-.19,.12l-.07,.31c-.02,.1,.02,.16,.12,.18,.48,.1,.97,.21,1.45,.31,.1,.02,.17-.02,.19-.12Zm8.36-2.45c.33,.08,.59,.26,.77,.54,.18,.28,.24,.58,.16,.9-.68,2.82-1.36,5.64-2.03,8.47-.11,.46-.2,.82-.28,1.08-.08,.26-.18,.49-.31,.7-.13,.21-.25,.35-.36,.43-.12,.08-.29,.13-.52,.15-.23,.02-.47,.01-.71-.03-.24-.04-.58-.12-1.01-.22-.07-.02-.37-.1-.9-.24-.48-.13-.76-.44-.84-.94-.02-.11-.08-.18-.17-.2-.88-.2-1.76-.4-2.64-.59-.05-.01-.07,0-.08,.05-.03,.13-.1,.23-.22,.3-.12,.07-.24,.1-.37,.07-.17-.04-.34-.07-.51-.11-.28-.06-.49-.21-.65-.45-.16-.24-.21-.49-.15-.77,.25-1.19,.51-2.38,.76-3.57,.07-.32,.24-.56,.53-.74,.28-.18,.59-.23,.91-.16,1.31,.28,2.61,.57,3.92,.87,.33,.07,.58,.25,.76,.53,.18,.28,.23,.58,.16,.89-.21,.9-.41,1.79-.62,2.69,0,.04,0,.08,.02,.12,.02,.04,.06,.07,.11,.08h.04c.27,.07,.43,.09,.49,.06,.06-.03,.12-.16,.17-.4,.3-1.31,.61-2.61,.91-3.92,.02-.1-.02-.16-.12-.19-.79-.18-1.58-.36-2.37-.54-.33-.07-.58-.25-.76-.53-.18-.28-.24-.58-.17-.89,.26-1.16,.52-2.31,.77-3.47,.07-.32,.25-.56,.54-.74,.29-.17,.6-.22,.93-.15,1.28,.29,2.56,.59,3.84,.89Zm-5.96,7.19l.06-.24c.02-.1-.02-.16-.12-.18-.64-.14-1.28-.29-1.93-.43-.1-.02-.16,.02-.19,.12l-.05,.24c-.02,.1,.02,.16,.12,.18,.64,.14,1.28,.28,1.92,.43,.1,.02,.16-.02,.19-.12Zm-.41,1.83l.06-.24c.02-.1-.02-.16-.12-.18-.64-.14-1.28-.29-1.92-.43-.1-.02-.16,.02-.19,.12l-.05,.24c-.02,.1,.02,.16,.12,.18,.64,.14,1.28,.28,1.91,.43,.1,.02,.16-.02,.19-.12Zm4.59-7.17l.07-.31c.02-.1-.02-.16-.12-.19-.53-.12-1.07-.25-1.6-.37-.1-.02-.17,.01-.19,.11l-.07,.31c-.02,.1,.02,.16,.12,.18,.53,.12,1.06,.24,1.6,.37,.1,.02,.17-.01,.19-.11Zm-.46,1.97l.07-.31c.02-.1-.02-.16-.12-.19-.53-.12-1.06-.25-1.59-.37-.1-.02-.17,.01-.19,.11l-.07,.31c-.02,.1,.02,.16,.12,.18,.53,.12,1.06,.24,1.59,.37,.1,.02,.17-.01,.19-.11Z"/></g></g><g><circle class="j" cx="258.01" cy="18.02" r="10.74"/><rect class="j" x="249.92" y="13.35" width="5.53" height="29.09" rx="2.17" ry="2.17" transform="translate(43.56 -116.66) rotate(28.35)"/><circle class="i" cx="258.01" cy="18.02" r="6.63"/><line class="e" x1="255.42" y1="15.3" x2="264.55" y2="14.76"/><line class="e" x1="259.12" y1="16.64" x2="265.12" y2="16.28"/><line class="e" x1="250.97" y1="19.86" x2="256.98" y2="19.5"/></g><g><line class="f" x1=".5" y1="3.01" x2="3.63" y2="1.34"/><line class="f" x1="2.81" y1="7.34" x2="5.94" y2="5.66"/><line class="f" x1="2.23" y1="6.26" x2="5.36" y2="4.58"/><line class="f" x1="1.65" y1="5.17" x2="4.79" y2="3.5"/><line class="f" x1="1.08" y1="4.09" x2="4.21" y2="2.42"/><line class="g" x1="3.45" y1="1" x2="19.49" y2="31.03"/><g><rect class="j" x="6.67" y="15.71" width="21.9" height="26.78" rx="5.05" ry="5.05" transform="translate(-3.19 2.19) rotate(-6.53)"/><circle class="d" cx="28.5" cy="27.85" r="6.79"/></g></g></g></g></g></svg>