<svg width="1440" height="833" viewBox="0 0 1440 833" fill="none" xmlns="http://www.w3.org/2000/svg">
<path d="M0 770V159H1440V770C1440 737.5 1373.21 684.5 1341.5 770C1309.79 855.5 1261 829.5 1238 770C1215 710.5 1166.89 689 1134 770C1101.11 851 1050.69 848 1018 770C985.305 692 927 683.5 892 770C857 856.5 819.534 851 775.5 770C736.359 698 701.835 699 665 770C624.472 848.12 588.5 851.5 547.5 770C506.5 688.5 459 702 430.5 770C402 838 353.649 840.5 320.5 770C287.351 699.5 256.5 704 218 770C179.5 836 141.5 831.5 107.5 770C73.5 708.5 41.9822 699.406 0 770Z" fill="#3E80A1"/>
<path d="M0 611V0H1440V611C1440 578.5 1373.21 525.5 1341.5 611C1309.79 696.5 1261 670.5 1238 611C1215 551.5 1163.04 539.5 1134 611C1104.96 682.5 1045.46 676.5 1018 611C990.545 545.5 927 524.5 892 611C857 697.5 819.534 692 775.5 611C736.359 539 701.835 540 665 611C624.472 689.12 588.5 692.5 547.5 611C506.5 529.5 457.5 556.822 427 611C396.5 665.178 350.828 675.5 320.5 611C290.172 546.5 256.5 545 218 611C179.5 677 141.5 672.5 107.5 611C73.5 549.5 41.9822 540.406 0 611Z" fill="#314862"/>
</svg>
