<svg width="278" height="181" viewBox="0 0 278 181" fill="none" xmlns="http://www.w3.org/2000/svg">
<rect y="50" width="278" height="18" fill="white"/>
<rect x="20" y="18" width="27" height="163" fill="white"/>
<path d="M33.0003 0L47 18H20L33.0003 0Z" fill="white"/>
<rect x="180" y="18" width="27" height="163" fill="white"/>
<path d="M193 0L207 18H180L193 0Z" fill="white"/>
<rect x="180" y="18" width="27" height="163" fill="white"/>
<path d="M193 0L207 18H180L193 0Z" fill="white"/>
<rect x="232" y="18" width="27" height="163" fill="white"/>
<path d="M245 0L259 18H232L245 0Z" fill="white"/>
<rect x="232" y="18" width="27" height="163" fill="white"/>
<path d="M245 0L259 18H232L245 0Z" fill="white"/>
<rect x="74" y="18" width="27" height="163" fill="white"/>
<path d="M87.0003 0L101 18H74L87.0003 0Z" fill="white"/>
<rect x="74" y="18" width="27" height="163" fill="white"/>
<path d="M87.0003 0L101 18H74L87.0003 0Z" fill="white"/>
<rect x="74" y="18" width="27" height="163" fill="white"/>
<path d="M87.0003 0L101 18H74L87.0003 0Z" fill="white"/>
<rect x="126" y="18" width="27" height="163" fill="white"/>
<path d="M139 0L153 18H126L139 0Z" fill="white"/>
<rect x="126" y="18" width="27" height="163" fill="white"/>
<path d="M139 0L153 18H126L139 0Z" fill="white"/>
</svg>
