<svg width="1218" height="2945" viewBox="0 0 1218 2945" fill="none" xmlns="http://www.w3.org/2000/svg">
<ellipse cx="50.5" cy="51" rx="50.5" ry="51" fill="#FBEEC0"/>
<ellipse cx="253.5" cy="51" rx="50.5" ry="51" fill="#FBEEC0"/>
<circle cx="152" cy="51" r="51" fill="#FBEEC0"/>
<circle cx="355" cy="51" r="51" fill="#FBEEC0"/>
<circle cx="558" cy="51" r="51" fill="#FBEEC0"/>
<ellipse cx="456.5" cy="51" rx="50.5" ry="51" fill="#FBEEC0"/>
<circle cx="659.5" cy="51.5" r="50.5" fill="#FBEEC0"/>
<circle cx="862.5" cy="51.5" r="50.5" fill="#FBEEC0"/>
<ellipse cx="761" cy="51.5" rx="51" ry="50.5" fill="#FBEEC0"/>
<ellipse cx="964" cy="51.5" rx="51" ry="50.5" fill="#FBEEC0"/>
<ellipse cx="1167" cy="51.5" rx="51" ry="50.5" fill="#FBEEC0"/>
<circle cx="1065.5" cy="51.5" r="50.5" fill="#FBEEC0"/>
<circle cx="50.5" cy="152.5" r="50.5" fill="#FBEEC0"/>
<circle cx="253.5" cy="152.5" r="50.5" fill="#FBEEC0"/>
<ellipse cx="152" cy="152.5" rx="51" ry="50.5" fill="#FBEEC0"/>
<ellipse cx="355" cy="152.5" rx="51" ry="50.5" fill="#FBEEC0"/>
<ellipse cx="558" cy="152.5" rx="51" ry="50.5" fill="#FBEEC0"/>
<circle cx="456.5" cy="152.5" r="50.5" fill="#FBEEC0"/>
<ellipse cx="659.5" cy="153" rx="50.5" ry="51" fill="#FBEEC0"/>
<ellipse cx="862.5" cy="153" rx="50.5" ry="51" fill="#FBEEC0"/>
<circle cx="761" cy="153" r="51" fill="#FBEEC0"/>
<circle cx="964" cy="153" r="51" fill="#FBEEC0"/>
<circle cx="1167" cy="153" r="51" fill="#FBEEC0"/>
<ellipse cx="1065.5" cy="153" rx="50.5" ry="51" fill="#FBEEC0"/>
<ellipse cx="50.5" cy="254" rx="50.5" ry="51" fill="#FBEEC0"/>
<ellipse cx="253.5" cy="254" rx="50.5" ry="51" fill="#FBEEC0"/>
<circle cx="152" cy="254" r="51" fill="#FBEEC0"/>
<circle cx="355" cy="254" r="51" fill="#FBEEC0"/>
<circle cx="558" cy="254" r="51" fill="#FBEEC0"/>
<ellipse cx="456.5" cy="254" rx="50.5" ry="51" fill="#FBEEC0"/>
<ellipse cx="659.5" cy="255" rx="50.5" ry="51" fill="#FBEEC0"/>
<ellipse cx="862.5" cy="255" rx="50.5" ry="51" fill="#FBEEC0"/>
<circle cx="761" cy="255" r="51" fill="#FBEEC0"/>
<circle cx="964" cy="255" r="51" fill="#FBEEC0"/>
<circle cx="1167" cy="255" r="51" fill="#FBEEC0"/>
<ellipse cx="1065.5" cy="255" rx="50.5" ry="51" fill="#FBEEC0"/>
<circle cx="50.5" cy="355.5" r="50.5" fill="#FBEEC0"/>
<circle cx="253.5" cy="355.5" r="50.5" fill="#FBEEC0"/>
<ellipse cx="152" cy="355.5" rx="51" ry="50.5" fill="#FBEEC0"/>
<ellipse cx="355" cy="355.5" rx="51" ry="50.5" fill="#FBEEC0"/>
<ellipse cx="558" cy="355.5" rx="51" ry="50.5" fill="#FBEEC0"/>
<circle cx="456.5" cy="355.5" r="50.5" fill="#FBEEC0"/>
<circle cx="659.5" cy="356.5" r="50.5" fill="#FBEEC0"/>
<circle cx="862.5" cy="356.5" r="50.5" fill="#FBEEC0"/>
<ellipse cx="761" cy="356.5" rx="51" ry="50.5" fill="#FBEEC0"/>
<ellipse cx="964" cy="356.5" rx="51" ry="50.5" fill="#FBEEC0"/>
<ellipse cx="1167" cy="356.5" rx="51" ry="50.5" fill="#FBEEC0"/>
<circle cx="1065.5" cy="356.5" r="50.5" fill="#FBEEC0"/>
<ellipse cx="50.5" cy="457" rx="50.5" ry="51" fill="#FBEEC0"/>
<ellipse cx="253.5" cy="457" rx="50.5" ry="51" fill="#FBEEC0"/>
<circle cx="152" cy="457" r="51" fill="#FBEEC0"/>
<circle cx="355" cy="457" r="51" fill="#FBEEC0"/>
<circle cx="558" cy="457" r="51" fill="#FBEEC0"/>
<ellipse cx="456.5" cy="457" rx="50.5" ry="51" fill="#FBEEC0"/>
<ellipse cx="659.5" cy="458" rx="50.5" ry="51" fill="#FBEEC0"/>
<ellipse cx="862.5" cy="458" rx="50.5" ry="51" fill="#FBEEC0"/>
<circle cx="761" cy="458" r="51" fill="#FBEEC0"/>
<circle cx="964" cy="458" r="51" fill="#FBEEC0"/>
<circle cx="1167" cy="458" r="51" fill="#FBEEC0"/>
<ellipse cx="1065.5" cy="458" rx="50.5" ry="51" fill="#FBEEC0"/>
<circle cx="50.5" cy="558.5" r="50.5" fill="#FBEEC0"/>
<circle cx="253.5" cy="558.5" r="50.5" fill="#FBEEC0"/>
<ellipse cx="152" cy="558.5" rx="51" ry="50.5" fill="#FBEEC0"/>
<ellipse cx="355" cy="558.5" rx="51" ry="50.5" fill="#FBEEC0"/>
<ellipse cx="558" cy="558.5" rx="51" ry="50.5" fill="#FBEEC0"/>
<circle cx="456.5" cy="558.5" r="50.5" fill="#FBEEC0"/>
<circle cx="659.5" cy="559.5" r="50.5" fill="#FBEEC0"/>
<circle cx="862.5" cy="559.5" r="50.5" fill="#FBEEC0"/>
<ellipse cx="761" cy="559.5" rx="51" ry="50.5" fill="#FBEEC0"/>
<ellipse cx="964" cy="559.5" rx="51" ry="50.5" fill="#FBEEC0"/>
<ellipse cx="1167" cy="559.5" rx="51" ry="50.5" fill="#FBEEC0"/>
<circle cx="1065.5" cy="559.5" r="50.5" fill="#FBEEC0"/>
<ellipse cx="50.5" cy="660" rx="50.5" ry="51" fill="#FBEEC0"/>
<ellipse cx="253.5" cy="660" rx="50.5" ry="51" fill="#FBEEC0"/>
<circle cx="152" cy="660" r="51" fill="#FBEEC0"/>
<circle cx="355" cy="660" r="51" fill="#FBEEC0"/>
<circle cx="558" cy="660" r="51" fill="#FBEEC0"/>
<ellipse cx="456.5" cy="660" rx="50.5" ry="51" fill="#FBEEC0"/>
<ellipse cx="659.5" cy="661" rx="50.5" ry="51" fill="#FBEEC0"/>
<ellipse cx="862.5" cy="661" rx="50.5" ry="51" fill="#FBEEC0"/>
<circle cx="761" cy="661" r="51" fill="#FBEEC0"/>
<circle cx="964" cy="661" r="51" fill="#FBEEC0"/>
<circle cx="1167" cy="661" r="51" fill="#FBEEC0"/>
<ellipse cx="1065.5" cy="661" rx="50.5" ry="51" fill="#FBEEC0"/>
<circle cx="50.5" cy="761.5" r="50.5" fill="#FBEEC0"/>
<circle cx="253.5" cy="761.5" r="50.5" fill="#FBEEC0"/>
<ellipse cx="152" cy="761.5" rx="51" ry="50.5" fill="#FBEEC0"/>
<ellipse cx="355" cy="761.5" rx="51" ry="50.5" fill="#FBEEC0"/>
<ellipse cx="558" cy="761.5" rx="51" ry="50.5" fill="#FBEEC0"/>
<circle cx="456.5" cy="761.5" r="50.5" fill="#FBEEC0"/>
<circle cx="659.5" cy="762.5" r="50.5" fill="#FBEEC0"/>
<circle cx="862.5" cy="762.5" r="50.5" fill="#FBEEC0"/>
<ellipse cx="761" cy="762.5" rx="51" ry="50.5" fill="#FBEEC0"/>
<ellipse cx="964" cy="762.5" rx="51" ry="50.5" fill="#FBEEC0"/>
<ellipse cx="1167" cy="762.5" rx="51" ry="50.5" fill="#FBEEC0"/>
<circle cx="1065.5" cy="762.5" r="50.5" fill="#FBEEC0"/>
<ellipse cx="50.5" cy="863" rx="50.5" ry="51" fill="#FBEEC0"/>
<ellipse cx="253.5" cy="863" rx="50.5" ry="51" fill="#FBEEC0"/>
<circle cx="152" cy="863" r="51" fill="#FBEEC0"/>
<circle cx="355" cy="863" r="51" fill="#FBEEC0"/>
<circle cx="558" cy="863" r="51" fill="#FBEEC0"/>
<ellipse cx="456.5" cy="863" rx="50.5" ry="51" fill="#FBEEC0"/>
<ellipse cx="659.5" cy="864" rx="50.5" ry="51" fill="#FBEEC0"/>
<ellipse cx="862.5" cy="864" rx="50.5" ry="51" fill="#FBEEC0"/>
<circle cx="761" cy="864" r="51" fill="#FBEEC0"/>
<circle cx="964" cy="864" r="51" fill="#FBEEC0"/>
<circle cx="1167" cy="864" r="51" fill="#FBEEC0"/>
<ellipse cx="1065.5" cy="864" rx="50.5" ry="51" fill="#FBEEC0"/>
<circle cx="50.5" cy="964.5" r="50.5" fill="#FBEEC0"/>
<circle cx="253.5" cy="964.5" r="50.5" fill="#FBEEC0"/>
<ellipse cx="152" cy="964.5" rx="51" ry="50.5" fill="#FBEEC0"/>
<ellipse cx="355" cy="964.5" rx="51" ry="50.5" fill="#FBEEC0"/>
<ellipse cx="558" cy="964.5" rx="51" ry="50.5" fill="#FBEEC0"/>
<circle cx="456.5" cy="964.5" r="50.5" fill="#FBEEC0"/>
<circle cx="659.5" cy="965.5" r="50.5" fill="#FBEEC0"/>
<circle cx="862.5" cy="965.5" r="50.5" fill="#FBEEC0"/>
<ellipse cx="761" cy="965.5" rx="51" ry="50.5" fill="#FBEEC0"/>
<ellipse cx="964" cy="965.5" rx="51" ry="50.5" fill="#FBEEC0"/>
<ellipse cx="1167" cy="965.5" rx="51" ry="50.5" fill="#FBEEC0"/>
<circle cx="1065.5" cy="965.5" r="50.5" fill="#FBEEC0"/>
<ellipse cx="50.5" cy="1066" rx="50.5" ry="51" fill="#FBEEC0"/>
<ellipse cx="253.5" cy="1066" rx="50.5" ry="51" fill="#FBEEC0"/>
<circle cx="152" cy="1066" r="51" fill="#FBEEC0"/>
<circle cx="355" cy="1066" r="51" fill="#FBEEC0"/>
<circle cx="558" cy="1066" r="51" fill="#FBEEC0"/>
<ellipse cx="456.5" cy="1066" rx="50.5" ry="51" fill="#FBEEC0"/>
<ellipse cx="659.5" cy="1067" rx="50.5" ry="51" fill="#FBEEC0"/>
<ellipse cx="862.5" cy="1067" rx="50.5" ry="51" fill="#FBEEC0"/>
<circle cx="761" cy="1067" r="51" fill="#FBEEC0"/>
<circle cx="964" cy="1067" r="51" fill="#FBEEC0"/>
<circle cx="1167" cy="1067" r="51" fill="#FBEEC0"/>
<ellipse cx="1065.5" cy="1067" rx="50.5" ry="51" fill="#FBEEC0"/>
<circle cx="50.5" cy="1167.5" r="50.5" fill="#FBEEC0"/>
<circle cx="253.5" cy="1167.5" r="50.5" fill="#FBEEC0"/>
<ellipse cx="152" cy="1167.5" rx="51" ry="50.5" fill="#FBEEC0"/>
<ellipse cx="355" cy="1167.5" rx="51" ry="50.5" fill="#FBEEC0"/>
<ellipse cx="558" cy="1167.5" rx="51" ry="50.5" fill="#FBEEC0"/>
<circle cx="456.5" cy="1167.5" r="50.5" fill="#FBEEC0"/>
<circle cx="659.5" cy="1168.5" r="50.5" fill="#FBEEC0"/>
<circle cx="862.5" cy="1168.5" r="50.5" fill="#FBEEC0"/>
<ellipse cx="761" cy="1168.5" rx="51" ry="50.5" fill="#FBEEC0"/>
<ellipse cx="964" cy="1168.5" rx="51" ry="50.5" fill="#FBEEC0"/>
<ellipse cx="1167" cy="1168.5" rx="51" ry="50.5" fill="#FBEEC0"/>
<circle cx="1065.5" cy="1168.5" r="50.5" fill="#FBEEC0"/>
<ellipse cx="50.5" cy="1269" rx="50.5" ry="51" fill="#FBEEC0"/>
<ellipse cx="253.5" cy="1269" rx="50.5" ry="51" fill="#FBEEC0"/>
<circle cx="152" cy="1269" r="51" fill="#FBEEC0"/>
<circle cx="355" cy="1269" r="51" fill="#FBEEC0"/>
<circle cx="558" cy="1269" r="51" fill="#FBEEC0"/>
<ellipse cx="456.5" cy="1269" rx="50.5" ry="51" fill="#FBEEC0"/>
<ellipse cx="659.5" cy="1270" rx="50.5" ry="51" fill="#FBEEC0"/>
<ellipse cx="862.5" cy="1270" rx="50.5" ry="51" fill="#FBEEC0"/>
<circle cx="761" cy="1270" r="51" fill="#FBEEC0"/>
<circle cx="964" cy="1270" r="51" fill="#FBEEC0"/>
<circle cx="1167" cy="1270" r="51" fill="#FBEEC0"/>
<ellipse cx="1065.5" cy="1270" rx="50.5" ry="51" fill="#FBEEC0"/>
<circle cx="50.5" cy="1370.5" r="50.5" fill="#FBEEC0"/>
<circle cx="253.5" cy="1370.5" r="50.5" fill="#FBEEC0"/>
<ellipse cx="152" cy="1370.5" rx="51" ry="50.5" fill="#FBEEC0"/>
<ellipse cx="355" cy="1370.5" rx="51" ry="50.5" fill="#FBEEC0"/>
<ellipse cx="558" cy="1370.5" rx="51" ry="50.5" fill="#FBEEC0"/>
<circle cx="456.5" cy="1370.5" r="50.5" fill="#FBEEC0"/>
<circle cx="659.5" cy="1371.5" r="50.5" fill="#FBEEC0"/>
<circle cx="862.5" cy="1371.5" r="50.5" fill="#FBEEC0"/>
<ellipse cx="761" cy="1371.5" rx="51" ry="50.5" fill="#FBEEC0"/>
<ellipse cx="964" cy="1371.5" rx="51" ry="50.5" fill="#FBEEC0"/>
<ellipse cx="1167" cy="1371.5" rx="51" ry="50.5" fill="#FBEEC0"/>
<circle cx="1065.5" cy="1371.5" r="50.5" fill="#FBEEC0"/>
<ellipse cx="50.5" cy="1472" rx="50.5" ry="51" fill="#FBEEC0"/>
<ellipse cx="253.5" cy="1472" rx="50.5" ry="51" fill="#FBEEC0"/>
<circle cx="152" cy="1472" r="51" fill="#FBEEC0"/>
<circle cx="355" cy="1472" r="51" fill="#FBEEC0"/>
<circle cx="558" cy="1472" r="51" fill="#FBEEC0"/>
<ellipse cx="456.5" cy="1472" rx="50.5" ry="51" fill="#FBEEC0"/>
<ellipse cx="659.5" cy="1473" rx="50.5" ry="51" fill="#FBEEC0"/>
<ellipse cx="862.5" cy="1473" rx="50.5" ry="51" fill="#FBEEC0"/>
<circle cx="761" cy="1473" r="51" fill="#FBEEC0"/>
<circle cx="964" cy="1473" r="51" fill="#FBEEC0"/>
<circle cx="1167" cy="1473" r="51" fill="#FBEEC0"/>
<ellipse cx="1065.5" cy="1473" rx="50.5" ry="51" fill="#FBEEC0"/>
<ellipse cx="50.5" cy="1574" rx="50.5" ry="51" fill="#FBEEC0"/>
<ellipse cx="253.5" cy="1574" rx="50.5" ry="51" fill="#FBEEC0"/>
<circle cx="152" cy="1574" r="51" fill="#FBEEC0"/>
<circle cx="355" cy="1574" r="51" fill="#FBEEC0"/>
<circle cx="558" cy="1574" r="51" fill="#FBEEC0"/>
<ellipse cx="456.5" cy="1574" rx="50.5" ry="51" fill="#FBEEC0"/>
<circle cx="659.5" cy="1574.5" r="50.5" fill="#FBEEC0"/>
<circle cx="862.5" cy="1574.5" r="50.5" fill="#FBEEC0"/>
<ellipse cx="761" cy="1574.5" rx="51" ry="50.5" fill="#FBEEC0"/>
<ellipse cx="964" cy="1574.5" rx="51" ry="50.5" fill="#FBEEC0"/>
<ellipse cx="1167" cy="1574.5" rx="51" ry="50.5" fill="#FBEEC0"/>
<circle cx="1065.5" cy="1574.5" r="50.5" fill="#FBEEC0"/>
<circle cx="50.5" cy="1675.5" r="50.5" fill="#FBEEC0"/>
<circle cx="253.5" cy="1675.5" r="50.5" fill="#FBEEC0"/>
<ellipse cx="152" cy="1675.5" rx="51" ry="50.5" fill="#FBEEC0"/>
<ellipse cx="355" cy="1675.5" rx="51" ry="50.5" fill="#FBEEC0"/>
<ellipse cx="558" cy="1675.5" rx="51" ry="50.5" fill="#FBEEC0"/>
<circle cx="456.5" cy="1675.5" r="50.5" fill="#FBEEC0"/>
<ellipse cx="659.5" cy="1676" rx="50.5" ry="51" fill="#FBEEC0"/>
<ellipse cx="862.5" cy="1676" rx="50.5" ry="51" fill="#FBEEC0"/>
<circle cx="761" cy="1676" r="51" fill="#FBEEC0"/>
<circle cx="964" cy="1676" r="51" fill="#FBEEC0"/>
<circle cx="1167" cy="1676" r="51" fill="#FBEEC0"/>
<ellipse cx="1065.5" cy="1676" rx="50.5" ry="51" fill="#FBEEC0"/>
<ellipse cx="50.5" cy="1777" rx="50.5" ry="51" fill="#FBEEC0"/>
<ellipse cx="253.5" cy="1777" rx="50.5" ry="51" fill="#FBEEC0"/>
<circle cx="152" cy="1777" r="51" fill="#FBEEC0"/>
<circle cx="355" cy="1777" r="51" fill="#FBEEC0"/>
<circle cx="558" cy="1777" r="51" fill="#FBEEC0"/>
<ellipse cx="456.5" cy="1777" rx="50.5" ry="51" fill="#FBEEC0"/>
<ellipse cx="659.5" cy="1778" rx="50.5" ry="51" fill="#FBEEC0"/>
<ellipse cx="862.5" cy="1778" rx="50.5" ry="51" fill="#FBEEC0"/>
<circle cx="761" cy="1778" r="51" fill="#FBEEC0"/>
<circle cx="964" cy="1778" r="51" fill="#FBEEC0"/>
<circle cx="1167" cy="1778" r="51" fill="#FBEEC0"/>
<ellipse cx="1065.5" cy="1778" rx="50.5" ry="51" fill="#FBEEC0"/>
<circle cx="50.5" cy="1878.5" r="50.5" fill="#FBEEC0"/>
<circle cx="253.5" cy="1878.5" r="50.5" fill="#FBEEC0"/>
<ellipse cx="152" cy="1878.5" rx="51" ry="50.5" fill="#FBEEC0"/>
<ellipse cx="355" cy="1878.5" rx="51" ry="50.5" fill="#FBEEC0"/>
<ellipse cx="558" cy="1878.5" rx="51" ry="50.5" fill="#FBEEC0"/>
<circle cx="456.5" cy="1878.5" r="50.5" fill="#FBEEC0"/>
<circle cx="659.5" cy="1879.5" r="50.5" fill="#FBEEC0"/>
<circle cx="862.5" cy="1879.5" r="50.5" fill="#FBEEC0"/>
<ellipse cx="761" cy="1879.5" rx="51" ry="50.5" fill="#FBEEC0"/>
<ellipse cx="964" cy="1879.5" rx="51" ry="50.5" fill="#FBEEC0"/>
<ellipse cx="1167" cy="1879.5" rx="51" ry="50.5" fill="#FBEEC0"/>
<circle cx="1065.5" cy="1879.5" r="50.5" fill="#FBEEC0"/>
<ellipse cx="50.5" cy="1980" rx="50.5" ry="51" fill="#FBEEC0"/>
<ellipse cx="253.5" cy="1980" rx="50.5" ry="51" fill="#FBEEC0"/>
<circle cx="152" cy="1980" r="51" fill="#FBEEC0"/>
<circle cx="355" cy="1980" r="51" fill="#FBEEC0"/>
<circle cx="558" cy="1980" r="51" fill="#FBEEC0"/>
<ellipse cx="456.5" cy="1980" rx="50.5" ry="51" fill="#FBEEC0"/>
<ellipse cx="659.5" cy="1981" rx="50.5" ry="51" fill="#FBEEC0"/>
<ellipse cx="862.5" cy="1981" rx="50.5" ry="51" fill="#FBEEC0"/>
<circle cx="761" cy="1981" r="51" fill="#FBEEC0"/>
<circle cx="964" cy="1981" r="51" fill="#FBEEC0"/>
<circle cx="1167" cy="1981" r="51" fill="#FBEEC0"/>
<ellipse cx="1065.5" cy="1981" rx="50.5" ry="51" fill="#FBEEC0"/>
<circle cx="50.5" cy="2081.5" r="50.5" fill="#FBEEC0"/>
<circle cx="253.5" cy="2081.5" r="50.5" fill="#FBEEC0"/>
<ellipse cx="152" cy="2081.5" rx="51" ry="50.5" fill="#FBEEC0"/>
<ellipse cx="355" cy="2081.5" rx="51" ry="50.5" fill="#FBEEC0"/>
<ellipse cx="558" cy="2081.5" rx="51" ry="50.5" fill="#FBEEC0"/>
<circle cx="456.5" cy="2081.5" r="50.5" fill="#FBEEC0"/>
<circle cx="659.5" cy="2082.5" r="50.5" fill="#FBEEC0"/>
<circle cx="862.5" cy="2082.5" r="50.5" fill="#FBEEC0"/>
<ellipse cx="761" cy="2082.5" rx="51" ry="50.5" fill="#FBEEC0"/>
<ellipse cx="964" cy="2082.5" rx="51" ry="50.5" fill="#FBEEC0"/>
<ellipse cx="1167" cy="2082.5" rx="51" ry="50.5" fill="#FBEEC0"/>
<circle cx="1065.5" cy="2082.5" r="50.5" fill="#FBEEC0"/>
<ellipse cx="50.5" cy="2183" rx="50.5" ry="51" fill="#FBEEC0"/>
<ellipse cx="253.5" cy="2183" rx="50.5" ry="51" fill="#FBEEC0"/>
<circle cx="152" cy="2183" r="51" fill="#FBEEC0"/>
<circle cx="355" cy="2183" r="51" fill="#FBEEC0"/>
<circle cx="558" cy="2183" r="51" fill="#FBEEC0"/>
<ellipse cx="456.5" cy="2183" rx="50.5" ry="51" fill="#FBEEC0"/>
<ellipse cx="659.5" cy="2184" rx="50.5" ry="51" fill="#FBEEC0"/>
<ellipse cx="862.5" cy="2184" rx="50.5" ry="51" fill="#FBEEC0"/>
<circle cx="761" cy="2184" r="51" fill="#FBEEC0"/>
<circle cx="964" cy="2184" r="51" fill="#FBEEC0"/>
<circle cx="1167" cy="2184" r="51" fill="#FBEEC0"/>
<ellipse cx="1065.5" cy="2184" rx="50.5" ry="51" fill="#FBEEC0"/>
<circle cx="50.5" cy="2284.5" r="50.5" fill="#FBEEC0"/>
<circle cx="253.5" cy="2284.5" r="50.5" fill="#FBEEC0"/>
<ellipse cx="152" cy="2284.5" rx="51" ry="50.5" fill="#FBEEC0"/>
<ellipse cx="355" cy="2284.5" rx="51" ry="50.5" fill="#FBEEC0"/>
<ellipse cx="558" cy="2284.5" rx="51" ry="50.5" fill="#FBEEC0"/>
<circle cx="456.5" cy="2284.5" r="50.5" fill="#FBEEC0"/>
<circle cx="659.5" cy="2285.5" r="50.5" fill="#FBEEC0"/>
<circle cx="862.5" cy="2285.5" r="50.5" fill="#FBEEC0"/>
<ellipse cx="761" cy="2285.5" rx="51" ry="50.5" fill="#FBEEC0"/>
<ellipse cx="964" cy="2285.5" rx="51" ry="50.5" fill="#FBEEC0"/>
<ellipse cx="1167" cy="2285.5" rx="51" ry="50.5" fill="#FBEEC0"/>
<circle cx="1065.5" cy="2285.5" r="50.5" fill="#FBEEC0"/>
<ellipse cx="50.5" cy="2386" rx="50.5" ry="51" fill="#FBEEC0"/>
<ellipse cx="253.5" cy="2386" rx="50.5" ry="51" fill="#FBEEC0"/>
<circle cx="152" cy="2386" r="51" fill="#FBEEC0"/>
<circle cx="355" cy="2386" r="51" fill="#FBEEC0"/>
<circle cx="558" cy="2386" r="51" fill="#FBEEC0"/>
<ellipse cx="456.5" cy="2386" rx="50.5" ry="51" fill="#FBEEC0"/>
<ellipse cx="659.5" cy="2387" rx="50.5" ry="51" fill="#FBEEC0"/>
<ellipse cx="862.5" cy="2387" rx="50.5" ry="51" fill="#FBEEC0"/>
<circle cx="761" cy="2387" r="51" fill="#FBEEC0"/>
<circle cx="964" cy="2387" r="51" fill="#FBEEC0"/>
<circle cx="1167" cy="2387" r="51" fill="#FBEEC0"/>
<ellipse cx="1065.5" cy="2387" rx="50.5" ry="51" fill="#FBEEC0"/>
<circle cx="50.5" cy="2487.5" r="50.5" fill="#FBEEC0"/>
<circle cx="253.5" cy="2487.5" r="50.5" fill="#FBEEC0"/>
<ellipse cx="152" cy="2487.5" rx="51" ry="50.5" fill="#FBEEC0"/>
<ellipse cx="355" cy="2487.5" rx="51" ry="50.5" fill="#FBEEC0"/>
<ellipse cx="558" cy="2487.5" rx="51" ry="50.5" fill="#FBEEC0"/>
<circle cx="456.5" cy="2487.5" r="50.5" fill="#FBEEC0"/>
<circle cx="659.5" cy="2488.5" r="50.5" fill="#FBEEC0"/>
<circle cx="862.5" cy="2488.5" r="50.5" fill="#FBEEC0"/>
<ellipse cx="761" cy="2488.5" rx="51" ry="50.5" fill="#FBEEC0"/>
<ellipse cx="964" cy="2488.5" rx="51" ry="50.5" fill="#FBEEC0"/>
<ellipse cx="1167" cy="2488.5" rx="51" ry="50.5" fill="#FBEEC0"/>
<circle cx="1065.5" cy="2488.5" r="50.5" fill="#FBEEC0"/>
<ellipse cx="50.5" cy="2589" rx="50.5" ry="51" fill="#FBEEC0"/>
<ellipse cx="253.5" cy="2589" rx="50.5" ry="51" fill="#FBEEC0"/>
<circle cx="152" cy="2589" r="51" fill="#FBEEC0"/>
<circle cx="355" cy="2589" r="51" fill="#FBEEC0"/>
<circle cx="558" cy="2589" r="51" fill="#FBEEC0"/>
<ellipse cx="456.5" cy="2589" rx="50.5" ry="51" fill="#FBEEC0"/>
<ellipse cx="659.5" cy="2590" rx="50.5" ry="51" fill="#FBEEC0"/>
<ellipse cx="862.5" cy="2590" rx="50.5" ry="51" fill="#FBEEC0"/>
<circle cx="761" cy="2590" r="51" fill="#FBEEC0"/>
<circle cx="964" cy="2590" r="51" fill="#FBEEC0"/>
<circle cx="1167" cy="2590" r="51" fill="#FBEEC0"/>
<ellipse cx="1065.5" cy="2590" rx="50.5" ry="51" fill="#FBEEC0"/>
<circle cx="50.5" cy="2690.5" r="50.5" fill="#FBEEC0"/>
<circle cx="253.5" cy="2690.5" r="50.5" fill="#FBEEC0"/>
<ellipse cx="152" cy="2690.5" rx="51" ry="50.5" fill="#FBEEC0"/>
<ellipse cx="355" cy="2690.5" rx="51" ry="50.5" fill="#FBEEC0"/>
<ellipse cx="558" cy="2690.5" rx="51" ry="50.5" fill="#FBEEC0"/>
<circle cx="456.5" cy="2690.5" r="50.5" fill="#FBEEC0"/>
<circle cx="659.5" cy="2691.5" r="50.5" fill="#FBEEC0"/>
<circle cx="862.5" cy="2691.5" r="50.5" fill="#FBEEC0"/>
<ellipse cx="761" cy="2691.5" rx="51" ry="50.5" fill="#FBEEC0"/>
<ellipse cx="964" cy="2691.5" rx="51" ry="50.5" fill="#FBEEC0"/>
<ellipse cx="1167" cy="2691.5" rx="51" ry="50.5" fill="#FBEEC0"/>
<circle cx="1065.5" cy="2691.5" r="50.5" fill="#FBEEC0"/>
<ellipse cx="50.5" cy="2792" rx="50.5" ry="51" fill="#FBEEC0"/>
<ellipse cx="253.5" cy="2792" rx="50.5" ry="51" fill="#FBEEC0"/>
<circle cx="152" cy="2792" r="51" fill="#FBEEC0"/>
<circle cx="355" cy="2792" r="51" fill="#FBEEC0"/>
<circle cx="558" cy="2792" r="51" fill="#FBEEC0"/>
<ellipse cx="456.5" cy="2792" rx="50.5" ry="51" fill="#FBEEC0"/>
<ellipse cx="659.5" cy="2793" rx="50.5" ry="51" fill="#FBEEC0"/>
<ellipse cx="862.5" cy="2793" rx="50.5" ry="51" fill="#FBEEC0"/>
<circle cx="761" cy="2793" r="51" fill="#FBEEC0"/>
<circle cx="964" cy="2793" r="51" fill="#FBEEC0"/>
<circle cx="1167" cy="2793" r="51" fill="#FBEEC0"/>
<ellipse cx="1065.5" cy="2793" rx="50.5" ry="51" fill="#FBEEC0"/>
<circle cx="50.5" cy="2893.5" r="50.5" fill="#FBEEC0"/>
<circle cx="253.5" cy="2893.5" r="50.5" fill="#FBEEC0"/>
<ellipse cx="152" cy="2893.5" rx="51" ry="50.5" fill="#FBEEC0"/>
<ellipse cx="355" cy="2893.5" rx="51" ry="50.5" fill="#FBEEC0"/>
<ellipse cx="558" cy="2893.5" rx="51" ry="50.5" fill="#FBEEC0"/>
<circle cx="456.5" cy="2893.5" r="50.5" fill="#FBEEC0"/>
<circle cx="659.5" cy="2894.5" r="50.5" fill="#FBEEC0"/>
<circle cx="862.5" cy="2894.5" r="50.5" fill="#FBEEC0"/>
<ellipse cx="761" cy="2894.5" rx="51" ry="50.5" fill="#FBEEC0"/>
<ellipse cx="964" cy="2894.5" rx="51" ry="50.5" fill="#FBEEC0"/>
<ellipse cx="1167" cy="2894.5" rx="51" ry="50.5" fill="#FBEEC0"/>
<circle cx="1065.5" cy="2894.5" r="50.5" fill="#FBEEC0"/>
</svg>
